<!-- Generated by IcoMoon.io -->
<svg version="1.1" xmlns="http://www.w3.org/2000/svg" width="76" height="32" viewBox="0 0 76 32">
<title>blog-icon</title>
<path fill="#fe3e57" d="M73.974 30.949c0-0.58 0.47-1.051 1.051-1.051s1.051 0.47 1.051 1.051c0 0.58-0.47 1.051-1.051 1.051v0c-0.58-0-1.050-0.471-1.051-1.051v-0zM65.697 30.949c0-0.58 0.47-1.051 1.051-1.051s1.051 0.47 1.051 1.051c0 0.58-0.47 1.051-1.051 1.051v0c-0.58-0-1.050-0.471-1.051-1.051v-0zM57.552 30.949c0-0.58 0.47-1.051 1.051-1.051s1.051 0.47 1.051 1.051c0 0.58-0.47 1.051-1.051 1.051v0c-0.58-0-1.050-0.471-1.051-1.051v-0zM49.274 30.949c0-0.58 0.47-1.051 1.051-1.051s1.051 0.47 1.051 1.051c0 0.58-0.47 1.051-1.051 1.051v0c-0.58-0-1.050-0.471-1.051-1.051v-0zM41.123 30.949c0-0.001 0-0.002 0-0.003 0-0.582 0.472-1.054 1.054-1.054s1.054 0.472 1.054 1.054c0 0.582-0.472 1.054-1.054 1.054-0.001 0-0.002 0-0.003 0h0c-0.58-0-1.050-0.471-1.051-1.051v-0zM32.845 30.949c0-0.001 0-0.002 0-0.003 0-0.582 0.472-1.054 1.054-1.054s1.054 0.472 1.054 1.054c0 0.582-0.472 1.054-1.054 1.054-0.001 0-0.002 0-0.003 0h0c-0.58-0-1.050-0.471-1.051-1.051v-0zM24.7 30.949c0-0.58 0.47-1.051 1.051-1.051s1.051 0.47 1.051 1.051c0 0.58-0.47 1.051-1.051 1.051v0c-0.58-0-1.050-0.471-1.051-1.051v-0zM16.423 30.949c0-0.58 0.47-1.051 1.051-1.051s1.051 0.47 1.051 1.051c0 0.58-0.47 1.051-1.051 1.051v0c-0.58-0-1.050-0.471-1.051-1.051v-0zM8.278 30.949c0-0.58 0.47-1.051 1.051-1.051s1.051 0.47 1.051 1.051c0 0.58-0.47 1.051-1.051 1.051v0c-0.58-0-1.050-0.471-1.051-1.051v-0zM0 30.949c0-0.58 0.47-1.051 1.051-1.051s1.051 0.47 1.051 1.051c0 0.58-0.47 1.051-1.051 1.051v0c-0.58-0-1.050-0.471-1.051-1.051v-0zM73.974 20.981c0-0.58 0.47-1.051 1.051-1.051s1.051 0.47 1.051 1.051c0 0.58-0.47 1.051-1.051 1.051v0c-0.001 0-0.003 0-0.004 0-0.578 0-1.046-0.468-1.046-1.046 0-0.002 0-0.003 0-0.004v0zM65.697 20.981c0-0.58 0.47-1.051 1.051-1.051s1.051 0.47 1.051 1.051c0 0.58-0.47 1.051-1.051 1.051v0c-0.001 0-0.003 0-0.004 0-0.578 0-1.046-0.468-1.046-1.046 0-0.002 0-0.003 0-0.004v0zM57.552 20.981c0-0.58 0.47-1.051 1.051-1.051s1.051 0.47 1.051 1.051c0 0.58-0.47 1.051-1.051 1.051v0c-0.001 0-0.003 0-0.004 0-0.578 0-1.046-0.468-1.046-1.046 0-0.002 0-0.003 0-0.004v0zM49.274 20.981c0-0.58 0.47-1.051 1.051-1.051s1.051 0.47 1.051 1.051c0 0.58-0.47 1.051-1.051 1.051v0c-0.001 0-0.003 0-0.004 0-0.578 0-1.046-0.468-1.046-1.046 0-0.002 0-0.003 0-0.004v0zM41.123 20.981c0-0.001 0-0.002 0-0.003 0-0.582 0.472-1.054 1.054-1.054s1.054 0.472 1.054 1.054c0 0.582-0.472 1.054-1.054 1.054-0.001 0-0.002 0-0.003 0h0c-0.001 0-0.003 0-0.004 0-0.578 0-1.046-0.468-1.046-1.046 0-0.002 0-0.003 0-0.004v0zM32.845 20.981c0-0.001 0-0.002 0-0.003 0-0.582 0.472-1.054 1.054-1.054s1.054 0.472 1.054 1.054c0 0.582-0.472 1.054-1.054 1.054-0.001 0-0.002 0-0.003 0h0c-0.001 0-0.003 0-0.004 0-0.578 0-1.046-0.468-1.046-1.046 0-0.002 0-0.003 0-0.004v0zM24.7 20.981c0-0.58 0.47-1.051 1.051-1.051s1.051 0.47 1.051 1.051c0 0.58-0.47 1.051-1.051 1.051v0c-0.001 0-0.003 0-0.004 0-0.578 0-1.046-0.468-1.046-1.046 0-0.002 0-0.003 0-0.004v0zM16.423 20.981c0-0.58 0.47-1.051 1.051-1.051s1.051 0.47 1.051 1.051c0 0.58-0.47 1.051-1.051 1.051v0c-0.001 0-0.003 0-0.004 0-0.578 0-1.046-0.468-1.046-1.046 0-0.002 0-0.003 0-0.004v0zM8.278 20.981c0-0.58 0.47-1.051 1.051-1.051s1.051 0.47 1.051 1.051c0 0.58-0.47 1.051-1.051 1.051v0c-0.001 0-0.003 0-0.004 0-0.578 0-1.046-0.468-1.046-1.046 0-0.002 0-0.003 0-0.004v0zM0 20.981c0-0.58 0.47-1.051 1.051-1.051s1.051 0.47 1.051 1.051c0 0.58-0.47 1.051-1.051 1.051v0c-0.001 0-0.003 0-0.004 0-0.578 0-1.046-0.468-1.046-1.046 0-0.002 0-0.003 0-0.004v0zM73.974 11.019c0-0.002-0-0.004-0-0.006 0-0.58 0.47-1.051 1.051-1.051s1.051 0.47 1.051 1.051c0 0.58-0.47 1.051-1.051 1.051v0c-0.578-0-1.047-0.467-1.051-1.044v-0zM65.697 11.019c0-0.002-0-0.004-0-0.006 0-0.58 0.47-1.051 1.051-1.051s1.051 0.47 1.051 1.051c0 0.58-0.47 1.051-1.051 1.051v0c-0.578-0-1.047-0.467-1.051-1.044v-0zM57.552 11.019c0-0.002-0-0.004-0-0.006 0-0.58 0.47-1.051 1.051-1.051s1.051 0.47 1.051 1.051c0 0.58-0.47 1.051-1.051 1.051v0c-0.578-0-1.047-0.467-1.051-1.044v-0zM49.274 11.019c0-0.002-0-0.004-0-0.006 0-0.58 0.47-1.051 1.051-1.051s1.051 0.47 1.051 1.051c0 0.58-0.47 1.051-1.051 1.051v0c-0.578-0-1.047-0.467-1.051-1.044v-0zM41.123 11.019c-0-0.003-0-0.006-0-0.009 0-0.582 0.472-1.054 1.054-1.054s1.054 0.472 1.054 1.054c0 0.582-0.472 1.054-1.054 1.054-0.001 0-0.002 0-0.003 0h0c-0.578-0-1.047-0.467-1.051-1.044v-0zM32.845 11.019c-0-0.003-0-0.006-0-0.009 0-0.582 0.472-1.054 1.054-1.054s1.054 0.472 1.054 1.054c0 0.582-0.472 1.054-1.054 1.054-0.001 0-0.002 0-0.003 0h0c-0.578-0-1.047-0.467-1.051-1.044v-0zM24.7 11.019c0-0.002-0-0.004-0-0.006 0-0.58 0.47-1.051 1.051-1.051s1.051 0.47 1.051 1.051c0 0.58-0.47 1.051-1.051 1.051v0c-0.578-0-1.047-0.467-1.051-1.044v-0zM16.423 11.019c0-0.002-0-0.004-0-0.006 0-0.58 0.47-1.051 1.051-1.051s1.051 0.47 1.051 1.051c0 0.58-0.47 1.051-1.051 1.051v0c-0.578-0-1.047-0.467-1.051-1.044v-0zM8.278 11.019c0-0.002-0-0.004-0-0.006 0-0.58 0.47-1.051 1.051-1.051s1.051 0.47 1.051 1.051c0 0.58-0.47 1.051-1.051 1.051v0c-0.578-0-1.047-0.467-1.051-1.044v-0zM0 11.019c0-0.002-0-0.004-0-0.006 0-0.58 0.47-1.051 1.051-1.051s1.051 0.47 1.051 1.051c0 0.58-0.47 1.051-1.051 1.051v0c-0.578-0-1.047-0.467-1.051-1.044v-0zM73.974 1.051c0-0.58 0.47-1.051 1.051-1.051s1.051 0.47 1.051 1.051c0 0.58-0.47 1.051-1.051 1.051v0c-0.58-0-1.050-0.47-1.051-1.051v-0zM65.697 1.051c0-0.58 0.47-1.051 1.051-1.051s1.051 0.47 1.051 1.051c0 0.58-0.47 1.051-1.051 1.051v0c-0.58-0-1.050-0.47-1.051-1.051v-0zM57.552 1.051c0-0.58 0.47-1.051 1.051-1.051s1.051 0.47 1.051 1.051c0 0.58-0.47 1.051-1.051 1.051v0c-0.58-0-1.050-0.47-1.051-1.051v-0zM49.274 1.051c0-0.58 0.47-1.051 1.051-1.051s1.051 0.47 1.051 1.051c0 0.58-0.47 1.051-1.051 1.051v0c-0.58-0-1.050-0.47-1.051-1.051v-0zM41.123 1.051c0-0.001 0-0.002 0-0.003 0-0.582 0.472-1.054 1.054-1.054s1.054 0.472 1.054 1.054c0 0.582-0.472 1.054-1.054 1.054-0.001 0-0.002 0-0.003 0h0c-0.58-0-1.050-0.47-1.051-1.051v-0zM32.845 1.051c0-0.001 0-0.002 0-0.003 0-0.582 0.472-1.054 1.054-1.054s1.054 0.472 1.054 1.054c0 0.582-0.472 1.054-1.054 1.054-0.001 0-0.002 0-0.003 0h0c-0.58-0-1.050-0.47-1.051-1.051v-0zM24.7 1.051c0-0.58 0.47-1.051 1.051-1.051s1.051 0.47 1.051 1.051c0 0.58-0.47 1.051-1.051 1.051v0c-0.58-0-1.050-0.47-1.051-1.051v-0zM16.423 1.051c0-0.58 0.47-1.051 1.051-1.051s1.051 0.47 1.051 1.051c0 0.58-0.47 1.051-1.051 1.051v0c-0.58-0-1.050-0.47-1.051-1.051v-0zM8.278 1.051c0-0.58 0.47-1.051 1.051-1.051s1.051 0.47 1.051 1.051c0 0.58-0.47 1.051-1.051 1.051v0c-0.58-0-1.050-0.47-1.051-1.051v-0zM0 1.051c0-0.58 0.47-1.051 1.051-1.051s1.051 0.47 1.051 1.051c0 0.58-0.47 1.051-1.051 1.051v0c-0.58-0-1.050-0.47-1.051-1.051v-0z"></path>
</svg>
