<!-- Generated by IcoMoon.io -->
<svg version="1.1" xmlns="http://www.w3.org/2000/svg" width="141" height="32" viewBox="0 0 141 32">
<title>blog-bg</title>
<path fill="#fe3e57" d="M138.19 26.797c-1.126 0-2.038 0.912-2.038 2.038s0.912 2.038 2.038 2.038c1.126 0 2.038-0.912 2.038-2.038v0c0-1.126-0.912-2.038-2.038-2.038v0zM138.19 30.456c-0.896 0-1.622-0.726-1.622-1.622s0.726-1.622 1.622-1.622c0.896 0 1.622 0.726 1.622 1.622 0 0 0 0.001 0 0.001v-0c0 0 0 0 0 0 0 0.895-0.726 1.621-1.621 1.621-0 0-0.001 0-0.001 0h0zM138.191 28.348c-0 0-0.001 0-0.001 0-0.268 0-0.486 0.218-0.486 0.486s0.218 0.486 0.486 0.486c0.268 0 0.485-0.216 0.486-0.484v-0c0-0 0-0.001 0-0.001 0-0.268-0.217-0.486-0.485-0.487h-0z"></path>
<path fill="#34c3ff" d="M7.059 2.495c-0.103 0-0.186 0.084-0.186 0.187s0.084 0.187 0.187 0.187 0.187-0.084 0.187-0.187c0-0 0-0 0-0v0c-0-0.103-0.084-0.186-0.187-0.186-0 0-0 0-0.001 0h0zM5.81 2.495c-0.103 0-0.186 0.084-0.186 0.187s0.084 0.187 0.187 0.187 0.187-0.084 0.187-0.187c0-0 0-0 0-0v0c-0-0.103-0.084-0.186-0.187-0.186-0 0-0 0-0.001 0h0zM5.81 1.247c-0.103 0-0.187 0.084-0.187 0.187s0.084 0.187 0.187 0.187c0.103 0 0.187-0.084 0.187-0.187v0c-0-0.103-0.084-0.187-0.188-0.187v0zM4.56 1.247v0c-0.103 0-0.187 0.084-0.187 0.187s0.084 0.187 0.187 0.187v0c0.103-0 0.187-0.084 0.187-0.187s-0.084-0.187-0.187-0.187c-0 0-0 0-0 0v0zM6.434 3.118c-0.103 0-0.186 0.084-0.186 0.187s0.084 0.187 0.187 0.187c0.103 0 0.187-0.083 0.187-0.186v-0c0-0 0-0 0-0 0-0.103-0.084-0.187-0.187-0.187-0 0-0 0-0 0v0zM7.684 3.118c-0.103 0-0.186 0.084-0.186 0.187s0.084 0.187 0.187 0.187c0.103 0 0.187-0.083 0.187-0.186v-0c0-0 0-0 0-0 0-0.103-0.084-0.187-0.187-0.187-0 0-0 0-0.001 0h0zM6.435 1.871c-0.103 0-0.187 0.084-0.187 0.187s0.084 0.187 0.187 0.187c0.103 0 0.187-0.084 0.187-0.187v0c-0-0.103-0.084-0.187-0.187-0.187v0zM5.185 1.871c-0.103 0-0.187 0.084-0.187 0.187s0.084 0.187 0.187 0.187c0.103 0 0.187-0.084 0.187-0.187v0c-0-0.103-0.084-0.187-0.188-0.187-0 0-0 0-0 0v0zM8.309 4.989c-0.103 0-0.187 0.084-0.187 0.187s0.084 0.187 0.187 0.187c0.103 0 0.187-0.084 0.187-0.187v0c-0-0.103-0.084-0.187-0.188-0.187-0 0-0 0-0 0v0zM7.059 4.989c-0.103 0-0.187 0.084-0.187 0.187s0.084 0.187 0.187 0.187c0.103 0 0.187-0.084 0.187-0.187v0c-0-0.103-0.084-0.187-0.188-0.187-0 0-0 0-0 0v0zM5.81 4.989c-0.103 0-0.187 0.084-0.187 0.187s0.084 0.187 0.187 0.187c0.103 0 0.187-0.084 0.187-0.187v0c-0-0.103-0.084-0.187-0.188-0.187-0 0-0 0-0 0v0zM8.309 3.742c-0.103 0-0.186 0.084-0.186 0.187s0.084 0.187 0.187 0.187c0.103 0 0.187-0.083 0.187-0.186v-0c-0-0.103-0.084-0.187-0.188-0.187-0 0-0 0-0 0v0zM7.059 3.742c-0.103 0-0.186 0.084-0.186 0.187s0.084 0.187 0.187 0.187c0.103 0 0.187-0.083 0.187-0.186v-0c-0-0.103-0.084-0.187-0.188-0.187-0 0-0 0-0 0v0zM5.81 3.742c-0.103 0-0.186 0.084-0.186 0.187s0.084 0.187 0.187 0.187c0.103 0 0.187-0.083 0.187-0.186v-0c-0-0.103-0.084-0.187-0.188-0.187-0 0-0 0-0 0v0zM4.561 3.742v0c-0.103 0-0.187 0.084-0.187 0.187s0.084 0.187 0.187 0.187v0c0.103-0 0.187-0.084 0.187-0.187s-0.084-0.187-0.187-0.187c-0 0-0 0-0 0v0zM6.435 5.613c-0.103 0-0.186 0.084-0.186 0.187s0.084 0.187 0.187 0.187 0.187-0.084 0.187-0.187c0-0 0-0 0-0v0c-0-0.103-0.084-0.186-0.187-0.186-0 0-0 0-0.001 0h0zM7.684 5.613c-0.103 0-0.186 0.084-0.186 0.187s0.084 0.187 0.187 0.187 0.187-0.084 0.187-0.187c0-0 0-0 0-0v0c-0-0.103-0.084-0.186-0.187-0.186-0 0-0.001 0-0.001 0h0zM6.435 4.366c-0.103 0-0.187 0.084-0.187 0.187s0.084 0.187 0.187 0.187c0.103 0 0.187-0.084 0.187-0.187v0c-0-0.103-0.084-0.187-0.187-0.187v0zM7.871 4.553c0-0 0-0 0-0 0-0.104-0.084-0.187-0.187-0.187s-0.187 0.084-0.187 0.187c0 0.104 0.084 0.187 0.187 0.187v0c0.103-0 0.187-0.084 0.187-0.187v0zM8.933 4.366c-0.103 0-0.187 0.084-0.187 0.187s0.084 0.187 0.187 0.187c0.103 0 0.187-0.084 0.187-0.187v0c-0-0.103-0.084-0.187-0.188-0.187-0 0-0 0-0 0v0zM5.185 4.366c-0.103 0-0.187 0.084-0.187 0.187s0.084 0.187 0.187 0.187c0.103 0 0.187-0.084 0.187-0.187v0c-0-0.103-0.084-0.187-0.188-0.187-0 0-0 0-0 0v0zM5.81 7.484c-0.103 0-0.187 0.084-0.187 0.187s0.084 0.187 0.187 0.187c0.103 0 0.187-0.084 0.187-0.187v0c-0-0.103-0.084-0.187-0.187-0.187v0zM7.059 6.237c-0.103 0-0.186 0.084-0.186 0.187s0.084 0.187 0.187 0.187 0.187-0.084 0.187-0.187c0-0 0-0 0-0v0c-0-0.103-0.084-0.186-0.187-0.186-0 0-0 0-0.001 0h0zM5.81 6.237c-0.103 0-0.186 0.084-0.186 0.187s0.084 0.187 0.187 0.187 0.187-0.084 0.187-0.187c0-0 0-0 0-0v0c-0-0.103-0.084-0.186-0.187-0.186-0 0-0 0-0.001 0h0zM4.56 6.237v0c-0.103 0-0.187 0.084-0.187 0.187s0.084 0.187 0.187 0.187v0c0.103-0 0.187-0.084 0.187-0.187s-0.084-0.187-0.187-0.187c0 0-0 0-0 0v0zM6.434 6.861c-0.103 0-0.186 0.084-0.186 0.187s0.084 0.187 0.187 0.187c0.103 0 0.187-0.083 0.187-0.186v-0c0-0 0-0 0-0 0-0.103-0.084-0.187-0.187-0.187 0 0 0 0 0 0v0zM5.185 6.861c-0.103 0-0.186 0.084-0.186 0.187s0.084 0.187 0.187 0.187c0.103 0 0.187-0.083 0.187-0.186v-0c0-0 0-0 0-0 0-0.103-0.084-0.187-0.187-0.187-0 0-0 0-0 0h0zM4.561 8.731v0c-0.103 0-0.187 0.084-0.187 0.187s0.084 0.187 0.187 0.187v0c0.103-0 0.187-0.084 0.187-0.187s-0.084-0.187-0.187-0.187c-0 0-0 0-0 0v0zM4.561 0.374c0.103-0 0.186-0.084 0.186-0.187s-0.084-0.187-0.187-0.187-0.187 0.084-0.187 0.187c0 0 0 0 0 0v-0c0 0.103 0.084 0.186 0.187 0.186 0 0 0 0 0 0v0zM3.936 0.624c-0.103 0-0.186 0.084-0.186 0.187s0.084 0.187 0.187 0.187c0.103 0 0.187-0.083 0.187-0.186v-0c-0-0.104-0.084-0.187-0.188-0.187-0 0-0.001 0-0.001 0h0zM5.186 0.997c0.103-0 0.186-0.084 0.186-0.187s-0.084-0.187-0.187-0.187-0.187 0.084-0.187 0.187c0 0 0 0 0 0v-0c0 0.103 0.084 0.186 0.187 0.186v0zM4.561 2.869c0.103-0 0.186-0.084 0.186-0.187s-0.084-0.187-0.187-0.187c-0.103 0-0.187 0.083-0.187 0.186v0c0 0.103 0.083 0.187 0.186 0.187h0zM3.937 3.118c-0.103 0-0.186 0.084-0.186 0.187s0.084 0.187 0.187 0.187c0.103 0 0.187-0.083 0.187-0.186v-0c0-0 0-0 0-0 0-0.103-0.084-0.187-0.187-0.187-0.001 0-0.001 0-0.002 0h0zM5.186 3.492c0.103-0 0.186-0.084 0.186-0.187s-0.084-0.187-0.187-0.187-0.187 0.084-0.187 0.187c0 0 0 0 0 0v-0c0 0.103 0.083 0.186 0.186 0.186h0zM3.937 1.871c-0.103 0-0.187 0.084-0.187 0.187s0.084 0.187 0.187 0.187 0.187-0.084 0.187-0.187v0c-0-0.103-0.084-0.187-0.188-0.187-0.001 0-0.001 0-0.001 0h0zM2.76 1.885c-0.021-0.009-0.046-0.015-0.072-0.015-0 0-0 0-0 0h0c-0.077 0-0.143 0.047-0.172 0.113l-0 0.001c-0.009 0.022-0.015 0.047-0.015 0.073 0 0.103 0.084 0.187 0.187 0.187 0 0 0 0 0 0v0c0.103 0 0.187-0.084 0.187-0.187v0c-0-0.077-0.048-0.144-0.115-0.172l-0.001-0zM4.562 5.364c0.103-0 0.187-0.084 0.187-0.187s-0.084-0.187-0.187-0.187-0.187 0.084-0.187 0.187c0 0 0 0 0 0v0c0 0.103 0.083 0.186 0.186 0.187h0zM3.937 5.613c-0.103 0-0.186 0.084-0.186 0.187s0.084 0.187 0.187 0.187 0.187-0.084 0.187-0.187c0-0 0-0 0-0v0c-0-0.103-0.084-0.186-0.187-0.186-0.001 0-0.002 0-0.003 0h0zM5.187 5.987c0.103-0 0.186-0.084 0.186-0.187s-0.084-0.187-0.187-0.187c-0.103 0-0.187 0.083-0.187 0.186v0c0 0.103 0.083 0.186 0.186 0.187h0zM3.937 4.366c-0.103 0-0.187 0.084-0.187 0.187s0.084 0.187 0.187 0.187 0.187-0.084 0.187-0.187v0c-0-0.104-0.084-0.187-0.188-0.187-0.001 0-0.001 0-0.002 0h0zM2.761 4.38c-0.021-0.009-0.046-0.015-0.072-0.015-0 0-0 0-0 0h0c-0.103 0-0.187 0.084-0.187 0.187s0.084 0.187 0.187 0.187v0c0 0 0 0 0 0 0.026 0 0.051-0.005 0.074-0.015l-0.001 0c0.067-0.029 0.114-0.095 0.114-0.172s-0.047-0.144-0.114-0.173l-0.001-0zM4.562 7.859c0.103-0 0.187-0.084 0.187-0.187s-0.084-0.187-0.187-0.187-0.187 0.084-0.187 0.187c0 0 0 0 0 0v0c0 0.103 0.083 0.186 0.186 0.187h0zM3.938 8.108c-0.103 0-0.187 0.084-0.187 0.187s0.084 0.187 0.187 0.187 0.187-0.084 0.187-0.187v0c-0-0.104-0.084-0.187-0.188-0.187-0.001 0-0.001 0-0.002 0h0zM5.187 8.108c-0.103 0-0.187 0.084-0.187 0.187s0.084 0.187 0.187 0.187c0.103 0 0.187-0.084 0.187-0.187v0c-0-0.104-0.084-0.187-0.188-0.187-0.001 0-0.001 0-0.002 0h0zM3.938 6.861c-0.103 0-0.186 0.084-0.186 0.187s0.084 0.187 0.187 0.187c0.103 0 0.187-0.083 0.187-0.186v-0c0-0 0-0 0-0 0-0.103-0.084-0.187-0.187-0.187-0.001 0-0.002 0-0.003 0h0zM2.761 6.875c-0.021-0.009-0.046-0.015-0.072-0.015-0 0-0 0-0 0h0c-0 0-0 0-0 0-0.077 0-0.143 0.047-0.172 0.113l-0 0.001c-0.009 0.021-0.015 0.046-0.015 0.072 0 0 0 0.001 0 0.001v-0c0 0 0 0 0 0 0 0.103 0.083 0.186 0.186 0.186 0 0 0.001 0 0.001 0h-0c0.102-0.001 0.185-0.084 0.185-0.187 0-0.077-0.047-0.143-0.113-0.172l-0.001-0zM3.313 2.495v0c-0.103 0-0.187 0.084-0.187 0.187s0.084 0.187 0.187 0.187v0c0.103-0.001 0.186-0.084 0.186-0.187s-0.084-0.187-0.187-0.187c-0 0-0.001 0-0.001 0h0zM2.064 2.495c-0.103 0-0.186 0.084-0.186 0.187s0.084 0.187 0.187 0.187 0.187-0.084 0.187-0.187c0-0 0-0 0-0v0c-0-0.103-0.084-0.186-0.187-0.186-0.001 0-0.002 0-0.003 0h0zM3.313 1.247v0c-0.103 0-0.187 0.084-0.187 0.187s0.084 0.187 0.187 0.187v0c0.077-0 0.143-0.047 0.172-0.113l0-0.001c0.009-0.022 0.015-0.047 0.015-0.073 0-0.103-0.084-0.187-0.187-0.187-0.001 0-0.001 0-0.002 0h0zM1.439 3.118c-0.103 0-0.186 0.084-0.186 0.187s0.084 0.187 0.187 0.187c0.103 0 0.187-0.083 0.187-0.186v-0c0-0 0-0 0-0 0-0.103-0.084-0.187-0.187-0.187-0.001 0-0.002 0-0.003 0h0zM2.688 3.118c-0.103 0-0.186 0.084-0.186 0.187s0.084 0.187 0.187 0.187c0.103 0 0.187-0.083 0.187-0.186v-0c0-0 0-0 0-0 0-0.103-0.084-0.187-0.187-0.187-0.001 0-0.002 0-0.003 0h0zM3.313 4.989v0c-0.103 0-0.187 0.084-0.187 0.187s0.084 0.187 0.187 0.187v0c0.103-0.001 0.186-0.084 0.186-0.187s-0.084-0.187-0.187-0.187c-0 0-0.001 0-0.001 0h0zM2.063 4.989c-0.103 0-0.187 0.084-0.187 0.187s0.084 0.187 0.187 0.187 0.187-0.084 0.187-0.187v0c-0-0.103-0.084-0.187-0.188-0.187-0.001 0-0.001 0-0.002 0h0zM0.814 4.989c-0.103 0-0.187 0.084-0.187 0.187s0.084 0.187 0.187 0.187c0.103 0 0.187-0.084 0.187-0.187v0c-0-0.104-0.084-0.187-0.188-0.187-0.001 0-0.001 0-0.002 0h0zM3.313 3.742v0c-0 0-0 0-0 0-0.103 0-0.187 0.084-0.187 0.187 0 0 0 0 0 0v0c0 0.026 0.005 0.051 0.015 0.074l-0-0.001c0.029 0.067 0.095 0.114 0.172 0.114 0 0 0 0 0 0h-0c0.103-0.001 0.186-0.084 0.186-0.187s-0.084-0.187-0.187-0.187c-0 0-0.001 0-0.001 0h0zM2.063 3.742c-0.103 0-0.186 0.084-0.186 0.187s0.084 0.187 0.187 0.187c0.103 0 0.187-0.083 0.187-0.186v-0c-0-0.103-0.084-0.187-0.188-0.187-0.001 0-0.001 0-0.002 0h0zM0.814 3.742c-0.103 0-0.186 0.084-0.186 0.187s0.084 0.187 0.187 0.187c0.103 0 0.187-0.083 0.187-0.186v-0c-0-0.103-0.084-0.187-0.188-0.187-0.001 0-0.001 0-0.002 0h0zM1.438 5.613c-0.103 0-0.186 0.084-0.186 0.187s0.084 0.187 0.187 0.187 0.187-0.084 0.187-0.187c0-0 0-0 0-0v0c-0-0.103-0.084-0.186-0.187-0.186-0.001 0-0.002 0-0.003 0h0zM2.688 5.613c-0.103 0-0.186 0.084-0.186 0.187s0.084 0.187 0.187 0.187 0.187-0.084 0.187-0.187c0-0 0-0 0-0v0c-0-0.103-0.084-0.186-0.187-0.186-0.001 0-0.002 0-0.002 0h0zM1.438 4.366c-0.103 0-0.187 0.084-0.187 0.187s0.084 0.187 0.187 0.187 0.187-0.084 0.187-0.187v0c-0-0.103-0.084-0.187-0.188-0.187-0.001 0-0.001 0-0.002 0h0zM0.189 4.366c-0.103 0-0.187 0.084-0.187 0.187s0.084 0.187 0.187 0.187 0.187-0.084 0.187-0.187v0c-0-0.103-0.084-0.187-0.188-0.187-0.001 0-0.001 0-0.002 0h0zM3.313 7.484v0c-0.103 0-0.187 0.084-0.187 0.187s0.084 0.187 0.187 0.187v0c0.077-0 0.143-0.047 0.172-0.113l0-0.001c0.009-0.021 0.015-0.047 0.015-0.073 0-0.103-0.084-0.187-0.187-0.187-0.001 0-0.001 0-0.002 0h0zM3.313 6.237v0c-0 0-0 0-0 0-0.077 0-0.143 0.046-0.172 0.112l-0 0.001c-0.009 0.021-0.015 0.047-0.015 0.073v0c0 0 0 0.001 0 0.001 0 0.026 0.005 0.051 0.015 0.073l-0-0.001c0.029 0.068 0.095 0.114 0.172 0.114 0 0 0 0 0.001 0h-0c0 0 0 0 0 0 0.077 0 0.143-0.047 0.172-0.113l0-0.001c0.009-0.021 0.015-0.046 0.015-0.072 0-0 0-0.001 0-0.001v0c0 0 0 0 0-0 0-0.103-0.083-0.186-0.186-0.186-0.001 0-0.002 0-0.003 0h0zM2.063 6.237c-0.103 0-0.186 0.084-0.186 0.187s0.084 0.187 0.187 0.187 0.187-0.084 0.187-0.187c0-0 0-0 0-0v0c-0-0.103-0.084-0.186-0.187-0.186-0.001 0-0.002 0-0.002 0h0z"></path>
</svg>
