<!-- Generated by IcoMoon.io -->
<svg version="1.1" xmlns="http://www.w3.org/2000/svg" width="74" height="32" viewBox="0 0 74 32">
<title>categories-bg</title>
<path fill="#34c3ff" d="M69.73 25.807l-0.14-0.146c-0.017-0.018-0.017-0.047 0-0.064s0.045-0.018 0.062 0l0.14 0.146 0.14-0.146c0.017-0.018 0.045-0.018 0.062 0v0c0.017 0.018 0.017 0.047 0 0.064l-0.14 0.146 0.14 0.146c0.017 0.018 0.017 0.047 0 0.064v0c-0.017 0.018-0.045 0.018-0.062 0l-0.14-0.146-0.14 0.146c-0.017 0.018-0.045 0.018-0.062 0v0c-0.017-0.018-0.017-0.047 0-0.064l0.14-0.146z"></path>
<path fill="#5800e4" d="M69.99 16.437l0.209 0.209-0.209 0.209-0.209-0.209 0.209-0.209z"></path>
<path fill="#ffb534" d="M63.66 13.592l-0.14-0.146c-0.017-0.018-0.017-0.047 0-0.064s0.045-0.018 0.062 0l0.14 0.146 0.14-0.146c0.017-0.018 0.045-0.018 0.062 0v0c0.017 0.018 0.017 0.047 0 0.064l-0.14 0.146 0.14 0.146c0.017 0.018 0.017 0.047 0 0.064v0c-0.017 0.018-0.045 0.018-0.062 0l-0.14-0.146-0.14 0.146c-0.017 0.018-0.045 0.018-0.062 0v0c-0.017-0.018-0.017-0.047 0-0.064l0.14-0.146z"></path>
<path fill="#fe3e57" d="M68.832 2.988l-0.14-0.146c-0.017-0.018-0.017-0.047 0-0.064s0.045-0.018 0.062 0l0.14 0.146 0.14-0.146c0.017-0.018 0.045-0.018 0.062 0v0c0.017 0.018 0.017 0.047 0 0.064l-0.14 0.146 0.14 0.146c0.017 0.018 0.017 0.047 0 0.064v0c-0.017 0.018-0.045 0.018-0.062 0l-0.14-0.146-0.14 0.146c-0.017 0.018-0.045 0.018-0.062 0v0c-0.017-0.018-0.017-0.047 0-0.064l0.14-0.146z"></path>
<path fill="#34c3ff" d="M3.633 5.37l0.107 0.112c0.013 0.014 0.013 0.036 0 0.050s-0.034 0.014-0.047 0l-0.107-0.112-0.107 0.112c-0.013 0.014-0.034 0.014-0.047 0v0c-0.013-0.014-0.013-0.036 0-0.050l0.107-0.112-0.107-0.112c-0.013-0.014-0.013-0.036 0-0.050v0c0.013-0.014 0.034-0.014 0.047 0l0.107 0.112 0.107-0.112c0.013-0.014 0.034-0.014 0.047 0v0c0.013 0.014 0.013 0.036 0 0.050l-0.107 0.112z"></path>
<path fill="#5800e4" d="M3.433 12.583l-0.16-0.161 0.16-0.161 0.16 0.161-0.16 0.161z"></path>
<path fill="#ffb534" d="M8.22 14.183l0.107 0.112c0.013 0.014 0.013 0.036 0 0.050s-0.034 0.014-0.047 0l-0.107-0.112-0.107 0.112c-0.013 0.014-0.034 0.014-0.047 0v0c-0.013-0.014-0.013-0.036 0-0.050l0.107-0.112-0.107-0.112c-0.013-0.014-0.013-0.036 0-0.050v0c0.013-0.014 0.034-0.014 0.047 0l0.107 0.112 0.107-0.112c0.013-0.014 0.034-0.014 0.047 0v0c0.013 0.014 0.013 0.036 0 0.050l-0.107 0.112z"></path>
<path fill="#ffb534" d="M8.404 3.572l0.107 0.112c0.013 0.014 0.013 0.036 0 0.050s-0.034 0.014-0.047 0l-0.107-0.112-0.107 0.112c-0.013 0.014-0.034 0.014-0.047 0v0c-0.013-0.014-0.013-0.036 0-0.050l0.107-0.112-0.107-0.112c-0.013-0.014-0.013-0.036 0-0.050v0c0.013-0.014 0.034-0.014 0.047 0l0.107 0.112 0.107-0.112c0.013-0.014 0.034-0.014 0.047 0v0c0.013 0.014 0.013 0.036 0 0.050l-0.107 0.112z"></path>
<path fill="#fe3e57" d="M4.322 22.934l0.107 0.112c0.013 0.014 0.013 0.036 0 0.050s-0.034 0.014-0.047 0l-0.107-0.112-0.107 0.112c-0.013 0.014-0.034 0.014-0.047 0h-0c-0.013-0.014-0.013-0.036 0-0.050l0.107-0.112-0.107-0.112c-0.013-0.014-0.013-0.036 0-0.050h0c0.013-0.014 0.034-0.014 0.047 0l0.107 0.112 0.107-0.112c0.013-0.014 0.034-0.014 0.047 0v0c0.013 0.014 0.013 0.036 0 0.050l-0.107 0.112z"></path>
</svg>
