<!-- Generated by IcoMoon.io -->
<svg version="1.1" xmlns="http://www.w3.org/2000/svg" width="32" height="32" viewBox="0 0 32 32">
<title>info-left</title>
<path fill="#ffb534" d="M15.865 31.997c-0.099 0-0.198 0-0.296-0.003-0.084-0.001-0.152-0.069-0.152-0.154 0-0.002 0-0.003 0-0.005v0c0.002-0.085 0.071-0.153 0.157-0.153 0.001 0 0.002 0 0.002 0h-0c0.357 0.008 0.719 0 1.076-0.016 0.003-0 0.007-0 0.010-0 0.083 0 0.15 0.066 0.153 0.148v0c0 0.002 0 0.004 0 0.006 0 0.084-0.065 0.152-0.147 0.158l-0.001 0c-0.266 0.013-0.533 0.018-0.801 0.018zM14.487 31.939c-0.001 0-0.001 0-0.002 0-0.004 0-0.008-0.001-0.011-0.003l0 0c-0.363-0.032-0.729-0.077-1.089-0.132-0.075-0.012-0.133-0.077-0.133-0.155 0-0.086 0.070-0.157 0.157-0.157 0.008 0 0.017 0.001 0.025 0.002l-0.001-0c0.353 0.056 0.712 0.101 1.067 0.132 0.080 0.006 0.142 0.073 0.142 0.153 0 0.006-0 0.011-0.001 0.017l0-0.001c-0.008 0.080-0.074 0.142-0.154 0.143h-0zM17.74 31.886c-0.079-0-0.145-0.060-0.154-0.137l-0-0.001c-0.001-0.005-0.001-0.011-0.001-0.017 0-0.080 0.059-0.146 0.136-0.157l0.001-0c0.355-0.042 0.712-0.098 1.063-0.164 0.009-0.002 0.019-0.003 0.029-0.003 0.086 0 0.156 0.070 0.156 0.156 0 0.076-0.054 0.139-0.126 0.153l-0.001 0c-0.357 0.069-0.722 0.124-1.084 0.169h-0.018zM12.343 31.598c-0.002 0-0.004 0-0.006 0-0.010 0-0.020-0.001-0.030-0.003l0.001 0c-0.355-0.082-0.712-0.177-1.060-0.286-0.065-0.020-0.111-0.079-0.111-0.149 0-0.086 0.070-0.156 0.156-0.156 0.016 0 0.032 0.002 0.046 0.007l-0.001-0c0.341 0.106 0.691 0.198 1.039 0.28 0.069 0.017 0.12 0.078 0.12 0.151 0 0.086-0.069 0.155-0.155 0.155h-0zM19.872 31.479c-0.072-0.001-0.131-0.049-0.149-0.115l-0-0.001c-0.003-0.012-0.005-0.026-0.005-0.041 0-0.072 0.049-0.132 0.115-0.15l0.001-0c0.344-0.093 0.691-0.198 1.030-0.312 0.015-0.005 0.033-0.009 0.051-0.009 0.068 0 0.126 0.044 0.146 0.105l0 0.001c0.005 0.015 0.008 0.031 0.008 0.049 0 0.068-0.043 0.127-0.104 0.149l-0.001 0c-0.345 0.116-0.698 0.225-1.050 0.317-0.012 0.003-0.026 0.005-0.040 0.005h-0zM10.265 30.963c-0.001 0-0.002 0-0.003 0-0.019 0-0.037-0.004-0.054-0.011l0.001 0c-0.341-0.132-0.681-0.275-1.012-0.431-0.053-0.026-0.090-0.079-0.090-0.141 0-0.024 0.005-0.046 0.014-0.066l-0 0.001c0.024-0.054 0.078-0.091 0.14-0.091 0.024 0 0.047 0.005 0.067 0.015l-0.001-0c0.325 0.151 0.658 0.294 0.992 0.421 0.057 0.025 0.096 0.081 0.096 0.146 0 0.085-0.067 0.155-0.151 0.159h-0zM21.927 30.778c-0.086-0.001-0.155-0.071-0.155-0.157 0-0.064 0.039-0.12 0.094-0.144l0.001-0c0.329-0.14 0.657-0.291 0.976-0.452 0.020-0.011 0.045-0.017 0.070-0.017 0.060 0 0.112 0.035 0.137 0.085l0 0.001c0.011 0.020 0.017 0.045 0.017 0.070 0 0.060-0.034 0.113-0.085 0.138l-0.001 0c-0.326 0.167-0.661 0.32-0.996 0.463-0.018 0.008-0.039 0.013-0.061 0.013h-0zM8.294 30.040c-0.001 0-0.001 0-0.002 0-0.027 0-0.052-0.007-0.074-0.019l0.001 0c-0.319-0.177-0.636-0.368-0.943-0.566-0.043-0.029-0.071-0.077-0.071-0.132 0-0.031 0.009-0.061 0.025-0.085l-0 0.001c0.027-0.044 0.076-0.073 0.13-0.073 0.031 0 0.061 0.009 0.085 0.026l-0.001-0c0.3 0.196 0.611 0.383 0.924 0.555 0.048 0.028 0.081 0.079 0.081 0.138 0 0.028-0.007 0.054-0.020 0.077l0-0.001c-0.027 0.048-0.078 0.079-0.136 0.079-0 0-0.001 0-0.001 0h0zM23.865 29.794c-0.056-0-0.105-0.031-0.132-0.076l-0-0.001c-0.014-0.023-0.021-0.050-0.021-0.080 0-0.056 0.029-0.106 0.074-0.134l0.001-0c0.307-0.182 0.611-0.378 0.905-0.584 0.024-0.015 0.053-0.025 0.084-0.025 0.087 0 0.157 0.070 0.157 0.157 0 0.052-0.025 0.098-0.064 0.127l-0 0c-0.3 0.209-0.611 0.407-0.923 0.595-0.021 0.013-0.047 0.021-0.075 0.021-0.002 0-0.004-0-0.005-0h0zM6.468 28.856c-0.035-0-0.067-0.012-0.093-0.032l0 0c-0.292-0.22-0.58-0.453-0.856-0.692-0.033-0.029-0.054-0.071-0.054-0.119 0-0.039 0.014-0.075 0.038-0.102l-0 0c0.028-0.033 0.070-0.054 0.117-0.054 0.039 0 0.074 0.014 0.101 0.038l-0-0c0.27 0.234 0.553 0.463 0.839 0.679 0.038 0.029 0.062 0.074 0.062 0.125 0 0.087-0.070 0.157-0.156 0.157h-0zM25.651 28.553c-0 0-0 0-0 0-0.049 0-0.093-0.023-0.121-0.059l-0-0c-0.021-0.027-0.033-0.061-0.033-0.097 0-0.049 0.022-0.093 0.058-0.122l0-0c0.278-0.223 0.553-0.46 0.817-0.704 0.027-0.025 0.064-0.041 0.105-0.041 0.045 0 0.086 0.020 0.114 0.051l0 0c0.025 0.028 0.041 0.065 0.041 0.106 0 0.046-0.019 0.087-0.050 0.115l-0 0c-0.27 0.249-0.55 0.49-0.834 0.718-0.026 0.021-0.060 0.034-0.097 0.034-0 0-0.001 0-0.001 0h0zM4.822 27.427c-0 0-0 0-0 0-0.043 0-0.081-0.017-0.109-0.045v0c-0.259-0.258-0.513-0.529-0.753-0.803-0.024-0.028-0.038-0.064-0.038-0.104 0-0.047 0.020-0.088 0.052-0.117l0-0c0.027-0.024 0.063-0.039 0.103-0.039 0.046 0 0.088 0.020 0.116 0.053l0 0c0.236 0.27 0.484 0.534 0.739 0.788 0.028 0.029 0.045 0.068 0.045 0.111s-0.017 0.082-0.045 0.111l0-0c-0.028 0.029-0.067 0.047-0.111 0.047 0 0-0 0-0 0v0zM27.252 27.075c-0 0-0 0-0 0-0.041 0-0.079-0.016-0.107-0.043l0 0c-0.029-0.029-0.048-0.069-0.048-0.114 0-0.042 0.016-0.080 0.042-0.108l-0 0c0.246-0.261 0.487-0.533 0.714-0.811 0.029-0.035 0.071-0.056 0.119-0.056 0.038 0 0.072 0.014 0.099 0.036l-0-0c0.034 0.029 0.056 0.073 0.056 0.121 0 0.038-0.013 0.073-0.036 0.1l0-0c-0.232 0.283-0.477 0.561-0.728 0.827-0.028 0.030-0.068 0.048-0.112 0.048-0 0-0.001 0-0.001 0h0zM3.385 25.785c0 0 0 0 0 0-0.050 0-0.095-0.024-0.123-0.061l-0-0c-0.221-0.291-0.435-0.593-0.637-0.899-0.016-0.024-0.025-0.054-0.025-0.086 0-0.054 0.027-0.102 0.069-0.131l0.001-0c0.024-0.016 0.054-0.026 0.086-0.026 0.054 0 0.101 0.028 0.129 0.069l0 0.001c0.198 0.301 0.408 0.598 0.624 0.883 0.020 0.026 0.032 0.059 0.032 0.095 0 0.050-0.024 0.095-0.061 0.124l-0 0c-0.026 0.020-0.058 0.032-0.093 0.032-0 0-0.001 0-0.001 0h0zM28.636 25.388c-0.034-0-0.065-0.011-0.091-0.030l0 0c-0.039-0.029-0.064-0.075-0.064-0.128 0-0.034 0.011-0.066 0.029-0.091l-0 0c0.209-0.294 0.41-0.597 0.597-0.902 0.028-0.045 0.076-0.074 0.132-0.074 0.030 0 0.059 0.009 0.083 0.024l-0.001-0c0.044 0.029 0.073 0.078 0.073 0.134 0 0.030-0.008 0.059-0.023 0.083l0-0.001c-0.191 0.311-0.397 0.62-0.608 0.92-0.028 0.040-0.074 0.065-0.126 0.065-0 0-0.001 0-0.001 0h0zM2.187 23.96c-0 0-0 0-0 0-0.058 0-0.108-0.032-0.134-0.079l-0-0.001c-0.18-0.319-0.35-0.648-0.507-0.979-0.009-0.020-0.015-0.043-0.015-0.067 0-0.062 0.035-0.115 0.087-0.141l0.001-0c0.020-0.010 0.043-0.015 0.067-0.015 0.062 0 0.115 0.036 0.139 0.088l0 0.001c0.154 0.325 0.322 0.647 0.498 0.96 0.013 0.022 0.020 0.049 0.020 0.077 0 0.058-0.031 0.108-0.078 0.136l-0.001 0c-0.022 0.013-0.048 0.021-0.076 0.022h-0zM29.779 23.527c-0.026-0-0.051-0.007-0.073-0.018l0.001 0c-0.050-0.027-0.083-0.079-0.083-0.139 0-0.027 0.007-0.052 0.018-0.074l-0 0.001c0.167-0.32 0.324-0.648 0.468-0.977 0.025-0.055 0.079-0.093 0.142-0.093 0.023 0 0.044 0.005 0.064 0.014l-0.001-0c0.055 0.026 0.092 0.081 0.092 0.144 0 0.023-0.005 0.044-0.013 0.064l0-0.001c-0.146 0.335-0.307 0.671-0.478 0.997-0.027 0.049-0.078 0.082-0.137 0.082-0 0-0 0-0 0v0zM1.25 21.991c-0.065-0-0.121-0.041-0.144-0.098l-0-0.001c-0.134-0.341-0.258-0.691-0.368-1.041-0.005-0.014-0.007-0.031-0.007-0.047 0-0.069 0.045-0.128 0.107-0.149l0.001-0c0.014-0.005 0.030-0.007 0.047-0.007 0.069 0 0.128 0.045 0.148 0.108l0 0.001c0.108 0.344 0.23 0.688 0.361 1.021 0.007 0.017 0.011 0.037 0.011 0.058 0 0.066-0.040 0.122-0.097 0.145l-0.001 0c-0.017 0.007-0.036 0.011-0.057 0.011h-0zM30.655 21.522c-0.019-0-0.037-0.003-0.054-0.010l0.001 0c-0.060-0.023-0.103-0.080-0.103-0.147 0-0.019 0.003-0.037 0.010-0.054l-0 0.001c0.121-0.338 0.231-0.685 0.329-1.031 0.019-0.066 0.078-0.114 0.149-0.114 0.015 0 0.029 0.002 0.043 0.006l-0.001-0c0.065 0.020 0.112 0.080 0.112 0.15 0 0.015-0.002 0.030-0.006 0.044l0-0.001c-0.099 0.354-0.212 0.709-0.335 1.053-0.022 0.060-0.078 0.102-0.144 0.103h-0zM0.592 19.905c-0.073-0-0.134-0.051-0.151-0.118l-0-0.001c-0.086-0.356-0.16-0.72-0.222-1.083-0.001-0.008-0.002-0.017-0.002-0.026 0-0.077 0.055-0.141 0.128-0.154l0.001-0c0.008-0.001 0.017-0.002 0.026-0.002 0.077 0 0.141 0.056 0.153 0.129l0 0.001c0.060 0.356 0.132 0.714 0.217 1.062 0.003 0.011 0.004 0.024 0.004 0.037 0 0.073-0.050 0.134-0.117 0.152l-0.001 0c-0.011 0.003-0.023 0.004-0.035 0.004-0 0-0.001 0-0.001 0h0zM31.247 19.416c-0.011 0-0.022-0.001-0.033-0.003l0.001 0c-0.071-0.016-0.123-0.078-0.123-0.153 0-0.011 0.001-0.022 0.003-0.033l-0 0.001c0.073-0.353 0.135-0.712 0.184-1.068 0.010-0.077 0.075-0.135 0.153-0.135 0.008 0 0.015 0.001 0.023 0.002l-0.001-0c0.076 0.011 0.134 0.076 0.134 0.155 0 0.008-0.001 0.015-0.002 0.023l0-0.001c-0.049 0.363-0.113 0.73-0.187 1.089-0.015 0.071-0.077 0.124-0.151 0.124h-0zM0.227 17.748c-0.080-0-0.147-0.062-0.154-0.14l-0-0.001c-0.036-0.366-0.060-0.737-0.071-1.103-0-0.003-0-0.006-0-0.009 0-0.086 0.070-0.155 0.155-0.155s0.155 0.069 0.155 0.155v0c0.011 0.359 0.035 0.723 0.070 1.082 0.001 0.005 0.001 0.010 0.001 0.016 0 0.080-0.061 0.147-0.139 0.155l-0.001 0c-0.005 0.001-0.010 0.001-0.015 0.001zM31.543 17.249h-0.011c-0.081-0.006-0.145-0.074-0.145-0.156 0-0.004 0-0.008 0-0.011l-0 0c0.024-0.358 0.037-0.723 0.037-1.084 0-0.329-0.010-0.663-0.031-0.992-0-0.003-0-0.007-0-0.010 0-0.082 0.064-0.15 0.145-0.156l0-0c0.003-0 0.007-0 0.011-0 0.082 0 0.15 0.065 0.154 0.147v0c0.021 0.335 0.031 0.676 0.031 1.011 0 0.367-0.012 0.739-0.037 1.105-0.005 0.082-0.072 0.146-0.154 0.146h-0zM0.16 15.561h-0.006c-0.083-0.003-0.149-0.072-0.149-0.155 0-0.002 0-0.005 0-0.007v0c0.014-0.368 0.039-0.739 0.078-1.103 0.007-0.080 0.073-0.143 0.155-0.143 0.086 0 0.155 0.069 0.155 0.155 0 0.007-0.001 0.014-0.001 0.021l0-0.001c-0.037 0.357-0.063 0.721-0.076 1.081-0.003 0.083-0.071 0.15-0.154 0.15h-0zM31.445 14.063c-0.079-0-0.143-0.059-0.154-0.135l-0-0.001c-0.047-0.357-0.106-0.717-0.177-1.069-0.002-0.010-0.003-0.021-0.003-0.032 0-0.075 0.053-0.138 0.123-0.153l0.001-0c0.009-0.002 0.020-0.003 0.031-0.003 0.075 0 0.138 0.053 0.152 0.124l0 0.001c0.073 0.36 0.132 0.726 0.181 1.091 0.001 0.006 0.001 0.014 0.001 0.021 0 0.078-0.058 0.143-0.133 0.154l-0.001 0c-0.006 0.001-0.014 0.002-0.021 0.002h-0zM0.389 13.384c-0 0-0.001 0-0.002 0-0.085 0-0.154-0.069-0.154-0.154 0-0.010 0.001-0.021 0.003-0.030l-0 0.001c0.063-0.362 0.14-0.725 0.228-1.082 0.017-0.068 0.077-0.118 0.15-0.118 0.013 0 0.027 0.002 0.039 0.005l-0.001-0c0.068 0.018 0.118 0.079 0.118 0.152 0 0.013-0.002 0.027-0.005 0.039l0-0.001c-0.086 0.349-0.161 0.706-0.223 1.060-0.013 0.074-0.076 0.129-0.153 0.129h-0zM31.012 11.919c-0.071-0-0.131-0.048-0.149-0.114l-0-0.001c-0.095-0.346-0.203-0.694-0.323-1.034-0.005-0.015-0.009-0.033-0.009-0.051 0-0.068 0.042-0.126 0.102-0.148l0.001-0c0.015-0.006 0.033-0.009 0.051-0.009 0.067 0 0.125 0.043 0.146 0.103l0 0.001c0.122 0.347 0.232 0.702 0.329 1.055 0.004 0.012 0.006 0.027 0.006 0.042 0 0.071-0.048 0.132-0.113 0.151l-0.001 0c-0.012 0.004-0.027 0.006-0.041 0.006h-0zM0.913 11.261c-0.017-0-0.034-0.003-0.049-0.008l0.001 0c-0.063-0.021-0.108-0.080-0.108-0.149 0-0.017 0.003-0.034 0.008-0.049l-0 0.001c0.112-0.349 0.238-0.699 0.375-1.041 0.023-0.058 0.079-0.098 0.144-0.098 0.021 0 0.041 0.004 0.059 0.012l-0.001-0c0.058 0.024 0.097 0.080 0.097 0.145 0 0.021-0.004 0.041-0.012 0.059l0-0.001c-0.134 0.335-0.258 0.678-0.368 1.020-0.021 0.063-0.079 0.108-0.148 0.108h-0zM30.29 9.857c-0.064-0-0.118-0.039-0.142-0.093l-0-0.001c-0.141-0.328-0.296-0.658-0.461-0.979-0.011-0.021-0.018-0.046-0.018-0.072 0-0.060 0.034-0.112 0.083-0.139l0.001-0c0.021-0.011 0.045-0.017 0.071-0.017 0.060 0 0.112 0.034 0.137 0.084l0 0.001c0.168 0.327 0.326 0.661 0.47 0.998 0.008 0.018 0.013 0.040 0.013 0.062 0 0.064-0.038 0.119-0.093 0.143l-0.001 0c-0.018 0.008-0.039 0.014-0.061 0.014h-0zM1.726 9.23c-0 0-0 0-0 0-0.025 0-0.048-0.006-0.069-0.016l0.001 0c-0.052-0.026-0.087-0.079-0.087-0.141 0-0.025 0.006-0.048 0.016-0.069l-0 0.001c0.159-0.33 0.332-0.659 0.514-0.979 0.027-0.047 0.077-0.078 0.135-0.078 0.028 0 0.055 0.008 0.078 0.021l-0.001-0c0.047 0.028 0.078 0.078 0.078 0.136 0 0.029-0.008 0.056-0.021 0.079l0-0.001c-0.178 0.312-0.348 0.635-0.504 0.959-0.025 0.053-0.078 0.088-0.139 0.089h-0zM29.291 7.917c-0.056-0-0.105-0.030-0.132-0.074l-0-0.001c-0.185-0.307-0.385-0.611-0.591-0.905-0.018-0.025-0.028-0.056-0.028-0.090 0-0.052 0.025-0.099 0.064-0.128l0-0c0.025-0.018 0.056-0.029 0.090-0.029 0.052 0 0.098 0.026 0.126 0.066l0 0c0.212 0.3 0.414 0.61 0.603 0.923 0.014 0.023 0.022 0.051 0.022 0.081 0 0.057-0.030 0.106-0.074 0.134l-0.001 0c-0.023 0.014-0.050 0.022-0.080 0.022-0 0-0 0-0 0v0zM2.81 7.331c-0 0-0 0-0 0-0.032 0-0.062-0.010-0.086-0.027l0.001 0c-0.042-0.029-0.069-0.076-0.069-0.13 0-0.032 0.010-0.063 0.027-0.088l-0 0.001c0.203-0.305 0.419-0.607 0.643-0.897 0.028-0.037 0.072-0.060 0.122-0.060 0.036 0 0.070 0.013 0.096 0.034l-0-0c0.036 0.029 0.059 0.074 0.059 0.123 0 0.036-0.012 0.070-0.033 0.096l0-0c-0.219 0.284-0.431 0.58-0.63 0.879-0.028 0.041-0.075 0.068-0.128 0.068h-0zM28.037 6.131c-0.048-0-0.092-0.022-0.12-0.057l-0-0c-0.227-0.279-0.465-0.554-0.709-0.815-0.026-0.028-0.042-0.066-0.042-0.107 0-0.045 0.019-0.085 0.049-0.114l0-0c0.028-0.026 0.065-0.042 0.106-0.042 0.045 0 0.085 0.019 0.113 0.049l0 0c0.249 0.267 0.492 0.547 0.723 0.831 0.022 0.027 0.035 0.061 0.035 0.099 0 0.049-0.022 0.092-0.057 0.121l-0 0c-0.026 0.022-0.061 0.035-0.098 0.035-0 0-0 0-0 0v0zM4.142 5.602c-0 0-0 0-0 0-0.040 0-0.076-0.015-0.103-0.040l0 0c-0.032-0.029-0.052-0.070-0.052-0.117 0-0.040 0.015-0.077 0.040-0.104l-0 0c0.242-0.273 0.497-0.542 0.758-0.799 0.028-0.027 0.066-0.044 0.108-0.044 0.044 0 0.083 0.018 0.111 0.047l0 0c0.027 0.028 0.044 0.067 0.044 0.109 0 0.044-0.018 0.083-0.046 0.112v0c-0.256 0.252-0.506 0.515-0.744 0.783-0.029 0.032-0.070 0.052-0.116 0.052-0 0-0 0-0 0v0zM26.55 4.537c0 0-0 0-0 0-0.041 0-0.078-0.016-0.106-0.042l0 0c-0.262-0.245-0.536-0.484-0.814-0.71-0.035-0.029-0.057-0.073-0.057-0.122 0-0.037 0.013-0.071 0.034-0.098l-0 0c0.029-0.036 0.072-0.058 0.121-0.058 0.037 0 0.071 0.013 0.098 0.035l-0-0c0.283 0.23 0.562 0.474 0.83 0.724 0.030 0.029 0.049 0.070 0.049 0.115 0 0.041-0.016 0.078-0.041 0.106l0-0c-0.028 0.031-0.069 0.050-0.113 0.050-0 0-0 0-0 0v0zM5.697 4.073c-0 0-0 0-0 0-0.047 0-0.090-0.021-0.118-0.055l-0-0c-0.023-0.027-0.037-0.063-0.037-0.101 0-0.048 0.021-0.090 0.054-0.119l0-0c0.278-0.238 0.567-0.469 0.86-0.686 0.025-0.019 0.058-0.031 0.092-0.031 0.051 0 0.096 0.025 0.124 0.063l0 0c0.019 0.026 0.030 0.058 0.030 0.093 0 0.051-0.025 0.097-0.063 0.126l-0 0c-0.287 0.213-0.571 0.44-0.843 0.673-0.027 0.023-0.062 0.037-0.1 0.037-0 0-0 0-0 0v0zM24.86 3.161c-0 0-0 0-0 0-0.033 0-0.064-0.011-0.089-0.029l0 0c-0.292-0.206-0.596-0.405-0.902-0.591-0.045-0.028-0.075-0.078-0.075-0.134 0-0.030 0.008-0.058 0.023-0.081l-0 0.001c0.027-0.046 0.076-0.076 0.132-0.076 0.030 0 0.058 0.008 0.081 0.023l-0.001-0c0.313 0.19 0.623 0.392 0.921 0.602 0.040 0.029 0.066 0.076 0.066 0.129 0 0.033-0.010 0.064-0.028 0.090l0-0.001c-0.028 0.040-0.075 0.066-0.127 0.066-0 0-0 0-0.001 0h0zM7.443 2.777c-0 0-0.001 0-0.001 0-0.055 0-0.103-0.029-0.131-0.072l-0-0.001c-0.015-0.024-0.024-0.053-0.024-0.084 0-0.055 0.028-0.104 0.071-0.132l0.001-0c0.307-0.197 0.625-0.385 0.945-0.56 0.022-0.012 0.047-0.019 0.075-0.019 0.059 0 0.11 0.033 0.136 0.081l0 0.001c0.011 0.021 0.018 0.047 0.018 0.074 0 0.059-0.032 0.11-0.079 0.138l-0.001 0c-0.314 0.171-0.625 0.356-0.926 0.549-0.024 0.016-0.053 0.025-0.084 0.025v0zM22.998 2.034c-0 0-0.001 0-0.001 0-0.025 0-0.049-0.006-0.070-0.018l0.001 0c-0.317-0.163-0.646-0.317-0.975-0.459-0.056-0.025-0.094-0.080-0.094-0.144 0-0.022 0.005-0.043 0.013-0.062l-0 0.001c0.024-0.056 0.079-0.095 0.143-0.095 0.022 0 0.043 0.005 0.062 0.013l-0.001-0c0.336 0.144 0.67 0.302 0.995 0.469 0.051 0.027 0.085 0.079 0.085 0.139 0 0.026-0.006 0.050-0.017 0.072l0-0.001c-0.026 0.050-0.078 0.084-0.138 0.084-0 0-0 0-0 0h0zM9.35 1.734c-0.063-0-0.117-0.037-0.141-0.091l-0-0.001c-0.009-0.019-0.014-0.041-0.014-0.064 0-0.063 0.037-0.117 0.090-0.143l0.001-0c0.331-0.152 0.671-0.295 1.012-0.423 0.016-0.006 0.035-0.010 0.055-0.010 0.066 0 0.123 0.042 0.145 0.101l0 0.001c0.006 0.016 0.010 0.035 0.010 0.055 0 0.067-0.041 0.123-0.1 0.146l-0.001 0c-0.334 0.126-0.667 0.264-0.992 0.415-0.018 0.008-0.039 0.013-0.062 0.013-0.001 0-0.002 0-0.003-0h0zM20.998 1.178c-0.018-0-0.036-0.003-0.052-0.009l0.001 0c-0.337-0.117-0.683-0.225-1.028-0.317-0.064-0.020-0.11-0.080-0.11-0.149 0-0.086 0.070-0.157 0.157-0.157 0.012 0 0.024 0.001 0.035 0.004l-0.001-0c0.352 0.096 0.705 0.205 1.048 0.325 0.057 0.024 0.096 0.080 0.096 0.145 0 0.083-0.065 0.151-0.146 0.157l-0 0zM11.381 0.967c-0.086-0-0.156-0.070-0.156-0.157 0-0.070 0.046-0.13 0.11-0.15l0.001-0c0.349-0.104 0.706-0.198 1.062-0.278 0.008-0.002 0.018-0.002 0.028-0.002 0.086 0 0.157 0.070 0.157 0.157 0 0.072-0.049 0.133-0.115 0.151l-0.001 0c-0.348 0.078-0.698 0.17-1.041 0.272-0.012 0.003-0.025 0.005-0.039 0.005-0.002 0-0.004-0-0.005-0h0zM18.902 0.608c-0 0-0.001 0-0.001 0-0.010 0-0.020-0.001-0.030-0.003l0.001 0c-0.35-0.069-0.708-0.127-1.062-0.171-0.075-0.013-0.131-0.077-0.131-0.154 0-0.086 0.070-0.157 0.157-0.157 0.005 0 0.009 0 0.014 0.001l-0.001-0c0.361 0.045 0.725 0.104 1.083 0.175 0.069 0.017 0.119 0.079 0.119 0.152 0 0.084-0.066 0.152-0.148 0.156l-0 0zM13.499 0.491c-0.086-0.001-0.156-0.070-0.156-0.157 0-0.078 0.057-0.143 0.132-0.155l0.001-0c0.359-0.055 0.725-0.097 1.089-0.127 0.004-0 0.009-0.001 0.013-0.001 0.086 0 0.156 0.070 0.156 0.156 0 0.082-0.063 0.149-0.143 0.156l-0.001 0c-0.357 0.029-0.716 0.071-1.068 0.125-0.004 0-0.008 0-0.012 0s-0.009-0-0.013-0l0.001 0zM16.749 0.337h-0.008c-0.356-0.020-0.719-0.028-1.075-0.023h-0.002c-0 0-0.001 0-0.001 0-0.086 0-0.157-0.070-0.157-0.157s0.070-0.156 0.156-0.157h0c0.364-0.005 0.734 0.003 1.096 0.024 0.076 0.012 0.133 0.077 0.133 0.155 0 0.081-0.062 0.148-0.142 0.156l-0.001 0zM15.865 28.766c-0.332 0-0.668-0.013-0.998-0.039-0.080-0.007-0.143-0.074-0.143-0.156 0-0.004 0-0.009 0.001-0.013l-0 0.001c0.005-0.081 0.071-0.145 0.153-0.145 0.005 0 0.010 0 0.015 0.001l-0.001-0c0.321 0.026 0.649 0.038 0.973 0.038h0.099c0.084 0.004 0.15 0.072 0.15 0.156s-0.066 0.153-0.15 0.156h-0zM17.049 28.711c-0.085-0.002-0.153-0.071-0.153-0.157 0-0.080 0.060-0.146 0.138-0.155l0.001-0c0.356-0.034 0.714-0.084 1.062-0.148 0.008-0.002 0.018-0.003 0.028-0.003 0.086 0 0.156 0.070 0.156 0.156 0 0.077-0.055 0.14-0.128 0.154l-0.001 0c-0.358 0.066-0.725 0.117-1.089 0.151-0.004 0-0.009 0.001-0.015 0.001v0zM13.802 28.596c-0.001 0-0.001 0-0.002 0-0.009 0-0.017-0.001-0.025-0.002l0.001 0c-0.361-0.060-0.723-0.137-1.076-0.229-0.068-0.018-0.118-0.079-0.118-0.152 0-0.086 0.070-0.156 0.156-0.156 0.014 0 0.027 0.002 0.040 0.005l-0.001-0c0.344 0.089 0.697 0.164 1.049 0.223 0.074 0.013 0.13 0.077 0.13 0.154 0 0.085-0.069 0.155-0.154 0.157h-0zM19.184 28.318c-0.086-0.001-0.155-0.071-0.155-0.157 0-0.071 0.047-0.131 0.113-0.15l0.001-0c0.344-0.095 0.688-0.207 1.021-0.331 0.015-0.005 0.032-0.008 0.050-0.008 0.086 0 0.156 0.070 0.156 0.156 0 0.066-0.040 0.122-0.098 0.145l-0.001 0c-0.342 0.128-0.694 0.242-1.046 0.34-0.012 0.003-0.027 0.006-0.041 0.006h-0zM11.701 28.051c-0 0-0 0-0.001 0-0.019 0-0.037-0.003-0.054-0.009l0.001 0c-0.344-0.123-0.688-0.262-1.020-0.415-0.054-0.026-0.091-0.080-0.091-0.142 0-0.023 0.005-0.046 0.014-0.066l-0 0.001c0.025-0.055 0.079-0.092 0.141-0.092 0.023 0 0.045 0.005 0.065 0.014l-0.001-0c0.325 0.149 0.659 0.285 0.995 0.404 0.061 0.022 0.104 0.080 0.104 0.148 0 0.019-0.003 0.037-0.009 0.053l0-0.001c-0.021 0.061-0.078 0.104-0.145 0.104h-0zM21.217 27.557c-0.062-0-0.115-0.036-0.14-0.089l-0-0.001c-0.009-0.020-0.015-0.043-0.015-0.067 0-0.062 0.036-0.115 0.088-0.141l0.001-0c0.321-0.153 0.64-0.323 0.948-0.505 0.022-0.013 0.049-0.021 0.078-0.021 0.057 0 0.107 0.031 0.133 0.076l0 0.001c0.013 0.023 0.021 0.050 0.021 0.079 0 0.057-0.031 0.107-0.076 0.135l-0.001 0c-0.316 0.186-0.643 0.361-0.972 0.518-0.019 0.009-0.042 0.015-0.066 0.015h-0zM9.725 27.145c-0.028-0-0.054-0.008-0.077-0.021l0.001 0c-0.317-0.181-0.632-0.378-0.933-0.586-0.041-0.029-0.067-0.076-0.067-0.13 0-0.033 0.010-0.063 0.027-0.088l-0 0.001c0.028-0.041 0.075-0.068 0.128-0.068 0.033 0 0.063 0.010 0.088 0.028l-0.001-0c0.294 0.203 0.6 0.397 0.91 0.572 0.048 0.028 0.079 0.078 0.079 0.136 0 0.028-0.007 0.055-0.020 0.078l0-0.001c-0.027 0.048-0.078 0.080-0.135 0.080v0zM23.089 26.452c-0 0-0 0-0 0-0.052 0-0.098-0.026-0.126-0.066l-0-0c-0.018-0.025-0.029-0.057-0.029-0.091 0-0.052 0.026-0.099 0.065-0.127l0-0c0.291-0.208 0.576-0.431 0.846-0.663 0.027-0.023 0.062-0.037 0.1-0.037 0.047 0 0.090 0.021 0.118 0.055l0 0c0.023 0.027 0.036 0.063 0.036 0.101 0 0.048-0.021 0.090-0.054 0.119l-0 0c-0.278 0.238-0.571 0.466-0.869 0.679-0.025 0.018-0.055 0.029-0.088 0.029h-0zM7.934 25.909c0 0-0 0-0 0-0.037 0-0.072-0.013-0.099-0.036l0 0c-0.283-0.234-0.558-0.483-0.82-0.741-0.029-0.029-0.046-0.068-0.046-0.112 0-0.042 0.017-0.081 0.044-0.11l-0 0c0.028-0.029 0.067-0.047 0.111-0.047 0.042 0 0.081 0.017 0.108 0.044l-0-0c0.254 0.251 0.523 0.494 0.799 0.722 0.035 0.029 0.057 0.072 0.057 0.121 0 0.038-0.013 0.072-0.036 0.099l0-0c-0.028 0.035-0.071 0.058-0.119 0.058h-0zM24.744 25.038c-0 0-0 0-0 0-0.043 0-0.081-0.017-0.109-0.045l-0-0c-0.028-0.029-0.045-0.068-0.045-0.111s0.017-0.082 0.045-0.111l-0 0c0.251-0.254 0.494-0.524 0.722-0.8 0.029-0.034 0.071-0.056 0.119-0.056 0.038 0 0.073 0.014 0.1 0.037l-0-0c0.034 0.029 0.056 0.072 0.056 0.12 0 0.038-0.014 0.073-0.036 0.1l0-0c-0.234 0.283-0.483 0.559-0.741 0.82-0.028 0.029-0.067 0.046-0.11 0.046-0 0-0 0-0 0v0zM6.381 24.38c-0.047-0-0.089-0.021-0.117-0.054l-0-0c-0.238-0.278-0.467-0.571-0.681-0.87-0.018-0.025-0.029-0.057-0.029-0.091 0-0.052 0.025-0.098 0.064-0.127l0-0c0.025-0.018 0.057-0.029 0.091-0.029 0.052 0 0.098 0.025 0.126 0.064l0 0c0.209 0.291 0.432 0.577 0.664 0.849 0.023 0.027 0.038 0.063 0.038 0.102 0 0.047-0.021 0.090-0.054 0.118l-0 0c-0.027 0.024-0.062 0.038-0.101 0.038-0 0-0 0-0 0v0zM26.134 23.357c-0 0-0 0-0 0-0.033 0-0.064-0.011-0.089-0.028l0 0c-0.040-0.029-0.066-0.076-0.066-0.129 0-0.033 0.010-0.064 0.028-0.090l-0 0.001c0.204-0.295 0.397-0.602 0.575-0.913 0.027-0.047 0.077-0.078 0.135-0.078 0.028 0 0.055 0.008 0.078 0.021l-0.001-0c0.047 0.028 0.078 0.078 0.078 0.136 0 0.029-0.008 0.056-0.021 0.079l0-0.001c-0.182 0.319-0.38 0.635-0.589 0.936-0.028 0.040-0.074 0.067-0.127 0.067h-0zM5.113 22.605c-0.056-0-0.105-0.031-0.132-0.075l-0-0.001c-0.187-0.316-0.362-0.644-0.522-0.976-0.010-0.020-0.015-0.043-0.015-0.068 0-0.061 0.035-0.115 0.087-0.14l0.001-0c0.020-0.010 0.043-0.016 0.068-0.016 0.061 0 0.114 0.036 0.139 0.087l0 0.001c0.155 0.323 0.326 0.643 0.509 0.952 0.014 0.023 0.022 0.051 0.022 0.081 0 0.056-0.030 0.106-0.074 0.134l-0.001 0c-0.022 0.013-0.050 0.021-0.079 0.021-0.001 0-0.002 0-0.003-0h0zM27.216 21.46c-0 0-0 0-0 0-0.024 0-0.046-0.005-0.066-0.015l0.001 0c-0.053-0.026-0.089-0.080-0.089-0.143 0-0.024 0.005-0.046 0.014-0.066l-0 0.001c0.15-0.326 0.287-0.661 0.409-1 0.022-0.061 0.079-0.103 0.146-0.103 0.019 0 0.037 0.003 0.054 0.010l-0.001-0c0.060 0.023 0.102 0.080 0.102 0.147 0 0.019-0.003 0.038-0.010 0.055l0-0.001c-0.125 0.347-0.264 0.692-0.419 1.025-0.025 0.054-0.079 0.090-0.141 0.090v0zM4.168 20.637c-0.066-0-0.122-0.042-0.145-0.1l-0-0.001c-0.13-0.344-0.246-0.698-0.345-1.052-0.004-0.013-0.006-0.027-0.006-0.043 0-0.086 0.070-0.155 0.155-0.155 0.071 0 0.13 0.047 0.149 0.112l0 0.001c0.097 0.345 0.212 0.691 0.337 1.026 0.006 0.017 0.010 0.036 0.010 0.056 0 0.066-0.041 0.123-0.099 0.146l-0.001 0c-0.016 0.007-0.035 0.010-0.055 0.010-0 0-0 0-0 0v0zM27.955 19.403c-0.014-0-0.028-0.002-0.041-0.006l0.001 0c-0.067-0.019-0.116-0.079-0.116-0.151 0-0.014 0.002-0.028 0.006-0.041l-0 0.001c0.091-0.346 0.169-0.701 0.23-1.056 0.011-0.076 0.075-0.135 0.154-0.135 0.086 0 0.155 0.070 0.155 0.155 0 0.011-0.001 0.023-0.004 0.033l0-0.001c-0.063 0.364-0.142 0.728-0.236 1.083-0.018 0.068-0.078 0.117-0.15 0.117h-0zM3.577 18.532c-0.076-0-0.138-0.055-0.152-0.126l-0-0.001c-0.068-0.36-0.122-0.729-0.159-1.096-0.001-0.005-0.001-0.010-0.001-0.016 0-0.086 0.070-0.155 0.155-0.155 0.080 0 0.146 0.061 0.154 0.138l0 0.001c0.037 0.359 0.089 0.719 0.155 1.070 0.002 0.009 0.003 0.019 0.003 0.030 0 0.076-0.054 0.139-0.125 0.153l-0.001 0c-0.009 0.002-0.019 0.003-0.029 0.003h-0zM28.328 17.248c-0.002 0-0.004 0-0.007 0s-0.005-0-0.007-0h0c-0.080-0.007-0.142-0.074-0.142-0.155 0-0.005 0-0.010 0.001-0.015l-0 0.001c0.030-0.356 0.046-0.719 0.046-1.080q0-0.2-0.006-0.399c-0-0.002-0-0.004-0-0.005 0-0.084 0.067-0.153 0.15-0.156h0c0.002-0 0.004-0 0.006-0 0.084 0 0.152 0.068 0.153 0.152v0q0.007 0.203 0.007 0.408c0 0.37-0.016 0.742-0.047 1.107-0.007 0.079-0.072 0.141-0.153 0.142h-0zM3.357 16.357c-0.085-0-0.154-0.069-0.155-0.154v-0q-0.002-0.102-0.002-0.204c0-0.301 0.011-0.605 0.031-0.904 0.006-0.081 0.073-0.144 0.155-0.144 0.086 0 0.155 0.069 0.155 0.155 0 0.004-0 0.008-0 0.011l0-0.001c-0.020 0.291-0.030 0.588-0.030 0.881 0 0.066 0 0.132 0.002 0.199 0 0.001 0 0.002 0 0.003 0 0.085-0.068 0.154-0.153 0.156h-0.003zM28.287 14.66c-0.079-0.001-0.145-0.060-0.154-0.137l-0-0.001c-0.042-0.358-0.1-0.717-0.172-1.067-0.002-0.010-0.003-0.021-0.003-0.032 0-0.086 0.070-0.155 0.155-0.155 0.074 0 0.137 0.052 0.152 0.122l0 0.001c0.074 0.359 0.132 0.727 0.176 1.094 0.001 0.006 0.001 0.012 0.001 0.019 0 0.079-0.059 0.145-0.136 0.155l-0.001 0c-0.005 0.001-0.012 0.001-0.018 0.001h-0zM3.509 14.175c-0.009-0-0.017-0.001-0.025-0.002l0.001 0c-0.075-0.012-0.131-0.077-0.131-0.154 0-0.009 0.001-0.017 0.002-0.026l-0 0.001c0.057-0.364 0.13-0.729 0.218-1.086 0.017-0.069 0.078-0.119 0.151-0.119 0.013 0 0.026 0.002 0.038 0.005l-0.001-0c0.068 0.018 0.118 0.079 0.118 0.152 0 0.013-0.002 0.026-0.005 0.039l0-0.001c-0.086 0.348-0.159 0.705-0.213 1.059-0.012 0.075-0.076 0.132-0.153 0.132h-0zM27.846 12.519c-0.070-0-0.129-0.047-0.148-0.11l-0-0.001c-0.103-0.344-0.222-0.688-0.353-1.021-0.007-0.017-0.011-0.037-0.011-0.058 0-0.065 0.040-0.121 0.097-0.145l0.001-0c0.017-0.007 0.037-0.011 0.058-0.011 0.065 0 0.121 0.040 0.144 0.097l0 0.001c0.135 0.342 0.257 0.694 0.362 1.047 0.004 0.014 0.007 0.029 0.007 0.045 0 0.070-0.046 0.129-0.11 0.149l-0.001 0c-0.013 0.004-0.027 0.006-0.043 0.006-0.001 0-0.001 0-0.002-0h0zM4.032 12.053c-0 0-0 0-0 0-0.018 0-0.035-0.003-0.051-0.009l0.001 0c-0.062-0.022-0.105-0.080-0.105-0.148 0-0.018 0.003-0.036 0.009-0.052l-0 0.001c0.118-0.348 0.254-0.695 0.403-1.031 0.025-0.055 0.079-0.093 0.142-0.093 0.023 0 0.044 0.005 0.064 0.014l-0.001-0c0.055 0.026 0.092 0.081 0.092 0.144 0 0.023-0.005 0.044-0.013 0.064l0-0.001c-0.145 0.329-0.277 0.667-0.393 1.006-0.022 0.061-0.079 0.104-0.147 0.104-0 0-0 0-0 0h0zM27.043 10.487c-0.061-0-0.113-0.035-0.138-0.085l-0-0.001c-0.16-0.32-0.336-0.637-0.524-0.943-0.014-0.023-0.023-0.052-0.023-0.082 0-0.056 0.029-0.105 0.072-0.133l0.001-0c0.023-0.015 0.051-0.023 0.082-0.023 0.056 0 0.104 0.029 0.132 0.073l0 0.001c0.193 0.314 0.373 0.639 0.537 0.967 0.010 0.020 0.017 0.045 0.017 0.070 0 0.061-0.034 0.113-0.085 0.139l-0.001 0c-0.020 0.010-0.043 0.016-0.068 0.016-0 0-0.001 0-0.001 0h0zM4.914 10.053c-0 0-0 0-0.001 0-0.027 0-0.053-0.007-0.075-0.020l0.001 0c-0.048-0.028-0.080-0.078-0.080-0.137 0-0.027 0.007-0.053 0.019-0.076l-0 0.001c0.177-0.322 0.37-0.639 0.574-0.945 0.028-0.042 0.075-0.069 0.129-0.069 0.032 0 0.062 0.010 0.087 0.027l-0.001-0c0.042 0.029 0.069 0.076 0.069 0.13 0 0.033-0.010 0.063-0.027 0.088l0-0.001c-0.199 0.298-0.387 0.608-0.56 0.922-0.027 0.047-0.077 0.079-0.135 0.079-0 0-0.001 0-0.001 0h0zM25.902 8.627c-0 0-0 0-0 0-0.051 0-0.096-0.025-0.124-0.063l-0-0c-0.212-0.287-0.44-0.569-0.677-0.838-0.024-0.028-0.039-0.064-0.039-0.104 0-0.046 0.020-0.088 0.052-0.117l0-0c0.027-0.025 0.063-0.040 0.103-0.040 0.046 0 0.087 0.020 0.116 0.052l0 0c0.243 0.276 0.476 0.565 0.694 0.859 0.019 0.026 0.030 0.058 0.030 0.093 0 0.051-0.024 0.097-0.062 0.126l-0 0c-0.025 0.019-0.057 0.030-0.092 0.030-0 0-0 0-0.001 0h0zM6.127 8.238c-0 0-0 0-0 0-0.037 0-0.071-0.013-0.097-0.035l0 0c-0.035-0.029-0.057-0.073-0.057-0.122 0-0.037 0.013-0.071 0.034-0.098l-0 0c0.229-0.286 0.474-0.566 0.727-0.831 0.028-0.030 0.068-0.048 0.112-0.048 0.042 0 0.080 0.017 0.108 0.044l-0-0c0.029 0.029 0.047 0.069 0.047 0.113 0 0.042-0.016 0.080-0.043 0.108l0-0c-0.247 0.259-0.486 0.532-0.709 0.811-0.029 0.035-0.072 0.058-0.12 0.058-0 0-0 0-0.001 0h0zM24.46 6.992c-0.041-0-0.078-0.016-0.106-0.043l0 0c-0.258-0.247-0.531-0.486-0.81-0.709-0.036-0.029-0.058-0.073-0.058-0.123 0-0.037 0.013-0.071 0.034-0.098l-0 0c0.028-0.037 0.073-0.060 0.122-0.060 0.036 0 0.070 0.013 0.096 0.034l-0-0c0.286 0.229 0.565 0.473 0.831 0.726 0.030 0.029 0.049 0.069 0.049 0.114 0 0.042-0.016 0.079-0.043 0.108l0-0c-0.028 0.031-0.069 0.050-0.113 0.050-0 0-0 0-0 0h0zM7.631 6.66c-0 0-0 0-0.001 0-0.046 0-0.088-0.020-0.116-0.053l-0-0c-0.024-0.028-0.038-0.064-0.038-0.103 0-0.047 0.020-0.089 0.052-0.118l0-0c0.274-0.242 0.563-0.476 0.858-0.693 0.025-0.019 0.057-0.030 0.092-0.030 0.051 0 0.097 0.025 0.125 0.064l0 0c0.019 0.026 0.030 0.058 0.030 0.092 0 0.052-0.025 0.097-0.063 0.126l-0 0c-0.287 0.212-0.569 0.44-0.837 0.676-0.027 0.024-0.062 0.038-0.101 0.038-0 0-0.001 0-0.001 0h0zM22.761 5.631c-0.032-0-0.062-0.010-0.086-0.027l0.001 0c-0.297-0.198-0.606-0.386-0.919-0.557-0.048-0.028-0.080-0.079-0.080-0.138 0-0.027 0.007-0.052 0.018-0.074l-0 0.001c0.027-0.049 0.078-0.082 0.137-0.082 0.027 0 0.053 0.007 0.076 0.020l-0.001-0c0.321 0.176 0.638 0.368 0.942 0.571 0.042 0.029 0.069 0.077 0.069 0.131 0 0.032-0.009 0.062-0.026 0.086l0-0.001c-0.028 0.042-0.075 0.069-0.129 0.069-0 0-0.001 0-0.001 0h0zM9.381 5.366c-0.056-0-0.105-0.030-0.132-0.074l-0-0.001c-0.014-0.023-0.022-0.051-0.022-0.080 0-0.057 0.030-0.106 0.074-0.134l0.001-0c0.312-0.191 0.636-0.37 0.963-0.533 0.020-0.010 0.044-0.016 0.069-0.016 0.061 0 0.113 0.035 0.139 0.086l0 0.001c0.010 0.020 0.016 0.044 0.016 0.069 0 0.061-0.035 0.114-0.086 0.14l-0.001 0c-0.319 0.159-0.635 0.334-0.94 0.52-0.023 0.014-0.051 0.023-0.081 0.023-0 0-0.001 0-0.001 0h0zM20.853 4.585c-0.022 0-0.044-0.005-0.063-0.014l0.001 0c-0.326-0.143-0.663-0.274-1.001-0.388-0.060-0.023-0.101-0.080-0.101-0.146 0-0.086 0.070-0.157 0.157-0.157 0.015 0 0.030 0.002 0.044 0.006l-0.001-0c0.347 0.117 0.692 0.251 1.027 0.397 0.055 0.026 0.092 0.081 0.092 0.144 0 0.022-0.005 0.044-0.013 0.063l0-0.001c-0.024 0.056-0.078 0.095-0.141 0.096h-0zM11.325 4.398c-0.066-0-0.122-0.041-0.144-0.099l-0-0.001c-0.007-0.017-0.011-0.037-0.011-0.057 0-0.066 0.040-0.122 0.098-0.145l0.001-0c0.341-0.134 0.691-0.254 1.041-0.357 0.013-0.004 0.028-0.006 0.044-0.006 0.070 0 0.13 0.047 0.148 0.111l0 0.001c0.004 0.013 0.006 0.028 0.006 0.044 0 0.071-0.047 0.13-0.111 0.15l-0.001 0c-0.341 0.1-0.683 0.217-1.015 0.348-0.017 0.007-0.036 0.012-0.056 0.012h-0zM18.796 3.89c-0 0-0 0-0 0-0.013 0-0.025-0.002-0.037-0.004l0.001 0c-0.346-0.084-0.7-0.153-1.053-0.206-0.075-0.013-0.131-0.077-0.131-0.155 0-0.086 0.070-0.157 0.157-0.157 0.007 0 0.014 0.001 0.021 0.001l-0.001-0c0.362 0.054 0.724 0.126 1.079 0.212 0.070 0.017 0.122 0.079 0.122 0.153 0 0.086-0.070 0.157-0.157 0.157-0 0-0.001 0-0.001 0h0zM13.408 3.784c-0.086-0.001-0.155-0.071-0.155-0.157 0-0.075 0.053-0.138 0.124-0.153l0.001-0c0.358-0.072 0.723-0.129 1.086-0.169 0.005-0.001 0.011-0.001 0.017-0.001 0.086 0 0.157 0.070 0.157 0.157 0 0.080-0.061 0.147-0.139 0.156l-0.001 0c-0.354 0.039-0.711 0.095-1.060 0.165-0.009 0.002-0.019 0.004-0.030 0.004h-0zM16.65 3.566h-0.010c-0.356-0.022-0.717-0.029-1.072-0.021-0 0-0 0-0 0-0.086 0-0.155-0.068-0.159-0.153v-0c-0-0.001-0-0.003-0-0.004 0-0.085 0.067-0.154 0.151-0.156h0c0.364-0.009 0.734-0.002 1.099 0.021 0.085 0.003 0.152 0.072 0.152 0.157 0 0.087-0.070 0.157-0.157 0.157-0.002 0-0.003-0-0.005-0h0zM15.398 25.601h-0.008c-0.406-0.020-0.783-0.063-1.153-0.127l0.056 0.008c-0.074-0.013-0.13-0.077-0.13-0.154 0-0.009 0.001-0.018 0.002-0.027l-0 0.001c0.012-0.075 0.075-0.131 0.152-0.131 0.009 0 0.018 0.001 0.027 0.002l-0.001-0c0.303 0.054 0.669 0.095 1.040 0.114l0.022 0.001c0.085 0.002 0.153 0.072 0.153 0.157 0 0.087-0.070 0.157-0.157 0.157-0.001 0-0.003-0-0.004-0h0zM16.482 25.593c-0 0-0.001 0-0.001 0-0.086 0-0.157-0.070-0.157-0.157 0-0.083 0.065-0.151 0.147-0.156l0-0c0.398-0.027 0.761-0.074 1.117-0.141l-0.058 0.009c0.008-0.001 0.017-0.002 0.027-0.002 0.086 0 0.157 0.070 0.157 0.157 0 0.076-0.054 0.14-0.126 0.154l-0.001 0c-0.309 0.060-0.684 0.108-1.066 0.134l-0.029 0.002zM13.258 25.244c-0.015-0-0.030-0.002-0.044-0.006l0.001 0c-0.421-0.123-0.767-0.249-1.102-0.394l0.061 0.024c-0.056-0.025-0.095-0.080-0.095-0.144 0-0.022 0.005-0.043 0.013-0.062l-0 0.001c0.024-0.057 0.079-0.096 0.143-0.096 0.022 0 0.042 0.004 0.061 0.012l-0.001-0c0.266 0.118 0.6 0.241 0.944 0.344l0.065 0.017c0.064 0.021 0.109 0.080 0.109 0.149 0 0.085-0.067 0.154-0.152 0.157h-0zM18.614 25.2c-0.086-0.001-0.155-0.071-0.155-0.157 0-0.070 0.046-0.129 0.109-0.149l0.001-0c0.406-0.125 0.738-0.252 1.060-0.397l-0.059 0.023c0.019-0.009 0.040-0.013 0.063-0.013 0.063 0 0.117 0.038 0.141 0.092l0 0.001c0.008 0.019 0.013 0.040 0.013 0.063 0 0.063-0.038 0.118-0.092 0.143l-0.001 0c-0.273 0.126-0.616 0.257-0.968 0.369l-0.067 0.018c-0.013 0.005-0.029 0.008-0.045 0.008h-0zM11.258 24.397c-0.028-0-0.054-0.008-0.077-0.021l0.001 0c-0.361-0.206-0.664-0.405-0.954-0.62l0.026 0.018c-0.039-0.029-0.064-0.075-0.064-0.126 0-0.035 0.011-0.067 0.030-0.092l-0 0c0.028-0.039 0.074-0.064 0.125-0.064 0.034 0 0.066 0.011 0.092 0.030l-0-0c0.256 0.19 0.55 0.382 0.854 0.558l0.045 0.024c0.047 0.028 0.079 0.079 0.079 0.137 0 0.028-0.007 0.054-0.020 0.077l0-0.001c-0.027 0.049-0.077 0.081-0.135 0.082h-0zM20.599 24.322c-0.057-0-0.107-0.031-0.134-0.077l-0-0.001c-0.013-0.023-0.021-0.050-0.021-0.079 0-0.057 0.030-0.107 0.076-0.135l0.001-0c0.343-0.204 0.633-0.401 0.911-0.613l-0.022 0.016c0.026-0.020 0.058-0.032 0.093-0.032 0.051 0 0.096 0.024 0.124 0.062l0 0c0.020 0.026 0.031 0.059 0.031 0.094 0 0.051-0.024 0.096-0.062 0.125l-0 0c-0.264 0.203-0.564 0.406-0.875 0.592l-0.043 0.024c-0.022 0.014-0.049 0.022-0.077 0.023h-0zM9.506 23.11c-0 0-0 0-0.001 0-0.041 0-0.078-0.016-0.105-0.042l0 0c-0.27-0.252-0.521-0.513-0.756-0.787l-0.011-0.013c-0.023-0.027-0.038-0.063-0.038-0.102 0-0.047 0.021-0.089 0.054-0.118l0-0c0.027-0.024 0.062-0.038 0.101-0.038 0.047 0 0.089 0.021 0.117 0.054l0 0c0.238 0.278 0.481 0.53 0.736 0.768l0.006 0.005c0.031 0.029 0.050 0.070 0.050 0.115 0 0.041-0.016 0.078-0.041 0.106l0-0c-0.028 0.031-0.068 0.051-0.112 0.052h-0zM22.331 23.008c-0 0-0 0-0 0-0.044 0-0.084-0.019-0.112-0.049l-0-0c-0.026-0.028-0.043-0.066-0.043-0.108 0-0.045 0.019-0.085 0.048-0.113l0-0c0.255-0.245 0.494-0.502 0.718-0.771l0.012-0.015c0.029-0.034 0.071-0.056 0.119-0.056 0.038 0 0.073 0.014 0.1 0.037l-0-0c0.034 0.029 0.056 0.072 0.056 0.12 0 0.038-0.014 0.073-0.036 0.1l0-0c-0.244 0.294-0.491 0.559-0.751 0.809l-0.003 0.003c-0.028 0.027-0.065 0.043-0.107 0.043-0 0-0 0-0 0v0zM8.093 21.456c-0.053-0-0.1-0.027-0.128-0.068l-0-0.001c-0.182-0.266-0.37-0.579-0.54-0.902l-0.026-0.053c-0.011-0.021-0.017-0.046-0.017-0.072 0-0.060 0.033-0.112 0.083-0.139l0.001-0c0.021-0.011 0.045-0.017 0.072-0.017 0.060 0 0.111 0.034 0.137 0.083l0 0.001c0.189 0.365 0.371 0.668 0.568 0.959l-0.021-0.033c0.017 0.025 0.027 0.055 0.027 0.088 0 0.054-0.027 0.101-0.068 0.129l-0.001 0c-0.024 0.016-0.053 0.026-0.085 0.026-0.001 0-0.001 0-0.002 0h0zM23.72 21.331c-0.032-0-0.061-0.010-0.085-0.027l0.001 0c-0.043-0.029-0.070-0.077-0.070-0.131 0-0.032 0.009-0.061 0.026-0.086l-0 0.001c0.171-0.259 0.348-0.564 0.508-0.88l0.024-0.053c0.026-0.052 0.078-0.086 0.139-0.086 0.025 0 0.049 0.006 0.071 0.017l-0.001-0c0.051 0.027 0.086 0.079 0.086 0.14 0 0.026-0.006 0.050-0.017 0.071l0-0.001c-0.19 0.382-0.373 0.698-0.573 1.001l0.023-0.037c-0.028 0.043-0.075 0.071-0.13 0.072h-0zM7.092 19.517c-0.066-0-0.122-0.041-0.145-0.1l-0-0.001c-0.11-0.278-0.224-0.632-0.317-0.994l-0.015-0.067c-0.003-0.012-0.005-0.025-0.005-0.038 0-0.086 0.070-0.155 0.155-0.155 0.072 0 0.133 0.049 0.15 0.116l0 0.001c0.104 0.415 0.214 0.758 0.342 1.091l-0.022-0.064c0.007 0.017 0.010 0.036 0.010 0.056 0 0.066-0.041 0.123-0.099 0.146l-0.001 0c-0.016 0.006-0.034 0.010-0.053 0.010-0.001 0-0.001 0-0.002 0h0zM24.69 19.375c-0 0-0 0-0 0-0.019 0-0.037-0.003-0.054-0.010l0.001 0c-0.060-0.023-0.102-0.080-0.102-0.147 0-0.019 0.003-0.038 0.010-0.054l-0 0.001c0.103-0.271 0.207-0.616 0.292-0.968l0.013-0.063c0.017-0.069 0.078-0.12 0.151-0.12 0.086 0 0.155 0.070 0.155 0.155 0 0.013-0.002 0.025-0.004 0.037l0-0.001c-0.101 0.43-0.209 0.787-0.336 1.134l0.021-0.067c-0.022 0.060-0.079 0.103-0.146 0.103h-0zM6.562 17.398c-0.079-0-0.144-0.059-0.154-0.135l-0-0.001c-0.045-0.328-0.073-0.712-0.079-1.102l-0-0.008c0-0.001-0-0.002-0-0.003 0-0.085 0.068-0.154 0.153-0.156h0.003c0.085 0 0.154 0.069 0.155 0.154v0c0.006 0.385 0.034 0.756 0.083 1.121l-0.005-0.048c0.001 0.006 0.001 0.014 0.001 0.021 0 0.078-0.058 0.143-0.133 0.155l-0.001 0c-0.006 0.001-0.013 0.001-0.020 0.001-0.001 0-0.002 0-0.003-0h0zM25.186 17.247h-0.018c-0.078-0.010-0.137-0.075-0.137-0.155 0-0.006 0-0.013 0.001-0.019l-0 0.001c0.039-0.322 0.061-0.696 0.061-1.075v-0c0-0.101-0.002-0.201-0.005-0.301-0-0.003-0-0.006-0-0.009 0-0.086 0.070-0.155 0.155-0.155s0.155 0.069 0.155 0.154v0c0.003 0.103 0.005 0.207 0.005 0.311-0 0.391-0.023 0.778-0.067 1.157l0.004-0.046c-0.009 0.078-0.075 0.137-0.154 0.138h-0zM6.528 15.214h-0.016c-0.079-0.009-0.14-0.075-0.14-0.155 0-0.006 0-0.011 0.001-0.016l-0 0.001c0.042-0.422 0.103-0.797 0.184-1.164l-0.012 0.065c0.016-0.070 0.078-0.122 0.152-0.122 0.086 0 0.155 0.070 0.155 0.155 0 0.012-0.001 0.023-0.004 0.034l0-0.001c-0.067 0.292-0.126 0.655-0.163 1.023l-0.003 0.040c-0.008 0.079-0.074 0.14-0.154 0.141h-0zM25.146 14.758c-0.078-0-0.142-0.057-0.154-0.131l-0-0.001c-0.061-0.415-0.137-0.771-0.232-1.119l0.015 0.066c-0.003-0.012-0.005-0.026-0.005-0.041 0-0.072 0.048-0.132 0.114-0.15l0.001-0c0.012-0.003 0.026-0.005 0.040-0.005 0.072 0 0.132 0.049 0.149 0.115l0 0.001c0.083 0.292 0.161 0.661 0.218 1.036l0.007 0.053c0.001 0.007 0.002 0.015 0.002 0.023 0 0.078-0.058 0.143-0.133 0.155l-0.001 0c-0.005 0.001-0.011 0.001-0.017 0.001-0.002 0-0.003-0-0.005-0h0zM6.989 13.078c-0 0-0 0-0 0-0.018 0-0.035-0.003-0.051-0.009l0.001 0c-0.062-0.022-0.105-0.080-0.105-0.148 0-0.018 0.003-0.036 0.009-0.052l-0 0.001c0.143-0.417 0.284-0.758 0.444-1.087l-0.025 0.057c0.025-0.053 0.078-0.089 0.14-0.089 0.025 0 0.048 0.006 0.068 0.016l-0.001-0c0.052 0.027 0.088 0.080 0.088 0.142 0 0.024-0.005 0.047-0.015 0.068l0-0.001c-0.13 0.264-0.268 0.593-0.386 0.931l-0.020 0.065c-0.021 0.062-0.079 0.105-0.146 0.106h-0zM24.582 12.649c-0.065-0-0.121-0.041-0.144-0.098l-0-0.001c-0.156-0.392-0.308-0.713-0.477-1.023l0.024 0.049c-0.012-0.021-0.019-0.047-0.019-0.074 0-0.059 0.032-0.11 0.080-0.137l0.001-0c0.022-0.012 0.047-0.019 0.075-0.019 0.059 0 0.11 0.033 0.136 0.081l0 0.001c0.149 0.27 0.306 0.601 0.444 0.942l0.023 0.065c0.007 0.017 0.011 0.037 0.011 0.058 0 0.065-0.040 0.121-0.097 0.145l-0.001 0c-0.017 0.007-0.037 0.011-0.057 0.011-0 0-0.001 0-0.001 0h0zM7.928 11.107c0 0-0 0-0 0-0.031 0-0.059-0.009-0.083-0.025l0.001 0c-0.044-0.028-0.072-0.077-0.072-0.132 0-0.031 0.009-0.060 0.024-0.084l-0 0.001c0.218-0.346 0.43-0.641 0.657-0.923l-0.014 0.018c0.028-0.036 0.072-0.058 0.121-0.058 0.037 0 0.071 0.013 0.098 0.035l-0-0c0.035 0.029 0.057 0.073 0.057 0.122 0 0.037-0.013 0.071-0.034 0.098l0-0c-0.206 0.255-0.411 0.54-0.6 0.837l-0.023 0.038c-0.028 0.044-0.076 0.073-0.131 0.073-0 0-0 0-0 0v0zM23.551 10.728c-0 0-0 0-0 0-0.052 0-0.099-0.026-0.127-0.066l-0-0.001c-0.222-0.317-0.439-0.592-0.671-0.854l0.009 0.010c-0.024-0.028-0.039-0.064-0.039-0.104 0-0.046 0.020-0.088 0.051-0.117l0-0c0.027-0.025 0.064-0.040 0.103-0.040 0.046 0 0.087 0.020 0.116 0.052l0 0c0.231 0.261 0.456 0.545 0.664 0.842l0.020 0.031c0.018 0.025 0.028 0.056 0.028 0.090 0 0.053-0.026 0.099-0.066 0.128l-0 0c-0.024 0.018-0.055 0.028-0.088 0.028-0 0-0.001 0-0.001 0h0zM9.289 9.405c-0.043-0-0.082-0.018-0.111-0.047l-0-0c-0.027-0.028-0.044-0.067-0.044-0.11s0.017-0.083 0.046-0.111l-0 0c0.256-0.253 0.527-0.493 0.81-0.717l0.020-0.015c0.026-0.021 0.059-0.033 0.096-0.033 0.049 0 0.094 0.023 0.122 0.059l0 0c0.020 0.026 0.033 0.060 0.033 0.096 0 0.050-0.023 0.094-0.059 0.123l-0 0c-0.294 0.232-0.556 0.464-0.804 0.71l0.001-0.001c-0.028 0.029-0.067 0.046-0.11 0.047h-0zM22.11 9.094c-0 0-0 0-0 0-0.040 0-0.076-0.015-0.103-0.040l0 0c-0.251-0.227-0.524-0.446-0.808-0.651l-0.028-0.019c-0.040-0.029-0.066-0.075-0.066-0.128 0-0.034 0.011-0.065 0.029-0.090l-0 0.001c0.028-0.040 0.075-0.067 0.127-0.067 0.034 0 0.064 0.011 0.090 0.029l-0-0c0.323 0.231 0.606 0.459 0.874 0.701l-0.009-0.008c0.032 0.029 0.052 0.070 0.052 0.117 0 0.040-0.015 0.076-0.040 0.104l0-0c-0.028 0.032-0.070 0.052-0.116 0.052-0.001 0-0.001 0-0.002 0h0zM11 8.062c-0.056-0-0.105-0.030-0.132-0.075l-0-0.001c-0.014-0.023-0.022-0.051-0.022-0.081 0-0.056 0.030-0.106 0.075-0.134l0.001-0c0.267-0.167 0.586-0.341 0.916-0.497l0.058-0.025c0.019-0.009 0.041-0.014 0.064-0.014 0.063 0 0.116 0.037 0.141 0.090l0 0.001c0.009 0.019 0.014 0.042 0.014 0.065 0 0.063-0.037 0.117-0.089 0.142l-0.001 0c-0.375 0.174-0.684 0.342-0.981 0.527l0.039-0.023c-0.023 0.015-0.052 0.024-0.082 0.025h-0zM20.337 7.835c-0 0-0 0-0 0-0.027 0-0.053-0.007-0.074-0.020l0.001 0c-0.26-0.147-0.578-0.3-0.906-0.436l-0.061-0.022c-0.058-0.024-0.097-0.080-0.097-0.145 0-0.021 0.004-0.041 0.012-0.059l-0 0.001c0.023-0.058 0.079-0.098 0.144-0.098 0.021 0 0.041 0.004 0.059 0.012l-0.001-0c0.402 0.163 0.73 0.322 1.048 0.498l-0.049-0.025c0.049 0.027 0.081 0.079 0.081 0.137 0 0.027-0.007 0.053-0.019 0.075l0-0.001c-0.026 0.050-0.077 0.084-0.136 0.084h-0zM12.97 7.152c-0.086-0-0.156-0.070-0.156-0.157 0-0.069 0.045-0.128 0.107-0.149l0.001-0c0.283-0.098 0.641-0.194 1.007-0.27l0.061-0.011c0.009-0.002 0.020-0.003 0.030-0.003 0.086 0 0.156 0.070 0.156 0.156 0 0.076-0.054 0.139-0.125 0.153l-0.001 0c-0.413 0.084-0.759 0.177-1.096 0.29l0.064-0.019c-0.015 0.006-0.031 0.009-0.049 0.010h-0zM18.325 7.021c-0.015-0-0.029-0.002-0.042-0.006l0.001 0c-0.28-0.081-0.633-0.158-0.993-0.214l-0.052-0.007c-0.076-0.012-0.133-0.076-0.133-0.155 0-0.086 0.070-0.156 0.156-0.156 0.008 0 0.016 0.001 0.024 0.002l-0.001-0c0.425 0.065 0.791 0.144 1.147 0.244l-0.067-0.016c0.071 0.016 0.124 0.078 0.124 0.153 0 0.086-0.070 0.157-0.157 0.157-0.003 0-0.005-0-0.008-0h0zM15.095 6.724c-0.085-0.002-0.154-0.071-0.154-0.157 0-0.081 0.062-0.148 0.14-0.156l0.001-0c0.258-0.021 0.52-0.032 0.779-0.032 0.112-0.002 0.216 0.002 0.324 0.005 0.083 0.004 0.15 0.072 0.15 0.156 0 0.002-0 0.004-0 0.006v-0c-0.002 0.084-0.070 0.151-0.155 0.151-0.002 0-0.004-0-0.006-0h0c-0.104-0.003-0.204-0.002-0.314-0.005-0.251 0-0.505 0.011-0.754 0.031z"></path>
</svg>
