<!-- Generated by IcoMoon.io -->
<svg version="1.1" xmlns="http://www.w3.org/2000/svg" width="40" height="32" viewBox="0 0 40 32">
<title>info-right</title>
<path fill="#fe3e57" d="M1.077 0c0.586 0.005 1.058 0.481 1.058 1.068 0 0.59-0.478 1.068-1.068 1.068s-1.068-0.478-1.068-1.068c0-0.001 0-0.002 0-0.003v0c0.004-0.589 0.482-1.065 1.071-1.065 0.002 0 0.004 0 0.006 0h-0zM8.646 0c0.58 0.012 1.046 0.485 1.046 1.067 0 0.59-0.478 1.068-1.068 1.068s-1.068-0.478-1.068-1.068c0-0.001 0-0.002 0-0.003v0c0.007-0.589 0.486-1.065 1.077-1.065 0.004 0 0.009 0 0.013 0h-0.001zM16.209 0c0.586 0.005 1.058 0.481 1.058 1.068 0 0.59-0.478 1.068-1.068 1.068s-1.068-0.478-1.068-1.068c0-0.001 0-0.002 0-0.003v0c0.004-0.589 0.482-1.065 1.071-1.065 0.002 0 0.004 0 0.006 0h-0zM23.791 0c0.586 0.005 1.058 0.481 1.058 1.068 0 0.59-0.478 1.068-1.068 1.068s-1.068-0.478-1.068-1.068c0-0.001 0-0.002 0-0.003v0c0.006-0.589 0.485-1.065 1.076-1.065 0 0 0.001 0 0.001 0h-0zM31.354 0c0.583 0.009 1.052 0.483 1.052 1.068 0 0.59-0.478 1.068-1.068 1.068s-1.068-0.478-1.068-1.068c0-0.001 0-0.002 0-0.003v0c0.008-0.59 0.487-1.065 1.078-1.065 0.002 0 0.004 0 0.005 0h-0zM38.923 0c0.586 0.005 1.058 0.481 1.058 1.068 0 0.59-0.478 1.068-1.068 1.068s-1.068-0.478-1.068-1.068c0-0.001 0-0.002 0-0.003v0c0.004-0.589 0.482-1.065 1.071-1.065 0.002 0 0.004 0 0.006 0h-0zM1.077 7.458c0.586 0.005 1.058 0.481 1.058 1.068 0 0.59-0.478 1.068-1.068 1.068-0.589 0-1.066-0.476-1.068-1.064v-0c0.001-0.592 0.481-1.071 1.073-1.071 0.002 0 0.003 0 0.005 0h-0zM8.646 7.458c0.58 0.012 1.046 0.485 1.046 1.067 0 0.59-0.478 1.068-1.068 1.068-0.588 0-1.066-0.476-1.068-1.064v-0c0.004-0.592 0.485-1.071 1.078-1.071 0.004 0 0.008 0 0.012 0h-0.001zM16.209 7.458c0.586 0.005 1.058 0.481 1.058 1.068 0 0.59-0.478 1.068-1.068 1.068-0.589 0-1.066-0.476-1.068-1.064v-0c0.001-0.592 0.481-1.071 1.073-1.071 0.002 0 0.003 0 0.005 0h-0zM23.791 7.458c0.586 0.005 1.058 0.481 1.058 1.068 0 0.59-0.478 1.068-1.068 1.068-0.589 0-1.066-0.476-1.068-1.064v-0c0.003-0.592 0.484-1.071 1.077-1.071 0 0 0 0 0 0v0zM31.354 7.458c0.583 0.009 1.052 0.483 1.052 1.068 0 0.59-0.478 1.068-1.068 1.068-0.589 0-1.066-0.476-1.068-1.064v-0c0.005-0.592 0.486-1.071 1.079-1.071 0.001 0 0.003 0 0.004 0h-0zM38.923 7.458c0.586 0.005 1.058 0.481 1.058 1.068 0 0.59-0.478 1.068-1.068 1.068-0.589 0-1.066-0.476-1.068-1.064v-0c0.001-0.592 0.481-1.071 1.073-1.071 0.002 0 0.003 0 0.005 0h-0zM1.077 14.942c0.577 0.010 1.040 0.48 1.040 1.058 0 0.585-0.474 1.058-1.058 1.058s-1.058-0.474-1.058-1.058v0c0.004-0.586 0.48-1.059 1.066-1.059 0.004 0 0.007 0 0.011 0h-0.001zM8.646 14.942c0.572 0.017 1.029 0.484 1.029 1.059 0 0.585-0.474 1.059-1.059 1.059s-1.059-0.474-1.059-1.059c0-0 0-0 0-0v0c0.008-0.586 0.485-1.059 1.072-1.059 0.006 0 0.012 0 0.018 0h-0.001zM16.209 14.942c0.577 0.010 1.040 0.48 1.040 1.058 0 0.585-0.474 1.058-1.058 1.058s-1.058-0.474-1.058-1.058v0c0.005-0.586 0.48-1.059 1.066-1.059 0.004 0 0.007 0 0.011 0h-0.001zM23.791 14.942c0.577 0.010 1.040 0.48 1.040 1.058 0 0.585-0.474 1.058-1.058 1.058s-1.058-0.474-1.058-1.058v0c0.007-0.586 0.483-1.058 1.070-1.058 0.002 0 0.005 0 0.007 0h-0zM31.354 14.942c0.574 0.014 1.034 0.482 1.034 1.058 0 0.585-0.474 1.058-1.058 1.058s-1.058-0.474-1.058-1.058v-0c0.008-0.586 0.486-1.059 1.073-1.059 0.003 0 0.007 0 0.010 0h-0.001zM38.923 14.942c0.577 0.010 1.040 0.48 1.040 1.058 0 0.585-0.474 1.058-1.058 1.058s-1.058-0.474-1.058-1.058v0c0.005-0.586 0.48-1.059 1.066-1.059 0.004 0 0.007 0 0.011 0h-0.001zM1.077 22.406c0.583 0.007 1.052 0.481 1.052 1.065 0 0.588-0.477 1.065-1.065 1.065s-1.065-0.477-1.065-1.065v0c0.002-0.588 0.479-1.065 1.068-1.065 0.003 0 0.006 0 0.010 0h-0zM8.646 22.406c0.577 0.014 1.040 0.485 1.040 1.064 0 0.588-0.477 1.065-1.065 1.065s-1.064-0.476-1.065-1.064v0c0.005-0.589 0.483-1.065 1.073-1.065 0.006 0 0.011 0 0.017 0h-0.001zM16.209 22.406c0.583 0.007 1.052 0.481 1.052 1.065 0 0.588-0.477 1.065-1.065 1.065s-1.065-0.477-1.065-1.065v0c0.002-0.588 0.479-1.065 1.068-1.065 0.003 0 0.006 0 0.010 0h-0zM23.791 22.406c0.583 0.007 1.052 0.481 1.052 1.065 0 0.588-0.477 1.065-1.065 1.065s-1.065-0.477-1.065-1.065v0c0.004-0.589 0.482-1.065 1.071-1.065 0.002 0 0.004 0 0.006 0h-0zM31.354 22.406c0.58 0.010 1.046 0.483 1.046 1.064 0 0.588-0.477 1.065-1.065 1.065s-1.065-0.477-1.065-1.064v0c0.006-0.589 0.484-1.065 1.074-1.065 0.003 0 0.006 0 0.009 0h-0zM38.923 22.406c0.583 0.007 1.052 0.481 1.052 1.065 0 0.588-0.477 1.065-1.065 1.065s-1.065-0.477-1.065-1.065v0c0.002-0.588 0.479-1.065 1.068-1.065 0.003 0 0.007 0 0.010 0h-0.001zM1.077 29.865c0.586 0.005 1.058 0.481 1.058 1.068 0 0.59-0.478 1.068-1.068 1.068-0.589 0-1.066-0.476-1.068-1.064v-0c0.001-0.592 0.481-1.071 1.073-1.071 0.002 0 0.003 0 0.005 0h-0zM8.646 29.865c0.58 0.012 1.046 0.485 1.046 1.067 0 0.59-0.478 1.068-1.068 1.068-0.588 0-1.066-0.476-1.068-1.064v-0c0.004-0.592 0.485-1.071 1.078-1.071 0.004 0 0.008 0 0.012 0h-0.001zM16.209 29.865c0.586 0.005 1.058 0.481 1.058 1.068 0 0.59-0.478 1.068-1.068 1.068-0.589 0-1.066-0.476-1.068-1.064v-0c0.001-0.592 0.481-1.071 1.073-1.071 0.002 0 0.003 0 0.005 0h-0zM23.791 29.865c0.586 0.005 1.058 0.481 1.058 1.068 0 0.59-0.478 1.068-1.068 1.068-0.589 0-1.066-0.476-1.068-1.064v-0c0.003-0.592 0.484-1.071 1.077-1.071 0 0 0 0 0 0v0zM31.354 29.865c0.583 0.009 1.052 0.483 1.052 1.068 0 0.59-0.478 1.068-1.068 1.068-0.589 0-1.066-0.476-1.068-1.064v-0c0.005-0.592 0.486-1.071 1.079-1.071 0.001 0 0.003 0 0.004 0h-0zM38.923 29.865c0.586 0.005 1.058 0.481 1.058 1.068 0 0.59-0.478 1.068-1.068 1.068-0.589 0-1.066-0.476-1.068-1.064v-0c0.001-0.592 0.481-1.071 1.073-1.071 0.002 0 0.003 0 0.005 0h-0z"></path>
</svg>
