<!-- Generated by IcoMoon.io -->
<svg version="1.1" xmlns="http://www.w3.org/2000/svg" width="83" height="32" viewBox="0 0 83 32">
<title>video-bg</title>
<path fill="#ededed" d="M82.287 31.999h-0.095l0.363-0.344v0.090l-0.268 0.254zM80.665 31.999l1.891-1.789v0.090l-1.796 1.699h-0.095zM79.138 31.999l3.418-3.234v0.090l-3.323 3.144h-0.095zM81.305 28.503l1.25-1.182v0.090l-1.512 1.43 0.261-0.338zM82.002 25.823l0.554-0.524v0.090l-0.514 0.486-0.040-0.052zM81.357 24.989l1.199-1.135v0.090l-1.159 1.097-0.040-0.052zM80.711 24.154l1.845-1.745v0.090l-1.805 1.707-0.040-0.052zM80.052 23.495l-1.571-1.486-1.571 1.486 0.032-0.042-0.072-0.068 0.078 0.060 0.223-0.288 1.31-1.238 1.316 1.245 0.183 0.238 2.576-2.437v0.090l-2.536 2.399 0.032 0.041zM79.42 22.485l3.135-2.966v0.090l-3.095 2.928-0.040-0.052zM78.775 21.651l3.78-3.577v0.090l-3.74 3.539-0.040-0.052zM81.305 17.811l1.25-1.182v-16.597zM82.002 4.439l0.554-0.524v0.090l-0.514 0.486-0.040-0.052zM81.357 3.605l1.199-1.135v0.090l-1.159 1.097-0.040-0.052zM80.711 2.77l1.845-1.745v0.090l-1.805 1.707-0.040-0.052zM80.052 2.111l-1.571-1.486-1.571 1.486 0.032-0.042-0.072-0.068 0.078 0.060 0.223-0.288 1.31-1.238 1.316 1.245 0.183 0.238 2.088-1.976h0.095l-2.143 2.027 0.032 0.042zM79.42 1.101l1.12-1.059h0.095l-1.175 1.111-0.040-0.052zM78.775 0.267l0.238-0.225h0.095l-0.293 0.277-0.040-0.052zM77.854 0.042h0.095l0.238 0.225-0.040 0.052-0.293-0.277zM76.326 0.042h0.095l1.12 1.059-0.040 0.052-1.175-1.111zM76.856 1.988l-2.056-1.946h0.095l2.002 1.894-0.040 0.052zM76.21 2.822l-1.863-1.763-1.863 1.763-0.040-0.052 1.9-1.797 0.003 0.004 0.004-0.004 1.9 1.798-0.040 0.052zM71.784 2.111l-1.571-1.486-1.571 1.486 0.032-0.041-0.071-0.068 0.078 0.060 0.223-0.288 1.31-1.238 1.316 1.245 0.183 0.238 2.088-1.976h0.095l-2.143 2.027 0.032 0.042zM71.153 1.101l1.12-1.059h0.095l-1.175 1.111-0.040-0.052zM70.508 0.267l0.238-0.225h0.095l-0.293 0.277-0.040-0.052zM69.587 0.042h0.095l0.238 0.225-0.040 0.052-0.293-0.277zM68.059 0.042h0.095l1.12 1.059-0.040 0.052-1.174-1.111zM68.588 1.988l-2.056-1.946h0.095l2.002 1.894-0.040 0.052zM67.943 2.822l-1.863-1.763-1.863 1.763-0.040-0.052 1.9-1.797 0.003 0.004 0.004-0.004 1.9 1.798-0.040 0.052zM63.517 2.111l-1.571-1.486-1.571 1.486 0.032-0.041-2.143-2.027h0.095l2.088 1.976 0.189-0.244 1.31-1.238 1.316 1.245 0.183 0.238 2.088-1.976h0.095l-2.143 2.027 0.032 0.042zM62.886 1.101l1.12-1.059h0.095l-1.175 1.111-0.040-0.052zM62.241 0.267l0.238-0.225h0.095l-0.292 0.277-0.040-0.052zM61.319 0.042h0.095l0.238 0.225-0.040 0.052-0.292-0.277zM59.792 0.042h0.095l1.12 1.059-0.040 0.052-1.174-1.111zM59.676 2.822l-1.863-1.763-1.863 1.763-0.040-0.052 1.9-1.797 0.003 0.004 0.004-0.004 1.9 1.798-0.040 0.052zM55.249 2.11l-1.57-1.486-1.571 1.486 0.032-0.042-2.143-2.027h0.095l2.088 1.976 0.189-0.244 1.31-1.238 1.316 1.245 0.183 0.238 2.088-1.976h0.095l-2.143 2.027 0.032 0.041zM54.619 1.101l1.12-1.059h0.095l-1.174 1.111-0.040-0.052zM53.973 0.267l0.238-0.225h0.095l-0.292 0.277-0.040-0.052zM53.052 0.042h0.095l0.238 0.225-0.040 0.052-0.293-0.277zM51.525 0.042h0.095l1.12 1.059-0.040 0.052-1.174-1.111zM51.408 2.822l-1.863-1.763-1.863 1.763-0.040-0.052 1.903-1.801 1.903 1.801-0.040 0.052zM46.982 2.111l-1.571-1.486-1.571 1.486 0.032-0.042-0.072-0.068 0.078 0.060 0.223-0.288 1.31-1.238 1.316 1.245 0.183 0.238 2.088-1.976h0.095l-2.143 2.027 0.032 0.042zM46.351 1.101l1.12-1.059h0.095l-1.175 1.111-0.040-0.052zM45.706 0.267l0.238-0.225h0.095l-0.292 0.277-0.040-0.052zM44.785 0.042h0.095l0.238 0.225-0.040 0.052-0.292-0.277zM43.257 0.042h0.095l1.12 1.059-0.040 0.052-1.174-1.111zM43.786 1.988l-2.056-1.946h0.095l2.002 1.894-0.040 0.052zM43.141 2.822l-1.863-1.763-1.863 1.763-0.040-0.052 1.903-1.801 1.903 1.801-0.040 0.052zM38.715 2.111l-1.571-1.486-1.571 1.486 0.032-0.042-0.072-0.068 0.078 0.060 0.223-0.288 1.31-1.238 1.316 1.245 0.183 0.238 2.088-1.976h0.095l-2.143 2.027 0.032 0.042zM38.084 1.101l1.12-1.059h0.095l-1.175 1.111-0.040-0.052zM37.439 0.267l0.238-0.225h0.095l-0.292 0.277-0.040-0.052zM36.517 0.042h0.095l0.238 0.225-0.040 0.052-0.292-0.277zM34.99 0.042h0.095l1.12 1.059-0.040 0.052-1.175-1.111zM35.519 1.988l-2.056-1.946h0.095l2.002 1.894-0.040 0.052zM34.874 2.822l-1.863-1.763-1.863 1.763-0.040-0.052 1.903-1.801 1.903 1.801-0.040 0.052zM30.448 2.111l-1.571-1.486-1.571 1.486 0.032-0.042-0.072-0.068 0.078 0.060 0.223-0.288 1.31-1.238 1.316 1.245 0.183 0.238 2.088-1.976h0.095l-2.143 2.027 0.032 0.042zM29.817 1.101l1.12-1.059h0.095l-1.175 1.111-0.040-0.052zM29.171 0.267l0.238-0.225h0.095l-0.293 0.277-0.040-0.052zM28.25 0.042h0.095l0.238 0.225-0.040 0.052-0.293-0.277zM26.723 0.042h0.095l1.12 1.059-0.040 0.052-1.175-1.111zM27.252 1.988l-2.056-1.946h0.095l2.002 1.894-0.040 0.052zM26.606 2.822l-1.863-1.763-1.863 1.763-0.040-0.052 1.903-1.801 1.903 1.801-0.040 0.052zM22.18 2.111l-1.571-1.486-1.571 1.486 0.032-0.042-0.072-0.068 0.078 0.060 0.223-0.288 1.31-1.238 1.316 1.245 0.183 0.238 2.088-1.976h0.095l-2.143 2.027 0.032 0.042zM21.549 1.101l1.12-1.059h0.095l-1.175 1.111-0.040-0.052zM20.904 0.267l0.238-0.225h0.095l-0.293 0.277-0.040-0.052zM19.983 0.042h0.095l0.238 0.225-0.040 0.052-0.293-0.277zM18.455 0.042h0.095l1.12 1.059-0.040 0.052-1.175-1.111zM18.984 1.988l-2.056-1.946h0.095l2.002 1.894-0.040 0.052zM18.339 2.822l-1.863-1.763-1.863 1.763-0.040-0.052 1.902-1.8 0.003 0.003 0.001-0.001 1.9 1.798-0.040 0.052zM13.913 2.111l-1.571-1.486-1.571 1.486 0.032-0.042-0.072-0.068 0.078 0.060 0.223-0.288 1.31-1.238 1.316 1.245 0.183 0.238 2.088-1.976h0.095l-2.143 2.027 0.032 0.041zM13.282 1.101l1.12-1.059h0.095l-1.174 1.111-0.040-0.052zM12.637 0.267l0.238-0.225h0.095l-0.293 0.277-0.040-0.052zM11.715 0.042h0.095l0.238 0.225-0.040 0.052-0.292-0.277zM10.188 0.042h0.095l1.12 1.059-0.040 0.052-1.174-1.111zM10.717 1.988l-2.056-1.946h0.095l2.002 1.894-0.040 0.052zM10.072 2.822l-1.863-1.763-1.863 1.763-0.040-0.052 1.904-1.8 1.903 1.8-0.040 0.052zM5.646 2.111l-1.571-1.486-1.571 1.486 0.032-0.042-0.072-0.068 0.078 0.060 0.223-0.288 1.31-1.238 1.316 1.245 0.183 0.238 2.088-1.976h0.095l-2.143 2.027 0.032 0.041zM5.015 1.101l1.12-1.059h0.095l-1.175 1.111-0.040-0.052zM4.369 0.267l0.238-0.225h0.095l-0.292 0.277-0.040-0.052zM3.448 0.042h0.095l0.238 0.225-0.040 0.052-0.292-0.277zM1.921 0.042h0.095l1.12 1.059-0.040 0.052-1.175-1.111zM2.45 1.988l-2.056-1.946h0.095l2.002 1.894-0.040 0.052zM1.804 2.822l-1.804-1.707v-0.090l1.844 1.745-0.040 0.052zM1.159 3.657l-1.159-1.097v-0.090l1.199 1.135-0.040 0.052zM0.514 4.491l-0.514-0.486v-0.090l0.554 0.524-0.040 0.052zM1.321 7.21l0.119 0.153 2.635-2.493 2.549 2.412-0.032 0.041 0.094 0.072 0.214-0.276 1.309-1.238 1.315 1.244 0.064 0.084 0.119 0.153 2.635-2.493 2.635 2.493 0.072-0.093 0.117-0.151 1.309-1.238 1.315 1.244 0.183 0.238 2.635-2.493 2.549 2.412-0.033 0.043 0.094 0.072 0.215-0.278 1.309-1.238 1.315 1.244 0.064 0.084 0.119 0.153 2.635-2.493 2.635 2.493 0.186-0.241 1.312-1.241 1.315 1.244 0.064 0.084 0.119 0.153 2.635-2.493 2.635 2.493 0.189-0.244 1.309-1.238 1.315 1.244 0.064 0.084 0.119 0.153 2.635-2.493 2.635 2.493 0.189-0.244 1.309-1.238 1.315 1.244 0.064 0.084 0.119 0.153 2.635-2.493 2.635 2.493 0.189-0.244 1.31-1.237 1.315 1.244 0.183 0.238 2.635-2.493 2.635 2.493 0.189-0.244 1.31-1.237 1.315 1.244 0.183 0.238 2.635-2.493 2.549 2.412-0.040 0.052-2.509-2.374-2.595 2.456 0.032 0.042-1.57-1.486-1.571 1.486 0.033-0.042-2.595-2.455-2.595 2.456 0.032 0.041-1.57-1.486-1.57 1.486 0.032-0.042-2.595-2.455-2.596 2.456 0.032 0.041-1.57-1.486-1.57 1.486 0.032-0.042-2.595-2.455-2.595 2.456 0.032 0.042-1.571-1.486-1.571 1.486 0.032-0.042-2.595-2.455-2.595 2.456 0.032 0.042-1.571-1.486-1.571 1.486 0.033-0.042-2.595-2.455-2.595 2.456 0.032 0.042-1.57-1.486-1.571 1.486 0.032-0.042-2.595-2.455-2.595 2.456 0.032 0.042-1.571-1.486-1.571 1.486 0.032-0.042-2.595-2.455-2.595 2.456 0.032 0.042-1.57-1.486-1.571 1.486 0.032-0.042-2.595-2.455-2.595 2.456 0.032 0.042-1.512-1.43v-0.090l1.257 1.189 0.064 0.084zM3.74 11.011l-3.74-3.539v-0.090l3.78 3.577-0.040 0.052zM3.095 11.845l-3.095-2.928v-0.090l3.135 2.966-0.040 0.052zM2.45 12.679l-2.45-2.318v-0.090l2.49 2.356-0.040 0.052zM1.804 13.514l-1.804-1.707v-0.090l1.844 1.745-0.040 0.052zM1.159 14.348l-1.159-1.097v-0.090l1.199 1.135-0.040 0.052zM0.514 15.183l-0.514-0.486v-0.090l0.554 0.524-0.040 0.052zM1.321 17.902l0.119 0.153 2.635-2.493 2.549 2.412-0.040 0.052-2.509-2.374-2.595 2.456 0.032 0.042-1.512-1.43v-0.090l1.257 1.189 0.064 0.084zM3.74 21.702l-3.74-3.539v-0.090l3.78 3.577-0.040 0.052zM3.095 22.537l-3.095-2.928v-0.090l3.135 2.966-0.040 0.052zM2.45 23.371l-2.45-2.318v-0.090l2.49 2.356-0.040 0.052zM1.804 24.206l-1.804-1.707v-0.090l1.844 1.745-0.040 0.052zM1.159 25.040l-1.159-1.097v-0.090l1.199 1.135-0.040 0.052zM0.514 25.875l-0.514-0.486v-0.090l0.554 0.524-0.040 0.052zM1.321 28.594l0.119 0.153 2.635-2.493 2.549 2.412-0.032 0.041 0.094 0.072 0.214-0.276 1.309-1.238 1.315 1.244 0.064 0.084 0.119 0.153 2.635-2.493 2.635 2.493 0.189-0.244 1.309-1.238 1.315 1.244 0.183 0.238 2.635-2.493 2.549 2.412-0.033 0.043 0.094 0.072 0.215-0.278 1.309-1.238 1.315 1.244 0.064 0.084 0.119 0.153 2.635-2.493 2.635 2.493 0.186-0.241 1.312-1.241 1.315 1.244 0.064 0.084 0.119 0.153 2.635-2.493 2.635 2.493 0.189-0.244 1.309-1.238 1.315 1.244 0.064 0.084 0.119 0.153 2.635-2.493 2.635 2.493 0.189-0.244 1.309-1.238 1.315 1.244 0.064 0.084 0.119 0.153 2.635-2.493 2.635 2.493 0.189-0.244 1.31-1.237 1.315 1.244 0.183 0.238 2.635-2.493 2.635 2.493 0.041-0.053 0.148-0.192 1.31-1.237 1.315 1.244 0.183 0.238 2.635-2.493 2.549 2.412-0.040 0.052-2.509-2.374-2.595 2.456 0.032 0.042-1.57-1.486-1.571 1.486 0.033-0.042-2.595-2.456-2.595 2.456 0.032 0.041-1.57-1.486-1.57 1.486 0.032-0.042-2.595-2.456-2.596 2.456 0.032 0.041-1.57-1.486-1.57 1.486 0.032-0.042-2.595-2.456-2.595 2.456 0.032 0.042-1.571-1.486-1.571 1.486 0.032-0.042-2.595-2.456-2.595 2.456 0.032 0.042-1.571-1.486-1.571 1.486 0.033-0.042-2.595-2.456-2.595 2.456 0.032 0.042-1.57-1.486-1.571 1.486 0.032-0.042-2.595-2.456-2.595 2.456 0.032 0.042-1.571-1.486-1.571 1.486 0.032-0.042-2.595-2.456-2.595 2.456 0.032 0.042-1.57-1.486-1.571 1.486 0.032-0.042-2.595-2.456-2.595 2.456 0.032 0.042-1.512-1.43v-0.090l1.257 1.189 0.064 0.084zM3.323 31.999l-3.323-3.144v-0.090l3.418 3.234h-0.095zM1.796 31.999l-1.796-1.699v-0.090l1.891 1.789h-0.095zM0.268 31.999l-0.268-0.254v-0.090l0.363 0.344h-0.095zM4.688 31.169l-0.040 0.052-0.573-0.542-0.573 0.542-0.040-0.052 0.613-0.58 0.613 0.58zM5.333 30.334l-0.040 0.052-1.218-1.153-1.218 1.153-0.040-0.052 1.258-1.191 1.258 1.191zM2.171 29.5l1.904-1.801 1.904 1.801-0.040 0.052-1.864-1.763-1.864 1.763-0.040-0.052zM11.685 31.999h-0.095l-3.382-3.199-3.382 3.199h-0.095l3.477-3.289 3.477 3.289zM10.158 31.999h-0.095l-1.854-1.754-1.854 1.754h-0.095l1.949-1.844 1.949 1.844zM8.63 31.999h-0.095l-0.327-0.309-0.327 0.309h-0.095l0.422-0.399 0.422 0.399zM12.955 31.169l-0.040 0.052-0.573-0.542-0.573 0.542-0.040-0.052 0.613-0.58 0.613 0.58zM13.601 30.334l-0.040 0.052-1.218-1.153-1.218 1.153-0.040-0.052 1.258-1.191 1.258 1.191zM10.438 29.5l1.904-1.801 1.904 1.801-0.040 0.052-1.864-1.763-1.864 1.763-0.040-0.052zM19.952 31.999h-0.095l-3.382-3.199-3.382 3.199h-0.095l3.477-3.289 3.477 3.289zM18.425 31.999h-0.095l-1.854-1.754-1.854 1.754h-0.095l1.949-1.844 1.949 1.844zM16.898 31.999h-0.095l-0.327-0.309-0.327 0.309h-0.095l0.422-0.399 0.422 0.399zM21.223 31.169l-0.040 0.052-0.573-0.542-0.573 0.542-0.040-0.052 0.613-0.58 0.613 0.58zM21.868 30.334l-0.040 0.052-1.218-1.153-1.218 1.153-0.040-0.052 1.258-1.191 1.258 1.191zM18.706 29.5l1.904-1.801 1.904 1.801-0.040 0.052-1.864-1.763-1.864 1.763-0.040-0.052zM28.22 31.999h-0.095l-3.382-3.199-3.382 3.199h-0.095l3.477-3.289 3.477 3.289zM26.692 31.999h-0.095l-1.854-1.754-1.855 1.754h-0.095l1.949-1.844 1.949 1.844zM25.165 31.999h-0.095l-0.327-0.309-0.327 0.309h-0.095l0.422-0.399 0.422 0.399zM29.49 31.169l-0.040 0.052-0.573-0.542-0.573 0.542-0.040-0.052 0.613-0.58 0.613 0.58zM30.135 30.334l-0.040 0.052-1.218-1.153-1.218 1.153-0.040-0.052 1.258-1.191 1.258 1.191zM26.973 29.5l1.904-1.801 1.904 1.801-0.040 0.052-1.864-1.763-1.864 1.763-0.040-0.052zM36.487 31.999h-0.095l-3.382-3.199-3.382 3.199h-0.095l3.477-3.289 3.477 3.289zM34.96 31.999h-0.095l-1.854-1.754-1.855 1.754h-0.095l1.949-1.844 1.949 1.844zM33.432 31.999h-0.095l-0.327-0.309-0.327 0.309h-0.095l0.422-0.399 0.422 0.399zM37.757 31.169l-0.040 0.052-0.573-0.542-0.573 0.542-0.040-0.052 0.613-0.58 0.613 0.58zM38.403 30.334l-0.040 0.052-1.218-1.153-1.218 1.153-0.040-0.052 1.258-1.191 1.258 1.191zM35.24 29.5l1.904-1.801 1.904 1.801-0.040 0.052-1.864-1.763-1.864 1.763-0.040-0.052zM44.754 31.999h-0.095l-3.382-3.199-3.382 3.199h-0.095l3.477-3.289 3.477 3.289zM43.227 31.999h-0.095l-1.854-1.754-1.854 1.754h-0.095l1.949-1.844 1.949 1.844zM41.7 31.999h-0.095l-0.327-0.309-0.327 0.309h-0.095l0.422-0.399 0.422 0.399zM46.025 31.169l-0.040 0.052-0.573-0.542-0.573 0.542-0.040-0.052 0.613-0.58 0.613 0.58zM46.67 30.334l-0.040 0.052-1.218-1.153-1.218 1.153-0.040-0.052 1.259-1.191 1.258 1.191zM43.508 29.5l1.904-1.801 1.904 1.801-0.040 0.052-1.864-1.763-1.864 1.763-0.040-0.052zM53.022 31.999h-0.095l-3.382-3.199-3.382 3.199h-0.095l3.477-3.289 3.477 3.289zM51.494 31.999h-0.095l-1.854-1.754-1.854 1.754h-0.095l1.949-1.844 1.949 1.844zM49.967 31.999h-0.095l-0.327-0.309-0.327 0.309h-0.095l0.422-0.399 0.422 0.399zM54.292 31.169l-0.040 0.052-0.573-0.542-0.573 0.542-0.040-0.052 0.613-0.58 0.613 0.58zM54.937 30.334l-0.040 0.052-1.218-1.153-1.218 1.153-0.040-0.052 1.259-1.191 1.258 1.191zM51.775 29.5l1.904-1.801 1.904 1.801-0.040 0.052-1.864-1.763-1.864 1.763-0.040-0.052zM57.812 28.712l0.001-0.001 3.476 3.289h-0.095l-3.382-3.199-3.382 3.199h-0.095l3.476-3.288zM57.812 30.157l0.001-0.001 1.949 1.844h-0.095l-1.854-1.754-1.854 1.754h-0.095l1.949-1.843zM57.812 31.602l0.001-0.001 0.421 0.399h-0.095l-0.327-0.309-0.327 0.309h-0.095l0.421-0.398 0.001 0.001zM62.559 31.169l-0.040 0.052-0.573-0.542-0.573 0.542-0.040-0.052 0.613-0.58 0.613 0.58zM63.205 30.334l-0.040 0.052-1.218-1.153-1.218 1.153-0.040-0.052 1.258-1.191 1.259 1.191zM60.042 29.5l1.904-1.801 1.904 1.801-0.040 0.052-1.864-1.763-1.864 1.763-0.040-0.052zM66.079 28.712l0.001-0.001 3.476 3.289h-0.095l-3.382-3.199-3.382 3.199h-0.095l3.476-3.288zM66.079 30.157l0.001-0.001 1.949 1.844h-0.095l-1.854-1.754-1.854 1.754h-0.095l1.949-1.843zM66.079 31.602l0.001-0.001 0.421 0.399h-0.095l-0.327-0.309-0.327 0.309h-0.095l0.421-0.398 0.001 0zM70.827 31.169l-0.040 0.052-0.573-0.542-0.573 0.542-0.040-0.052 0.613-0.58 0.613 0.58zM71.472 30.334l-0.040 0.052-1.219-1.153-1.218 1.153-0.040-0.052 1.258-1.191 1.259 1.191zM68.31 29.5l1.904-1.801 1.904 1.801-0.040 0.052-1.864-1.763-1.864 1.763-0.040-0.052zM74.347 28.712l0.001-0.001 3.476 3.289h-0.095l-3.382-3.199-3.382 3.199h-0.095l3.476-3.288zM74.347 30.157l0.001-0.001 1.948 1.843h-0.095l-1.854-1.754-1.854 1.754h-0.095l1.949-1.842zM74.347 31.602l0.001-0.001 0.421 0.399h-0.095l-0.327-0.309-0.327 0.309h-0.095l0.421-0.398 0.001 0.001zM78.481 29.233l-1.218 1.153-0.040-0.052 1.258-1.191 1.258 1.191-0.040 0.052-1.219-1.153zM78.481 27.788l-1.864 1.763-0.040-0.052 1.904-1.801 1.904 1.801-0.040 0.052-1.864-1.763zM78.481 26.343l-2.595 2.456 0.032 0.042-1.571-1.486-1.571 1.486 0.262-0.338 1.31-1.237 1.315 1.244 0.183 0.238 2.635-2.493 2.549 2.412-0.040 0.052-2.509-2.374zM78.481 24.898l-3.154 2.984-0.040-0.052 3.194-3.022 3.194 3.022-0.040 0.052-3.154-2.984zM82.32 26.997l-0.040 0.052-3.8-3.595-3.8 3.595-0.040-0.052 3.84-3.633 3.84 3.633zM74.347 20.998l-2.595 2.455 0.032 0.042-1.571-1.486-1.571 1.486 0.032-0.041-0.071-0.067 0.077 0.060 0.223-0.288 1.31-1.238 1.316 1.245 0.183 0.238 2.636-2.492 2.548 2.411-0.040 0.052-2.508-2.373zM74.347 19.553l-3.154 2.984-0.040-0.052 3.195-3.021 3.193 3.021-0.040 0.052-3.154-2.984zM74.347 18.108l-3.799 3.594-0.040-0.052 3.84-3.632 3.838 3.632-0.040 0.052-3.799-3.594zM78.481 19.987l-0.573 0.542-0.040-0.052 0.613-0.58 0.613 0.58-0.040 0.052-0.573-0.542zM78.481 18.542l-1.218 1.153-0.040-0.052 1.258-1.191 1.258 1.191-0.040 0.052-1.219-1.153zM78.481 17.097l-1.864 1.763-0.040-0.052 1.904-1.801 1.904 1.801-0.040 0.052-1.864-1.763zM78.481 15.652l-2.595 2.456 0.032 0.042-1.57-1.486-1.57 1.485 0.261-0.338 1.31-1.237 1.315 1.244 0.183 0.238 2.635-2.493 2.549 2.412-0.040 0.052-2.509-2.374zM78.481 14.207l-3.154 2.984-0.040-0.052 3.194-3.022 3.194 3.022-0.040 0.052-3.154-2.984zM82.32 16.305l-0.040 0.052-3.8-3.595-3.8 3.595-0.040-0.052 3.84-3.633 3.84 3.633zM74.347 10.306l-2.595 2.455 0.032 0.042-1.571-1.486-1.571 1.486 0.032-0.041-0.071-0.068 0.078 0.060 0.223-0.288 1.31-1.238 1.316 1.245 0.183 0.238 2.636-2.492 2.548 2.411-0.040 0.052-2.508-2.373zM74.347 8.861l-3.154 2.984-0.040-0.052 3.195-3.021 3.193 3.021-0.040 0.052-3.154-2.984zM72.117 8.116l-0.040 0.052-1.864-1.763-1.864 1.763-0.040-0.052 1.904-1.801 1.904 1.801zM68.995 9.002l-0.040-0.052 1.258-1.191 1.259 1.191-0.040 0.052-1.219-1.153-1.218 1.153zM70.213 9.295l-0.573 0.542-0.040-0.052 0.613-0.58 0.613 0.58-0.040 0.052-0.573-0.542zM66.079 7.328l0.001-0.001 3.839 3.632-0.040 0.052-3.799-3.594-3.799 3.594-0.040-0.052 3.839-3.631zM63.85 8.116l-0.040 0.052-1.864-1.763-1.864 1.763-0.040-0.052 1.904-1.801 1.904 1.801zM57.812 7.328l0.001-0.001 3.839 3.632-0.040 0.052-3.799-3.594-3.799 3.594-0.040-0.052 3.839-3.631zM55.583 8.116l-0.040 0.052-1.864-1.763-1.864 1.763-0.040-0.052 1.904-1.801 1.904 1.801zM53.384 10.959l-0.040 0.052-3.799-3.594-3.799 3.594-0.040-0.052 3.839-3.632 3.839 3.632zM47.315 8.116l-0.040 0.052-1.864-1.763-1.864 1.763-0.040-0.052 1.904-1.801 1.904 1.801zM45.117 10.959l-0.040 0.052-3.799-3.594-3.799 3.594-0.040-0.052 3.839-3.632 3.839 3.632zM39.048 8.116l-0.040 0.052-1.864-1.763-1.864 1.763-0.040-0.052 1.904-1.801 1.904 1.801zM36.85 10.959l-0.040 0.052-3.799-3.594-3.799 3.594-0.040-0.052 3.839-3.632 3.839 3.632zM30.781 8.116l-0.040 0.052-1.864-1.763-1.864 1.763-0.040-0.052 1.904-1.801 1.904 1.801zM28.582 10.959l-0.040 0.052-3.799-3.594-3.799 3.594-0.040-0.052 3.839-3.632 3.839 3.632zM22.513 8.116l-0.040 0.052-1.864-1.763-1.864 1.763-0.040-0.052 1.904-1.801 1.904 1.801zM20.315 10.959l-0.040 0.052-3.799-3.594-3.799 3.594-0.040-0.052 3.839-3.632 3.839 3.632zM14.246 8.116l-0.040 0.052-1.864-1.763-1.864 1.763-0.040-0.052 1.904-1.801 1.904 1.801zM12.048 10.959l-0.040 0.052-3.799-3.594-3.799 3.594-0.040-0.052 3.839-3.632 3.839 3.632zM2.171 8.116l1.904-1.801 1.904 1.801-0.040 0.052-1.864-1.763-1.864 1.763-0.040-0.052zM2.816 8.951l1.258-1.191 1.258 1.191-0.040 0.052-1.218-1.153-1.218 1.153-0.040-0.052zM3.462 9.785l0.613-0.58 0.613 0.58-0.040 0.052-0.573-0.542-0.573 0.542-0.040-0.052zM5.055 11.845l-0.040-0.052 3.194-3.022 3.194 3.022-0.040 0.052-3.154-2.984-3.154 2.984zM11.124 9.002l-0.040-0.052 1.258-1.191 1.258 1.191-0.040 0.052-1.218-1.153-1.218 1.153zM12.342 9.295l-0.573 0.542-0.040-0.052 0.613-0.58 0.613 0.58-0.040 0.052-0.573-0.542zM2.542 12.753l0.223-0.288 1.31-1.238 1.316 1.245 0.183 0.238 2.635-2.493 2.635 2.493 0.189-0.245 1.31-1.238 1.316 1.245 0.183 0.238 2.635-2.493 2.548 2.411-0.040 0.052-2.508-2.373-2.595 2.455 0.032 0.041-1.571-1.486-1.571 1.486 0.032-0.042-2.595-2.455-2.595 2.455 0.032 0.041-1.571-1.486-1.571 1.486 0.032-0.042-0.072-0.068 0.078 0.060zM0.235 16.305l3.84-3.633 3.84 3.633-0.040 0.052-3.8-3.595-3.8 3.595-0.040-0.052zM0.921 17.191l-0.040-0.052 3.194-3.022 3.194 3.022-0.040 0.052-3.154-2.984-3.154 2.984zM8.209 16.573l1.315 1.244 0.064 0.084 0.119 0.153 2.635-2.493 2.549 2.412-0.040 0.052-2.509-2.374-2.595 2.456 0.032 0.042-1.57-1.486-1.57 1.485 0.261-0.338 1.309-1.238zM12.048 21.651l-0.040 0.052-3.799-3.594-3.799 3.594-0.040-0.052 3.839-3.632 3.839 3.632zM2.171 18.808l1.904-1.801 1.904 1.801-0.040 0.052-1.864-1.763-1.864 1.763-0.040-0.052zM2.816 19.643l1.258-1.191 1.258 1.191-0.040 0.052-1.218-1.153-1.218 1.153-0.040-0.052zM3.462 20.477l0.613-0.58 0.613 0.58-0.040 0.052-0.573-0.542-0.573 0.542-0.040-0.052zM2.542 23.445l0.223-0.288 1.31-1.238 1.316 1.245 0.183 0.238 2.635-2.493 2.549 2.411-0.040 0.052-2.508-2.373-2.595 2.455 0.032 0.041-1.571-1.486-1.571 1.486 0.032-0.041-0.072-0.068 0.078 0.060zM7.636 25.875l-0.040-0.052 0.613-0.58 0.613 0.58-0.040 0.052-0.573-0.542-0.573 0.542zM8.209 23.799l1.257 1.19-0.040 0.052-1.218-1.152-1.218 1.152-0.040-0.052 1.259-1.19zM6.305 24.154l1.904-1.8 1.903 1.8-0.040 0.052-1.863-1.763-1.863 1.763-0.040-0.052zM15.903 25.875l-0.040-0.052 0.613-0.58 0.613 0.58-0.040 0.052-0.573-0.542-0.573 0.542zM24.171 25.875l-0.040-0.052 0.613-0.58 0.613 0.58-0.040 0.052-0.573-0.542-0.573 0.542zM32.438 25.875l-0.040-0.052 0.613-0.58 0.612 0.58-0.040 0.052-0.573-0.542-0.573 0.542zM40.705 25.875l-0.040-0.052 0.613-0.58 0.613 0.58-0.040 0.052-0.573-0.542-0.573 0.542zM48.973 25.875l-0.040-0.052 0.613-0.58 0.613 0.58-0.040 0.052-0.573-0.542-0.572 0.542zM57.24 25.875l-0.040-0.052 0.611-0.579 0.001 0.001 0.001-0.001 0.612 0.579-0.040 0.052-0.573-0.542-0.573 0.542zM65.507 25.875l-0.040-0.052 0.611-0.579 0.001 0.001 0.001-0.001 0.612 0.579-0.040 0.052-0.573-0.542-0.573 0.542zM66.083 23.801l1.255 1.187-0.040 0.052-1.218-1.152-1.218 1.152-0.040-0.052 1.254-1.187 0.003 0.004 0.004-0.004zM64.177 24.154l1.9-1.797 0.003 0.004 0.004-0.004 1.9 1.798-0.040 0.052-1.863-1.763-1.863 1.763-0.040-0.052zM57.816 23.801l1.255 1.187-0.040 0.052-1.218-1.152-1.218 1.152-0.040-0.052 1.254-1.187 0.003 0.004 0.004-0.004zM55.909 24.154l1.9-1.797 0.003 0.004 0.004-0.004 1.9 1.798-0.040 0.052-1.863-1.763-1.863 1.763-0.040-0.052zM50.803 24.989l-0.040 0.052-1.218-1.152-1.218 1.152-0.040-0.052 1.258-1.19 1.258 1.19zM47.642 24.154l1.903-1.801 1.903 1.801-0.040 0.052-1.863-1.763-1.863 1.763-0.040-0.052zM66.080 20.998l-2.595 2.455 0.032 0.042-1.571-1.486-1.571 1.486 0.032-0.041-2.595-2.455-2.595 2.455 0.032 0.041-1.57-1.486-1.571 1.486 0.032-0.042-2.595-2.455-2.595 2.455 0.032 0.042-1.571-1.486-1.571 1.486 0.032-0.042-0.072-0.068 0.078 0.060 0.223-0.288 1.31-1.238 1.316 1.245 0.183 0.238 2.635-2.493 2.635 2.493 0.189-0.244 1.31-1.238 1.316 1.245 0.183 0.238 2.636-2.492 2.634 2.492 0.189-0.244 1.31-1.238 1.316 1.245 0.183 0.238 2.636-2.492 2.548 2.411-0.040 0.052-2.509-2.373zM66.080 19.553l-3.154 2.984-0.040-0.052 3.194-3.021 3.193 3.021-0.040 0.052-3.154-2.984zM66.080 18.108l-3.799 3.594-0.040-0.052 3.84-3.632 3.839 3.632-0.040 0.052-3.799-3.594zM70.213 19.987l-0.573 0.542-0.040-0.052 0.613-0.58 0.613 0.58-0.040 0.052-0.573-0.542zM70.213 18.542l-1.218 1.153-0.040-0.052 1.258-1.191 1.259 1.191-0.040 0.052-1.219-1.153zM70.213 17.097l-1.864 1.763-0.040-0.052 1.904-1.801 1.904 1.801-0.040 0.052-1.864-1.763zM70.213 15.652l-2.595 2.456 0.032 0.041-1.57-1.486-1.57 1.485 0.261-0.338 1.31-1.237 1.315 1.244 0.183 0.238 2.635-2.493 2.549 2.412-0.040 0.052-2.509-2.374zM70.213 14.207l-3.154 2.984-0.040-0.052 3.194-3.022 3.194 3.022-0.040 0.052-3.154-2.984zM44.472 11.793l-0.040 0.052-3.154-2.984-3.154 2.984-0.040-0.052 3.194-3.022 3.194 3.022zM36.204 11.793l-0.040 0.052-3.154-2.984-3.154 2.984-0.040-0.052 3.194-3.022 3.194 3.022zM27.937 11.793l-0.040 0.052-3.154-2.984-3.154 2.984-0.040-0.052 3.194-3.022 3.194 3.022zM24.449 16.305l-0.040 0.052-3.8-3.595-3.8 3.595-0.040-0.052 3.84-3.633 3.84 3.633zM18.379 13.462l-0.040 0.052-1.863-1.763-1.863 1.763-0.040-0.052 1.903-1.801 1.903 1.801zM9.188 17.191l-0.040-0.052 3.194-3.022 3.194 3.022-0.040 0.052-3.154-2.984-3.154 2.984zM15.258 14.348l-0.040-0.052 1.258-1.19 1.258 1.19-0.040 0.052-1.218-1.152-1.218 1.152zM16.476 14.641l-0.573 0.542-0.040-0.052 0.613-0.58 0.613 0.58-0.040 0.052-0.573-0.542zM16.476 16.573l1.315 1.244 0.183 0.238 2.635-2.493 2.549 2.412-0.040 0.052-2.509-2.374-2.595 2.456 0.032 0.042-1.57-1.486-1.57 1.486 0.261-0.338 1.309-1.238zM20.315 21.651l-0.040 0.052-3.799-3.594-3.799 3.594-0.040-0.052 3.839-3.632 3.839 3.632zM10.438 18.808l1.904-1.801 1.904 1.801-0.040 0.052-1.864-1.763-1.864 1.763-0.040-0.052zM11.084 19.643l1.258-1.191 1.258 1.191-0.040 0.052-1.218-1.153-1.218 1.153-0.040-0.052zM11.729 20.477l0.613-0.58 0.613 0.58-0.040 0.052-0.573-0.542-0.573 0.542-0.040-0.052zM13.322 22.537l-0.040-0.052 3.194-3.022 3.194 3.022-0.040 0.052-3.154-2.984-3.154 2.984zM41.278 19.553l-3.154 2.984-0.040-0.052 3.194-3.022 3.194 3.022-0.040 0.052-3.154-2.984zM41.278 18.108l-3.799 3.594-0.040-0.052 3.839-3.632 3.839 3.632-0.040 0.052-3.799-3.594zM44.838 20.529l-0.040-0.052 0.613-0.58 0.613 0.58-0.040 0.052-0.573-0.542-0.573 0.542zM53.106 20.529l-0.040-0.052 0.613-0.58 0.613 0.58-0.040 0.052-0.573-0.542-0.573 0.542zM61.946 19.987l-0.573 0.542-0.040-0.052 0.613-0.58 0.613 0.58-0.040 0.052-0.573-0.542zM61.946 18.542l-1.218 1.153-0.040-0.052 1.258-1.191 1.259 1.191-0.040 0.052-1.218-1.153zM61.946 17.097l-1.864 1.763-0.040-0.052 1.904-1.801 1.904 1.801-0.040 0.052-1.864-1.763zM61.946 15.652l-2.595 2.456 0.032 0.041-1.57-1.485-1.57 1.485 0.261-0.338 1.31-1.237 1.315 1.244 0.183 0.238 2.635-2.493 2.549 2.412-0.040 0.052-2.509-2.374zM61.946 14.207l-3.154 2.984-0.040-0.052 3.194-3.022 3.194 3.022-0.040 0.052-3.154-2.984zM57.812 11.663l0.001-0.001 1.903 1.8-0.040 0.052-1.863-1.763-1.863 1.763-0.040-0.052 1.903-1.799zM56.595 14.348l-0.040-0.052 1.259-1.19 1.257 1.19-0.040 0.052-1.218-1.152-1.218 1.152zM57.812 14.641l-0.573 0.542-0.040-0.052 0.611-0.579 0.001 0.001 0.001-0.001 0.612 0.579-0.040 0.052-0.573-0.542zM57.519 16.305l-0.040 0.052-3.8-3.595-3.8 3.595-0.040-0.052 3.84-3.633 3.84 3.633zM51.448 13.462l-0.040 0.052-1.863-1.763-1.863 1.763-0.040-0.052 1.903-1.801 1.903 1.801zM49.251 16.305l-0.040 0.052-3.8-3.595-3.8 3.595-0.040-0.052 3.84-3.633 3.84 3.633zM43.181 13.462l-0.040 0.052-1.863-1.763-1.863 1.763-0.040-0.052 1.903-1.801 1.903 1.801zM40.984 16.305l-0.040 0.052-3.8-3.595-3.8 3.595-0.040-0.052 3.84-3.633 3.84 3.633zM34.914 13.462l-0.040 0.052-1.863-1.763-1.863 1.763-0.040-0.052 1.903-1.801 1.903 1.801zM32.717 16.305l-0.040 0.052-3.8-3.595-3.8 3.595-0.040-0.052 3.84-3.633 3.84 3.633zM22.84 13.462l1.903-1.801 1.903 1.801-0.040 0.052-1.863-1.763-1.863 1.763-0.040-0.052zM23.485 14.297l1.258-1.19 1.258 1.19-0.040 0.052-1.218-1.152-1.218 1.152-0.040-0.052zM24.131 15.131l0.613-0.58 0.613 0.58-0.040 0.052-0.573-0.542-0.573 0.542-0.040-0.052zM28.304 20.529l-0.040-0.052 0.613-0.58 0.613 0.58-0.040 0.052-0.573-0.542-0.573 0.542zM30.135 19.643l-0.040 0.052-1.218-1.153-1.218 1.153-0.040-0.052 1.258-1.191 1.258 1.191zM26.973 18.808l1.904-1.801 1.904 1.801-0.040 0.052-1.864-1.763-1.864 1.763-0.040-0.052zM37.144 19.987l-0.573 0.542-0.040-0.052 0.613-0.58 0.613 0.58-0.040 0.052-0.573-0.542zM37.144 18.542l-1.218 1.153-0.040-0.052 1.258-1.191 1.258 1.191-0.040 0.052-1.218-1.153zM37.144 17.097l-1.864 1.763-0.040-0.052 1.904-1.801 1.904 1.801-0.040 0.052-1.864-1.763zM25.723 17.191l-0.040-0.052 3.194-3.022 3.194 3.022-0.040 0.052-3.154-2.984-3.154 2.984zM31.753 14.297l1.258-1.19 1.258 1.19-0.040 0.052-1.218-1.152-1.218 1.152-0.040-0.052zM33.011 14.641l-0.573 0.542-0.040-0.052 0.613-0.58 0.613 0.58-0.040 0.052-0.573-0.542zM37.144 15.652l-2.595 2.456 0.032 0.042-1.57-1.486-1.571 1.486 0.259-0.334 1.312-1.241 1.315 1.244 0.064 0.084 0.119 0.153 2.635-2.493 2.549 2.412-0.040 0.052-2.509-2.374zM33.99 17.191l-0.040-0.052 3.194-3.022 3.194 3.022-0.040 0.052-3.154-2.984-3.154 2.984zM40.060 14.348l-0.040-0.052 1.258-1.19 1.258 1.19-0.040 0.052-1.218-1.152-1.218 1.152zM41.278 14.641l-0.573 0.542-0.040-0.052 0.613-0.58 0.613 0.58-0.040 0.052-0.573-0.542zM42.257 17.191l-0.040-0.052 3.194-3.022 3.194 3.022-0.040 0.052-3.154-2.984-3.154 2.984zM48.327 14.348l-0.040-0.052 1.258-1.19 1.258 1.19-0.040 0.052-1.218-1.152-1.218 1.152zM49.545 14.641l-0.572 0.542-0.040-0.052 0.612-0.58 0.613 0.58-0.040 0.052-0.573-0.542zM50.524 17.191l-0.040-0.052 3.194-3.022 3.194 3.022-0.040 0.052-3.154-2.984-3.154 2.984zM54.937 19.643l-0.040 0.052-1.218-1.153-1.218 1.153-0.040-0.052 1.259-1.191 1.258 1.191zM51.775 18.808l1.904-1.801 1.904 1.801-0.040 0.052-1.864-1.763-1.864 1.763-0.040-0.052zM49.545 16.663l-1.57 1.485 0.261-0.338 1.309-1.238 1.315 1.244 0.064 0.084 0.119 0.153 2.635-2.493 2.549 2.412-0.040 0.052-2.509-2.374-2.596 2.456 0.032 0.041-1.57-1.486zM46.67 19.643l-0.040 0.052-1.218-1.153-1.218 1.153-0.040-0.052 1.259-1.191 1.258 1.191zM43.508 18.808l1.904-1.801 1.904 1.801-0.040 0.052-1.864-1.763-1.864 1.763-0.040-0.052zM41.278 16.663l-1.57 1.486 0.261-0.338 1.309-1.238 1.315 1.244 0.064 0.084 0.119 0.153 2.635-2.493 2.549 2.412-0.040 0.052-2.509-2.374-2.595 2.456 0.032 0.042-1.571-1.486zM36.164 22.537l-3.154-2.984-3.154 2.984-0.040-0.052 3.194-3.022 3.194 3.022-0.040 0.052zM29.171 21.651l3.839-3.632 3.839 3.632-0.040 0.052-3.799-3.594-3.799 3.594-0.040-0.052zM27.897 22.537l-3.154-2.984-3.154 2.984-0.040-0.052 3.194-3.022 3.194 3.022-0.040 0.052zM28.582 21.651l-0.040 0.052-3.799-3.594-3.799 3.594-0.040-0.052 3.839-3.632 3.839 3.632zM18.706 18.808l1.904-1.801 1.904 1.801-0.040 0.052-1.864-1.763-1.864 1.763-0.040-0.052zM21.223 20.477l-0.040 0.052-0.573-0.542-0.573 0.542-0.040-0.052 0.613-0.58 0.613 0.58zM19.351 19.643l1.258-1.191 1.258 1.191-0.040 0.052-1.218-1.153-1.218 1.153-0.040-0.052zM17.455 17.191l-0.040-0.052 3.194-3.022 3.194 3.022-0.040 0.052-3.154-2.984-3.154 2.984zM26.059 17.818l0.064 0.084 0.119 0.153 2.635-2.493 2.549 2.412-0.040 0.052-2.509-2.374-2.595 2.456 0.032 0.042-1.57-1.486-1.571 1.486 0.261-0.338 1.309-1.238 1.315 1.244zM61.946 12.762l-3.8 3.595-0.040-0.052 3.84-3.633 3.84 3.633-0.040 0.052-3.8-3.595zM66.080 14.641l-0.573 0.542-0.040-0.052 0.611-0.579 0.001 0.001 0.001-0.001 0.612 0.579-0.040 0.052-0.573-0.542zM64.217 13.514l-0.040-0.052 1.904-1.8 1.903 1.8-0.040 0.052-1.863-1.763-1.863 1.763zM66.080 13.196l-1.218 1.152-0.040-0.052 1.259-1.19 1.257 1.19-0.040 0.052-1.218-1.152zM57.813 19.464l3.193 3.021-0.040 0.052-3.154-2.984-3.154 2.984-0.040-0.052 3.194-3.021zM53.973 21.651l3.84-3.632 3.839 3.632-0.040 0.052-3.799-3.594-3.799 3.594-0.040-0.052zM52.739 22.485l-0.040 0.052-3.154-2.984-3.154 2.984-0.040-0.052 3.194-3.022 3.194 3.022zM45.706 21.651l3.839-3.632 3.839 3.632-0.040 0.052-3.799-3.594-3.799 3.594-0.040-0.052zM42.536 24.989l-0.040 0.052-1.218-1.152-1.218 1.152-0.040-0.052 1.258-1.19 1.258 1.19zM39.375 24.154l1.903-1.801 1.903 1.801-0.040 0.052-1.863-1.763-1.863 1.763-0.040-0.052zM35.612 23.445l0.223-0.288 1.31-1.238 1.316 1.245 0.183 0.238 2.635-2.493 2.549 2.411-0.040 0.052-2.508-2.373-2.595 2.455 0.032 0.042-1.571-1.486-1.571 1.486 0.032-0.042-0.072-0.068 0.078 0.060zM34.268 24.989l-0.040 0.052-1.218-1.152-1.218 1.152-0.040-0.052 1.258-1.19 1.258 1.19zM31.107 24.154l1.903-1.801 1.903 1.801-0.040 0.052-1.863-1.763-1.863 1.763-0.040-0.052zM27.344 23.445l0.223-0.288 1.31-1.238 1.316 1.245 0.183 0.238 2.635-2.493 2.549 2.411-0.040 0.052-2.508-2.373-2.595 2.455 0.032 0.042-1.571-1.486-1.571 1.486 0.032-0.042-0.072-0.068 0.078 0.060zM26.001 24.988l-0.040 0.052-1.218-1.152-1.218 1.152-0.040-0.052 1.258-1.19 1.258 1.19zM22.84 24.154l1.903-1.801 1.903 1.801-0.040 0.052-1.863-1.763-1.863 1.763-0.040-0.052zM19.077 23.445l0.223-0.288 1.31-1.238 1.316 1.245 0.183 0.238 2.635-2.493 2.548 2.411-0.040 0.052-2.508-2.373-2.595 2.455 0.032 0.041-1.571-1.486-1.571 1.486 0.032-0.042-0.072-0.068 0.078 0.060zM16.479 23.801l1.255 1.187-0.040 0.052-1.218-1.152-1.218 1.152-0.040-0.052 1.257-1.189 0.003 0.003 0.001-0.001zM14.573 24.154l1.902-1.8 0.003 0.003 0.001-0.001 1.9 1.798-0.040 0.052-1.863-1.763-1.863 1.763-0.040-0.052zM5.055 22.537l-0.040-0.052 3.194-3.022 3.194 3.022-0.040 0.052-3.154-2.984-3.154 2.984zM13.658 23.164l0.183 0.238 2.635-2.493 2.548 2.411-0.040 0.052-2.508-2.373-2.595 2.455 0.032 0.041-1.571-1.486-1.571 1.486 0.032-0.042-0.072-0.068 0.078 0.060 0.223-0.288 1.31-1.238 1.316 1.245zM16.182 16.305l-0.040 0.052-3.8-3.595-3.8 3.595-0.040-0.052 3.84-3.633 3.84 3.633zM6.305 13.462l1.903-1.801 1.903 1.801-0.040 0.052-1.863-1.763-1.863 1.763-0.040-0.052zM8.821 15.131l-0.040 0.052-0.573-0.542-0.573 0.542-0.040-0.052 0.613-0.58 0.613 0.58zM6.951 14.297l1.258-1.19 1.258 1.19-0.040 0.052-1.218-1.152-1.218 1.152-0.040-0.052zM13.322 11.845l-0.040-0.052 3.194-3.022 3.194 3.022-0.040 0.052-3.154-2.984-3.154 2.984zM22.108 12.709l2.635-2.493 2.548 2.411-0.040 0.052-2.508-2.373-2.595 2.455 0.032 0.042-1.571-1.486-1.571 1.486 0.032-0.042-0.072-0.068 0.078 0.060 0.223-0.288 1.31-1.238 1.316 1.245 0.183 0.238zM19.391 9.002l-0.040-0.052 1.258-1.191 1.258 1.191-0.040 0.052-1.218-1.153-1.218 1.153zM20.61 9.295l-0.573 0.542-0.040-0.052 0.613-0.58 0.613 0.58-0.040 0.052-0.573-0.542zM30.376 12.709l2.635-2.493 2.549 2.411-0.040 0.052-2.508-2.373-2.595 2.455 0.032 0.042-1.571-1.486-1.571 1.486 0.032-0.042-0.072-0.068 0.078 0.060 0.223-0.288 1.31-1.238 1.316 1.245 0.183 0.238zM27.658 9.002l-0.040-0.052 1.258-1.191 1.258 1.191-0.040 0.052-1.218-1.153-1.218 1.153zM28.877 9.295l-0.573 0.542-0.040-0.052 0.613-0.58 0.613 0.58-0.040 0.052-0.573-0.542zM38.643 12.709l2.635-2.493 2.549 2.411-0.040 0.052-2.508-2.373-2.595 2.455 0.032 0.042-1.571-1.486-1.571 1.486 0.032-0.042-0.072-0.068 0.078 0.060 0.223-0.288 1.31-1.238 1.316 1.245 0.183 0.238zM35.926 9.002l-0.040-0.052 1.258-1.191 1.258 1.191-0.040 0.052-1.218-1.153-1.218 1.153zM37.144 9.295l-0.573 0.542-0.040-0.052 0.613-0.58 0.613 0.58-0.040 0.052-0.573-0.542zM44.193 9.002l-0.040-0.052 1.259-1.191 1.258 1.191-0.040 0.052-1.218-1.153-1.218 1.153zM45.412 9.295l-0.573 0.542-0.040-0.052 0.613-0.58 0.613 0.58-0.040 0.052-0.573-0.542zM46.391 11.845l-0.040-0.052 3.194-3.022 3.194 3.022-0.040 0.052-3.154-2.984-3.154 2.984zM52.46 9.002l-0.040-0.052 1.259-1.191 1.258 1.191-0.040 0.052-1.218-1.153-1.218 1.153zM53.679 9.295l-0.573 0.542-0.040-0.052 0.613-0.58 0.613 0.58-0.040 0.052-0.573-0.542zM54.659 11.845l-0.040-0.052 3.194-3.021 3.193 3.021-0.040 0.052-3.154-2.984-3.154 2.984zM60.728 9.002l-0.040-0.052 1.258-1.191 1.259 1.191-0.040 0.052-1.218-1.153-1.218 1.153zM61.946 9.295l-0.573 0.542-0.040-0.052 0.613-0.58 0.613 0.58-0.040 0.052-0.573-0.542zM62.926 11.845l-0.040-0.052 3.194-3.021 3.193 3.021-0.040 0.052-3.154-2.984-3.154 2.984zM66.080 10.306l-2.595 2.455 0.032 0.042-1.571-1.486-1.571 1.486 0.032-0.041-2.595-2.455-2.595 2.455 0.032 0.041-1.57-1.486-1.571 1.486 0.032-0.042-2.595-2.455-2.595 2.455 0.032 0.042-1.571-1.486-1.571 1.486 0.032-0.042-0.072-0.068 0.078 0.060 0.223-0.288 1.31-1.238 1.316 1.245 0.183 0.238 2.635-2.493 2.635 2.493 0.189-0.245 1.31-1.238 1.316 1.245 0.183 0.238 2.636-2.492 2.634 2.492 0.189-0.245 1.31-1.238 1.316 1.245 0.183 0.238 2.636-2.492 2.548 2.411-0.040 0.052-2.509-2.373zM70.213 12.762l-3.8 3.595-0.040-0.052 3.84-3.633 3.84 3.633-0.040 0.052-3.8-3.595zM74.347 14.641l-0.573 0.542-0.040-0.052 0.612-0.579 0.001 0.001 0.001-0.001 0.612 0.579-0.040 0.052-0.573-0.542zM72.484 13.514l-0.040-0.052 1.904-1.8 1.903 1.8-0.040 0.052-1.863-1.763-1.863 1.763zM74.347 13.196l-1.218 1.152-0.040-0.052 1.259-1.19 1.257 1.19-0.040 0.052-1.218-1.152zM74.347 25.333l-0.573 0.542-0.040-0.052 0.612-0.579 0.001 0.001 0.001-0.001 0.612 0.579-0.040 0.052-0.573-0.542zM72.484 24.206l-0.040-0.052 1.9-1.797 0.003 0.004 0.004-0.004 1.9 1.798-0.040 0.052-1.863-1.763-1.863 1.763zM74.347 23.888l-1.218 1.152-0.040-0.052 1.254-1.187 0.003 0.004 0.004-0.004 1.255 1.187-0.040 0.052-1.218-1.152zM73.408 27.831l-0.040 0.052-3.154-2.984-3.154 2.984-0.040-0.052 3.194-3.022 3.194 3.022zM66.374 26.997l3.84-3.633 3.84 3.633-0.040 0.052-3.8-3.595-3.8 3.595-0.040-0.052zM65.141 27.831l-0.040 0.052-3.154-2.984-3.154 2.984-0.040-0.052 3.194-3.022 3.194 3.022zM58.106 26.997l3.84-3.633 3.84 3.633-0.040 0.052-3.8-3.595-3.8 3.595-0.040-0.052zM56.873 27.831l-0.040 0.052-3.154-2.984-3.154 2.984-0.040-0.052 3.194-3.022 3.194 3.022zM49.839 26.997l3.84-3.633 3.84 3.633-0.040 0.052-3.8-3.595-3.8 3.595-0.040-0.052zM48.606 27.831l-0.040 0.052-3.154-2.984-3.154 2.984-0.040-0.052 3.194-3.022 3.194 3.022zM41.572 26.997l3.84-3.633 3.84 3.633-0.040 0.052-3.8-3.595-3.8 3.595-0.040-0.052zM40.339 27.831l-0.040 0.052-3.154-2.984-3.154 2.984-0.040-0.052 3.194-3.022 3.194 3.022zM33.304 26.997l3.84-3.633 3.84 3.633-0.040 0.052-3.8-3.595-3.8 3.595-0.040-0.052zM32.071 27.831l-0.040 0.052-3.154-2.984-3.154 2.984-0.040-0.052 3.194-3.022 3.194 3.022zM25.037 26.997l3.84-3.633 3.84 3.633-0.040 0.052-3.8-3.595-3.8 3.595-0.040-0.052zM23.804 27.831l-0.040 0.052-3.154-2.984-3.154 2.984-0.040-0.052 3.194-3.022 3.194 3.022zM16.77 26.997l3.84-3.633 3.84 3.633-0.040 0.052-3.8-3.595-3.8 3.595-0.040-0.052zM15.537 27.831l-0.040 0.052-3.154-2.984-3.154 2.984-0.040-0.052 3.194-3.022 3.194 3.022zM8.503 26.997l3.84-3.633 3.84 3.633-0.040 0.052-3.8-3.595-3.8 3.595-0.040-0.052zM7.269 27.831l-0.040 0.052-3.154-2.984-3.154 2.984-0.040-0.052 3.194-3.022 3.194 3.022zM0.235 26.997l3.84-3.633 3.84 3.633-0.040 0.052-3.8-3.595-3.8 3.595-0.040-0.052zM74.347 7.416l-3.799 3.594-0.040-0.052 3.84-3.632 3.838 3.632-0.040 0.052-3.799-3.594zM78.481 9.295l-0.573 0.542-0.040-0.052 0.613-0.58 0.613 0.58-0.040 0.052-0.573-0.542zM78.481 7.85l-1.218 1.153-0.040-0.052 1.258-1.191 1.258 1.191-0.040 0.052-1.219-1.153zM78.481 6.405l-1.864 1.763-0.040-0.052 1.904-1.801 1.904 1.801-0.040 0.052-1.864-1.763zM78.481 4.96l-2.595 2.456 0.032 0.042-1.571-1.486-1.571 1.486 0.262-0.338 1.31-1.237 1.315 1.244 0.183 0.238 2.635-2.493 2.549 2.412-0.040 0.052-2.509-2.374zM78.481 3.515l-3.154 2.984-0.040-0.052 3.194-3.022 3.194 3.022-0.040 0.052-3.154-2.984zM82.32 5.613l-0.040 0.052-3.8-3.595-3.8 3.595-0.040-0.052 3.84-3.633 3.84 3.633zM74.347 2.422l0.004-0.004 1.255 1.187-0.040 0.052-1.218-1.152-1.218 1.152-0.040-0.052 1.254-1.187 0.003 0.004zM74.346 3.861l0.001 0.001 0.001-0.001 0.612 0.579-0.040 0.052-0.573-0.542-0.573 0.542-0.040-0.052 0.612-0.579zM73.408 6.447l-0.040 0.052-3.154-2.984-3.154 2.984-0.040-0.052 3.194-3.022 3.194 3.022zM74.053 5.613l-0.040 0.052-3.8-3.595-3.8 3.595-0.040-0.052 3.84-3.633 3.84 3.633zM66.079 2.422l0.004-0.004 1.255 1.187-0.040 0.052-1.218-1.152-1.218 1.152-0.040-0.052 1.254-1.187 0.003 0.004zM66.079 3.861l0.001 0.001 0.001-0.001 0.612 0.579-0.040 0.052-0.573-0.542-0.573 0.542-0.040-0.052 0.611-0.579zM65.141 6.447l-0.040 0.052-3.154-2.984-3.154 2.984-0.040-0.052 3.194-3.022 3.194 3.022zM65.786 5.613l-0.040 0.052-3.8-3.595-3.8 3.595-0.040-0.052 3.84-3.633 3.84 3.633zM57.812 2.422l0.004-0.004 1.255 1.187-0.040 0.052-1.218-1.152-1.218 1.152-0.040-0.052 1.254-1.187 0.003 0.004zM57.811 3.861l0.001 0.001 0.001-0.001 0.612 0.579-0.040 0.052-0.573-0.542-0.573 0.542-0.040-0.052 0.611-0.579zM56.873 6.447l-0.040 0.052-3.154-2.984-3.154 2.984-0.040-0.052 3.194-3.022 3.194 3.022zM57.519 5.613l-0.040 0.052-3.8-3.595-3.8 3.595-0.040-0.052 3.84-3.633 3.84 3.633zM50.803 3.605l-0.040 0.052-1.218-1.152-1.218 1.152-0.040-0.052 1.258-1.19 1.258 1.19zM49.545 3.86l0.613 0.58-0.040 0.052-0.573-0.542-0.572 0.542-0.040-0.052 0.613-0.58zM48.606 6.447l-0.040 0.052-3.154-2.984-3.154 2.984-0.040-0.052 3.194-3.022 3.194 3.022zM49.251 5.613l-0.040 0.052-3.8-3.595-3.8 3.595-0.040-0.052 3.84-3.633 3.84 3.633zM42.536 3.605l-0.040 0.052-1.218-1.152-1.218 1.152-0.040-0.052 1.258-1.19 1.258 1.19zM41.278 3.86l0.613 0.58-0.040 0.052-0.573-0.542-0.573 0.542-0.040-0.052 0.613-0.58zM40.339 6.447l-0.040 0.052-3.154-2.984-3.154 2.984-0.040-0.052 3.194-3.022 3.194 3.022zM40.984 5.613l-0.040 0.052-3.8-3.595-3.8 3.595-0.040-0.052 3.84-3.633 3.84 3.633zM34.268 3.605l-0.040 0.052-1.218-1.152-1.218 1.152-0.040-0.052 1.258-1.19 1.258 1.19zM33.011 3.86l0.612 0.58-0.040 0.052-0.573-0.542-0.573 0.542-0.040-0.052 0.613-0.58zM32.071 6.447l-0.040 0.052-3.154-2.984-3.154 2.984-0.040-0.052 3.194-3.022 3.194 3.022zM32.717 5.613l-0.040 0.052-3.8-3.595-3.8 3.595-0.040-0.052 3.84-3.633 3.84 3.633zM26.001 3.605l-0.040 0.052-1.218-1.152-1.218 1.152-0.040-0.052 1.258-1.19 1.258 1.19zM24.743 3.86l0.613 0.58-0.040 0.052-0.573-0.542-0.573 0.542-0.040-0.052 0.613-0.58zM23.804 6.447l-0.040 0.052-3.154-2.984-3.154 2.984-0.040-0.052 3.194-3.022 3.194 3.022zM24.449 5.613l-0.040 0.052-3.8-3.595-3.8 3.595-0.040-0.052 3.84-3.633 3.84 3.633zM16.478 2.419l0.001-0.001 1.255 1.187-0.040 0.052-1.218-1.152-1.218 1.152-0.040-0.052 1.257-1.189 0.003 0.003zM16.476 3.86l0.613 0.58-0.040 0.052-0.573-0.542-0.573 0.542-0.040-0.052 0.613-0.58zM15.537 6.447l-0.040 0.052-3.154-2.984-3.154 2.984-0.040-0.052 3.194-3.022 3.194 3.022zM16.182 5.613l-0.040 0.052-3.8-3.595-3.8 3.595-0.040-0.052 3.84-3.633 3.84 3.633zM8.206 2.419l0.004-0.003 1.257 1.19-0.040 0.052-1.218-1.152-1.218 1.152-0.040-0.052 1.255-1.186zM8.209 3.86l0.613 0.58-0.040 0.052-0.573-0.542-0.573 0.542-0.040-0.052 0.613-0.58zM7.269 6.447l-0.040 0.052-3.154-2.984-3.154 2.984-0.040-0.052 3.194-3.022 3.194 3.022zM0.235 5.613l3.84-3.633 3.84 3.633-0.040 0.052-3.8-3.595-3.8 3.595-0.040-0.052zM79.094 31.169l-0.040 0.052-0.573-0.542-0.573 0.542-0.040-0.052 0.613-0.58 0.613 0.58z"></path>
</svg>
