<!-- Generated by IcoMoon.io -->
<svg version="1.1" xmlns="http://www.w3.org/2000/svg" width="32" height="32" viewBox="0 0 32 32">
<title>arrow-right</title>
<path d="M31.475 14.797l-11.549-11.11c-0.33-0.32-0.768-0.496-1.238-0.496-0.467 0-0.909 0.176-1.238 0.496l-1.046 1.008c-0.33 0.317-0.512 0.739-0.512 1.19s0.182 0.89 0.512 1.206l6.736 6.499h-21.405c-0.966 0-1.728 0.723-1.728 1.651v1.43c0 0.928 0.762 1.728 1.728 1.728h21.482l-6.813 6.534c-0.33 0.317-0.512 0.73-0.512 1.181 0 0.448 0.182 0.867 0.512 1.184l1.046 1.005c0.33 0.317 0.771 0.49 1.238 0.49 0.47 0 0.909-0.173 1.238-0.493l11.549-11.11c0.333-0.32 0.512-0.742 0.512-1.197 0-0.451-0.179-0.877-0.512-1.197z"></path>
</svg>
