<!-- Generated by IcoMoon.io -->
<svg version="1.1" xmlns="http://www.w3.org/2000/svg" width="32" height="32" viewBox="0 0 32 32">
<title>basket</title>
<path d="M28.798 27.67l-1.832-20.637c-0.038-0.459-0.424-0.806-0.875-0.806h-3.766c-0.053-3.443-2.864-6.224-6.317-6.224s-6.264 2.781-6.317 6.224h-3.766c-0.458 0-0.837 0.347-0.875 0.806l-1.832 20.637c0 0.027-0.006 0.053-0.006 0.078 0 2.35 2.152 4.261 4.8 4.261h15.994c2.648 0 4.8-1.91 4.8-4.261 0-0.026 0-0.051-0.006-0.078v0zM16.008 1.77c2.478 0 4.499 1.99 4.55 4.458h-9.101c0.051-2.467 2.072-4.458 4.55-4.458v0zM24.005 30.243h-15.994c-1.661 0-3.008-1.099-3.034-2.454l1.752-19.787h2.955v2.683c0 0.491 0.392 0.883 0.883 0.883 0.49 0 0.883-0.392 0.883-0.883v-2.683h9.107v2.683c0 0.491 0.394 0.883 0.883 0.883 0.491 0 0.883-0.392 0.883-0.883v-2.683h2.955l1.758 19.787c-0.026 1.355-1.379 2.454-3.034 2.454v0z"></path>
</svg>
