<svg width="26px" height="30px" viewBox="0 0 26 29">
	<path d="M 0 5.4375 C 0 4.433594 0.828125 3.625 1.855469 3.625 L 24.144531 3.625 C 25.171875 3.625 26 4.433594 26 5.4375 C 26 6.441406 25.171875 7.25 24.144531 7.25 L 1.855469 7.25 C 0.828125 7.25 0 6.441406 0 5.4375 Z M 0 14.5 C 0 13.496094 0.828125 12.6875 1.855469 12.6875 L 24.144531 12.6875 C 25.171875 12.6875 26 13.496094 26 14.5 C 26 15.503906 25.171875 16.3125 24.144531 16.3125 L 1.855469 16.3125 C 0.828125 16.3125 0 15.503906 0 14.5 Z M 26 23.5625 C 26 24.566406 25.171875 25.375 24.144531 25.375 L 1.855469 25.375 C 0.828125 25.375 0 24.566406 0 23.5625 C 0 22.558594 0.828125 21.75 1.855469 21.75 L 24.144531 21.75 C 25.171875 21.75 26 22.558594 26 23.5625 Z M 26 23.5625 " />
</svg>
