<svg width="16px" height="18px">
	<path d="M 5.429688 0.84375 C 5.429688 0.375 5.046875 0 4.570312 0 C 4.097656 0 3.714844 0.375 3.714844 0.84375 L 3.714844 2.25 L 2.285156 2.25 C 1.023438 2.25 0 3.257812 0 4.5 L 0 15.75 C 0 16.992188 1.023438 18 2.285156 18 L 13.714844 18 C 14.976562 18 16 16.992188 16 15.75 L 16 4.5 C 16 3.257812 14.976562 2.25 13.714844 2.25 L 12.285156 2.25 L 12.285156 0.84375 C 12.285156 0.375 11.902344 0 11.429688 0 C 10.953125 0 10.570312 0.375 10.570312 0.84375 L 10.570312 2.25 L 5.429688 2.25 Z M 1.714844 6.75 L 4.570312 6.75 L 4.570312 8.71875 L 1.714844 8.71875 Z M 1.714844 10.40625 L 4.570312 10.40625 L 4.570312 12.65625 L 1.714844 12.65625 Z M 6.285156 10.40625 L 9.714844 10.40625 L 9.714844 12.65625 L 6.285156 12.65625 Z M 11.429688 10.40625 L 14.285156 10.40625 L 14.285156 12.65625 L 11.429688 12.65625 Z M 14.285156 8.71875 L 11.429688 8.71875 L 11.429688 6.75 L 14.285156 6.75 Z M 14.285156 14.34375 L 14.285156 15.75 C 14.285156 16.058594 14.027344 16.3125 13.714844 16.3125 L 11.429688 16.3125 L 11.429688 14.34375 Z M 9.714844 14.34375 L 9.714844 16.3125 L 6.285156 16.3125 L 6.285156 14.34375 Z M 4.570312 14.34375 L 4.570312 16.3125 L 2.285156 16.3125 C 1.972656 16.3125 1.714844 16.058594 1.714844 15.75 L 1.714844 14.34375 Z M 9.714844 8.71875 L 6.285156 8.71875 L 6.285156 6.75 L 9.714844 6.75 Z M 9.714844 8.71875 " />
</svg>
