<!-- Generated by IcoMoon.io -->
<svg version="1.1" xmlns="http://www.w3.org/2000/svg" width="32" height="32" viewBox="0 0 32 32">
<title>cart</title>
<path d="M25.367 30.545c-2.178-0.013-3.939-1.782-3.939-3.962 0-2.188 1.774-3.962 3.962-3.962s3.962 1.774 3.962 3.962v0c-0.012 2.191-1.79 3.962-3.983 3.962-0.001 0-0.002 0-0.003 0h0zM25.367 24.998c-0.876 0-1.585 0.71-1.585 1.585s0.71 1.585 1.585 1.585c0.876 0 1.585-0.71 1.585-1.585v0c-0.001-0.876-0.71-1.587-1.585-1.59h-0zM27.913 20.916h-18.633c-0 0-0 0-0.001 0-0.56 0-1.031-0.385-1.161-0.905l-0.002-0.008-3.898-16.167h-2.996c-0.656 0-1.188-0.532-1.188-1.188s0.532-1.188 1.188-1.188v0h3.942c0.56 0 1.030 0.384 1.162 0.904l0.002 0.008 1.076 4.477h23.418c0.003-0 0.006-0 0.009-0 0.657 0 1.19 0.533 1.19 1.19 0 0.101-0.013 0.2-0.036 0.293l0.002-0.008-2.909 11.692c-0.137 0.52-0.603 0.897-1.158 0.897-0.002 0-0.004 0-0.006 0h0zM10.225 18.538h16.756l2.313-9.309h-21.309zM10.88 30.545c-2.178-0.013-3.939-1.782-3.939-3.962 0-2.188 1.774-3.962 3.962-3.962s3.962 1.774 3.962 3.962v0c-0.012 2.191-1.79 3.962-3.982 3.962-0.001 0-0.002 0-0.003 0h0zM10.88 24.998c-0.876 0-1.585 0.71-1.585 1.585s0.71 1.585 1.585 1.585c0.876 0 1.585-0.71 1.585-1.585v0c-0.001-0.876-0.71-1.587-1.585-1.59h-0z"></path>
</svg>
