<!-- Generated by IcoMoon.io -->
<svg version="1.1" xmlns="http://www.w3.org/2000/svg" width="32" height="32" viewBox="0 0 32 32">
<title>clock</title>
<path d="M16 17.331c-0.736 0-1.333-0.597-1.333-1.333v-9.333c0-0.736 0.597-1.334 1.333-1.334s1.333 0.598 1.333 1.334v8h5.334c0.736 0 1.333 0.597 1.333 1.333s-0.597 1.333-1.333 1.333h-6.667zM16 31.998c-8.822 0-16-7.178-16-16s7.178-16 16-16c3.603 0 7.133 1.227 9.936 3.456 0.578 0.458 0.674 1.296 0.214 1.872-0.458 0.578-1.299 0.674-1.874 0.214-2.368-1.88-5.23-2.875-8.277-2.875-7.352 0-13.333 5.981-13.333 13.333s5.981 13.333 13.333 13.333c7.352 0 13.333-5.981 13.333-13.333 0-2.040-0.443-3.989-1.32-5.798-0.32-0.664-0.043-1.461 0.619-1.782 0.661-0.32 1.461-0.043 1.781 0.619 1.053 2.174 1.587 4.517 1.587 6.962 0 8.822-7.178 16-16 16z"></path>
</svg>
