<!-- Generated by IcoMoon.io -->
<svg version="1.1" xmlns="http://www.w3.org/2000/svg" width="32" height="32" viewBox="0 0 32 32">
<title>heart</title>
<path d="M31.6 7.342c-1.010-3.277-3.463-5.835-6.598-6.97l-0.074-0.024c-2.736-0.952-6 0-8.928 2.578-2.928-2.51-6.208-3.395-8.928-2.51-3.182 1.202-5.617 3.742-6.65 6.916l-0.022 0.078c-0.752 2.512-0.816 6.587 3.12 11.544 1.776 2.24 4.512 5.44 6.752 7.944 4.288 4.822 4.976 5.093 5.584 5.093h0.272c0.624 0 1.232-0.269 5.52-5.158 2.256-2.581 4.976-5.774 6.752-7.946 3.952-4.957 3.952-9.032 3.2-11.544zM26.352 17.262c-3.136 3.939-8.512 10.118-10.352 11.816-1.84-1.698-7.232-7.878-10.368-11.816-2.576-3.19-3.536-6.315-2.72-9.099 0.769-2.421 2.594-4.307 4.92-5.143l0.056-0.017c1.968-0.747 4.64 0.27 7.088 2.648 0.245 0.255 0.589 0.414 0.97 0.414 0.269 0 0.52-0.079 0.731-0.216l-0.005 0.003c0.146-0.053 0.267-0.148 0.35-0.27l0.002-0.002c2.448-2.309 5.104-3.326 7.072-2.648 2.371 0.906 4.185 2.803 4.959 5.17l0.017 0.058c0.816 2.718-0.128 5.902-2.72 9.093z"></path>
</svg>
