<!-- Generated by IcoMoon.io -->
<svg version="1.1" xmlns="http://www.w3.org/2000/svg" width="32" height="32" viewBox="0 0 32 32">
<title>linkedin</title>
<path d="M8.266 28h-5.805v-18.695h5.805zM5.359 6.758c-1.852 0-3.359-1.539-3.359-3.398 0-1.852 1.508-3.359 3.359-3.359 1.859 0 3.367 1.508 3.367 3.359 0 1.859-1.508 3.398-3.367 3.398zM29.992 28h-5.789v-9.102c0-2.164-0.047-4.945-3.023-4.945-3.016 0-3.477 2.352-3.477 4.789v9.258h-5.797v-18.695h5.563v2.555h0.086c0.773-1.469 2.664-3.023 5.492-3.023 5.875 0 6.953 3.867 6.953 8.898v10.266z"></path>
</svg>
