<!-- Generated by IcoMoon.io -->
<svg version="1.1" xmlns="http://www.w3.org/2000/svg" width="32" height="32" viewBox="0 0 32 32">
<title>pinterest</title>
<path d="M16.75 0.406c-6.414 0-12.75 4.273-12.75 11.195 0 4.398 2.477 6.898 3.977 6.898 0.617 0 0.977-1.727 0.977-2.211 0-0.586-1.484-1.82-1.484-4.242 0-5.023 3.828-8.586 8.773-8.586 4.258 0 7.406 2.422 7.406 6.867 0 3.313-1.328 9.539-5.641 9.539-1.555 0-2.891-1.125-2.891-2.734 0-2.367 1.648-4.648 1.648-7.086 0-4.141-5.867-3.391-5.867 1.609 0 1.047 0.133 2.211 0.602 3.172-0.859 3.711-2.625 9.242-2.625 13.063 0 1.188 0.172 2.344 0.281 3.531 0.211 0.234 0.109 0.211 0.43 0.094 3.148-4.313 3.039-5.156 4.461-10.805 0.773 1.461 2.758 2.25 4.336 2.25 6.633 0 9.617-6.469 9.617-12.297 0-6.211-5.359-10.258-11.25-10.258z"></path>
</svg>
