<!-- Generated by IcoMoon.io -->
<svg version="1.1" xmlns="http://www.w3.org/2000/svg" width="32" height="32" viewBox="0 0 32 32">
<title>return</title>
<path fill="#34c3ff" d="M0 0h32v32h-32v-32z"></path>
<path fill="#fff" d="M13.71 16.384c0 0.375-0.35 0.594-0.859 0.594-0.292 0-0.534-0.071-0.663-0.154l0.114-0.411c0.078 0.038 0.295 0.13 0.505 0.13 0.19 0 0.324-0.057 0.324-0.195 0-0.142-0.161-0.219-0.333-0.219h-0.245v-0.393h0.236c0.129 0 0.295-0.042 0.295-0.165 0-0.092-0.094-0.154-0.272-0.154-0.184 0-0.382 0.083-0.459 0.124l-0.117-0.396c0.134-0.083 0.401-0.159 0.698-0.159 0.438 0 0.71 0.207 0.71 0.493 0 0.207-0.114 0.366-0.371 0.449v0.006c0.237 0.029 0.435 0.201 0.435 0.449zM14.765 16.978c-0.57 0-0.797-0.47-0.797-0.996 0-0.523 0.228-0.996 0.801-0.996s0.801 0.473 0.801 0.996c0 0.526-0.228 0.996-0.801 0.996h-0.003zM15.019 15.982c0-0.408-0.099-0.591-0.251-0.591s-0.251 0.183-0.251 0.591c0 0.407 0.099 0.594 0.251 0.594h0.003c0.149 0 0.249-0.186 0.249-0.594zM17.053 16.966c-0.292 0-0.476-0.018-0.585-0.035v-1.954c0.19-0.029 0.438-0.044 0.692-0.044 0.415 0 0.669 0.062 0.885 0.201 0.231 0.147 0.391 0.39 0.391 0.754 0 0.413-0.17 0.665-0.362 0.813-0.243 0.186-0.608 0.266-1.022 0.266zM17.213 15.356c-0.102 0-0.164 0.009-0.193 0.015v1.161c0.033 0.006 0.088 0.006 0.129 0.006 0.403 0.006 0.699-0.186 0.699-0.621 0-0.396-0.278-0.562-0.634-0.562zM19.273 15.823c-0.161 0-0.342 0.062-0.436 0.115l-0.096-0.348c0.093-0.050 0.307-0.136 0.628-0.136 0.494 0 0.705 0.251 0.705 0.641v0.488c0 0.154 0.009 0.295 0.023 0.361h-0.497l-0.029-0.124h-0.011c-0.106 0.118-0.258 0.159-0.421 0.159-0.316 0-0.503-0.221-0.503-0.458 0-0.39 0.345-0.571 0.889-0.571v-0.009c0-0.053-0.035-0.118-0.251-0.118zM19.182 16.467c0 0.083 0.055 0.131 0.158 0.131 0.085 0 0.172-0.066 0.196-0.151 0.006-0.024 0.006-0.053 0.006-0.080v-0.079c-0.243 0-0.359 0.062-0.359 0.18zM20.228 15.489h0.617l0.19 0.63c0.023 0.083 0.052 0.201 0.073 0.271h0.012c0.020-0.077 0.044-0.195 0.061-0.271l0.143-0.63h0.602l-0.304 0.83c-0.266 0.736-0.423 0.946-0.581 1.076-0.175 0.145-0.363 0.192-0.517 0.204l-0.102-0.467c0.050-0.003 0.111-0.018 0.179-0.042 0.073-0.024 0.151-0.089 0.187-0.13 0.018-0.020 0.029-0.047 0.029-0.068 0-0.018-0.003-0.041-0.023-0.085l-0.564-1.318zM22.236 13.183l-2.258-0.166 0.057-0.782 0.987 0.073c-1.095-1.217-2.648-1.924-4.297-1.924-3.206 0-5.815 2.638-5.815 5.882s2.609 5.883 5.815 5.883c1.939 0 3.745-0.976 4.831-2.611l0.644 0.438c-1.23 1.852-3.277 2.958-5.475 2.958-3.634 0-6.591-2.99-6.591-6.667 0-3.676 2.957-6.667 6.591-6.667 1.853 0 3.598 0.786 4.837 2.143l0.065-0.899 0.774 0.057-0.164 2.283z"></path>
</svg>
