<!-- Generated by IcoMoon.io -->
<svg version="1.1" xmlns="http://www.w3.org/2000/svg" width="32" height="32" viewBox="0 0 32 32">
<title>search</title>
<path d="M31.824 29.92l-9.296-9.296c1.766-2.165 2.836-4.959 2.836-8.003 0-7.020-5.691-12.71-12.71-12.71s-12.71 5.691-12.71 12.71c0 7.020 5.691 12.71 12.71 12.71 3.036 0 5.824-1.065 8.010-2.841l-0.023 0.018 9.296 9.296c0.121 0.121 0.288 0.196 0.472 0.196s0.351-0.075 0.472-0.196v0l0.944-0.942c0.119-0.121 0.192-0.288 0.192-0.471s-0.073-0.35-0.192-0.471l0 0zM12.688 22.667c-5.523 0-10-4.477-10-10s4.477-10 10-10c5.523 0 10 4.477 10 10v0c-0.007 5.519-4.481 9.99-10 9.994h-0z"></path>
</svg>
