<!-- Generated by IcoMoon.io -->
<svg version="1.1" xmlns="http://www.w3.org/2000/svg" width="32" height="32" viewBox="0 0 32 32">
<title>shipping</title>
<path fill="#ffb534" d="M0 0h32v32h-32v-32z"></path>
<path fill="#fff" d="M19.206 18.753c0.185 0 0.334 0.148 0.334 0.33s-0.149 0.33-0.334 0.33h-4.989c-0.184 0-0.334-0.148-0.334-0.33s0.15-0.33 0.334-0.33h4.989zM13.505 16.597c-0.085 0-0.171-0.033-0.236-0.097l-1.781-1.76c-0.131-0.129-0.131-0.338 0-0.467s0.342-0.129 0.473 0l1.545 1.527 2.971-2.935c0.131-0.129 0.342-0.129 0.473 0s0.131 0.338 0 0.467l-3.207 3.169c-0.065 0.065-0.151 0.097-0.236 0.097zM26.332 20.822h-1.092c0.001 0.007 0.001 0.014 0.001 0.022 0 1.153-0.949 2.090-2.116 2.090s-2.116-0.938-2.116-2.090c0-0.007 0.001-0.015 0.001-0.022h-7.529c0.001 0.007 0.001 0.014 0.001 0.022 0 1.153-0.949 2.090-2.116 2.090s-2.116-0.938-2.116-2.090c0-0.007 0.001-0.015 0.001-0.022h-1.804c-0.381 0-0.691-0.306-0.691-0.683v-0.726h-1.091c-0.185 0-0.334-0.148-0.334-0.33s0.149-0.33 0.334-0.33h3.207c0.185 0 0.334 0.148 0.334 0.33s-0.149 0.33-0.334 0.33h-1.447v0.726c0 0.013 0.010 0.022 0.022 0.022h1.92c0.287-0.819 1.075-1.409 1.999-1.409s1.713 0.59 1.999 1.409h6.931v-2.487c0-0.182 0.149-0.33 0.334-0.33s0.334 0.148 0.334 0.33v2.487h0.161c0.287-0.819 1.075-1.409 1.999-1.409s1.713 0.59 1.999 1.409h0.873v-1.452h-0.379c-0.577 0-1.046-0.464-1.046-1.035v-0.704c0-0.182 0.149-0.33 0.334-0.33h1.039c-0.141-0.433-0.553-0.748-1.038-0.748-0.001 0-0.001 0-0.001 0s-0.001 0-0.001 0h-3.94v0.374c0 0.182-0.15 0.33-0.334 0.33s-0.334-0.148-0.334-0.33v-5.986c0-0.012-0.010-0.022-0.022-0.022h-12.827c-0.012 0-0.022 0.010-0.022 0.022v5.985c0 0.183-0.15 0.331-0.334 0.331s-0.334-0.148-0.334-0.331v-5.985c0-0.376 0.31-0.682 0.691-0.682h12.827c0.381 0 0.691 0.306 0.691 0.682v0.726h2.516c0.773 0 1.403 0.622 1.403 1.387v0.351c0 0.159-0.114 0.291-0.265 0.323l0.553 2.183c0.844 0.127 1.493 0.85 1.493 1.719v3.521c0 0.182-0.149 0.33-0.334 0.33zM11.367 19.413c-0.798 0-1.447 0.642-1.447 1.43s0.649 1.43 1.447 1.43c0.798 0 1.447-0.641 1.447-1.43s-0.65-1.43-1.447-1.43zM23.125 19.413c-0.798 0-1.447 0.642-1.447 1.43s0.649 1.43 1.447 1.43c0.798 0 1.447-0.641 1.447-1.43s-0.65-1.43-1.447-1.43zM24.217 12.394c0-0.401-0.33-0.726-0.735-0.726h-2.516v0.748h3.251v-0.021zM23.933 13.076h-2.968v2.157h3.514l-0.546-2.157zM25.998 17.301h-0.757v0.374c0 0.206 0.17 0.374 0.378 0.374h0.379v-0.748zM23.125 21.526c-0.381 0-0.691-0.306-0.691-0.682s0.31-0.682 0.691-0.682 0.69 0.306 0.69 0.682c0 0.376-0.309 0.682-0.69 0.682zM11.367 21.526c-0.381 0-0.691-0.306-0.691-0.682s0.31-0.682 0.691-0.682 0.69 0.306 0.69 0.682c0 0.376-0.309 0.682-0.69 0.682zM10.988 17.675c0 0.182-0.15 0.331-0.334 0.331h-4.276c-0.185 0-0.334-0.148-0.334-0.331s0.149-0.33 0.334-0.33h4.276c0.184 0 0.334 0.148 0.334 0.33z"></path>
</svg>
