<!-- Generated by IcoMoon.io -->
<svg version="1.1" xmlns="http://www.w3.org/2000/svg" width="32" height="32" viewBox="0 0 32 32">
<title>support</title>
<path fill="#fe3e57" d="M0 0h32v32h-32v-32z"></path>
<path fill="#fff" d="M22.664 17.178l-2.213 2.541c-0.102 0.117-0.219 0.221-0.348 0.309-0.003 0.002-0.006 0.004-0.009 0.005-0.361 0.225-0.813 0.339-1.347 0.339h-3.283c-0.226 0-0.454 0.012-0.679 0.038l-0.371 0.041 0.162 0.154c0.052 0.049 0.082 0.116 0.083 0.187s-0.027 0.141-0.078 0.192l-1.863 1.867c-0.054 0.053-0.125 0.081-0.196 0.081-0.068 0-0.135-0.025-0.188-0.074l-3.182-2.958c-0.052-0.049-0.083-0.116-0.084-0.187s0.026-0.14 0.076-0.19l1.881-1.907c0.051-0.051 0.122-0.081 0.195-0.082 0.001 0 0.001 0 0.002 0 0.071 0 0.14 0.027 0.191 0.076l0.387 0.367c0.148-0.204 0.383-0.483 0.705-0.74 0.791-0.63 1.728-0.824 2.708-0.559 0.376 0.101 0.773 0.153 1.18 0.153h2.158c0.314 0 0.591 0.121 0.781 0.341 0.039 0.045 0.074 0.093 0.105 0.145l1.541-1.489c0.226-0.221 0.529-0.333 0.852-0.317 0.284 0.014 0.567 0.13 0.774 0.317 0.414 0.373 0.438 0.916 0.059 1.351zM11.229 18.177l-1.502 1.522 2.788 2.592 1.485-1.488-2.771-2.626zM22.235 16.219c-0.222-0.2-0.619-0.262-0.872-0.014l-1.775 1.716c-0.008 0.256-0.098 0.496-0.257 0.678-0.191 0.219-0.47 0.34-0.788 0.34h-1.878c-0.151 0-0.273-0.119-0.273-0.267 0-0.147 0.122-0.266 0.273-0.266h1.878c0.159 0 0.284-0.051 0.372-0.153 0.082-0.093 0.128-0.228 0.128-0.37 0-0.193-0.103-0.521-0.491-0.521h-2.158c-0.456 0-0.902-0.058-1.325-0.172-0.814-0.22-1.56-0.066-2.218 0.459-0.316 0.252-0.535 0.53-0.653 0.702l1.709 1.62 0.816-0.090c0.245-0.028 0.494-0.042 0.741-0.042h3.283c0.426 0 0.779-0.085 1.049-0.252 0.089-0.061 0.169-0.133 0.239-0.213l2.212-2.542c0.256-0.293 0.102-0.511-0.013-0.614zM15.613 18.933c-0.021 0.005-0.042 0.007-0.063 0.007-0.123 0-0.235-0.083-0.265-0.206l-0.003-0.011c-0.034-0.143 0.057-0.286 0.204-0.319s0.293 0.055 0.327 0.198l0.003 0.011c0.034 0.143-0.057 0.286-0.203 0.32zM20.435 15.218h-2.658c-0.145 0-0.279-0.045-0.388-0.124-0.109 0.078-0.243 0.124-0.387 0.124h-2.658c-0.145 0-0.279-0.045-0.388-0.124-0.109 0.078-0.243 0.124-0.388 0.124h-2.658c-0.364 0-0.66-0.289-0.66-0.645v-1.21c0-0.543 0.311-1.016 0.778-1.249-0.226-0.266-0.362-0.607-0.362-0.98 0-0.846 0.706-1.536 1.573-1.536s1.573 0.69 1.573 1.536c0 0.372-0.136 0.714-0.362 0.979 0.201 0.101 0.374 0.246 0.505 0.423 0.131-0.177 0.303-0.322 0.505-0.422-0.226-0.266-0.362-0.607-0.362-0.98 0-0.846 0.706-1.536 1.573-1.536s1.573 0.69 1.573 1.536c0 0.372-0.136 0.714-0.362 0.979 0.202 0.101 0.374 0.246 0.505 0.423 0.131-0.177 0.303-0.322 0.505-0.423-0.226-0.266-0.362-0.607-0.362-0.979 0-0.846 0.706-1.536 1.573-1.536s1.573 0.69 1.573 1.536c0 0.372-0.136 0.714-0.362 0.979 0.467 0.233 0.778 0.705 0.778 1.249v1.21c0 0.356-0.297 0.645-0.66 0.645zM12.241 10.132c-0.567 0-1.028 0.45-1.028 1.003s0.461 1.004 1.028 1.004c0.566 0 1.028-0.45 1.028-1.004s-0.461-1.003-1.028-1.003zM13.684 13.363c0-0.428-0.311-0.785-0.735-0.857-0.213 0.105-0.454 0.165-0.708 0.165s-0.495-0.060-0.709-0.165c-0.423 0.072-0.735 0.429-0.735 0.857v1.21c0 0.062 0.051 0.113 0.115 0.113h2.658c0.063 0 0.115-0.051 0.115-0.113v-1.21zM15.673 10.132c-0.567 0-1.028 0.45-1.028 1.003s0.461 1.004 1.028 1.004 1.028-0.45 1.028-1.004c0-0.553-0.461-1.003-1.028-1.003zM17.117 13.363c0-0.428-0.311-0.785-0.735-0.857-0.213 0.105-0.453 0.165-0.708 0.165s-0.495-0.060-0.708-0.165c-0.424 0.072-0.735 0.429-0.735 0.857v1.21c0 0.062 0.052 0.113 0.115 0.113h2.658c0.063 0 0.115-0.051 0.115-0.113v-1.21zM19.106 10.132c-0.566 0-1.028 0.45-1.028 1.003s0.461 1.004 1.028 1.004c0.567 0 1.028-0.45 1.028-1.004s-0.461-1.003-1.028-1.003zM20.549 13.363c0-0.428-0.311-0.785-0.735-0.857-0.213 0.105-0.454 0.165-0.709 0.165s-0.495-0.060-0.708-0.165c-0.424 0.072-0.735 0.429-0.735 0.857v1.21c0 0.062 0.051 0.113 0.115 0.113h2.658c0.063 0 0.115-0.051 0.115-0.113v-1.21z"></path>
</svg>
