<!-- Generated by IcoMoon.io -->
<svg version="1.1" xmlns="http://www.w3.org/2000/svg" width="32" height="32" viewBox="0 0 32 32">
<title>twitter</title>
<path d="M28.711 9.484c0.023 0.281 0.023 0.57 0.023 0.852 0 8.672-6.602 18.656-18.664 18.656-3.719 0-7.164-1.070-10.070-2.938 0.531 0.055 1.039 0.078 1.586 0.078 3.063 0 5.883-1.039 8.141-2.805-2.883-0.063-5.297-1.945-6.133-4.547 0.406 0.063 0.813 0.102 1.242 0.102 0.586 0 1.172-0.078 1.719-0.227-3-0.609-5.258-3.242-5.258-6.43v-0.086c0.875 0.492 1.891 0.797 2.969 0.836-1.766-1.18-2.922-3.188-2.922-5.461 0-1.219 0.32-2.336 0.891-3.313 3.227 3.977 8.078 6.578 13.523 6.859-0.102-0.484-0.164-0.992-0.164-1.5 0-3.609 2.922-6.555 6.555-6.555 1.891 0 3.594 0.789 4.797 2.070 1.484-0.289 2.898-0.836 4.164-1.586-0.492 1.523-1.523 2.805-2.883 3.617 1.32-0.148 2.594-0.508 3.773-1.016-0.891 1.297-2.008 2.453-3.289 3.391z"></path>
</svg>
