<!-- Generated by IcoMoon.io -->
<svg version="1.1" xmlns="http://www.w3.org/2000/svg" width="32" height="32" viewBox="0 0 32 32">
<title>user</title>
<path d="M27.312 20.685c-1.664-1.673-3.698-2.977-5.969-3.779l-0.111-0.034c2.439-1.69 4.016-4.473 4.016-7.626 0-5.108-4.14-9.248-9.248-9.248s-9.248 4.14-9.248 9.248c0 3.152 1.577 5.936 3.985 7.606l0.031 0.020c-6.318 2.242-10.762 8.165-10.768 15.127v0.001h2.496c0-7.458 6.046-13.504 13.504-13.504s13.504 6.046 13.504 13.504v0h2.496c0-0.014 0-0.030 0-0.046 0-4.405-1.792-8.391-4.687-11.269l-0.001-0.001zM9.248 9.248c0-3.729 3.023-6.752 6.752-6.752s6.752 3.023 6.752 6.752c0 3.729-3.023 6.752-6.752 6.752v0c-3.728-0.002-6.75-3.024-6.752-6.752v-0z"></path>
</svg>
