<!-- Generated by IcoMoon.io -->
<svg version="1.1" xmlns="http://www.w3.org/2000/svg" width="32" height="32" viewBox="0 0 32 32">
<title>video-play</title>
<path fill="#fe3e57" opacity="0.2" d="M32 16c0 8.837-7.163 16-16 16s-16-7.163-16-16c0-8.837 7.163-16 16-16s16 7.163 16 16z"></path>
<path fill="#fe3e57" opacity="0.6" d="M29.538 16c0 7.477-6.061 13.538-13.538 13.538s-13.538-6.061-13.538-13.538c0-7.477 6.061-13.538 13.538-13.538s13.538 6.061 13.538 13.538z"></path>
<path fill="#fe3e57" d="M27.077 16c0 6.118-4.959 11.077-11.077 11.077s-11.077-4.959-11.077-11.077c0-6.118 4.959-11.077 11.077-11.077s11.077 4.959 11.077 11.077z"></path>
<path fill="#fff" d="M17.678 15.542l-2.911-1.871c-0.107-0.077-0.238-0.125-0.381-0.133l-0.002-0c-0.199 0.007-0.358 0.17-0.358 0.371 0 0.024 0.002 0.047 0.007 0.070l-0-0.002v4.047c-0.004 0.020-0.006 0.044-0.006 0.067 0 0.2 0.159 0.363 0.357 0.371l0.001 0c0.143-0.009 0.274-0.057 0.383-0.134l-0.002 0.002 2.912-1.871c0.173-0.083 0.29-0.257 0.29-0.458s-0.117-0.375-0.287-0.457l-0.003-0.001z"></path>
</svg>
