<?xml version="1.0" encoding="utf-8"?><svg viewBox="0 0 141 32" xmlns="http://www.w3.org/2000/svg" xmlns:xlink="http://www.w3.org/1999/xlink"><style>:root>svg{display:none}:root>svg:target{display:block}</style><svg viewBox="0 0 141 32" id="decor--blog-bg" xmlns="http://www.w3.org/2000/svg"><path fill="#fe3e57" d="M138.19 26.797a2.037 2.037 0 102.038 2.038 2.037 2.037 0 00-2.038-2.038zm0 3.659a1.622 1.622 0 111.622-1.622v.001c0 .895-.726 1.621-1.621 1.621h-.001zm.001-2.108h-.001a.487.487 0 10.486.488v-.001a.487.487 0 00-.485-.487z"/><path fill="#34c3ff" d="M7.059 2.495a.187.187 0 10.188.187.187.187 0 00-.187-.186h-.001zm-1.249 0a.187.187 0 10.188.187.187.187 0 00-.187-.186H5.81zm0-1.248a.187.187 0 000 .374.187.187 0 00.187-.187.188.188 0 00-.188-.187zm-1.25 0a.187.187 0 000 .374.187.187 0 000-.374zm1.874 1.871a.187.187 0 10.188.188.187.187 0 00-.187-.187zm1.25 0a.187.187 0 10.188.188.187.187 0 00-.187-.187h-.001zM6.435 1.871a.187.187 0 000 .374.187.187 0 000-.374zm-1.25 0a.187.187 0 000 .374.187.187 0 00.187-.187.188.188 0 00-.188-.187zm3.124 3.118a.187.187 0 000 .374.187.187 0 00.187-.187.188.188 0 00-.188-.187zm-1.25 0a.187.187 0 000 .374.187.187 0 00.187-.187.188.188 0 00-.188-.187zm-1.249 0a.187.187 0 000 .374.187.187 0 00.187-.187.188.188 0 00-.188-.187zm2.499-1.247a.187.187 0 10.188.188.188.188 0 00-.188-.187zm-1.25 0a.187.187 0 10.188.188.188.188 0 00-.188-.187zm-1.249 0a.187.187 0 10.188.188.188.188 0 00-.188-.187zm-1.249 0a.187.187 0 000 .374.187.187 0 000-.374zm1.874 1.871a.187.187 0 10.188.187.187.187 0 00-.187-.186h-.001zm1.249 0a.187.187 0 10.188.187.187.187 0 00-.187-.186h-.001zM6.435 4.366a.187.187 0 000 .374.187.187 0 000-.374zm1.436.187a.187.187 0 10-.187.187.187.187 0 00.187-.187zm1.062-.187a.187.187 0 000 .374.187.187 0 00.187-.187.188.188 0 00-.188-.187zm-3.748 0a.187.187 0 000 .374.187.187 0 00.187-.187.188.188 0 00-.188-.187zm.625 3.118a.187.187 0 000 .374.187.187 0 000-.374zm1.249-1.247a.187.187 0 10.188.187.187.187 0 00-.187-.186h-.001zm-1.249 0a.187.187 0 10.188.187.187.187 0 00-.187-.186H5.81zm-1.25 0a.187.187 0 000 .374.187.187 0 000-.374zm1.874.624a.187.187 0 10.188.188.187.187 0 00-.187-.187zm-1.249 0a.187.187 0 10.188.188.187.187 0 00-.187-.187zm-.624 1.87a.187.187 0 000 .374.187.187 0 000-.374zm0-8.357a.187.187 0 10-.188-.187c0 .103.084.186.187.186zm-.625.25a.187.187 0 10.188.188.187.187 0 00-.188-.187h-.001zm1.25.373A.187.187 0 104.998.81c0 .103.084.186.187.186zm-.625 1.872a.187.187 0 10-.188-.188c0 .103.083.187.186.187zm-.624.249a.187.187 0 10.188.188.187.187 0 00-.187-.187h-.002zm1.249.374a.187.187 0 10-.188-.187c0 .103.083.186.186.186zM3.937 1.871a.187.187 0 000 .374.187.187 0 00.187-.187.188.188 0 00-.188-.187h-.001zm-1.177.014a.188.188 0 00-.244.098v.001a.187.187 0 00.172.26.187.187 0 00.187-.187.188.188 0 00-.115-.172h-.001zm1.802 3.479a.187.187 0 000-.374.187.187 0 00-.001.374zm-.625.249a.187.187 0 10.188.187.187.187 0 00-.187-.186h-.003zm1.25.374a.187.187 0 10-.188-.188c0 .103.083.186.186.187zm-1.25-1.621a.187.187 0 000 .374.187.187 0 10-.001-.374h-.002zm-1.176.014a.187.187 0 10-.072.359.185.185 0 00.074-.015h-.001a.188.188 0 000-.345h-.001zm1.801 3.479a.187.187 0 000-.374.187.187 0 00-.001.374zm-.624.249a.187.187 0 000 .374.187.187 0 10-.001-.374h-.002zm1.249 0a.187.187 0 000 .374.187.187 0 10-.001-.374h-.002zM3.938 6.861a.187.187 0 10.188.188.187.187 0 00-.187-.187h-.003zm-1.177.014a.188.188 0 00-.244.098v.001a.185.185 0 00-.015.072v.001c0 .103.083.186.186.186h.001a.187.187 0 00.072-.359H2.76zm.552-4.38a.187.187 0 000 .374.187.187 0 00-.001-.374h-.001zm-1.249 0a.187.187 0 10.188.187.187.187 0 00-.187-.186h-.003zm1.249-1.248a.187.187 0 000 .374.188.188 0 00.172-.113v-.001a.187.187 0 00-.172-.26h-.002zM1.439 3.118a.187.187 0 10.188.188.187.187 0 00-.187-.187h-.003zm1.249 0a.187.187 0 10.188.188.187.187 0 00-.187-.187h-.003zm.625 1.871a.187.187 0 000 .374.187.187 0 00-.001-.374h-.001zm-1.25 0a.187.187 0 000 .374.187.187 0 00.187-.187.188.188 0 00-.188-.187H2.06zm-1.249 0a.187.187 0 000 .374.187.187 0 10-.001-.374H.811zm2.499-1.247a.187.187 0 00-.187.187c0 .026.005.051.015.074v-.001a.188.188 0 00.172.114.187.187 0 00-.001-.374h-.001zm-1.25 0a.187.187 0 10.188.188.188.188 0 00-.188-.187h-.002zm-1.249 0a.187.187 0 10.188.188.188.188 0 00-.188-.187H.812zm.624 1.871a.187.187 0 10.188.187.187.187 0 00-.187-.186h-.003zm1.25 0a.187.187 0 10.188.187.187.187 0 00-.187-.186h-.002zm-1.25-1.247a.187.187 0 000 .374.187.187 0 00.187-.187.188.188 0 00-.188-.187h-.002zm-1.249 0a.187.187 0 000 .374.187.187 0 00.187-.187.188.188 0 00-.188-.187H.186zm3.124 3.118a.187.187 0 000 .374.188.188 0 00.172-.113v-.001a.187.187 0 00-.172-.26h-.002zm0-1.247a.188.188 0 00-.172.112v.001a.19.19 0 00-.015.073v.001c0 .026.005.051.015.073v-.001a.186.186 0 00.172.114h.001a.188.188 0 00.172-.113v-.001a.185.185 0 00.015-.072v-.001a.186.186 0 00-.186-.186h-.003zm-1.25 0a.187.187 0 10.188.187.187.187 0 00-.187-.186h-.002z"/></svg><svg viewBox="0 0 76 32" id="decor--blog-icon" xmlns="http://www.w3.org/2000/svg"><path fill="#fe3e57" d="M73.974 30.949A1.05 1.05 0 1175.025 32c-.58 0-1.05-.471-1.051-1.051zm-8.277 0A1.05 1.05 0 1166.748 32c-.58 0-1.05-.471-1.051-1.051zm-8.145 0A1.05 1.05 0 1158.603 32c-.58 0-1.05-.471-1.051-1.051zm-8.278 0A1.05 1.05 0 1150.325 32c-.58 0-1.05-.471-1.051-1.051zm-8.151 0v-.003A1.054 1.054 0 1142.177 32h-.003c-.58 0-1.05-.471-1.051-1.051zm-8.278 0v-.003A1.054 1.054 0 1133.899 32h-.003c-.58 0-1.05-.471-1.051-1.051zm-8.145 0A1.05 1.05 0 1125.751 32c-.58 0-1.05-.471-1.051-1.051zm-8.277 0A1.05 1.05 0 1117.474 32c-.58 0-1.05-.471-1.051-1.051zm-8.145 0A1.05 1.05 0 119.329 32c-.58 0-1.05-.471-1.051-1.051zm-8.278 0A1.05 1.05 0 111.051 32c-.58 0-1.05-.471-1.051-1.051zm73.974-9.968a1.05 1.05 0 111.051 1.051h-.004a1.046 1.046 0 01-1.046-1.046v-.004zm-8.277 0a1.05 1.05 0 111.051 1.051h-.004a1.046 1.046 0 01-1.046-1.046v-.004zm-8.145 0a1.05 1.05 0 111.051 1.051h-.004a1.046 1.046 0 01-1.046-1.046v-.004zm-8.278 0a1.05 1.05 0 111.051 1.051h-.004a1.046 1.046 0 01-1.046-1.046v-.004zm-8.151 0v-.003a1.054 1.054 0 111.054 1.054h-.007a1.046 1.046 0 01-1.046-1.046v-.004zm-8.278 0v-.003a1.054 1.054 0 111.054 1.054h-.007a1.046 1.046 0 01-1.046-1.046v-.004zm-8.145 0a1.05 1.05 0 111.051 1.051h-.004a1.046 1.046 0 01-1.046-1.046v-.004zm-8.277 0a1.05 1.05 0 111.051 1.051h-.004a1.046 1.046 0 01-1.046-1.046v-.004zm-8.145 0a1.05 1.05 0 111.051 1.051h-.004a1.046 1.046 0 01-1.046-1.046v-.004zm-8.278 0a1.05 1.05 0 111.051 1.051h-.004a1.046 1.046 0 01-1.046-1.046v-.004zm73.974-9.962v-.006a1.05 1.05 0 111.051 1.051 1.051 1.051 0 01-1.051-1.044zm-8.277 0v-.006a1.05 1.05 0 111.051 1.051 1.051 1.051 0 01-1.051-1.044zm-8.145 0v-.006a1.05 1.05 0 111.051 1.051 1.051 1.051 0 01-1.051-1.044zm-8.278 0v-.006a1.05 1.05 0 111.051 1.051 1.051 1.051 0 01-1.051-1.044zm-8.151 0v-.009a1.054 1.054 0 111.054 1.054h-.003a1.051 1.051 0 01-1.051-1.044zm-8.278 0v-.009a1.054 1.054 0 111.054 1.054h-.003a1.051 1.051 0 01-1.051-1.044zm-8.145 0v-.006a1.05 1.05 0 111.051 1.051A1.051 1.051 0 0124.7 11.02zm-8.277 0v-.006a1.05 1.05 0 111.051 1.051 1.051 1.051 0 01-1.051-1.044zm-8.145 0v-.006a1.05 1.05 0 111.051 1.051 1.051 1.051 0 01-1.051-1.044zm-8.278 0v-.006a1.05 1.05 0 111.051 1.051A1.051 1.051 0 010 11.02zm73.974-9.968a1.05 1.05 0 111.051 1.051c-.58 0-1.05-.47-1.051-1.051zm-8.277 0a1.05 1.05 0 111.051 1.051c-.58 0-1.05-.47-1.051-1.051zm-8.145 0a1.05 1.05 0 111.051 1.051c-.58 0-1.05-.47-1.051-1.051zm-8.278 0a1.05 1.05 0 111.051 1.051c-.58 0-1.05-.47-1.051-1.051zm-8.151 0v-.003a1.054 1.054 0 111.054 1.054h-.003c-.58 0-1.05-.47-1.051-1.051zm-8.278 0v-.003a1.054 1.054 0 111.054 1.054h-.003c-.58 0-1.05-.47-1.051-1.051zm-8.145 0a1.05 1.05 0 111.051 1.051c-.58 0-1.05-.47-1.051-1.051zm-8.277 0a1.05 1.05 0 111.051 1.051c-.58 0-1.05-.47-1.051-1.051zm-8.145 0a1.05 1.05 0 111.051 1.051c-.58 0-1.05-.47-1.051-1.051zM0 1.051a1.05 1.05 0 111.051 1.051c-.58 0-1.05-.47-1.051-1.051z"/></svg><svg viewBox="0 0 74 32" id="decor--categories-bg" xmlns="http://www.w3.org/2000/svg"><path fill="#34c3ff" d="M69.73 25.807l-.14-.146c-.017-.018-.017-.047 0-.064s.045-.018.062 0l.14.146.14-.146a.042.042 0 01.062 0 .047.047 0 010 .064l-.14.146.14.146a.047.047 0 010 .064.042.042 0 01-.062 0l-.14-.146-.14.146a.042.042 0 01-.062 0 .047.047 0 010-.064l.14-.146z"/><path fill="#5800e4" d="M69.99 16.437l.209.209-.209.209-.209-.209.209-.209z"/><path fill="#ffb534" d="M63.66 13.592l-.14-.146c-.017-.018-.017-.047 0-.064s.045-.018.062 0l.14.146.14-.146a.042.042 0 01.062 0 .047.047 0 010 .064l-.14.146.14.146a.047.047 0 010 .064.042.042 0 01-.062 0l-.14-.146-.14.146a.042.042 0 01-.062 0 .047.047 0 010-.064l.14-.146z"/><path fill="#fe3e57" d="M68.832 2.988l-.14-.146c-.017-.018-.017-.047 0-.064s.045-.018.062 0l.14.146.14-.146a.042.042 0 01.062 0 .047.047 0 010 .064l-.14.146.14.146a.047.047 0 010 .064.042.042 0 01-.062 0l-.14-.146-.14.146a.042.042 0 01-.062 0 .047.047 0 010-.064l.14-.146z"/><path fill="#34c3ff" d="M3.633 5.37l.107.112c.013.014.013.036 0 .05s-.034.014-.047 0l-.107-.112-.107.112a.032.032 0 01-.047 0 .037.037 0 010-.05l.107-.112-.107-.112a.037.037 0 010-.05.032.032 0 01.047 0l.107.112.107-.112a.032.032 0 01.047 0 .037.037 0 010 .05l-.107.112z"/><path fill="#5800e4" d="M3.433 12.583l-.16-.161.16-.161.16.161-.16.161z"/><path fill="#ffb534" d="M8.22 14.183l.107.112c.013.014.013.036 0 .05s-.034.014-.047 0l-.107-.112-.107.112a.032.032 0 01-.047 0 .037.037 0 010-.05l.107-.112-.107-.112a.037.037 0 010-.05.032.032 0 01.047 0l.107.112.107-.112a.032.032 0 01.047 0 .037.037 0 010 .05l-.107.112zM8.404 3.572l.107.112c.013.014.013.036 0 .05s-.034.014-.047 0l-.107-.112-.107.112a.032.032 0 01-.047 0 .037.037 0 010-.05l.107-.112-.107-.112a.037.037 0 010-.05.032.032 0 01.047 0l.107.112.107-.112a.032.032 0 01.047 0 .037.037 0 010 .05l-.107.112z"/><path fill="#fe3e57" d="M4.322 22.934l.107.112c.013.014.013.036 0 .05s-.034.014-.047 0l-.107-.112-.107.112a.032.032 0 01-.047 0 .037.037 0 010-.05l.107-.112-.107-.112a.037.037 0 010-.05.032.032 0 01.047 0l.107.112.107-.112a.032.032 0 01.047 0 .037.037 0 010 .05l-.107.112z"/></svg><svg viewBox="0 0 32 32" id="decor--info-left" xmlns="http://www.w3.org/2000/svg"><path fill="#ffb534" d="M15.865 31.997c-.099 0-.198 0-.296-.003a.154.154 0 01-.152-.154v-.005a.156.156 0 01.157-.153h.002c.357.008.719 0 1.076-.016h.01c.083 0 .15.066.153.148v.006a.158.158 0 01-.147.158h-.001a16.41 16.41 0 01-.801.018zm-1.378-.058h-.002a17.298 17.298 0 01-1.1-.135.157.157 0 11.049-.31h-.001c.353.056.712.101 1.067.132.08.006.142.073.142.153l-.001.017v-.001a.158.158 0 01-.154.143zm3.253-.053a.156.156 0 01-.154-.137v-.001l-.001-.017c0-.08.059-.146.136-.157h.001a15.855 15.855 0 001.092-.167.156.156 0 01.03.309h-.001c-.357.069-.722.124-1.084.169h-.018zm-5.397-.288h-.006a.153.153 0 01-.03-.003h.001a14.411 14.411 0 01-1.06-.286.156.156 0 11.091-.298h-.001c.341.106.691.198 1.039.28.069.017.12.078.12.151a.154.154 0 01-.155.155zm7.529-.119a.156.156 0 01-.149-.115v-.001a.156.156 0 01.11-.191h.001c.344-.093.691-.198 1.03-.312a.154.154 0 01.197.096v.001a.158.158 0 01-.096.198h-.001c-.345.116-.698.225-1.05.317a.168.168 0 01-.04.005zm-9.607-.516h-.003a.14.14 0 01-.054-.011h.001a15.517 15.517 0 01-1.012-.431.158.158 0 01-.076-.207v.001a.153.153 0 01.207-.076h-.001c.325.151.658.294.992.421a.16.16 0 01-.055.305zm11.662-.185a.157.157 0 01-.061-.301h.001c.329-.14.657-.291.976-.452a.154.154 0 01.207.068v.001a.153.153 0 01-.068.208h-.001c-.326.167-.661.32-.996.463a.151.151 0 01-.061.013zM8.294 30.04h-.002a.154.154 0 01-.074-.019h.001a16.679 16.679 0 01-.943-.566.159.159 0 01-.046-.217v.001a.153.153 0 01.215-.047h-.001c.3.196.611.383.924.555a.16.16 0 01.081.138.155.155 0 01-.02.077v-.001a.155.155 0 01-.136.079h-.001zm15.571-.246a.155.155 0 01-.132-.076v-.001a.152.152 0 01-.021-.08c0-.056.029-.106.074-.134h.001c.307-.182.611-.378.905-.584a.157.157 0 01.241.132.158.158 0 01-.064.127c-.3.209-.611.407-.923.595a.143.143 0 01-.075.021h-.005zm-17.397-.938a.152.152 0 01-.093-.032c-.292-.22-.58-.453-.856-.692a.157.157 0 01-.016-.221.153.153 0 01.218-.016c.27.234.553.463.839.679a.156.156 0 01-.094.282zm19.183-.303a.153.153 0 01-.121-.059.158.158 0 01.025-.219c.278-.223.553-.46.817-.704a.154.154 0 01.219.01.159.159 0 01.041.106.154.154 0 01-.05.115c-.27.249-.55.49-.834.718a.154.154 0 01-.097.034h-.001zM4.822 27.427a.153.153 0 01-.109-.045 16.29 16.29 0 01-.753-.803.158.158 0 01.014-.221.154.154 0 01.219.014c.236.27.484.534.739.788a.159.159 0 010 .222.153.153 0 01-.111.047zm22.43-.352a.154.154 0 01-.107-.043.161.161 0 01-.006-.222c.246-.261.487-.533.714-.811a.152.152 0 01.119-.056c.038 0 .072.014.099.036a.16.16 0 01.056.121.153.153 0 01-.036.1c-.232.283-.477.561-.728.827a.152.152 0 01-.112.048h-.001zm-23.867-1.29a.154.154 0 01-.123-.061 16.743 16.743 0 01-.637-.899.159.159 0 01.044-.217h.001a.156.156 0 01.215.043v.001c.198.301.408.598.624.883a.158.158 0 01-.029.219.152.152 0 01-.093.032h-.001zm25.251-.397a.153.153 0 01-.091-.03.158.158 0 01-.035-.219c.209-.294.41-.597.597-.902a.154.154 0 01.215-.05h-.001a.16.16 0 01.05.217v-.001c-.191.311-.397.62-.608.92a.153.153 0 01-.126.065h-.001zM2.187 23.96a.153.153 0 01-.134-.079v-.001c-.18-.319-.35-.648-.507-.979a.157.157 0 01.072-.208h.001a.15.15 0 01.067-.015c.062 0 .115.036.139.088v.001c.154.325.322.647.498.96a.158.158 0 01-.058.213h-.001a.16.16 0 01-.076.022zm27.592-.433a.164.164 0 01-.073-.018h.001a.157.157 0 01-.065-.213v.001c.167-.32.324-.648.468-.977a.156.156 0 01.206-.079h-.001a.16.16 0 01.079.208v-.001a15.42 15.42 0 01-.478.997.156.156 0 01-.137.082zM1.25 21.991a.156.156 0 01-.144-.098v-.001a15.862 15.862 0 01-.368-1.041.158.158 0 01.1-.196h.001a.155.155 0 01.195.101v.001c.108.344.23.688.361 1.021a.156.156 0 01-.086.203h-.001a.148.148 0 01-.057.011zm29.405-.469a.14.14 0 01-.054-.01h.001a.158.158 0 01-.103-.147.14.14 0 01.01-.054v.001c.121-.338.231-.685.329-1.031a.155.155 0 01.192-.108h-.001a.158.158 0 01.106.194v-.001c-.099.354-.212.709-.335 1.053a.156.156 0 01-.144.103zM.592 19.905a.157.157 0 01-.151-.118v-.001a16.355 16.355 0 01-.224-1.109c0-.077.055-.141.128-.154h.001a.155.155 0 01.179.127v.001c.06.356.132.714.217 1.062a.158.158 0 01-.113.189H.628a.134.134 0 01-.035.004H.592zm30.655-.489a.184.184 0 01-.033-.003h.001a.156.156 0 01-.12-.186v.001c.073-.353.135-.712.184-1.068a.154.154 0 01.153-.135l.023.002h-.001a.156.156 0 01.134.155l-.002.023v-.001c-.049.363-.113.73-.187 1.089a.155.155 0 01-.151.124zM.227 17.748a.155.155 0 01-.154-.14v-.001c-.036-.366-.06-.737-.071-1.103v-.009a.155.155 0 01.31 0 16.367 16.367 0 00.071 1.098c0 .08-.061.147-.139.155H.243l-.015.001zm31.316-.499h-.011a.157.157 0 01-.145-.156v-.011a16.284 16.284 0 00.006-2.076v-.01c0-.082.064-.15.145-.156h.011c.082 0 .15.065.154.147a16.251 16.251 0 01-.006 2.116.155.155 0 01-.154.146zM.16 15.561H.154a.155.155 0 01-.149-.155v-.007c.014-.368.039-.739.078-1.103a.156.156 0 01.155-.143c.086 0 .155.069.155.155l-.001.021v-.001c-.037.357-.063.721-.076 1.081a.155.155 0 01-.154.15zm31.285-1.498a.156.156 0 01-.154-.135v-.001a15.982 15.982 0 00-.177-1.069.157.157 0 01.12-.185h.001a.155.155 0 01.183.121v.001a16.648 16.648 0 01.182 1.112.156.156 0 01-.133.154h-.001a.136.136 0 01-.021.002zM.389 13.384H.387a.154.154 0 01-.151-.184v.001c.063-.362.14-.725.228-1.082a.154.154 0 01.189-.113H.652a.158.158 0 01.113.191v-.001c-.086.349-.161.706-.223 1.06a.155.155 0 01-.153.129zm30.623-1.465a.155.155 0 01-.149-.114v-.001a15.254 15.254 0 00-.323-1.034.157.157 0 01.093-.199h.001a.155.155 0 01.197.094v.001c.122.347.232.702.329 1.055a.158.158 0 01-.107.193h-.001a.135.135 0 01-.041.006zM.913 11.261a.157.157 0 01-.049-.008h.001a.157.157 0 01-.1-.198v.001c.112-.349.238-.699.375-1.041a.155.155 0 01.203-.086h-.001a.156.156 0 01.085.204v-.001c-.134.335-.258.678-.368 1.02a.156.156 0 01-.148.108zM30.29 9.857a.156.156 0 01-.142-.093v-.001a15.81 15.81 0 00-.461-.979.157.157 0 01.065-.211h.001a.153.153 0 01.208.067v.001c.168.327.326.661.47.998a.156.156 0 01-.08.205h-.001a.152.152 0 01-.061.014zM1.726 9.23a.159.159 0 01-.069-.016h.001a.157.157 0 01-.071-.21v.001c.159-.33.332-.659.514-.979a.155.155 0 01.213-.057h-.001a.158.158 0 01.057.215v-.001c-.178.312-.348.635-.504.959a.156.156 0 01-.139.089zm27.565-1.313a.155.155 0 01-.132-.074v-.001a15.777 15.777 0 00-.591-.905.16.16 0 01.036-.218.153.153 0 01.216.037c.212.3.414.61.603.923a.158.158 0 01-.052.215h-.001a.152.152 0 01-.08.022zM2.81 7.331a.149.149 0 01-.086-.027h.001a.157.157 0 01-.042-.218v.001c.203-.305.419-.607.643-.897a.154.154 0 01.218-.026.159.159 0 01.026.219c-.219.284-.431.58-.63.879a.155.155 0 01-.128.068zm25.227-1.2a.154.154 0 01-.12-.057 15.79 15.79 0 00-.709-.815.158.158 0 01.007-.221.155.155 0 01.219.007c.249.267.492.547.723.831a.156.156 0 01-.022.22.152.152 0 01-.098.035zM4.142 5.602a.156.156 0 01-.115-.261c.242-.273.497-.542.758-.799a.155.155 0 01.219.003.158.158 0 01-.002.221 16.16 16.16 0 00-.744.783.156.156 0 01-.116.052zM26.55 4.537a.155.155 0 01-.106-.042 15.663 15.663 0 00-.814-.71.158.158 0 01-.023-.22.154.154 0 01.219-.023c.283.23.562.474.83.724a.159.159 0 01.008.221.153.153 0 01-.113.05zM5.697 4.073a.157.157 0 01-.101-.275c.278-.238.567-.469.86-.686a.154.154 0 01.216.032.16.16 0 01-.033.219c-.287.213-.571.44-.843.673a.154.154 0 01-.1.037zm19.163-.912a.153.153 0 01-.089-.029 15.89 15.89 0 00-.902-.591.158.158 0 01-.075-.134c0-.03.008-.058.023-.081v.001a.153.153 0 01.213-.053h-.001c.313.19.623.392.921.602a.16.16 0 01.038.219v-.001a.155.155 0 01-.127.066h-.001zM7.443 2.777h-.001a.156.156 0 01-.131-.072v-.001a.159.159 0 01.047-.216h.001c.307-.197.625-.385.945-.56a.155.155 0 01.211.062v.001a.16.16 0 01-.061.212h-.001c-.314.171-.625.356-.926.549a.15.15 0 01-.084.025zm15.555-.743h-.001a.14.14 0 01-.07-.018h.001a16.06 16.06 0 00-.975-.459.157.157 0 01-.081-.206v.001a.156.156 0 01.205-.082h-.001c.336.144.67.302.995.469a.157.157 0 01.068.211v-.001a.155.155 0 01-.138.084zm-13.648-.3a.154.154 0 01-.141-.091v-.001a.16.16 0 01.076-.207h.001c.331-.152.671-.295 1.012-.423a.155.155 0 01.2.091v.001a.156.156 0 01-.09.201h-.001a14.53 14.53 0 00-.992.415.152.152 0 01-.062.013H9.35zm11.648-.556a.15.15 0 01-.052-.009h.001a14.702 14.702 0 00-1.028-.317.157.157 0 01.047-.306c.012 0 .024.001.035.004H20c.352.096.705.205 1.048.325.057.024.096.08.096.145a.158.158 0 01-.146.157zM11.381.967a.157.157 0 01-.046-.307h.001a16.08 16.08 0 011.062-.278c.008-.002.018-.002.028-.002a.157.157 0 01.042.308h-.001c-.348.078-.698.17-1.041.272a.16.16 0 01-.039.005h-.005zm7.521-.359h-.001a.153.153 0 01-.03-.003h.001c-.35-.069-.708-.127-1.062-.171a.157.157 0 01.04-.31h-.001c.361.045.725.104 1.083.175a.156.156 0 01-.029.308zM13.499.491a.157.157 0 01-.024-.312h.001c.359-.055.725-.097 1.089-.127l.013-.001a.156.156 0 01.013.312h-.001c-.357.029-.716.071-1.068.125h-.025.001zm3.25-.154h-.008c-.356-.02-.719-.028-1.075-.023h-.002-.001A.157.157 0 0115.662 0c.364-.005.734.003 1.096.024a.157.157 0 01-.009.311h-.001zm-.884 28.429c-.332 0-.668-.013-.998-.039a.157.157 0 01-.143-.156l.001-.013v.001a.153.153 0 01.168-.144h-.001c.321.026.649.038.973.038h.099a.156.156 0 010 .312zm1.184-.055a.156.156 0 01-.015-.312h.001a12.442 12.442 0 001.09-.151.156.156 0 01.028.31h-.001c-.358.066-.725.117-1.089.151l-.015.001zm-3.247-.115H13.8a.195.195 0 01-.025-.002h.001c-.361-.06-.723-.137-1.076-.229a.156.156 0 11.078-.303h-.001c.344.089.697.164 1.049.223a.157.157 0 01-.024.311zm5.382-.278a.157.157 0 01-.042-.307h.001c.344-.095.688-.207 1.021-.331a.156.156 0 01.108.293h-.001c-.342.128-.694.242-1.046.34a.176.176 0 01-.041.006zm-7.483-.267H11.7a.161.161 0 01-.054-.009h.001a12.516 12.516 0 01-1.02-.415.158.158 0 01-.077-.208v.001a.155.155 0 01.206-.078h-.001c.325.149.659.285.995.404a.157.157 0 01.095.201v-.001a.153.153 0 01-.145.104zm9.516-.494a.154.154 0 01-.14-.089v-.001a.158.158 0 01.073-.208h.001c.321-.153.64-.323.948-.505a.154.154 0 01.211.055v.001a.16.16 0 01-.055.214h-.001a12.76 12.76 0 01-.972.518.156.156 0 01-.066.015zm-11.492-.412a.156.156 0 01-.077-.021h.001a12.903 12.903 0 01-.933-.586.158.158 0 01-.04-.218v.001a.155.155 0 01.216-.04h-.001c.294.203.6.397.91.572a.159.159 0 01.059.214v-.001a.156.156 0 01-.135.08zm13.364-.693a.157.157 0 01-.09-.284 12.1 12.1 0 00.846-.663.154.154 0 01.218.018.156.156 0 01.036.101c0 .048-.021.09-.054.119a12.67 12.67 0 01-.869.679.15.15 0 01-.088.029zm-15.155-.543a.152.152 0 01-.099-.036 12.775 12.775 0 01-.82-.741.156.156 0 01-.046-.112c0-.042.017-.081.044-.11a.154.154 0 01.219-.003c.254.251.523.494.799.722a.156.156 0 01.021.22.153.153 0 01-.119.058zm16.81-.871a.153.153 0 01-.109-.045.159.159 0 010-.222c.251-.254.494-.524.722-.8a.154.154 0 01.219-.019.158.158 0 01.02.22c-.234.283-.483.559-.741.82a.152.152 0 01-.11.046zM6.381 24.38a.153.153 0 01-.117-.054 12.784 12.784 0 01-.681-.87.157.157 0 01.035-.218.157.157 0 01.217.035c.209.291.432.577.664.849a.155.155 0 01-.016.22.15.15 0 01-.101.038zm19.753-1.023a.16.16 0 01-.089-.028.16.16 0 01-.038-.219v.001c.204-.295.397-.602.575-.913a.155.155 0 01.213-.057h-.001a.158.158 0 01.057.215v-.001c-.182.319-.38.635-.589.936a.155.155 0 01-.127.067zm-21.021-.752a.156.156 0 01-.132-.075v-.001a13.03 13.03 0 01-.522-.976.151.151 0 01-.015-.068c0-.061.035-.115.087-.14h.001a.155.155 0 01.207.071v.001c.155.323.326.643.509.952a.16.16 0 01-.052.215h-.001a.158.158 0 01-.079.021h-.003zm22.103-1.145a.145.145 0 01-.066-.015h.001a.159.159 0 01-.075-.209v.001c.15-.326.287-.661.409-1a.155.155 0 01.2-.093h-.001a.157.157 0 01.092.202v-.001c-.125.347-.264.692-.419 1.025a.155.155 0 01-.141.09zm-23.048-.823a.157.157 0 01-.145-.1v-.001a12.55 12.55 0 01-.345-1.052.155.155 0 01.298-.086v.001c.097.345.212.691.337 1.026a.157.157 0 01-.089.202h-.001a.138.138 0 01-.055.01zm23.787-1.234a.14.14 0 01-.041-.006h.001a.157.157 0 01-.116-.151.14.14 0 01.006-.041v.001c.091-.346.169-.701.23-1.056a.155.155 0 11.305.053v-.001c-.063.364-.142.728-.236 1.083a.155.155 0 01-.15.117zm-24.378-.871a.156.156 0 01-.152-.126v-.001a12.91 12.91 0 01-.159-1.096l-.001-.016a.155.155 0 01.309-.017v.001c.037.359.089.719.155 1.07a.156.156 0 01-.122.183h-.001a.136.136 0 01-.029.003zm24.751-1.284h-.014a.156.156 0 01-.142-.155l.001-.015v.001c.03-.356.046-.719.046-1.08q0-.2-.006-.399v-.005c0-.084.067-.153.15-.156h.006c.084 0 .152.068.153.152q.007.203.007.408c0 .37-.016.742-.047 1.107a.155.155 0 01-.153.142zm-24.971-.891a.156.156 0 01-.155-.154l-.002-.204c0-.301.011-.605.031-.904a.155.155 0 01.31.011v.011-.001a12.918 12.918 0 00-.028 1.08v.003a.156.156 0 01-.153.156h-.003zm24.93-1.697a.156.156 0 01-.154-.137v-.001a12.61 12.61 0 00-.172-1.067.155.155 0 01.304-.065v.001c.074.359.132.727.176 1.094l.001.019a.156.156 0 01-.136.155h-.001l-.018.001zm-24.778-.485a.195.195 0 01-.025-.002h.001a.156.156 0 01-.131-.154l.002-.026v.001c.057-.364.13-.729.218-1.086a.155.155 0 01.189-.114h-.001a.158.158 0 01.113.191v-.001c-.086.348-.159.705-.213 1.059a.156.156 0 01-.153.132zm24.337-1.656a.155.155 0 01-.148-.11v-.001a12.948 12.948 0 00-.353-1.021.158.158 0 01.086-.203h.001a.155.155 0 01.202.086v.001c.135.342.257.694.362 1.047a.156.156 0 01-.103.194h-.001a.144.144 0 01-.043.006h-.002zm-23.814-.466a.144.144 0 01-.051-.009h.001a.157.157 0 01-.096-.2v.001c.118-.348.254-.695.403-1.031a.156.156 0 01.206-.079h-.001a.16.16 0 01.079.208v-.001c-.145.329-.277.667-.393 1.006a.156.156 0 01-.147.104zm23.011-1.566a.154.154 0 01-.138-.085v-.001a12.41 12.41 0 00-.524-.943.159.159 0 01.049-.215h.001a.155.155 0 01.214.05v.001c.193.314.373.639.537.967a.155.155 0 01-.068.209h-.001a.151.151 0 01-.068.016h-.001zm-22.129-.434h-.001a.148.148 0 01-.075-.02h.001a.158.158 0 01-.061-.213v.001c.177-.322.37-.639.574-.945a.154.154 0 01.216-.042h-.001a.157.157 0 01.042.218v-.001c-.199.298-.387.608-.56.922a.156.156 0 01-.135.079h-.001zm20.988-1.426a.154.154 0 01-.124-.063c-.212-.287-.44-.569-.677-.838a.16.16 0 01.013-.221.15.15 0 01.103-.04c.046 0 .087.02.116.052.243.276.476.565.694.859a.158.158 0 01-.032.219.151.151 0 01-.092.03h-.001zM6.127 8.238a.15.15 0 01-.097-.035.158.158 0 01-.023-.22c.229-.286.474-.566.727-.831a.155.155 0 01.22-.004.16.16 0 01.004.221 12.39 12.39 0 00-.709.811.156.156 0 01-.12.058h-.001zM24.46 6.992a.151.151 0 01-.106-.043 12.118 12.118 0 00-.81-.709.16.16 0 01-.024-.221.153.153 0 01.218-.026c.286.229.565.473.831.726a.158.158 0 01.006.222.153.153 0 01-.113.05zM7.631 6.66H7.63a.152.152 0 01-.116-.053.158.158 0 01.014-.221c.274-.242.563-.476.858-.693a.154.154 0 01.217.034.158.158 0 01-.033.218c-.287.212-.569.44-.837.676a.15.15 0 01-.101.038h-.001zm15.13-1.029a.149.149 0 01-.086-.027h.001a12.272 12.272 0 00-.919-.557.16.16 0 01-.062-.212v.001a.156.156 0 01.213-.062h-.001c.321.176.638.368.942.571a.159.159 0 01.043.217v-.001a.154.154 0 01-.129.069h-.001zm-13.38-.265a.155.155 0 01-.132-.074v-.001a.158.158 0 01.052-.214h.001c.312-.191.636-.37.963-.533a.156.156 0 01.208.07v.001a.157.157 0 01-.07.209h-.001c-.319.159-.635.334-.94.52a.156.156 0 01-.081.023H9.38zm11.472-.781a.149.149 0 01-.063-.014h.001a12.25 12.25 0 00-1.001-.388.156.156 0 01.056-.303c.015 0 .03.002.044.006h-.001c.347.117.692.251 1.027.397a.16.16 0 01.079.207v-.001a.157.157 0 01-.141.096zm-9.528-.187a.154.154 0 01-.144-.099v-.001a.155.155 0 01.087-.202h.001c.341-.134.691-.254 1.041-.357a.154.154 0 01.192.105v.001a.157.157 0 01-.105.194h-.001c-.341.1-.683.217-1.015.348a.148.148 0 01-.056.012zm7.471-.508a.22.22 0 01-.037-.004h.001c-.346-.084-.7-.153-1.053-.206a.157.157 0 01.026-.312l.021.001h-.001c.362.054.724.126 1.079.212.07.017.122.079.122.153 0 .086-.07.157-.157.157h-.001zm-5.388-.106a.157.157 0 01-.031-.31h.001c.358-.072.723-.129 1.086-.169l.017-.001a.157.157 0 01.018.313h-.001a12.223 12.223 0 00-1.09.169zm3.242-.218h-.01a12.79 12.79 0 00-1.072-.021.16.16 0 01-.159-.153v-.004c0-.085.067-.154.151-.156.364-.009.734-.002 1.099.021a.157.157 0 01-.005.314h-.005zm-1.252 22.035h-.008a9.413 9.413 0 01-1.153-.127l.056.008a.157.157 0 01-.13-.154l.002-.027v.001a.154.154 0 01.152-.131l.027.002h-.001c.303.054.669.095 1.04.114l.022.001a.157.157 0 01-.004.314h-.004zm1.084-.008h-.001a.157.157 0 01-.01-.313 9.404 9.404 0 001.117-.141l-.058.009a.157.157 0 01.058.309h-.001a8.97 8.97 0 01-1.066.134l-.029.002zm-3.224-.349a.161.161 0 01-.044-.006h.001a9.18 9.18 0 01-1.102-.394l.061.024a.158.158 0 01-.082-.206v.001a.155.155 0 01.204-.084h-.001c.266.118.6.241.944.344l.065.017a.157.157 0 01-.043.306zm5.356-.044a.157.157 0 01-.046-.306h.001a8.851 8.851 0 001.06-.397l-.059.023a.154.154 0 01.204.079v.001a.158.158 0 01-.079.206h-.001a8.664 8.664 0 01-.968.369l-.067.018a.129.129 0 01-.045.008zm-7.356-.803a.156.156 0 01-.077-.021h.001a9.33 9.33 0 01-.954-.62l.026.018a.157.157 0 01-.034-.218.154.154 0 01.217-.034c.256.19.55.382.854.558l.045.024a.16.16 0 01.059.214v-.001a.156.156 0 01-.135.082zm9.341-.075a.155.155 0 01-.134-.077v-.001a.157.157 0 01.055-.214h.001a9.36 9.36 0 00.911-.613l-.022.016a.153.153 0 01.217.03.156.156 0 01-.031.219 9.208 9.208 0 01-.875.592l-.043.024a.154.154 0 01-.077.023zM9.506 23.11h-.001a.15.15 0 01-.105-.042 9.813 9.813 0 01-.756-.787l-.011-.013a.157.157 0 01.016-.22.153.153 0 01.218.016c.238.278.481.53.736.768l.006.005a.157.157 0 01.009.221.156.156 0 01-.112.052zm12.825-.102a.153.153 0 01-.112-.049.157.157 0 01.005-.221c.255-.245.494-.502.718-.771l.012-.015a.154.154 0 01.219-.019.158.158 0 01.02.22 9.755 9.755 0 01-.751.809l-.003.003a.152.152 0 01-.107.043zM8.093 21.456a.155.155 0 01-.128-.068v-.001a9.308 9.308 0 01-.54-.902l-.026-.053a.157.157 0 01.066-.211h.001a.155.155 0 01.209.066v.001c.189.365.371.668.568.959l-.021-.033a.155.155 0 01-.041.217H8.18a.153.153 0 01-.085.026h-.002zm15.627-.125a.146.146 0 01-.085-.027h.001a.157.157 0 01-.044-.217v.001c.171-.259.348-.564.508-.88l.024-.053a.154.154 0 01.21-.069h-.001a.158.158 0 01.069.211v-.001c-.19.382-.373.698-.573 1.001l.023-.037a.157.157 0 01-.13.072zM7.092 19.517a.155.155 0 01-.145-.1v-.001a8.68 8.68 0 01-.317-.994l-.015-.067a.155.155 0 01.3-.077v.001c.104.415.214.758.342 1.091l-.022-.064a.157.157 0 01-.089.202h-.001a.151.151 0 01-.053.01H7.09zm17.598-.142a.14.14 0 01-.054-.01h.001a.157.157 0 01-.092-.201v.001c.103-.271.207-.616.292-.968l.013-.063a.155.155 0 11.302.072v-.001c-.101.43-.209.787-.336 1.134l.021-.067a.156.156 0 01-.146.103zM6.562 17.398a.155.155 0 01-.154-.135v-.001a9.383 9.383 0 01-.079-1.102v-.008-.003c0-.085.068-.154.153-.156h.003c.085 0 .154.069.155.154.006.385.034.756.083 1.121l-.005-.048a.158.158 0 01-.132.176h-.001l-.02.001h-.003zm18.624-.151h-.018a.156.156 0 01-.137-.155l.001-.019v.001a9.16 9.16 0 00.061-1.075c0-.101-.002-.201-.005-.301v-.009a.155.155 0 01.31-.001 10.042 10.042 0 01-.062 1.468l.004-.046a.156.156 0 01-.154.138zM6.528 15.214h-.016a.157.157 0 01-.14-.155l.001-.016v.001c.042-.422.103-.797.184-1.164l-.012.065a.155.155 0 11.303.067v-.001a8.587 8.587 0 00-.163 1.023l-.003.04a.157.157 0 01-.154.141zm18.618-.456a.156.156 0 01-.154-.131v-.001a9.278 9.278 0 00-.232-1.119l.015.066a.155.155 0 01.109-.191h.001a.154.154 0 01.189.11v.001c.083.292.161.661.218 1.036l.007.053a.158.158 0 01-.131.178h-.001l-.017.001h-.005zm-18.157-1.68a.144.144 0 01-.051-.009h.001a.157.157 0 01-.096-.2v.001c.143-.417.284-.758.444-1.087l-.025.057a.154.154 0 01.208-.073h-.001a.16.16 0 01.073.21v-.001c-.13.264-.268.593-.386.931l-.02.065a.156.156 0 01-.146.106zm17.593-.429a.156.156 0 01-.144-.098v-.001a9.135 9.135 0 00-.477-1.023l.024.049a.156.156 0 01.061-.211h.001a.155.155 0 01.211.062v.001c.149.27.306.601.444.942l.023.065a.158.158 0 01-.086.203h-.001a.152.152 0 01-.057.011h-.001zM7.928 11.107a.148.148 0 01-.083-.025h.001a.159.159 0 01-.048-.216v.001c.218-.346.43-.641.657-.923l-.014.018a.154.154 0 01.219-.023.158.158 0 01.023.22c-.206.255-.411.54-.6.837l-.023.038a.155.155 0 01-.131.073zm15.623-.379a.155.155 0 01-.127-.066v-.001a9.398 9.398 0 00-.671-.854l.009.01a.16.16 0 01.012-.221.152.152 0 01.103-.04c.046 0 .087.02.116.052.231.261.456.545.664.842l.02.031a.157.157 0 01-.038.218.147.147 0 01-.088.028h-.001zM9.289 9.405a.157.157 0 01-.111-.047.158.158 0 01.002-.221c.256-.253.527-.493.81-.717l.02-.015a.155.155 0 01.218.026.157.157 0 01-.026.219 9.372 9.372 0 00-.804.71l.001-.001a.157.157 0 01-.11.047zm12.821-.311a.15.15 0 01-.103-.04 9.492 9.492 0 00-.808-.651l-.028-.019a.157.157 0 01-.037-.218v.001a.156.156 0 01.127-.067c.034 0 .064.011.09.029.323.231.606.459.874.701l-.009-.008a.156.156 0 01.012.221.154.154 0 01-.116.052h-.002zM11 8.062a.154.154 0 01-.132-.075v-.001a.158.158 0 01.053-.215h.001c.267-.167.586-.341.916-.497l.058-.025a.155.155 0 01.205.076v.001a.158.158 0 01-.075.207h-.001a8.862 8.862 0 00-.981.527l.039-.023a.162.162 0 01-.082.025zm9.337-.227a.141.141 0 01-.074-.02h.001c-.26-.147-.578-.3-.906-.436l-.061-.022a.156.156 0 01-.085-.204v.001a.155.155 0 01.203-.086h-.001c.402.163.73.322 1.048.498l-.049-.025a.157.157 0 01.062.212v-.001a.153.153 0 01-.136.084zm-7.367-.683a.156.156 0 01-.156-.157c0-.069.045-.128.107-.149h.001a8.46 8.46 0 011.007-.27l.061-.011a.156.156 0 01.061.306h-.001a9.016 9.016 0 00-1.096.29l.064-.019a.153.153 0 01-.049.01zm5.355-.131a.142.142 0 01-.042-.006h.001a8.313 8.313 0 00-.993-.214l-.052-.007a.156.156 0 11.047-.309h-.001c.425.065.791.144 1.147.244l-.067-.016a.157.157 0 01.124.153c0 .086-.07.157-.157.157h-.008zm-3.23-.297a.157.157 0 01-.014-.313h.001c.258-.021.52-.032.779-.032.112-.002.216.002.324.005.083.004.15.072.15.156v.006a.154.154 0 01-.155.151h-.006c-.104-.003-.204-.002-.314-.005-.251 0-.505.011-.754.031z"/></svg><svg viewBox="0 0 40 32" id="decor--info-right" xmlns="http://www.w3.org/2000/svg"><path fill="#fe3e57" d="M1.077 0a1.067 1.067 0 01-.01 2.136c-.59 0-1.068-.478-1.068-1.068v-.003A1.072 1.072 0 011.07 0h.006zm7.569 0a1.068 1.068 0 11-1.09 1.067v-.003A1.077 1.077 0 018.633-.001h.013-.001zm7.563 0a1.067 1.067 0 01-.01 2.136c-.59 0-1.068-.478-1.068-1.068v-.003A1.072 1.072 0 0116.202 0h.006zm7.582 0a1.067 1.067 0 01-.01 2.136c-.59 0-1.068-.478-1.068-1.068v-.003A1.076 1.076 0 0123.789 0h.001zm7.563 0a1.068 1.068 0 11-1.084 1.068v-.003A1.078 1.078 0 0131.348 0h.005zm7.569 0a1.067 1.067 0 01-.01 2.136c-.59 0-1.068-.478-1.068-1.068v-.003A1.072 1.072 0 0138.916 0h.006zM1.077 7.458a1.067 1.067 0 01-.01 2.136A1.068 1.068 0 01-.001 8.53a1.073 1.073 0 011.073-1.071h.005zm7.569 0a1.068 1.068 0 11-1.09 1.071 1.078 1.078 0 011.078-1.071h.012-.001zm7.563 0a1.067 1.067 0 01-.01 2.136 1.068 1.068 0 01-1.068-1.064 1.073 1.073 0 011.073-1.071h.005zm7.582 0a1.067 1.067 0 01-.01 2.136 1.068 1.068 0 01-1.068-1.064 1.077 1.077 0 011.077-1.071zm7.563 0A1.068 1.068 0 1130.27 8.53a1.08 1.08 0 011.079-1.071h.004zm7.569 0a1.067 1.067 0 01-.01 2.136 1.068 1.068 0 01-1.068-1.064 1.073 1.073 0 011.073-1.071h.005zM1.077 14.942A1.058 1.058 0 11.001 16a1.066 1.066 0 011.066-1.059h.011-.001zm7.569 0a1.06 1.06 0 11-1.089 1.059 1.073 1.073 0 011.072-1.059h.018-.001zm7.563 0A1.058 1.058 0 1115.133 16a1.067 1.067 0 011.066-1.059h.011-.001zm7.582 0A1.058 1.058 0 1122.715 16a1.07 1.07 0 011.07-1.058h.007zm7.563 0A1.059 1.059 0 1130.272 16a1.074 1.074 0 011.073-1.059h.01-.001zm7.569 0A1.058 1.058 0 1137.847 16a1.067 1.067 0 011.066-1.059h.011-.001zM1.077 22.406a1.064 1.064 0 11-1.078 1.065 1.068 1.068 0 011.068-1.065h.01zm7.569 0a1.065 1.065 0 11-1.09 1.065 1.073 1.073 0 011.073-1.065h.017-.001zm7.563 0a1.064 1.064 0 11-1.078 1.065 1.068 1.068 0 011.068-1.065h.01zm7.582 0a1.064 1.064 0 11-1.078 1.065 1.072 1.072 0 011.071-1.065h.006zm7.563 0a1.064 1.064 0 11-1.084 1.065 1.075 1.075 0 011.074-1.065h.009zm7.569 0a1.064 1.064 0 11-1.078 1.065 1.068 1.068 0 011.068-1.065h.01-.001zM1.077 29.865a1.067 1.067 0 01-.01 2.136 1.068 1.068 0 01-1.068-1.064 1.073 1.073 0 011.073-1.071h.005zm7.569 0a1.068 1.068 0 11-1.09 1.071 1.078 1.078 0 011.078-1.071h.012-.001zm7.563 0a1.067 1.067 0 01-.01 2.136 1.068 1.068 0 01-1.068-1.064 1.073 1.073 0 011.073-1.071h.005zm7.582 0a1.067 1.067 0 01-.01 2.136 1.068 1.068 0 01-1.068-1.064 1.077 1.077 0 011.077-1.071zm7.563 0a1.068 1.068 0 11-1.084 1.072 1.08 1.08 0 011.079-1.071h.004zm7.569 0a1.067 1.067 0 01-.01 2.136 1.068 1.068 0 01-1.068-1.064 1.073 1.073 0 011.073-1.071h.005z"/></svg><svg viewBox="0 0 83 32" id="decor--video-bg" xmlns="http://www.w3.org/2000/svg"><path fill="#ededed" d="M82.287 31.999h-.095l.363-.344v.09l-.268.254zm-1.622 0l1.891-1.789v.09l-1.796 1.699h-.095zm-1.527 0l3.418-3.234v.09l-3.323 3.144h-.095zm2.167-3.496l1.25-1.182v.09l-1.512 1.43.261-.338zm.697-2.68l.554-.524v.09l-.514.486-.04-.052zm-.645-.834l1.199-1.135v.09l-1.159 1.097-.04-.052zm-.646-.835l1.845-1.745v.09l-1.805 1.707-.04-.052zm-.659-.659l-1.571-1.486-1.571 1.486.032-.042-.072-.068.078.06.223-.288 1.31-1.238 1.316 1.245.183.238 2.576-2.437v.09l-2.536 2.399.032.041zm-.632-1.01l3.135-2.966v.09l-3.095 2.928-.04-.052zm-.645-.834l3.78-3.577v.09l-3.74 3.539-.04-.052zm2.53-3.84l1.25-1.182V.032zm.697-13.372l.554-.524v.09l-.514.486-.04-.052zm-.645-.834l1.199-1.135v.09l-1.159 1.097-.04-.052zm-.646-.835l1.845-1.745v.09l-1.805 1.707-.04-.052zm-.659-.659L78.481.625 76.91 2.111l.032-.042-.072-.068.078.06.223-.288 1.31-1.238 1.316 1.245.183.238L82.068.042h.095L80.02 2.069l.032.042zm-.632-1.01L80.54.042h.095L79.46 1.153l-.04-.052zm-.645-.834l.238-.225h.095l-.293.277-.04-.052zm-.921-.225h.095l.238.225-.04.052-.293-.277zm-1.528 0h.095l1.12 1.059-.04.052L76.326.042zm.53 1.946L74.8.042h.095l2.002 1.894-.04.052zm-.646.834l-1.863-1.763-1.863 1.763-.04-.052 1.9-1.797.003.004.004-.004 1.9 1.798-.04.052zm-4.426-.711L70.213.625l-1.571 1.486.032-.041-.071-.068.078.06.223-.288 1.31-1.238 1.316 1.245.183.238L73.801.043h.095L71.753 2.07l.032.042zm-.631-1.01l1.12-1.059h.095l-1.175 1.111-.04-.052zm-.645-.834l.238-.225h.095l-.293.277-.04-.052zm-.921-.225h.095l.238.225-.04.052-.293-.277zm-1.528 0h.095l1.12 1.059-.04.052L68.06.042zm.529 1.946L66.532.042h.095l2.002 1.894-.04.052zm-.645.834L66.08 1.059l-1.863 1.763-.04-.052 1.9-1.797.003.004.004-.004 1.9 1.798-.04.052zm-4.426-.711L61.946.625l-1.571 1.486.032-.041L58.264.043h.095l2.088 1.976.189-.244 1.31-1.238 1.316 1.245.183.238L65.533.044h.095l-2.143 2.027.032.042zm-.631-1.01l1.12-1.059h.095l-1.175 1.111-.04-.052zm-.645-.834l.238-.225h.095l-.292.277-.04-.052zm-.922-.225h.095l.238.225-.04.052-.292-.277zm-1.527 0h.095l1.12 1.059-.04.052L59.793.042zm-.116 2.78l-1.863-1.763-1.863 1.763-.04-.052 1.9-1.797.003.004.004-.004 1.9 1.798-.04.052zm-4.427-.712L53.679.624 52.108 2.11l.032-.042L49.997.041h.095l2.088 1.976.189-.244 1.31-1.238 1.316 1.245.183.238L57.266.042h.095l-2.143 2.027.032.041zm-.63-1.009l1.12-1.059h.095L54.66 1.153l-.04-.052zm-.646-.834l.238-.225h.095l-.292.277-.04-.052zm-.921-.225h.095l.238.225-.04.052-.293-.277zm-1.527 0h.095l1.12 1.059-.04.052L51.526.042zm-.117 2.78l-1.863-1.763-1.863 1.763-.04-.052L49.545.969l1.903 1.801-.04.052zm-4.426-.711L45.411.625 43.84 2.111l.032-.042-.072-.068.078.06.223-.288 1.31-1.238 1.316 1.245.183.238L48.998.042h.095L46.95 2.069l.032.042zm-.631-1.01l1.12-1.059h.095l-1.175 1.111-.04-.052zm-.645-.834l.238-.225h.095l-.292.277-.04-.052zm-.921-.225h.095l.238.225-.04.052-.292-.277zm-1.528 0h.095l1.12 1.059-.04.052L43.258.042zm.529 1.946L41.73.042h.095l2.002 1.894-.04.052zm-.645.834l-1.863-1.763-1.863 1.763-.04-.052L41.278.969l1.903 1.801-.04.052zm-4.426-.711L37.144.625l-1.571 1.486.032-.042-.072-.068.078.06.223-.288 1.31-1.238L38.46 1.78l.183.238L40.731.042h.095l-2.143 2.027.032.042zm-.631-1.01l1.12-1.059h.095l-1.175 1.111-.04-.052zm-.645-.834l.238-.225h.095l-.292.277-.04-.052zm-.922-.225h.095l.238.225-.04.052-.292-.277zm-1.527 0h.095l1.12 1.059-.04.052L34.99.042zm.529 1.946L33.463.042h.095l2.002 1.894-.04.052zm-.645.834l-1.863-1.763-1.863 1.763-.04-.052L33.011.969l1.903 1.801-.04.052zm-4.426-.711L28.877.625l-1.571 1.486.032-.042-.072-.068.078.06.223-.288 1.31-1.238 1.316 1.245.183.238L32.464.042h.095l-2.143 2.027.032.042zm-.631-1.01l1.12-1.059h.095l-1.175 1.111-.04-.052zm-.646-.834l.238-.225h.095l-.293.277-.04-.052zM28.25.042h.095l.238.225-.04.052-.293-.277zm-1.527 0h.095l1.12 1.059-.04.052L26.723.042zm.529 1.946L25.196.042h.095l2.002 1.894-.04.052zm-.646.834l-1.863-1.763-1.863 1.763-.04-.052L24.743.969l1.903 1.801-.04.052zm-4.426-.711L20.609.625l-1.571 1.486.032-.042-.072-.068.078.06.223-.288 1.31-1.238 1.316 1.245.183.238L24.196.042h.095l-2.143 2.027.032.042zm-.631-1.01l1.12-1.059h.095l-1.175 1.111-.04-.052zm-.645-.834l.238-.225h.095l-.293.277-.04-.052zm-.921-.225h.095l.238.225-.04.052-.293-.277zm-1.528 0h.095l1.12 1.059-.04.052L18.455.042zm.529 1.946L16.928.042h.095l2.002 1.894-.04.052zm-.645.834l-1.863-1.763-1.863 1.763-.04-.052 1.902-1.8.003.003.001-.001 1.9 1.798-.04.052zm-4.426-.711L12.342.625l-1.571 1.486.032-.042-.072-.068.078.06.223-.288 1.31-1.238 1.316 1.245.183.238L15.929.042h.095l-2.143 2.027.032.041zm-.631-1.01l1.12-1.059h.095l-1.174 1.111-.04-.052zm-.645-.834l.238-.225h.095l-.293.277-.04-.052zm-.922-.225h.095l.238.225-.04.052-.292-.277zm-1.527 0h.095l1.12 1.059-.04.052L10.189.042zm.529 1.946L8.661.042h.095l2.002 1.894-.04.052zm-.645.834L8.209 1.059 6.346 2.822l-.04-.052L8.21.97l1.903 1.8-.04.052zm-4.426-.711L4.075.625 2.504 2.111l.032-.042-.072-.068.078.06.223-.288L4.075.535 5.391 1.78l.183.238L7.662.042h.095L5.614 2.069l.032.041zm-.631-1.01L6.135.042h.095L5.055 1.153l-.04-.052zM4.369.267l.238-.225h.095L4.41.319 4.37.267zM3.448.042h.095l.238.225-.04.052-.292-.277zm-1.527 0h.095l1.12 1.059-.04.052L1.921.042zm.529 1.946L.394.042h.095l2.002 1.894-.04.052zm-.646.834L0 1.115v-.09L1.844 2.77l-.04.052zm-.645.835L0 2.56v-.09l1.199 1.135-.04.052zm-.645.834L0 4.005v-.09l.554.524-.04.052zm.807 2.719l.119.153L4.075 4.87l2.549 2.412-.032.041.094.072.214-.276 1.309-1.238 1.315 1.244.064.084.119.153 2.635-2.493 2.635 2.493.072-.093.117-.151 1.309-1.238 1.315 1.244.183.238 2.635-2.493 2.549 2.412-.033.043.094.072.215-.278 1.309-1.238 1.315 1.244.064.084.119.153 2.635-2.493 2.635 2.493.186-.241 1.312-1.241 1.315 1.244.064.084.119.153 2.635-2.493 2.635 2.493.189-.244 1.309-1.238 1.315 1.244.064.084.119.153 2.635-2.493 2.635 2.493.189-.244 1.309-1.238 1.315 1.244.064.084.119.153 2.635-2.493 2.635 2.493.189-.244 1.31-1.237 1.315 1.244.183.238 2.635-2.493 2.635 2.493.189-.244 1.31-1.237 1.315 1.244.183.238 2.635-2.493 2.549 2.412-.04.052-2.509-2.374-2.595 2.456.032.042-1.57-1.486-1.571 1.486.033-.042-2.595-2.455-2.595 2.456.032.041-1.57-1.486-1.57 1.486.032-.042-2.595-2.455-2.596 2.456.032.041-1.57-1.486-1.57 1.486.032-.042-2.595-2.455-2.595 2.456.032.042-1.571-1.486-1.571 1.486.032-.042-2.595-2.455-2.595 2.456.032.042-1.571-1.486-1.571 1.486.033-.042-2.595-2.455-2.595 2.456.032.042-1.57-1.486-1.571 1.486.032-.042-2.595-2.455-2.595 2.456.032.042-1.571-1.486-1.571 1.486.032-.042-2.595-2.455-2.595 2.456.032.042-1.57-1.486L6.634 7.46l.032-.042-2.595-2.455-2.595 2.456.032.042-1.512-1.43v-.09L1.253 7.13l.064.084zm2.419 3.801L0 7.472v-.09l3.78 3.577-.04.052zm-.645.834L0 8.917v-.09l3.135 2.966-.04.052zm-.645.834L0 10.361v-.09l2.49 2.356-.04.052zm-.646.835L0 11.807v-.09l1.844 1.745-.04.052zm-.645.834L0 13.251v-.09l1.199 1.135-.04.052zm-.645.835L0 14.697v-.09l.554.524-.04.052zm.807 2.719l.119.153 2.635-2.493 2.549 2.412-.04.052-2.509-2.374-2.595 2.456.032.042L0 16.72v-.09l1.257 1.189.064.084zm2.419 3.8L0 18.163v-.09l3.78 3.577-.04.052zm-.645.835L0 19.609v-.09l3.135 2.966-.04.052zm-.645.834L0 21.053v-.09l2.49 2.356-.04.052zm-.646.835L0 22.499v-.09l1.844 1.745-.04.052zm-.645.834L0 23.943v-.09l1.199 1.135-.04.052zm-.645.835L0 25.389v-.09l.554.524-.04.052zm.807 2.719l.119.153 2.635-2.493 2.549 2.412-.032.041.094.072.214-.276 1.309-1.238 1.315 1.244.064.084.119.153 2.635-2.493 2.635 2.493.189-.244 1.309-1.238 1.315 1.244.183.238 2.635-2.493 2.549 2.412-.033.043.094.072.215-.278 1.309-1.238 1.315 1.244.064.084.119.153 2.635-2.493 2.635 2.493.186-.241 1.312-1.241 1.315 1.244.064.084.119.153 2.635-2.493 2.635 2.493.189-.244 1.309-1.238 1.315 1.244.064.084.119.153 2.635-2.493 2.635 2.493.189-.244 1.309-1.238 1.315 1.244.064.084.119.153 2.635-2.493 2.635 2.493.189-.244 1.31-1.237 1.315 1.244.183.238 2.635-2.493 2.635 2.493.041-.053.148-.192 1.31-1.237 1.315 1.244.183.238 2.635-2.493 2.549 2.412-.04.052-2.509-2.374-2.595 2.456.032.042-1.57-1.486-1.571 1.486.033-.042-2.595-2.456-2.595 2.456.032.041-1.57-1.486-1.57 1.486.032-.042-2.595-2.456-2.596 2.456.032.041-1.57-1.486-1.57 1.486.032-.042-2.595-2.456-2.595 2.456.032.042-1.571-1.486-1.571 1.486.032-.042-2.595-2.456-2.595 2.456.032.042-1.571-1.486-1.571 1.486.033-.042-2.595-2.456-2.595 2.456.032.042-1.57-1.486-1.571 1.486.032-.042-2.595-2.456-2.595 2.456.032.042-1.571-1.486-1.571 1.486.032-.042-2.595-2.456-2.595 2.456.032.042-1.57-1.486-1.571 1.486.032-.042-2.595-2.456-2.595 2.456.032.042-1.512-1.43v-.09l1.257 1.189.064.084zm2.002 3.405L0 28.855v-.09l3.418 3.234h-.095zm-1.527 0L0 30.3v-.09l1.891 1.789h-.095zm-1.528 0L0 31.745v-.09l.363.344H.268zm4.42-.83l-.04.052-.573-.542-.573.542-.04-.052.613-.58.613.58zm.645-.835l-.04.052-1.218-1.153-1.218 1.153-.04-.052 1.258-1.191 1.258 1.191zM2.171 29.5l1.904-1.801L5.979 29.5l-.04.052-1.864-1.763-1.864 1.763-.04-.052zm9.514 2.499h-.095L8.208 28.8l-3.382 3.199h-.095l3.477-3.289 3.477 3.289zm-1.527 0h-.095l-1.854-1.754-1.854 1.754H6.26l1.949-1.844 1.949 1.844zm-1.528 0h-.095l-.327-.309-.327.309h-.095l.422-.399.422.399zm4.325-.83l-.04.052-.573-.542-.573.542-.04-.052.613-.58.613.58zm.646-.835l-.04.052-1.218-1.153-1.218 1.153-.04-.052 1.258-1.191 1.258 1.191zm-3.163-.834l1.904-1.801 1.904 1.801-.04.052-1.864-1.763-1.864 1.763-.04-.052zm9.514 2.499h-.095L16.475 28.8l-3.382 3.199h-.095l3.477-3.289 3.477 3.289zm-1.527 0h-.095l-1.854-1.754-1.854 1.754h-.095l1.949-1.844 1.949 1.844zm-1.527 0h-.095l-.327-.309-.327.309h-.095l.422-.399.422.399zm4.325-.83l-.04.052-.573-.542-.573.542-.04-.052.613-.58.613.58zm.645-.835l-.04.052-1.218-1.153-1.218 1.153-.04-.052 1.258-1.191 1.258 1.191zm-3.162-.834l1.904-1.801 1.904 1.801-.04.052-1.864-1.763-1.864 1.763-.04-.052zm9.514 2.499h-.095L24.743 28.8l-3.382 3.199h-.095l3.477-3.289 3.477 3.289zm-1.528 0h-.095l-1.854-1.754-1.855 1.754h-.095l1.949-1.844 1.949 1.844zm-1.527 0h-.095l-.327-.309-.327.309h-.095l.422-.399.422.399zm4.325-.83l-.04.052-.573-.542-.573.542-.04-.052.613-.58.613.58zm.645-.835l-.04.052-1.218-1.153-1.218 1.153-.04-.052 1.258-1.191 1.258 1.191zm-3.162-.834l1.904-1.801 1.904 1.801-.04.052-1.864-1.763-1.864 1.763-.04-.052zm9.514 2.499h-.095L33.01 28.8l-3.382 3.199h-.095l3.477-3.289 3.477 3.289zm-1.527 0h-.095l-1.854-1.754-1.855 1.754h-.095l1.949-1.844 1.949 1.844zm-1.528 0h-.095l-.327-.309-.327.309h-.095l.422-.399.422.399zm4.325-.83l-.04.052-.573-.542-.573.542-.04-.052.613-.58.613.58zm.646-.835l-.04.052-1.218-1.153-1.218 1.153-.04-.052 1.258-1.191 1.258 1.191zM35.24 29.5l1.904-1.801 1.904 1.801-.04.052-1.864-1.763-1.864 1.763-.04-.052zm9.514 2.499h-.095L41.277 28.8l-3.382 3.199H37.8l3.477-3.289 3.477 3.289zm-1.527 0h-.095l-1.854-1.754-1.854 1.754h-.095l1.949-1.844 1.949 1.844zm-1.527 0h-.095l-.327-.309-.327.309h-.095l.422-.399.422.399zm4.325-.83l-.04.052-.573-.542-.573.542-.04-.052.613-.58.613.58zm.645-.835l-.04.052-1.218-1.153-1.218 1.153-.04-.052 1.259-1.191 1.258 1.191zm-3.162-.834l1.904-1.801 1.904 1.801-.04.052-1.864-1.763-1.864 1.763-.04-.052zm9.514 2.499h-.095L49.545 28.8l-3.382 3.199h-.095l3.477-3.289 3.477 3.289zm-1.528 0h-.095l-1.854-1.754-1.854 1.754h-.095l1.949-1.844 1.949 1.844zm-1.527 0h-.095l-.327-.309-.327.309h-.095l.422-.399.422.399zm4.325-.83l-.04.052-.573-.542-.573.542-.04-.052.613-.58.613.58zm.645-.835l-.04.052-1.218-1.153-1.218 1.153-.04-.052 1.259-1.191 1.258 1.191zm-3.162-.834l1.904-1.801 1.904 1.801-.04.052-1.864-1.763-1.864 1.763-.04-.052zm6.037-.788l.001-.001L61.289 32h-.095l-3.382-3.199L54.43 32h-.095l3.476-3.288zm0 1.445l.001-.001L59.762 32h-.095l-1.854-1.754L55.959 32h-.095l1.949-1.843zm0 1.445l.001-.001.421.399h-.095l-.327-.309-.327.309h-.095l.421-.398.001.001zm4.747-.433l-.04.052-.573-.542-.573.542-.04-.052.613-.58.613.58zm.646-.835l-.04.052-1.218-1.153-1.218 1.153-.04-.052 1.258-1.191 1.259 1.191zm-3.163-.834l1.904-1.801L63.85 29.5l-.04.052-1.864-1.763-1.864 1.763-.04-.052zm6.037-.788l.001-.001L69.556 32h-.095l-3.382-3.199L62.697 32h-.095l3.476-3.288zm0 1.445l.001-.001L68.029 32h-.095l-1.854-1.754L64.226 32h-.095l1.949-1.843zm0 1.445l.001-.001.421.399h-.095l-.327-.309-.327.309h-.095l.421-.398h.001zm4.748-.433l-.04.052-.573-.542-.573.542-.04-.052.613-.58.613.58zm.645-.835l-.04.052-1.219-1.153-1.218 1.153-.04-.052 1.258-1.191 1.259 1.191zM68.31 29.5l1.904-1.801 1.904 1.801-.04.052-1.864-1.763-1.864 1.763-.04-.052zm6.037-.788l.001-.001L77.824 32h-.095l-3.382-3.199L70.965 32h-.095l3.476-3.288zm0 1.445l.001-.001 1.948 1.843h-.095l-1.854-1.754-1.854 1.754h-.095l1.949-1.842zm0 1.445l.001-.001.421.399h-.095l-.327-.309-.327.309h-.095l.421-.398.001.001zm4.134-2.369l-1.218 1.153-.04-.052 1.258-1.191 1.258 1.191-.04.052-1.219-1.153zm0-1.445l-1.864 1.763-.04-.052 1.904-1.801 1.904 1.801-.04.052-1.864-1.763zm0-1.445l-2.595 2.456.032.042-1.571-1.486-1.571 1.486.262-.338 1.31-1.237 1.315 1.244.183.238 2.635-2.493 2.549 2.412-.04.052-2.509-2.374zm0-1.445l-3.154 2.984-.04-.052 3.194-3.022 3.194 3.022-.04.052-3.154-2.984zm3.839 2.099l-.04.052-3.8-3.595-3.8 3.595-.04-.052 3.84-3.633 3.84 3.633zm-7.973-5.999l-2.595 2.455.032.042-1.571-1.486-1.571 1.486.032-.041-.071-.067.077.06.223-.288 1.31-1.238 1.316 1.245.183.238 2.636-2.492 2.548 2.411-.04.052-2.508-2.373zm0-1.445l-3.154 2.984-.04-.052 3.195-3.021 3.193 3.021-.04.052-3.154-2.984zm0-1.445l-3.799 3.594-.04-.052 3.84-3.632 3.838 3.632-.04.052-3.799-3.594zm4.134 1.879l-.573.542-.04-.052.613-.58.613.58-.04.052-.573-.542zm0-1.445l-1.218 1.153-.04-.052 1.258-1.191 1.258 1.191-.04.052-1.219-1.153zm0-1.445l-1.864 1.763-.04-.052 1.904-1.801 1.904 1.801-.04.052-1.864-1.763zm0-1.445l-2.595 2.456.032.042-1.57-1.486-1.57 1.485.261-.338 1.31-1.237 1.315 1.244.183.238 2.635-2.493 2.549 2.412-.04.052-2.509-2.374zm0-1.445l-3.154 2.984-.04-.052 3.194-3.022 3.194 3.022-.04.052-3.154-2.984zm3.839 2.098l-.04.052-3.8-3.595-3.8 3.595-.04-.052 3.84-3.633 3.84 3.633zm-7.973-5.999l-2.595 2.455.032.042-1.571-1.486-1.571 1.486.032-.041-.071-.068.078.06.223-.288 1.31-1.238 1.316 1.245.183.238 2.636-2.492 2.548 2.411-.04.052-2.508-2.373zm0-1.445l-3.154 2.984-.04-.052 3.195-3.021 3.193 3.021-.04.052-3.154-2.984zm-2.23-.745l-.04.052-1.864-1.763-1.864 1.763-.04-.052 1.904-1.801 1.904 1.801zm-3.122.886l-.04-.052 1.258-1.191 1.259 1.191-.04.052-1.219-1.153-1.218 1.153zm1.218.293l-.573.542-.04-.052.613-.58.613.58-.04.052-.573-.542zm-4.134-1.967l.001-.001 3.839 3.632-.04.052-3.799-3.594-3.799 3.594-.04-.052 3.839-3.631zm-2.229.788l-.04.052-1.864-1.763-1.864 1.763-.04-.052 1.904-1.801 1.904 1.801zm-6.038-.788l.001-.001 3.839 3.632-.04.052-3.799-3.594-3.799 3.594-.04-.052 3.839-3.631zm-2.229.788l-.04.052-1.864-1.763-1.864 1.763-.04-.052 1.904-1.801 1.904 1.801zm-2.199 2.843l-.04.052-3.799-3.594-3.799 3.594-.04-.052 3.839-3.632 3.839 3.632zm-6.069-2.843l-.04.052-1.864-1.763-1.864 1.763-.04-.052 1.904-1.801 1.904 1.801zm-2.198 2.843l-.04.052-3.799-3.594-3.799 3.594-.04-.052 3.839-3.632 3.839 3.632zm-6.069-2.843l-.04.052-1.864-1.763-1.864 1.763-.04-.052 1.904-1.801 1.904 1.801zm-2.198 2.843l-.04.052-3.799-3.594-3.799 3.594-.04-.052 3.839-3.632 3.839 3.632zm-6.069-2.843l-.04.052-1.864-1.763-1.864 1.763-.04-.052 1.904-1.801 1.904 1.801zm-2.199 2.843l-.04.052-3.799-3.594-3.799 3.594-.04-.052 3.839-3.632 3.839 3.632zm-6.069-2.843l-.04.052-1.864-1.763-1.864 1.763-.04-.052 1.904-1.801 1.904 1.801zm-2.198 2.843l-.04.052-3.799-3.594-3.799 3.594-.04-.052 3.839-3.632 3.839 3.632zm-6.069-2.843l-.04.052-1.864-1.763-1.864 1.763-.04-.052 1.904-1.801 1.904 1.801zm-2.198 2.843l-.04.052-3.799-3.594-3.799 3.594-.04-.052 3.839-3.632 3.839 3.632zM2.171 8.116l1.904-1.801 1.904 1.801-.04.052-1.864-1.763-1.864 1.763-.04-.052zm.645.835L4.074 7.76l1.258 1.191-.04.052L4.074 7.85 2.856 9.003l-.04-.052zm.646.834l.613-.58.613.58-.04.052-.573-.542-.573.542-.04-.052zm1.593 2.06l-.04-.052 3.194-3.022 3.194 3.022-.04.052-3.154-2.984-3.154 2.984zm6.069-2.843l-.04-.052 1.258-1.191L13.6 8.95l-.04.052-1.218-1.153-1.218 1.153zm1.218.293l-.573.542-.04-.052.613-.58.613.58-.04.052-.573-.542zm-9.8 3.458l.223-.288 1.31-1.238 1.316 1.245.183.238 2.635-2.493 2.635 2.493.189-.245 1.31-1.238 1.316 1.245.183.238 2.635-2.493 2.548 2.411-.04.052-2.508-2.373-2.595 2.455.032.041-1.571-1.486-1.571 1.486.032-.042-2.595-2.455-2.595 2.455.032.041-1.571-1.486-1.571 1.486.032-.042-.072-.068.078.06zM.235 16.305l3.84-3.633 3.84 3.633-.04.052-3.8-3.595-3.8 3.595-.04-.052zm.686.886l-.04-.052 3.194-3.022 3.194 3.022-.04.052-3.154-2.984-3.154 2.984zm7.288-.618l1.315 1.244.064.084.119.153 2.635-2.493 2.549 2.412-.04.052-2.509-2.374-2.595 2.456.032.042-1.57-1.486-1.57 1.485.261-.338 1.309-1.238zm3.839 5.078l-.04.052-3.799-3.594-3.799 3.594-.04-.052 3.839-3.632 3.839 3.632zm-9.877-2.843l1.904-1.801 1.904 1.801-.04.052-1.864-1.763-1.864 1.763-.04-.052zm.645.835l1.258-1.191 1.258 1.191-.04.052-1.218-1.153-1.218 1.153-.04-.052zm.646.834l.613-.58.613.58-.04.052-.573-.542-.573.542-.04-.052zm-.92 2.968l.223-.288 1.31-1.238 1.316 1.245.183.238 2.635-2.493 2.549 2.411-.04.052-2.508-2.373-2.595 2.455.032.041-1.571-1.486-1.571 1.486.032-.041-.072-.068.078.06zm5.094 2.43l-.04-.052.613-.58.613.58-.04.052-.573-.542-.573.542zm.573-2.076l1.257 1.19-.04.052-1.218-1.152-1.218 1.152-.04-.052 1.259-1.19zm-1.904.355l1.904-1.8 1.903 1.8-.04.052-1.863-1.763-1.863 1.763-.04-.052zm9.598 1.721l-.04-.052.613-.58.613.58-.04.052-.573-.542-.573.542zm8.268 0l-.04-.052.613-.58.613.58-.04.052-.573-.542-.573.542zm8.267 0l-.04-.052.613-.58.612.58-.04.052-.573-.542-.573.542zm8.267 0l-.04-.052.613-.58.613.58-.04.052-.573-.542-.573.542zm8.268 0l-.04-.052.613-.58.613.58-.04.052-.573-.542-.572.542zm8.267 0l-.04-.052.611-.579.001.001.001-.001.612.579-.04.052-.573-.542-.573.542zm8.267 0l-.04-.052.611-.579.001.001.001-.001.612.579-.04.052-.573-.542-.573.542zm.576-2.074l1.255 1.187-.04.052-1.218-1.152-1.218 1.152-.04-.052 1.254-1.187.003.004.004-.004zm-1.906.353l1.9-1.797.003.004.004-.004 1.9 1.798-.04.052-1.863-1.763-1.863 1.763-.04-.052zm-6.361-.353l1.255 1.187-.04.052-1.218-1.152-1.218 1.152-.04-.052 1.254-1.187.003.004.004-.004zm-1.907.353l1.9-1.797.003.004.004-.004 1.9 1.798-.04.052-1.863-1.763-1.863 1.763-.04-.052zm-5.106.835l-.04.052-1.218-1.152-1.218 1.152-.04-.052 1.258-1.19 1.258 1.19zm-3.161-.835l1.903-1.801 1.903 1.801-.04.052-1.863-1.763-1.863 1.763-.04-.052zm18.438-3.156l-2.595 2.455.032.042-1.571-1.486-1.571 1.486.032-.041-2.595-2.455-2.595 2.455.032.041-1.57-1.486-1.571 1.486.032-.042-2.595-2.455-2.595 2.455.032.042-1.571-1.486-1.571 1.486.032-.042-.072-.068.078.06.223-.288 1.31-1.238 1.316 1.245.183.238 2.635-2.493 2.635 2.493.189-.244 1.31-1.238 1.316 1.245.183.238 2.636-2.492 2.634 2.492.189-.244 1.31-1.238 1.316 1.245.183.238 2.636-2.492 2.548 2.411-.04.052-2.509-2.373zm0-1.445l-3.154 2.984-.04-.052 3.194-3.021 3.193 3.021-.04.052-3.154-2.984zm0-1.445l-3.799 3.594-.04-.052 3.84-3.632 3.839 3.632-.04.052-3.799-3.594zm4.133 1.879l-.573.542-.04-.052.613-.58.613.58-.04.052-.573-.542zm0-1.445l-1.218 1.153-.04-.052 1.258-1.191 1.259 1.191-.04.052-1.219-1.153zm0-1.445l-1.864 1.763-.04-.052 1.904-1.801 1.904 1.801-.04.052-1.864-1.763zm0-1.445l-2.595 2.456.032.041-1.57-1.486-1.57 1.485.261-.338 1.31-1.237 1.315 1.244.183.238 2.635-2.493 2.549 2.412-.04.052-2.509-2.374zm0-1.445l-3.154 2.984-.04-.052 3.194-3.022 3.194 3.022-.04.052-3.154-2.984zm-25.741-2.414l-.04.052-3.154-2.984-3.154 2.984-.04-.052 3.194-3.022 3.194 3.022zm-8.268 0l-.04.052-3.154-2.984-3.154 2.984-.04-.052 3.194-3.022 3.194 3.022zm-8.267 0l-.04.052-3.154-2.984-3.154 2.984-.04-.052 3.194-3.022 3.194 3.022zm-3.488 4.512l-.04.052-3.8-3.595-3.8 3.595-.04-.052 3.84-3.633 3.84 3.633zm-6.07-2.843l-.04.052-1.863-1.763-1.863 1.763-.04-.052 1.903-1.801 1.903 1.801zm-9.191 3.729l-.04-.052 3.194-3.022 3.194 3.022-.04.052-3.154-2.984-3.154 2.984zm6.07-2.843l-.04-.052 1.258-1.19 1.258 1.19-.04.052-1.218-1.152-1.218 1.152zm1.218.293l-.573.542-.04-.052.613-.58.613.58-.04.052-.573-.542zm0 1.932l1.315 1.244.183.238 2.635-2.493 2.549 2.412-.04.052-2.509-2.374-2.595 2.456.032.042-1.57-1.486-1.57 1.486.261-.338 1.309-1.238zm3.839 5.078l-.04.052-3.799-3.594-3.799 3.594-.04-.052 3.839-3.632 3.839 3.632zm-9.877-2.843l1.904-1.801 1.904 1.801-.04.052-1.864-1.763-1.864 1.763-.04-.052zm.646.835l1.258-1.191 1.258 1.191-.04.052-1.218-1.153-1.218 1.153-.04-.052zm.645.834l.613-.58.613.58-.04.052-.573-.542-.573.542-.04-.052zm1.593 2.06l-.04-.052 3.194-3.022 3.194 3.022-.04.052-3.154-2.984-3.154 2.984zm27.956-2.984l-3.154 2.984-.04-.052 3.194-3.022 3.194 3.022-.04.052-3.154-2.984zm0-1.445l-3.799 3.594-.04-.052 3.839-3.632 3.839 3.632-.04.052-3.799-3.594zm3.56 2.421l-.04-.052.613-.58.613.58-.04.052-.573-.542-.573.542zm8.268 0l-.04-.052.613-.58.613.58-.04.052-.573-.542-.573.542zm8.84-.542l-.573.542-.04-.052.613-.58.613.58-.04.052-.573-.542zm0-1.445l-1.218 1.153-.04-.052 1.258-1.191 1.259 1.191-.04.052-1.218-1.153zm0-1.445l-1.864 1.763-.04-.052 1.904-1.801 1.904 1.801-.04.052-1.864-1.763zm0-1.445l-2.595 2.456.032.041-1.57-1.485-1.57 1.485.261-.338 1.31-1.237 1.315 1.244.183.238 2.635-2.493 2.549 2.412-.04.052-2.509-2.374zm0-1.445l-3.154 2.984-.04-.052 3.194-3.022 3.194 3.022-.04.052-3.154-2.984zm-4.134-2.544l.001-.001 1.903 1.8-.04.052-1.863-1.763-1.863 1.763-.04-.052 1.903-1.799zm-1.217 2.685l-.04-.052 1.259-1.19 1.257 1.19-.04.052-1.218-1.152-1.218 1.152zm1.217.293l-.573.542-.04-.052.611-.579.001.001.001-.001.612.579-.04.052-.573-.542zm-.293 1.664l-.04.052-3.8-3.595-3.8 3.595-.04-.052 3.84-3.633 3.84 3.633zm-6.071-2.843l-.04.052-1.863-1.763-1.863 1.763-.04-.052 1.903-1.801 1.903 1.801zm-2.197 2.843l-.04.052-3.8-3.595-3.8 3.595-.04-.052 3.84-3.633 3.84 3.633zm-6.07-2.843l-.04.052-1.863-1.763-1.863 1.763-.04-.052 1.903-1.801 1.903 1.801zm-2.197 2.843l-.04.052-3.8-3.595-3.8 3.595-.04-.052 3.84-3.633 3.84 3.633zm-6.07-2.843l-.04.052-1.863-1.763-1.863 1.763-.04-.052 1.903-1.801 1.903 1.801zm-2.197 2.843l-.04.052-3.8-3.595-3.8 3.595-.04-.052 3.84-3.633 3.84 3.633zm-9.877-2.843l1.903-1.801 1.903 1.801-.04.052-1.863-1.763-1.863 1.763-.04-.052zm.645.835l1.258-1.19 1.258 1.19-.04.052-1.218-1.152-1.218 1.152-.04-.052zm.646.834l.613-.58.613.58-.04.052-.573-.542-.573.542-.04-.052zm4.173 5.398l-.04-.052.613-.58.613.58-.04.052-.573-.542-.573.542zm1.831-.886l-.04.052-1.218-1.153-1.218 1.153-.04-.052 1.258-1.191 1.258 1.191zm-3.162-.835l1.904-1.801 1.904 1.801-.04.052-1.864-1.763-1.864 1.763-.04-.052zm10.171 1.179l-.573.542-.04-.052.613-.58.613.58-.04.052-.573-.542zm0-1.445l-1.218 1.153-.04-.052 1.258-1.191 1.258 1.191-.04.052-1.218-1.153zm0-1.445L35.28 18.86l-.04-.052 1.904-1.801 1.904 1.801-.04.052-1.864-1.763zm-11.421.094l-.04-.052 3.194-3.022 3.194 3.022-.04.052-3.154-2.984-3.154 2.984zm6.03-2.894l1.258-1.19 1.258 1.19-.04.052-1.218-1.152-1.218 1.152-.04-.052zm1.258.344l-.573.542-.04-.052.613-.58.613.58-.04.052-.573-.542zm4.133 1.011l-2.595 2.456.032.042-1.57-1.486-1.571 1.486.259-.334 1.312-1.241 1.315 1.244.064.084.119.153 2.635-2.493 2.549 2.412-.04.052-2.509-2.374zm-3.154 1.539l-.04-.052 3.194-3.022 3.194 3.022-.04.052-3.154-2.984-3.154 2.984zm6.07-2.843l-.04-.052 1.258-1.19 1.258 1.19-.04.052-1.218-1.152-1.218 1.152zm1.218.293l-.573.542-.04-.052.613-.58.613.58-.04.052-.573-.542zm.979 2.55l-.04-.052 3.194-3.022 3.194 3.022-.04.052-3.154-2.984-3.154 2.984zm6.07-2.843l-.04-.052 1.258-1.19 1.258 1.19-.04.052-1.218-1.152-1.218 1.152zm1.218.293l-.572.542-.04-.052.612-.58.613.58-.04.052-.573-.542zm.979 2.55l-.04-.052 3.194-3.022 3.194 3.022-.04.052-3.154-2.984-3.154 2.984zm4.413 2.452l-.04.052-1.218-1.153-1.218 1.153-.04-.052 1.259-1.191 1.258 1.191zm-3.162-.835l1.904-1.801 1.904 1.801-.04.052-1.864-1.763-1.864 1.763-.04-.052zm-2.23-2.145l-1.57 1.485.261-.338 1.309-1.238 1.315 1.244.064.084.119.153 2.635-2.493 2.549 2.412-.04.052-2.509-2.374-2.596 2.456.032.041-1.57-1.486zm-2.875 2.98l-.04.052-1.218-1.153-1.218 1.153-.04-.052 1.259-1.191 1.258 1.191zm-3.162-.835l1.904-1.801 1.904 1.801-.04.052-1.864-1.763-1.864 1.763-.04-.052zm-2.23-2.145l-1.57 1.486.261-.338 1.309-1.238 1.315 1.244.064.084.119.153 2.635-2.493 2.549 2.412-.04.052-2.509-2.374-2.595 2.456.032.042-1.571-1.486zm-5.114 5.874l-3.154-2.984-3.154 2.984-.04-.052 3.194-3.022 3.194 3.022-.04.052zm-6.993-.886l3.839-3.632 3.839 3.632-.04.052-3.799-3.594-3.799 3.594-.04-.052zm-1.274.886l-3.154-2.984-3.154 2.984-.04-.052 3.194-3.022 3.194 3.022-.04.052zm.685-.886l-.04.052-3.799-3.594-3.799 3.594-.04-.052 3.839-3.632 3.839 3.632zm-9.876-2.843l1.904-1.801 1.904 1.801-.04.052-1.864-1.763-1.864 1.763-.04-.052zm2.517 1.669l-.04.052-.573-.542-.573.542-.04-.052.613-.58.613.58zm-1.872-.834l1.258-1.191 1.258 1.191-.04.052-1.218-1.153-1.218 1.153-.04-.052zm-1.896-2.452l-.04-.052 3.194-3.022 3.194 3.022-.04.052-3.154-2.984-3.154 2.984zm8.604.627l.064.084.119.153 2.635-2.493 2.549 2.412-.04.052-2.509-2.374-2.595 2.456.032.042-1.57-1.486-1.571 1.486.261-.338 1.309-1.238 1.315 1.244zm35.887-5.056l-3.8 3.595-.04-.052 3.84-3.633 3.84 3.633-.04.052-3.8-3.595zm4.134 1.879l-.573.542-.04-.052.611-.579.001.001.001-.001.612.579-.04.052-.573-.542zm-1.863-1.127l-.04-.052 1.904-1.8 1.903 1.8-.04.052-1.863-1.763-1.863 1.763zm1.863-.318l-1.218 1.152-.04-.052 1.259-1.19 1.257 1.19-.04.052-1.218-1.152zm-8.267 6.268l3.193 3.021-.04.052-3.154-2.984-3.154 2.984-.04-.052 3.194-3.021zm-3.84 2.187l3.84-3.632 3.839 3.632-.04.052-3.799-3.594-3.799 3.594-.04-.052zm-1.234.834l-.04.052-3.154-2.984-3.154 2.984-.04-.052 3.194-3.022 3.194 3.022zm-7.033-.834l3.839-3.632 3.839 3.632-.04.052-3.799-3.594-3.799 3.594-.04-.052zm-3.17 3.338l-.04.052-1.218-1.152-1.218 1.152-.04-.052 1.258-1.19 1.258 1.19zm-3.161-.835l1.903-1.801 1.903 1.801-.04.052-1.863-1.763-1.863 1.763-.04-.052zm-3.763-.709l.223-.288 1.31-1.238 1.316 1.245.183.238 2.635-2.493 2.549 2.411-.04.052-2.508-2.373-2.595 2.455.032.042-1.571-1.486-1.571 1.486.032-.042-.072-.068.078.06zm-1.344 1.544l-.04.052-1.218-1.152-1.218 1.152-.04-.052 1.258-1.19 1.258 1.19zm-3.161-.835l1.903-1.801 1.903 1.801-.04.052-1.863-1.763-1.863 1.763-.04-.052zm-3.763-.709l.223-.288 1.31-1.238 1.316 1.245.183.238 2.635-2.493 2.549 2.411-.04.052-2.508-2.373-2.595 2.455.032.042-1.571-1.486-1.571 1.486.032-.042-.072-.068.078.06zm-1.343 1.543l-.04.052-1.218-1.152-1.218 1.152-.04-.052 1.258-1.19 1.258 1.19zm-3.161-.834l1.903-1.801 1.903 1.801-.04.052-1.863-1.763-1.863 1.763-.04-.052zm-3.763-.709l.223-.288 1.31-1.238 1.316 1.245.183.238 2.635-2.493 2.548 2.411-.04.052-2.508-2.373-2.595 2.455.032.041-1.571-1.486-1.571 1.486.032-.042-.072-.068.078.06zm-2.598.356l1.255 1.187-.04.052-1.218-1.152-1.218 1.152-.04-.052 1.257-1.189.003.003.001-.001zm-1.906.353l1.902-1.8.003.003.001-.001 1.9 1.798-.04.052-1.863-1.763-1.863 1.763-.04-.052zm-9.518-1.617l-.04-.052 3.194-3.022 3.194 3.022-.04.052-3.154-2.984-3.154 2.984zm8.603.627l.183.238 2.635-2.493 2.548 2.411-.04.052-2.508-2.373-2.595 2.455.032.041-1.571-1.486-1.571 1.486.032-.042-.072-.068.078.06.223-.288 1.31-1.238 1.316 1.245zm2.524-6.859l-.04.052-3.8-3.595-3.8 3.595-.04-.052 3.84-3.633 3.84 3.633zm-9.877-2.843l1.903-1.801 1.903 1.801-.04.052-1.863-1.763-1.863 1.763-.04-.052zm2.516 1.669l-.04.052-.573-.542-.573.542-.04-.052.613-.58.613.58zm-1.87-.834l1.258-1.19 1.258 1.19-.04.052-1.218-1.152-1.218 1.152-.04-.052zm6.371-2.452l-.04-.052 3.194-3.022 3.194 3.022-.04.052-3.154-2.984-3.154 2.984zm8.786.864l2.635-2.493 2.548 2.411-.04.052-2.508-2.373-2.595 2.455.032.042-1.571-1.486-1.571 1.486.032-.042-.072-.068.078.06.223-.288 1.31-1.238 1.316 1.245.183.238zm-2.717-3.707l-.04-.052 1.258-1.191 1.258 1.191-.04.052-1.218-1.153-1.218 1.153zm1.219.293l-.573.542-.04-.052.613-.58.613.58-.04.052-.573-.542zm9.766 3.414l2.635-2.493 2.549 2.411-.04.052-2.508-2.373-2.595 2.455.032.042-1.571-1.486-1.571 1.486.032-.042-.072-.068.078.06.223-.288 1.31-1.238 1.316 1.245.183.238zm-2.718-3.707l-.04-.052 1.258-1.191 1.258 1.191-.04.052-1.218-1.153-1.218 1.153zm1.219.293l-.573.542-.04-.052.613-.58.613.58-.04.052-.573-.542zm9.766 3.414l2.635-2.493 2.549 2.411-.04.052-2.508-2.373-2.595 2.455.032.042-1.571-1.486-1.571 1.486.032-.042-.072-.068.078.06.223-.288 1.31-1.238 1.316 1.245.183.238zm-2.717-3.707l-.04-.052 1.258-1.191 1.258 1.191-.04.052-1.218-1.153-1.218 1.153zm1.218.293l-.573.542-.04-.052.613-.58.613.58-.04.052-.573-.542zm7.049-.293l-.04-.052 1.259-1.191L46.67 8.95l-.04.052-1.218-1.153-1.218 1.153zm1.219.293l-.573.542-.04-.052.613-.58.613.58-.04.052-.573-.542zm.979 2.55l-.04-.052 3.194-3.022 3.194 3.022-.04.052-3.154-2.984-3.154 2.984zm6.069-2.843l-.04-.052 1.259-1.191 1.258 1.191-.04.052-1.218-1.153-1.218 1.153zm1.219.293l-.573.542-.04-.052.613-.58.613.58-.04.052-.573-.542zm.98 2.55l-.04-.052 3.194-3.021 3.193 3.021-.04.052-3.154-2.984-3.154 2.984zm6.069-2.843l-.04-.052 1.258-1.191 1.259 1.191-.04.052-1.218-1.153-1.218 1.153zm1.218.293l-.573.542-.04-.052.613-.58.613.58-.04.052-.573-.542zm.98 2.55l-.04-.052 3.194-3.021 3.193 3.021-.04.052-3.154-2.984-3.154 2.984zm3.154-1.539l-2.595 2.455.032.042-1.571-1.486-1.571 1.486.032-.041-2.595-2.455-2.595 2.455.032.041-1.57-1.486-1.571 1.486.032-.042-2.595-2.455-2.595 2.455.032.042-1.571-1.486-1.571 1.486.032-.042-.072-.068.078.06.223-.288 1.31-1.238 1.316 1.245.183.238 2.635-2.493 2.635 2.493.189-.245 1.31-1.238 1.316 1.245.183.238 2.636-2.492 2.634 2.492.189-.245 1.31-1.238 1.316 1.245.183.238 2.636-2.492 2.548 2.411-.04.052-2.509-2.373zm4.133 2.456l-3.8 3.595-.04-.052 3.84-3.633 3.84 3.633-.04.052-3.8-3.595zm4.134 1.879l-.573.542-.04-.052.612-.579.001.001.001-.001.612.579-.04.052-.573-.542zm-1.863-1.127l-.04-.052 1.904-1.8 1.903 1.8-.04.052-1.863-1.763-1.863 1.763zm1.863-.318l-1.218 1.152-.04-.052 1.259-1.19 1.257 1.19-.04.052-1.218-1.152zm0 12.137l-.573.542-.04-.052.612-.579.001.001.001-.001.612.579-.04.052-.573-.542zm-1.863-1.127l-.04-.052 1.9-1.797.003.004.004-.004 1.9 1.798-.04.052-1.863-1.763-1.863 1.763zm1.863-.318l-1.218 1.152-.04-.052 1.254-1.187.003.004.004-.004 1.255 1.187-.04.052-1.218-1.152zm-.939 3.943l-.04.052-3.154-2.984-3.154 2.984-.04-.052 3.194-3.022 3.194 3.022zm-7.034-.834l3.84-3.633 3.84 3.633-.04.052-3.8-3.595-3.8 3.595-.04-.052zm-1.233.834l-.04.052-3.154-2.984-3.154 2.984-.04-.052 3.194-3.022 3.194 3.022zm-7.035-.834l3.84-3.633 3.84 3.633-.04.052-3.8-3.595-3.8 3.595-.04-.052zm-1.233.834l-.04.052-3.154-2.984-3.154 2.984-.04-.052 3.194-3.022 3.194 3.022zm-7.034-.834l3.84-3.633 3.84 3.633-.04.052-3.8-3.595-3.8 3.595-.04-.052zm-1.233.834l-.04.052-3.154-2.984-3.154 2.984-.04-.052 3.194-3.022 3.194 3.022zm-7.034-.834l3.84-3.633 3.84 3.633-.04.052-3.8-3.595-3.8 3.595-.04-.052zm-1.233.834l-.04.052-3.154-2.984-3.154 2.984-.04-.052 3.194-3.022 3.194 3.022zm-7.035-.834l3.84-3.633 3.84 3.633-.04.052-3.8-3.595-3.8 3.595-.04-.052zm-1.233.834l-.04.052-3.154-2.984-3.154 2.984-.04-.052 3.194-3.022 3.194 3.022zm-7.034-.834l3.84-3.633 3.84 3.633-.04.052-3.8-3.595-3.8 3.595-.04-.052zm-1.233.834l-.04.052-3.154-2.984-3.154 2.984-.04-.052 3.194-3.022 3.194 3.022zm-7.034-.834l3.84-3.633 3.84 3.633-.04.052-3.8-3.595-3.8 3.595-.04-.052zm-1.233.834l-.04.052-3.154-2.984-3.154 2.984-.04-.052 3.194-3.022 3.194 3.022zm-7.034-.834l3.84-3.633 3.84 3.633-.04.052-3.8-3.595-3.8 3.595-.04-.052zm-1.234.834l-.04.052-3.154-2.984-3.154 2.984-.04-.052 3.194-3.022 3.194 3.022zm-7.034-.834l3.84-3.633 3.84 3.633-.04.052-3.8-3.595-3.8 3.595-.04-.052zM74.347 7.416l-3.799 3.594-.04-.052 3.84-3.632 3.838 3.632-.04.052-3.799-3.594zm4.134 1.879l-.573.542-.04-.052.613-.58.613.58-.04.052-.573-.542zm0-1.445l-1.218 1.153-.04-.052 1.258-1.191 1.258 1.191-.04.052L78.48 7.85zm0-1.445l-1.864 1.763-.04-.052 1.904-1.801 1.904 1.801-.04.052-1.864-1.763zm0-1.445l-2.595 2.456.032.042-1.571-1.486-1.571 1.486.262-.338 1.31-1.237 1.315 1.244.183.238 2.635-2.493 2.549 2.412-.04.052-2.509-2.374zm0-1.445l-3.154 2.984-.04-.052 3.194-3.022 3.194 3.022-.04.052-3.154-2.984zm3.839 2.098l-.04.052-3.8-3.595-3.8 3.595-.04-.052 3.84-3.633 3.84 3.633zm-7.973-3.191l.004-.004 1.255 1.187-.04.052-1.218-1.152-1.218 1.152-.04-.052 1.254-1.187.003.004zm-.001 1.439l.001.001.001-.001.612.579-.04.052-.573-.542-.573.542-.04-.052.612-.579zm-.938 2.586l-.04.052-3.154-2.984-3.154 2.984-.04-.052 3.194-3.022 3.194 3.022zm.645-.834l-.04.052-3.8-3.595-3.8 3.595-.04-.052 3.84-3.633 3.84 3.633zm-7.974-3.191l.004-.004 1.255 1.187-.04.052-1.218-1.152-1.218 1.152-.04-.052 1.254-1.187.003.004zm0 1.439l.001.001.001-.001.612.579-.04.052-.573-.542-.573.542-.04-.052.611-.579zm-.938 2.586l-.04.052-3.154-2.984-3.154 2.984-.04-.052 3.194-3.022 3.194 3.022zm.645-.834l-.04.052-3.8-3.595-3.8 3.595-.04-.052 3.84-3.633 3.84 3.633zm-7.974-3.191l.004-.004 1.255 1.187-.04.052-1.218-1.152-1.218 1.152-.04-.052 1.254-1.187.003.004zm-.001 1.439l.001.001.001-.001.612.579-.04.052-.573-.542-.573.542-.04-.052.611-.579zm-.938 2.586l-.04.052-3.154-2.984-3.154 2.984-.04-.052 3.194-3.022 3.194 3.022zm.646-.834l-.04.052-3.8-3.595-3.8 3.595-.04-.052 3.84-3.633 3.84 3.633zm-6.716-2.008l-.04.052-1.218-1.152-1.218 1.152-.04-.052 1.258-1.19 1.258 1.19zm-1.258.255l.613.58-.04.052-.573-.542-.572.542-.04-.052.613-.58zm-.939 2.587l-.04.052-3.154-2.984-3.154 2.984-.04-.052 3.194-3.022 3.194 3.022zm.645-.834l-.04.052-3.8-3.595-3.8 3.595-.04-.052 3.84-3.633 3.84 3.633zm-6.715-2.008l-.04.052-1.218-1.152-1.218 1.152-.04-.052 1.258-1.19 1.258 1.19zm-1.258.255l.613.58-.04.052-.573-.542-.573.542-.04-.052.613-.58zm-.939 2.587l-.04.052-3.154-2.984-3.154 2.984-.04-.052 3.194-3.022 3.194 3.022zm.645-.834l-.04.052-3.8-3.595-3.8 3.595-.04-.052 3.84-3.633 3.84 3.633zm-6.716-2.008l-.04.052-1.218-1.152-1.218 1.152-.04-.052 1.258-1.19 1.258 1.19zm-1.257.255l.612.58-.04.052-.573-.542-.573.542-.04-.052.613-.58zm-.94 2.587l-.04.052-3.154-2.984-3.154 2.984-.04-.052 3.194-3.022 3.194 3.022zm.646-.834l-.04.052-3.8-3.595-3.8 3.595-.04-.052 3.84-3.633 3.84 3.633zm-6.716-2.008l-.04.052-1.218-1.152-1.218 1.152-.04-.052 1.258-1.19 1.258 1.19zm-1.258.255l.613.58-.04.052-.573-.542-.573.542-.04-.052.613-.58zm-.939 2.587l-.04.052-3.154-2.984-3.154 2.984-.04-.052 3.194-3.022 3.194 3.022zm.645-.834l-.04.052-3.8-3.595-3.8 3.595-.04-.052 3.84-3.633 3.84 3.633zm-7.971-3.194l.001-.001 1.255 1.187-.04.052-1.218-1.152-1.218 1.152-.04-.052 1.257-1.189.003.003zm-.002 1.441l.613.58-.04.052-.573-.542-.573.542-.04-.052.613-.58zm-.939 2.587l-.04.052-3.154-2.984-3.154 2.984-.04-.052 3.194-3.022 3.194 3.022zm.645-.834l-.04.052-3.8-3.595-3.8 3.595-.04-.052 3.84-3.633 3.84 3.633zM8.206 2.419l.004-.003 1.257 1.19-.04.052-1.218-1.152-1.218 1.152-.04-.052L8.206 2.42zm.003 1.441l.613.58-.04.052-.573-.542-.573.542-.04-.052.613-.58zm-.94 2.587l-.04.052-3.154-2.984L.921 6.499l-.04-.052 3.194-3.022 3.194 3.022zM.235 5.613l3.84-3.633 3.84 3.633-.04.052-3.8-3.595-3.8 3.595-.04-.052zm78.859 25.556l-.04.052-.573-.542-.573.542-.04-.052.613-.58.613.58z"/></svg><svg viewBox="0 0 32 32" id="icon--arrow-right" xmlns="http://www.w3.org/2000/svg"><path d="M31.475 14.797L19.926 3.687a1.764 1.764 0 00-1.238-.496c-.467 0-.909.176-1.238.496l-1.046 1.008c-.33.317-.512.739-.512 1.19s.182.89.512 1.206l6.736 6.499H1.735c-.966 0-1.728.723-1.728 1.651v1.43c0 .928.762 1.728 1.728 1.728h21.482l-6.813 6.534a1.618 1.618 0 000 2.365l1.046 1.005c.33.317.771.49 1.238.49.47 0 .909-.173 1.238-.493l11.549-11.11a1.64 1.64 0 00.512-1.197c0-.451-.179-.877-.512-1.197z"/></svg><svg viewBox="0 0 32 32" id="icon--basket" xmlns="http://www.w3.org/2000/svg"><path d="M28.798 27.67L26.966 7.033a.88.88 0 00-.875-.806h-3.766C22.272 2.784 19.461.003 16.008.003S9.744 2.784 9.691 6.227H5.925a.875.875 0 00-.875.806L3.218 27.67c0 .027-.006.053-.006.078 0 2.35 2.152 4.261 4.8 4.261h15.994c2.648 0 4.8-1.91 4.8-4.261 0-.026 0-.051-.006-.078zm-12.79-25.9a4.557 4.557 0 014.55 4.458h-9.101a4.557 4.557 0 014.55-4.458zm7.997 28.473H8.011c-1.661 0-3.008-1.099-3.034-2.454L6.729 8.002h2.955v2.683c0 .491.392.883.883.883a.88.88 0 00.883-.883V8.002h9.107v2.683a.88.88 0 00.883.883.879.879 0 00.883-.883V8.002h2.955l1.758 19.787c-.026 1.355-1.379 2.454-3.034 2.454z"/></svg><svg viewBox="0 0 32 32" id="icon--cart" xmlns="http://www.w3.org/2000/svg"><path d="M25.367 30.545a3.962 3.962 0 113.985-3.962 3.983 3.983 0 01-3.983 3.962h-.003zm0-5.547a1.585 1.585 0 101.585 1.585 1.592 1.592 0 00-1.585-1.59zm2.546-4.082H9.28h-.001c-.56 0-1.031-.385-1.161-.905l-.002-.008L4.218 3.836H1.222a1.188 1.188 0 010-2.376h3.942a1.2 1.2 0 011.162.904l.002.008 1.076 4.477h23.427a1.19 1.19 0 011.154 1.483l.002-.008-2.909 11.692c-.137.52-.603.897-1.158.897h-.006zm-17.688-2.378h16.756l2.313-9.309H7.985zm.655 12.007a3.962 3.962 0 113.985-3.962 3.983 3.983 0 01-3.982 3.962h-.003zm0-5.547a1.585 1.585 0 101.585 1.585 1.592 1.592 0 00-1.585-1.59z"/></svg><svg viewBox="0 0 32 32" id="icon--clock" xmlns="http://www.w3.org/2000/svg"><path d="M16 17.331a1.333 1.333 0 01-1.333-1.333V6.665a1.334 1.334 0 012.666 0v8h5.334a1.333 1.333 0 010 2.666H16zm0 14.667c-8.822 0-16-7.178-16-16s7.178-16 16-16c3.603 0 7.133 1.227 9.936 3.456.578.458.674 1.296.214 1.872a1.331 1.331 0 01-1.874.214 13.179 13.179 0 00-8.277-2.875c-7.352 0-13.333 5.981-13.333 13.333s5.981 13.333 13.333 13.333 13.333-5.981 13.333-13.333c0-2.04-.443-3.989-1.32-5.798a1.335 1.335 0 01.619-1.782 1.335 1.335 0 011.781.619 15.84 15.84 0 011.587 6.962c0 8.822-7.178 16-16 16z"/></svg><svg viewBox="0 0 32 32" id="icon--facebook" xmlns="http://www.w3.org/2000/svg"><path d="M23.445 18l.891-5.789h-5.555V8.453c0-1.586.773-3.133 3.266-3.133h2.523V.39s-2.297-.391-4.484-.391c-4.578 0-7.57 2.773-7.57 7.797v4.414H7.43v5.789h5.086v14h6.266v-14z"/></svg><svg viewBox="0 0 32 32" id="icon--google" xmlns="http://www.w3.org/2000/svg"><path d="M32 16.367C32 25.209 25.65 31.5 16.258 31.5 7.266 31.5 0 24.575 0 16S7.267.5 16.258.5c4.383 0 8.067 1.533 10.908 4.058l-4.425 4.058C16.949 3.283 6.183 7.283 6.183 15.999c0 5.408 4.533 9.783 10.075 9.783 6.442 0 8.858-4.392 9.233-6.675h-9.233v-5.333h15.483c.15.792.258 1.558.258 2.592z"/></svg><svg viewBox="0 0 32 32" id="icon--heart" xmlns="http://www.w3.org/2000/svg"><path d="M31.6 7.342c-1.01-3.277-3.463-5.835-6.598-6.97l-.074-.024c-2.736-.952-6 0-8.928 2.578C13.072.416 9.792-.469 7.072.416 3.89 1.618 1.455 4.158.422 7.332L.4 7.41c-.752 2.512-.816 6.587 3.12 11.544 1.776 2.24 4.512 5.44 6.752 7.944 4.288 4.822 4.976 5.093 5.584 5.093h.272c.624 0 1.232-.269 5.52-5.158 2.256-2.581 4.976-5.774 6.752-7.946 3.952-4.957 3.952-9.032 3.2-11.544zm-5.248 9.92C23.216 21.201 17.84 27.38 16 29.078 14.16 27.38 8.768 21.2 5.632 17.262c-2.576-3.19-3.536-6.315-2.72-9.099.769-2.421 2.594-4.307 4.92-5.143l.056-.017c1.968-.747 4.64.27 7.088 2.648a1.341 1.341 0 001.701.198l-.005.003a.717.717 0 00.35-.27l.002-.002c2.448-2.309 5.104-3.326 7.072-2.648 2.371.906 4.185 2.803 4.959 5.17l.017.058c.816 2.718-.128 5.902-2.72 9.093z"/></svg><svg viewBox="0 0 32 32" id="icon--linkedin" xmlns="http://www.w3.org/2000/svg"><path d="M8.266 28H2.461V9.305h5.805zM5.359 6.758C3.507 6.758 2 5.219 2 3.36a3.364 3.364 0 016.726 0c0 1.859-1.508 3.398-3.367 3.398zM29.992 28h-5.789v-9.102c0-2.164-.047-4.945-3.023-4.945-3.016 0-3.477 2.352-3.477 4.789V28h-5.797V9.305h5.563v2.555h.086c.773-1.469 2.664-3.023 5.492-3.023 5.875 0 6.953 3.867 6.953 8.898v10.266z"/></svg><svg viewBox="0 0 32 32" id="icon--pinterest" xmlns="http://www.w3.org/2000/svg"><path d="M16.75.406C10.336.406 4 4.679 4 11.601c0 4.398 2.477 6.898 3.977 6.898.617 0 .977-1.727.977-2.211 0-.586-1.484-1.82-1.484-4.242 0-5.023 3.828-8.586 8.773-8.586 4.258 0 7.406 2.422 7.406 6.867 0 3.313-1.328 9.539-5.641 9.539-1.555 0-2.891-1.125-2.891-2.734 0-2.367 1.648-4.648 1.648-7.086 0-4.141-5.867-3.391-5.867 1.609 0 1.047.133 2.211.602 3.172-.859 3.711-2.625 9.242-2.625 13.063 0 1.188.172 2.344.281 3.531.211.234.109.211.43.094 3.148-4.313 3.039-5.156 4.461-10.805.773 1.461 2.758 2.25 4.336 2.25 6.633 0 9.617-6.469 9.617-12.297C28 4.452 22.641.405 16.75.405z"/></svg><svg viewBox="0 0 32 32" id="icon--return" xmlns="http://www.w3.org/2000/svg"><path fill="#34c3ff" d="M0 0h32v32H0V0z"/><path fill="#fff" d="M13.71 16.384c0 .375-.35.594-.859.594-.292 0-.534-.071-.663-.154l.114-.411c.078.038.295.13.505.13.19 0 .324-.057.324-.195 0-.142-.161-.219-.333-.219h-.245v-.393h.236c.129 0 .295-.042.295-.165 0-.092-.094-.154-.272-.154-.184 0-.382.083-.459.124l-.117-.396c.134-.083.401-.159.698-.159.438 0 .71.207.71.493 0 .207-.114.366-.371.449v.006c.237.029.435.201.435.449zm1.055.594c-.57 0-.797-.47-.797-.996 0-.523.228-.996.801-.996s.801.473.801.996c0 .526-.228.996-.801.996h-.003zm.254-.996c0-.408-.099-.591-.251-.591s-.251.183-.251.591c0 .407.099.594.251.594h.003c.149 0 .249-.186.249-.594zm2.034.984c-.292 0-.476-.018-.585-.035v-1.954a4.84 4.84 0 01.692-.044c.415 0 .669.062.885.201.231.147.391.39.391.754 0 .413-.17.665-.362.813-.243.186-.608.266-1.022.266zm.16-1.61a.992.992 0 00-.193.015v1.161a.873.873 0 00.129.006c.403.006.699-.186.699-.621 0-.396-.278-.562-.634-.562zm2.06.467a.998.998 0 00-.436.115l-.096-.348a1.35 1.35 0 01.628-.136c.494 0 .705.251.705.641v.488c0 .154.009.295.023.361H19.6l-.029-.124h-.011c-.106.118-.258.159-.421.159-.316 0-.503-.221-.503-.458 0-.39.345-.571.889-.571v-.009c0-.053-.035-.118-.251-.118zm-.091.644c0 .083.055.131.158.131a.215.215 0 00.196-.151c.006-.024.006-.053.006-.08v-.079c-.243 0-.359.062-.359.18zm1.046-.978h.617l.19.63c.023.083.052.201.073.271h.012c.02-.077.044-.195.061-.271l.143-.63h.602l-.304.83c-.266.736-.423.946-.581 1.076a.902.902 0 01-.517.204l-.102-.467a.687.687 0 00.179-.042.497.497 0 00.187-.13.11.11 0 00.029-.068.195.195 0 00-.023-.085l-.564-1.318zm2.008-2.306l-2.258-.166.057-.782.987.073a5.776 5.776 0 00-4.297-1.924c-3.206 0-5.815 2.638-5.815 5.882s2.609 5.883 5.815 5.883a5.797 5.797 0 004.831-2.611l.644.438a6.57 6.57 0 01-5.475 2.958c-3.634 0-6.591-2.99-6.591-6.667 0-3.676 2.957-6.667 6.591-6.667 1.853 0 3.598.786 4.837 2.143l.065-.899.774.057-.164 2.283z"/></svg><svg viewBox="0 0 32 32" id="icon--search" xmlns="http://www.w3.org/2000/svg"><path d="M31.824 29.92l-9.296-9.296a12.634 12.634 0 002.836-8.003c0-7.02-5.691-12.71-12.71-12.71S-.056 5.602-.056 12.621c0 7.02 5.691 12.71 12.71 12.71a12.66 12.66 0 008.01-2.841l-.023.018 9.296 9.296a.666.666 0 00.944 0l.944-.942a.67.67 0 000-.942zm-19.136-7.253c-5.523 0-10-4.477-10-10s4.477-10 10-10 10 4.477 10 10c-.007 5.519-4.481 9.99-10 9.994z"/></svg><svg viewBox="0 0 32 32" id="icon--shipping" xmlns="http://www.w3.org/2000/svg"><path fill="#ffb534" d="M0 0h32v32H0V0z"/><path fill="#fff" d="M19.206 18.753c.185 0 .334.148.334.33s-.149.33-.334.33h-4.989c-.184 0-.334-.148-.334-.33s.15-.33.334-.33h4.989zm-5.701-2.156a.337.337 0 01-.236-.097l-1.781-1.76c-.131-.129-.131-.338 0-.467s.342-.129.473 0l1.545 1.527 2.971-2.935c.131-.129.342-.129.473 0s.131.338 0 .467l-3.207 3.169a.333.333 0 01-.236.097zm12.827 4.225H25.24l.001.022c0 1.153-.949 2.09-2.116 2.09s-2.116-.938-2.116-2.09l.001-.022h-7.529l.001.022c0 1.153-.949 2.09-2.116 2.09s-2.116-.938-2.116-2.09l.001-.022H7.447a.688.688 0 01-.691-.683v-.726H5.665c-.185 0-.334-.148-.334-.33s.149-.33.334-.33h3.207c.185 0 .334.148.334.33s-.149.33-.334.33H7.425v.726c0 .013.01.022.022.022h1.92c.287-.819 1.075-1.409 1.999-1.409s1.713.59 1.999 1.409h6.931v-2.487c0-.182.149-.33.334-.33s.334.148.334.33v2.487h.161c.287-.819 1.075-1.409 1.999-1.409s1.713.59 1.999 1.409h.873v-1.452h-.379a1.041 1.041 0 01-1.046-1.035v-.704c0-.182.149-.33.334-.33h1.039a1.091 1.091 0 00-1.038-.748h-.001-3.941v.374c0 .182-.15.33-.334.33s-.334-.148-.334-.33V10.28a.022.022 0 00-.022-.022H7.447a.022.022 0 00-.022.022v5.985c0 .183-.15.331-.334.331s-.334-.148-.334-.331V10.28c0-.376.31-.682.691-.682h12.827c.381 0 .691.306.691.682v.726h2.516c.773 0 1.403.622 1.403 1.387v.351a.332.332 0 01-.265.323l.553 2.183c.844.127 1.493.85 1.493 1.719v3.521c0 .182-.149.33-.334.33zm-14.965-1.409c-.798 0-1.447.642-1.447 1.43s.649 1.43 1.447 1.43 1.447-.641 1.447-1.43-.65-1.43-1.447-1.43zm11.758 0c-.798 0-1.447.642-1.447 1.43s.649 1.43 1.447 1.43 1.447-.641 1.447-1.43-.65-1.43-1.447-1.43zm1.092-7.019a.731.731 0 00-.735-.726h-2.516v.748h3.251v-.021zm-.284.682h-2.968v2.157h3.514l-.546-2.157zm2.065 4.225h-.757v.374c0 .206.17.374.378.374h.379v-.748zm-2.873 4.225c-.381 0-.691-.306-.691-.682s.31-.682.691-.682.69.306.69.682a.687.687 0 01-.69.682zm-11.758 0c-.381 0-.691-.306-.691-.682s.31-.682.691-.682.69.306.69.682a.687.687 0 01-.69.682zm-.379-3.851c0 .182-.15.331-.334.331H6.378c-.185 0-.334-.148-.334-.331s.149-.33.334-.33h4.276c.184 0 .334.148.334.33z"/></svg><svg viewBox="0 0 32 32" id="icon--support" xmlns="http://www.w3.org/2000/svg"><path fill="#fe3e57" d="M0 0h32v32H0V0z"/><path fill="#fff" d="M22.664 17.178l-2.213 2.541a1.83 1.83 0 01-.357.314c-.361.225-.813.339-1.347.339h-3.283a5.93 5.93 0 00-.679.038l-.371.041.162.154a.262.262 0 01.005.379l-1.863 1.867a.276.276 0 01-.384.007L9.152 19.9a.263.263 0 01-.008-.377l1.881-1.907a.283.283 0 01.195-.082h.002c.071 0 .14.027.191.076l.387.367c.148-.204.383-.483.705-.74.791-.63 1.728-.824 2.708-.559a4.55 4.55 0 001.18.153h2.158a1.01 1.01 0 01.886.486l1.541-1.489c.226-.221.529-.333.852-.317.284.014.567.13.774.317.414.373.438.916.059 1.351zm-11.435.999l-1.502 1.522 2.788 2.592L14 20.803l-2.771-2.626zm11.006-1.958c-.222-.2-.619-.262-.872-.014l-1.775 1.716a1.078 1.078 0 01-.257.678c-.191.219-.47.34-.788.34h-1.878a.27.27 0 01-.273-.267.27.27 0 01.273-.266h1.878a.466.466 0 00.372-.153.563.563 0 00.128-.37c0-.193-.103-.521-.491-.521h-2.158c-.456 0-.902-.058-1.325-.172-.814-.22-1.56-.066-2.218.459-.316.252-.535.53-.653.702l1.709 1.62.816-.09c.245-.028.494-.042.741-.042h3.283c.426 0 .779-.085 1.049-.252.089-.061.169-.133.239-.213l2.212-2.542c.256-.293.102-.511-.013-.614zm-6.622 2.714a.272.272 0 01-.328-.199l-.003-.011c-.034-.143.057-.286.204-.319s.293.055.327.198l.003.011a.267.267 0 01-.203.32zm4.822-3.715h-2.658a.657.657 0 01-.388-.124.664.664 0 01-.387.124h-2.658a.657.657 0 01-.388-.124.664.664 0 01-.388.124H10.91a.653.653 0 01-.66-.645v-1.21c0-.543.311-1.016.778-1.249a1.507 1.507 0 01-.362-.98c0-.846.706-1.536 1.573-1.536s1.573.69 1.573 1.536c0 .372-.136.714-.362.979.201.101.374.246.505.423a1.4 1.4 0 01.505-.422 1.507 1.507 0 01-.362-.98c0-.846.706-1.536 1.573-1.536s1.573.69 1.573 1.536c0 .372-.136.714-.362.979.202.101.374.246.505.423.131-.177.303-.322.505-.423a1.506 1.506 0 01-.362-.979c0-.846.706-1.536 1.573-1.536s1.573.69 1.573 1.536c0 .372-.136.714-.362.979.467.233.778.705.778 1.249v1.21a.654.654 0 01-.66.645zm-8.194-5.086c-.567 0-1.028.45-1.028 1.003s.461 1.004 1.028 1.004c.566 0 1.028-.45 1.028-1.004s-.461-1.003-1.028-1.003zm1.443 3.231a.871.871 0 00-.735-.857 1.6 1.6 0 01-1.417 0 .872.872 0 00-.735.857v1.21c0 .062.051.113.115.113h2.658a.115.115 0 00.115-.113v-1.21zm1.989-3.231c-.567 0-1.028.45-1.028 1.003s.461 1.004 1.028 1.004 1.028-.45 1.028-1.004c0-.553-.461-1.003-1.028-1.003zm1.444 3.231a.871.871 0 00-.735-.857 1.596 1.596 0 01-1.416 0 .871.871 0 00-.735.857v1.21c0 .062.052.113.115.113h2.658a.115.115 0 00.115-.113v-1.21zm1.989-3.231c-.566 0-1.028.45-1.028 1.003s.461 1.004 1.028 1.004 1.028-.45 1.028-1.004-.461-1.003-1.028-1.003zm1.443 3.231a.871.871 0 00-.735-.857 1.6 1.6 0 01-1.417 0 .871.871 0 00-.735.857v1.21c0 .062.051.113.115.113h2.658a.115.115 0 00.115-.113v-1.21z"/></svg><svg viewBox="0 0 32 32" id="icon--twitter" xmlns="http://www.w3.org/2000/svg"><path d="M28.711 9.484c.023.281.023.57.023.852 0 8.672-6.602 18.656-18.664 18.656-3.719 0-7.164-1.07-10.07-2.938.531.055 1.039.078 1.586.078 3.063 0 5.883-1.039 8.141-2.805a6.573 6.573 0 01-6.133-4.547c.406.063.813.102 1.242.102.586 0 1.172-.078 1.719-.227a6.556 6.556 0 01-5.258-6.43v-.086a6.548 6.548 0 002.969.836 6.556 6.556 0 01-2.922-5.461 6.5 6.5 0 01.891-3.313 18.627 18.627 0 0013.523 6.859 7.317 7.317 0 01-.164-1.5 6.554 6.554 0 016.555-6.555 6.55 6.55 0 014.797 2.07 13.112 13.112 0 004.164-1.586 6.567 6.567 0 01-2.883 3.617A13.315 13.315 0 0032 6.09a14.138 14.138 0 01-3.289 3.391z"/></svg><svg viewBox="0 0 32 32" id="icon--user" xmlns="http://www.w3.org/2000/svg"><path d="M27.312 20.685a15.884 15.884 0 00-5.969-3.779l-.111-.034c2.439-1.69 4.016-4.473 4.016-7.626 0-5.108-4.14-9.248-9.248-9.248a9.247 9.247 0 00-5.263 16.854l.031.02C4.45 19.114.006 25.037 0 31.999V32h2.496c0-7.458 6.046-13.504 13.504-13.504S29.504 24.542 29.504 32H32v-.046a15.84 15.84 0 00-4.687-11.269l-.001-.001zM9.248 9.248A6.752 6.752 0 1116 16a6.756 6.756 0 01-6.752-6.752z"/></svg><svg viewBox="0 0 32 32" id="icon--video-play" xmlns="http://www.w3.org/2000/svg"><path fill="#fe3e57" opacity=".2" d="M32 16c0 8.837-7.163 16-16 16S0 24.837 0 16 7.163 0 16 0s16 7.163 16 16z"/><path fill="#fe3e57" opacity=".6" d="M29.538 16c0 7.477-6.061 13.538-13.538 13.538S2.462 23.477 2.462 16 8.523 2.462 16 2.462 29.538 8.523 29.538 16z"/><path fill="#fe3e57" d="M27.077 16c0 6.118-4.959 11.077-11.077 11.077S4.923 22.118 4.923 16 9.882 4.923 16 4.923 27.077 9.882 27.077 16z"/><path fill="#fff" d="M17.678 15.542l-2.911-1.871a.719.719 0 00-.381-.133h-.002a.37.37 0 00-.351.441v-.002 4.047a.372.372 0 00.351.438h.001a.742.742 0 00.383-.134l-.002.002 2.912-1.871a.507.507 0 00.003-.915l-.003-.001z"/></svg></svg>