<?xml version="1.0" encoding="utf-8"?><svg viewBox="0 0 60 60" xmlns="http://www.w3.org/2000/svg" xmlns:xlink="http://www.w3.org/1999/xlink"><style>:root>svg{display:none}:root>svg:target{display:block}</style><svg viewBox="0 0 22 20" id="cart"><path class="acls-1" d="M17.44 20a2.724 2.724 0 112.74-2.724A2.738 2.738 0 0117.44 20zm0-3.814a1.09 1.09 0 101.09 1.09 1.094 1.094 0 00-1.09-1.093zm1.75-2.806H6.38a.823.823 0 01-.8-.628L2.9 1.637H.84a.817.817 0 110-1.634h2.71a.824.824 0 01.8.627l.74 3.078h16.1a.818.818 0 01.8 1.014l-2 8.038a.822.822 0 01-.8.617zM7.03 11.745h11.52l1.59-6.4H5.49zM7.48 20a2.724 2.724 0 112.74-2.724A2.738 2.738 0 017.48 20zm0-3.814a1.09 1.09 0 101.09 1.09 1.094 1.094 0 00-1.09-1.093z"/></svg><svg viewBox="0 0 10 16" id="facebook"><path d="M8.723 9l.445-2.895H6.391V4.227c0-.793.386-1.567 1.632-1.567h1.262V.195S8.137 0 7.043 0c-2.29 0-3.785 1.387-3.785 3.898v2.207H.715V9h2.543v7H6.39V9zm0 0"/></svg><svg viewBox="0 0 15 15" id="google"><path d="M15 7.672c0 4.144-2.977 7.094-7.379 7.094C3.406 14.766 0 11.52 0 7.5S3.406.234 7.621.234c2.055 0 3.781.72 5.113 1.903L10.66 4.039C7.945 1.54 2.898 3.414 2.898 7.5c0 2.535 2.125 4.586 4.723 4.586 3.02 0 4.152-2.059 4.328-3.129H7.621v-2.5h7.258c.07.371.121.73.121 1.215zm0 0"/></svg><svg viewBox="0 0 20 20" id="heart"><path class="dcls-1" d="M19.75 4.589A6.683 6.683 0 0015.58.218c-1.71-.595-3.75 0-5.58 1.611C8.17.26 6.12-.293 4.42.26A6.884 6.884 0 00.25 4.631c-.47 1.57-.51 4.117 1.95 7.215 1.11 1.4 2.82 3.4 4.22 4.965 2.68 3.014 3.11 3.183 3.49 3.183h.17c.39 0 .77-.168 3.45-3.224a224.86 224.86 0 004.22-4.966c2.47-3.098 2.47-5.645 2-7.215zm-3.28 6.2c-1.96 2.462-5.32 6.324-6.47 7.385-1.15-1.061-4.52-4.924-6.48-7.385-1.61-1.994-2.21-3.947-1.7-5.687a4.986 4.986 0 013.11-3.225c1.23-.467 2.9.169 4.43 1.655a.84.84 0 001.06.126.447.447 0 00.22-.17c1.53-1.443 3.19-2.079 4.42-1.655a5.168 5.168 0 013.11 3.268c.51 1.699-.08 3.689-1.7 5.683z"/></svg><svg viewBox="0 0 14 16" id="linkedin"><path d="M3.133 14H.23V4.652h2.903zM1.68 3.379c-.926 0-1.68-.77-1.68-1.7a1.682 1.682 0 013.363 0c0 .93-.754 1.7-1.683 1.7zM13.996 14h-2.894V9.45c0-1.083-.024-2.473-1.512-2.473-1.508 0-1.738 1.175-1.738 2.394V14H4.953V4.652h2.781V5.93h.043c.387-.735 1.332-1.512 2.746-1.512 2.938 0 3.477 1.934 3.477 4.45V14zm0 0"/></svg><svg viewBox="0 0 12 16" id="pinterest"><path d="M6.375.203C3.168.203 0 2.34 0 5.801 0 8 1.238 9.25 1.988 9.25c.309 0 .489-.863.489-1.105 0-.293-.743-.91-.743-2.122 0-2.511 1.914-4.293 4.387-4.293 2.129 0 3.703 1.211 3.703 3.434 0 1.656-.664 4.77-2.82 4.77-.777 0-1.445-.563-1.445-1.368 0-1.183.824-2.324.824-3.543 0-2.07-2.934-1.695-2.934.805 0 .524.067 1.106.301 1.586-.43 1.856-1.313 4.621-1.313 6.531 0 .594.086 1.172.141 1.766.106.117.055.105.215.047 1.574-2.156 1.52-2.578 2.23-5.403.387.73 1.38 1.125 2.168 1.125C10.508 11.48 12 8.246 12 5.332 12 2.227 9.32.203 6.375.203zm0 0"/></svg><svg viewBox="0 0 60 60" id="return"><path fill-rule="evenodd" fill="#34C3FF" d="M0 0h60v60H0V0z"/><path fill-rule="evenodd" fill="#FFF" d="M25.707 30.72c0 .704-.657 1.114-1.611 1.114-.547 0-1.002-.133-1.243-.288l.214-.77c.147.072.553.244.947.244.356 0 .608-.106.608-.366 0-.266-.301-.41-.624-.41h-.46v-.737h.443c.241 0 .554-.078.554-.31 0-.172-.176-.288-.51-.288-.345 0-.717.155-.86.233l-.219-.743c.252-.155.751-.299 1.309-.299.822 0 1.332.388 1.332.925 0 .388-.214.687-.696.842v.011c.444.055.816.377.816.842zm1.977 1.114c-1.068 0-1.495-.881-1.495-1.867 0-.981.427-1.867 1.501-1.867 1.074 0 1.501.886 1.501 1.867 0 .986-.427 1.867-1.501 1.867h-.006zm.477-1.867c0-.765-.186-1.108-.471-1.108s-.471.343-.471 1.108c0 .764.186 1.113.471 1.113h.005c.28 0 .466-.349.466-1.113zm3.813 1.845c-.548 0-.893-.033-1.096-.066v-3.663A8.987 8.987 0 0132.176 28c.778 0 1.255.116 1.66.377.433.276.734.731.734 1.413 0 .775-.318 1.246-.679 1.524-.455.348-1.14.498-1.917.498zm.301-3.02c-.192 0-.307.017-.362.028v2.177c.061.012.165.012.241.012.756.011 1.31-.349 1.31-1.164 0-.742-.521-1.053-1.189-1.053zm3.862.876c-.302 0-.641.116-.817.215l-.18-.653c.175-.094.575-.255 1.177-.255.926 0 1.321.471 1.321 1.202v.915c0 .288.016.553.044.676h-.932l-.055-.233h-.021c-.198.222-.483.299-.789.299-.592 0-.943-.415-.943-.858 0-.732.647-1.07 1.666-1.07v-.017c0-.099-.066-.221-.471-.221zm-.17 1.207c0 .156.104.245.296.245a.4.4 0 00.367-.283c.011-.045.011-.1.011-.15v-.149c-.455 0-.674.116-.674.337zm1.961-1.834h1.156l.356 1.181c.044.155.098.376.137.509h.022c.038-.144.082-.365.115-.509l.268-1.181h1.129l-.57 1.557c-.499 1.38-.794 1.774-1.09 2.018-.329.271-.68.36-.97.382l-.192-.875a1.33 1.33 0 00.335-.078.913.913 0 00.35-.244.216.216 0 00.055-.128.37.37 0 00-.044-.16l-1.057-2.472zm3.764-4.322l-4.234-.312.106-1.467 1.851.137a10.831 10.831 0 00-8.057-3.607c-6.012 0-10.904 4.947-10.904 11.028 0 6.082 4.892 11.03 10.904 11.03 3.636 0 7.021-1.83 9.058-4.896l1.207.821c-2.307 3.473-6.144 5.546-10.265 5.546C24.544 42.999 19 37.392 19 30.498c0-6.892 5.544-12.5 12.358-12.5 3.474 0 6.746 1.474 9.07 4.018l.121-1.685 1.451.107-.308 4.281z"/></svg><svg viewBox="0 0 20 20" id="search"><path class="hcls-1" d="M19.89 18.7l-5.81-5.81a7.944 7.944 0 10-1.18 1.178l5.81 5.81a.417.417 0 00.59 0l.59-.589a.421.421 0 000-.589zM7.93 14.167a6.25 6.25 0 116.25-6.25 6.254 6.254 0 01-6.25 6.246z"/></svg><svg viewBox="0 0 60 60" id="shipping"><path fill-rule="evenodd" fill="#FFB534" d="M0 0h60v60H0V0z"/><path fill-rule="evenodd" fill="#FFF" d="M36.011 35.162c.346 0 .626.277.626.619 0 .342-.28.619-.626.619h-9.354a.623.623 0 01-.626-.619c0-.342.281-.619.626-.619h9.354zm-10.69-4.043a.63.63 0 01-.443-.182l-3.34-3.3a.614.614 0 010-.876.631.631 0 01.886 0l2.897 2.864 5.57-5.504a.631.631 0 01.886 0 .613.613 0 010 .875l-6.013 5.941a.629.629 0 01-.443.182zm24.052 7.922h-2.048a.536.536 0 01.002.041c0 2.161-1.78 3.919-3.967 3.919-2.188 0-3.967-1.758-3.967-3.919l.001-.041H25.278a.536.536 0 01.002.041c0 2.161-1.78 3.919-3.967 3.919-2.188 0-3.967-1.758-3.967-3.919l.001-.041h-3.383a1.289 1.289 0 01-1.295-1.28V36.4h-2.046a.622.622 0 01-.626-.619c0-.342.28-.619.626-.619h6.013c.346 0 .626.277.626.619 0 .342-.28.619-.626.619h-2.714v1.361c0 .024.019.042.042.042h3.6a3.97 3.97 0 013.749-2.641 3.968 3.968 0 013.748 2.641h12.996V33.14c0-.341.28-.618.626-.618s.627.277.627.618v4.663h.301a3.97 3.97 0 013.749-2.641 3.97 3.97 0 013.749 2.641h1.637V35.08h-.71a1.953 1.953 0 01-1.962-1.94v-1.32c0-.342.28-.619.626-.619h1.948a2.048 2.048 0 00-1.946-1.403H39.31v.702a.623.623 0 01-.627.619.622.622 0 01-.626-.619V19.277a.042.042 0 00-.042-.041H13.964a.042.042 0 00-.042.041v11.222c0 .343-.281.62-.626.62a.623.623 0 01-.627-.62V19.277c0-.705.581-1.279 1.295-1.279h24.051c.714 0 1.295.574 1.295 1.279v1.362h4.718c1.45 0 2.631 1.166 2.631 2.6v.659a.622.622 0 01-.496.606l1.036 4.093c1.583.239 2.8 1.593 2.8 3.223v6.602c0 .341-.28.619-.626.619zM21.313 36.4c-1.497 0-2.714 1.203-2.714 2.682 0 1.479 1.217 2.681 2.714 2.681 1.496 0 2.714-1.202 2.714-2.681S22.809 36.4 21.313 36.4zm22.047 0c-1.497 0-2.714 1.203-2.714 2.682 0 1.479 1.217 2.681 2.714 2.681 1.496 0 2.714-1.202 2.714-2.681S44.856 36.4 43.36 36.4zm2.046-13.161a1.37 1.37 0 00-1.378-1.362H39.31v1.402h6.096v-.04zm-.531 1.278H39.31v4.044h6.588l-1.023-4.044zm3.871 7.922h-1.419v.701c0 .387.318.702.709.702h.71v-1.403zm-5.386 7.922a1.289 1.289 0 01-1.295-1.279c0-.706.581-1.279 1.295-1.279s1.294.573 1.294 1.279c0 .705-.58 1.279-1.294 1.279zm-22.047 0a1.289 1.289 0 01-1.295-1.279c0-.706.581-1.279 1.295-1.279s1.294.573 1.294 1.279c0 .705-.58 1.279-1.294 1.279zm-.71-7.221c0 .342-.281.62-.626.62h-8.018a.623.623 0 01-.626-.62c0-.341.28-.618.626-.618h8.018c.345 0 .626.277.626.618z"/></svg><svg viewBox="0 0 60 60" id="support"><path fill-rule="evenodd" fill="#FE3E57" d="M0 0h60v60H0V0z"/><path fill-rule="evenodd" fill="#FFF" d="M42.495 32.209l-4.149 4.765a3.36 3.36 0 01-.652.579l-.017.01c-.676.422-1.525.636-2.526.636h-6.156c-.424 0-.852.023-1.274.072l-.696.076.304.289a.492.492 0 01.01.71l-3.493 3.5a.521.521 0 01-.719.013l-5.966-5.546a.489.489 0 01-.015-.708l3.527-3.576a.525.525 0 01.366-.153h.004c.133 0 .262.051.358.142l.725.688a7.264 7.264 0 011.322-1.387c1.484-1.182 3.24-1.545 5.078-1.048.705.19 1.449.286 2.212.286h4.046c.589 0 1.109.227 1.464.64.073.084.139.175.196.271l2.89-2.792a2.107 2.107 0 011.598-.594 2.387 2.387 0 011.452.594c.776.7.821 1.717.111 2.533zm-21.44 1.873l-2.816 2.854 5.227 4.86 2.785-2.79-5.196-4.924zm20.636-3.671c-.416-.375-1.16-.491-1.635-.027l-3.329 3.217c-.015.48-.184.93-.482 1.272-.358.411-.882.638-1.477.638h-3.522a.505.505 0 01-.512-.5c0-.275.229-.499.512-.499h3.522c.298 0 .532-.096.697-.286.153-.174.24-.427.24-.693 0-.362-.194-.977-.921-.977h-4.046a9.551 9.551 0 01-2.485-.323c-1.526-.413-2.925-.123-4.158.86a6.274 6.274 0 00-1.225 1.316l3.205 3.037 1.53-.168a12.4 12.4 0 011.39-.078h6.156c.798 0 1.46-.159 1.967-.472.166-.114.317-.249.449-.4l4.148-4.766c.48-.55.191-.958-.024-1.151zm-12.416 5.088a.51.51 0 01-.615-.372l-.005-.021a.499.499 0 01.382-.599.511.511 0 01.614.372l.005.02a.499.499 0 01-.381.6zm9.04-6.966h-4.983c-.272 0-.523-.085-.727-.232a1.237 1.237 0 01-.726.232h-4.983c-.272 0-.523-.085-.727-.232a1.242 1.242 0 01-.727.232h-4.983c-.682 0-1.238-.542-1.238-1.209v-2.268a2.61 2.61 0 011.459-2.341 2.826 2.826 0 01-.679-1.837c0-1.587 1.323-2.88 2.949-2.88 1.627 0 2.95 1.293 2.95 2.88 0 .698-.255 1.338-.678 1.836.377.189.701.462.947.793.245-.331.569-.604.947-.792a2.826 2.826 0 01-.679-1.837c0-1.587 1.323-2.88 2.95-2.88 1.626 0 2.95 1.293 2.95 2.88 0 .698-.255 1.338-.679 1.836.378.189.701.462.947.793.246-.331.569-.604.947-.793a2.822 2.822 0 01-.679-1.836c0-1.587 1.324-2.88 2.95-2.88 1.627 0 2.95 1.293 2.95 2.88 0 .698-.255 1.338-.679 1.836a2.611 2.611 0 011.459 2.341v2.269c0 .667-.556 1.209-1.238 1.209zm-15.364-9.536c-1.063 0-1.927.844-1.927 1.881 0 1.038.864 1.882 1.927 1.882 1.062 0 1.927-.844 1.927-1.882 0-1.037-.865-1.881-1.927-1.881zm2.707 6.058c0-.802-.584-1.471-1.379-1.606a3 3 0 01-2.657 0 1.634 1.634 0 00-1.378 1.606v2.269c0 .116.096.211.215.211h4.983a.214.214 0 00.216-.211v-2.269zm3.729-6.058c-1.063 0-1.927.844-1.927 1.881 0 1.038.864 1.882 1.927 1.882 1.063 0 1.927-.844 1.927-1.882 0-1.037-.864-1.881-1.927-1.881zm2.707 6.058c0-.802-.584-1.471-1.379-1.606a2.993 2.993 0 01-2.656 0 1.634 1.634 0 00-1.379 1.606v2.269c0 .116.097.211.216.211h4.983a.214.214 0 00.215-.211v-2.269zm3.729-6.058c-1.062 0-1.927.844-1.927 1.881 0 1.038.865 1.882 1.927 1.882 1.063 0 1.927-.844 1.927-1.882 0-1.037-.864-1.881-1.927-1.881zm2.707 6.058c0-.802-.584-1.471-1.378-1.606a3 3 0 01-2.657 0 1.632 1.632 0 00-1.378 1.606v2.269c0 .116.096.211.215.211h4.983a.214.214 0 00.215-.211v-2.269z"/></svg><svg viewBox="0 0 16 16" id="twitter"><path d="M14.355 4.742c.012.14.012.285.012.426 0 4.336-3.3 9.328-9.332 9.328A9.266 9.266 0 010 13.027c.266.028.52.04.793.04 1.531 0 2.941-.52 4.07-1.403a3.286 3.286 0 01-3.066-2.273c.203.03.406.05.621.05.293 0 .586-.039.86-.113a3.278 3.278 0 01-2.63-3.215V6.07c.438.246.946.399 1.485.418a3.278 3.278 0 01-1.461-2.73c0-.61.16-1.168.445-1.656a9.315 9.315 0 006.762 3.43 3.676 3.676 0 01-.082-.75 3.277 3.277 0 013.277-3.278c.946 0 1.797.394 2.399 1.035a6.554 6.554 0 002.082-.793 3.285 3.285 0 01-1.442 1.809A6.67 6.67 0 0016 3.047a7.059 7.059 0 01-1.645 1.695zm0 0"/></svg><svg viewBox="0 0 20 20" id="user"><path class="lcls-1" d="M17.07 12.928a9.923 9.923 0 00-3.8-2.383 5.78 5.78 0 10-6.54 0A10.018 10.018 0 000 20h1.56a8.44 8.44 0 0116.88 0H20a9.931 9.931 0 00-2.93-7.072zM5.78 5.78A4.22 4.22 0 1110 10a4.222 4.222 0 01-4.22-4.22z"/></svg></svg>