<?xml version="1.0" encoding="utf-8"?><svg viewBox="0 0 1920 867" xmlns="http://www.w3.org/2000/svg" xmlns:xlink="http://www.w3.org/1999/xlink"><style>:root>svg{display:none}:root>svg:target{display:block}</style><svg viewBox="0 0 1920 744.03" id="content--video--video-bg" xmlns="http://www.w3.org/2000/svg"><defs><style>.acls-1{fill:#ededed;fill-rule:evenodd}</style></defs><path id="aPattern" class="acls-1" d="M58.046 2314.18l-1.67-1.58 1.813 1.39 5.19-6.71 30.49-28.82 30.631 28.98 4.26 5.53 48.615-45.99h2.206l-49.889 47.2.744.96-36.567-34.6-36.57 34.6zm-49.888-47.2h2.205l46.6 44.09-.932 1.2zm85.711 80.85l-73.438 69.48-.931-1.21 74.369-70.36 74.369 70.36-.931 1.21zm-14.274 145.98l14.274-13.5 14.274 13.5-.931 1.21-13.343-12.63-13.343 12.63zm-30.047-38.85l44.321-41.94 44.322 41.94-.931 1.2-43.391-41.05-43.389 41.05zm44.321-6.21L65.5 2475.59l-.932-1.21 29.3-27.72 29.3 27.72-.931 1.21zm0-134.56l-88.462 83.69-.932-1.21 89.393-84.57 89.393 84.57-.933 1.21zm21.878-22.55l26.07-24.66h2.206l-27.344 25.87zm-15.025-19.43l5.536-5.23h2.207l-6.809 6.44zm89.384 52.09l-28.354 26.83-.932-1.21 29.2-27.63.014.02.084-.08 29.271 27.69-.933 1.21zm-74.359 216.26l74.359-70.35 74.357 70.35-.932 1.21-73.425-69.47-73.427 69.47zm-15.024-19.43l89.383-84.56 89.381 84.56-.932 1.21-88.449-83.68-88.45 83.68zM-1 2359.24v-2.09l12.9 12.2-.933 1.21zm0-67.28v-2.09l42.941 40.63-.932 1.2zm0 33.64v-2.09l27.919 26.41-.933 1.21zm80.273-58.62h2.207l5.535 5.23-.932 1.21zm-35.559 0h2.206l26.068 24.66-.931 1.21zM-1 2439.95v-2.09l88.015 83.27-.932 1.21zm0 33.64v-2.09l72.989 69.06-.931 1.21zm251.519-159.41l-1.672-1.59 1.815 1.4 5.191-6.71 30.49-28.82 30.631 28.98 4.26 5.53 48.615-45.99h2.206l-49.889 47.2.744.96-36.567-34.6-36.573 34.6zm-49.888-47.2h2.206l46.6 44.09-.932 1.2zm85.712 80.85l-73.438 69.48-.931-1.21 74.369-70.36 74.369 70.36-.933 1.21zm-14.274 145.98l14.274-13.5 14.273 13.5-.932 1.21-13.341-12.63L273 2495.02zm14.274-78.7l-43.391 41.05-.932-1.2 44.323-41.94 44.322 41.94-.933 1.2zm-29.3 59.27l29.3-27.72 29.3 27.72-.932 1.21-28.366-26.84-28.367 26.84zm29.3-160.19l-88.462 83.69-.931-1.21 89.393-84.57 89.393 84.57-.933 1.21zm21.878-22.55l26.069-24.66h2.21l-27.343 25.87zm-15.021-19.43l5.536-5.23h2.207l-6.81 6.44zm89.384 52.09l-28.355 26.83-.931-1.21 29.26-27.68.072.07.025-.03 29.215 27.64-.933 1.21zm-74.359 216.26l74.358-70.35 74.358 70.35-.932 1.21-73.429-69.47-73.427 69.47zm-15.025-19.43l89.382-84.56 89.381 84.56-.929 1.21-88.451-83.68-88.451 83.68zm-117.356-151.78l14.262-13.49 14.262 13.49-.932 1.21-13.33-12.61-13.33 12.61zM145.8 2330.5l44.225-41.85.016.02.085-.08 44.293 41.91-.932 1.2-43.377-41.04-43.379 41.04zm125.951-63.52h2.2l5.535 5.23-.932 1.21zm-35.559 0h2.208l26.068 24.66-.932 1.21zm206.8 47.2l-1.675-1.59 1.818 1.4 5.192-6.71 30.489-28.82 30.633 28.98 4.26 5.53 48.614-45.99h2.206l-49.889 47.2.749.96-36.573-34.6-36.575 34.61zm-49.887-47.2h2.206l46.6 44.09-.931 1.2zm85.711 80.85l-73.437 69.48-.932-1.21 74.369-70.36 74.371 70.36-.935 1.21zm0 134.56l-13.342 12.63-.932-1.21 14.274-13.5 14.275 13.5-.932 1.21zm0-67.28l-43.39 41.05-.932-1.2 44.322-41.94 44.323 41.94-.932 1.2zm-29.3 59.27l29.3-27.72 29.3 27.72-.929 1.21-28.368-26.84-28.365 26.84zm-60.1-77.71l89.393-84.57 89.394 84.57-.932 1.21-88.462-83.69-88.46 83.69zm111.272-105.03l26.068-24.66h2.208l-27.344 25.87zm-15.023-19.43l5.534-5.23h2.208l-6.81 6.44zm89.383 52.09l-28.348 26.83-.932-1.21 29.287-27.7 29.286 27.7-.935 1.21zm-74.36 216.26l74.357-70.35 74.36 70.35-.932 1.21-73.425-69.47-73.428 69.47zm74.36-101.9l-88.448 83.68-.932-1.21 89.383-84.56 89.38 84.56-.932 1.21zm-192.468-80.71l-13.332 12.61-.93-1.21 14.262-13.49 14.262 13.49-.932 1.21zm-44.311-27.45l44.284-41.9.073.07.026-.03 44.237 41.86-.932 1.2-43.377-41.04-43.38 41.04zm125.952-63.52h2.2l5.534 5.23-.929 1.21zm-35.56 0h2.208l26.068 24.66-.932 1.21zm206.8 47.2l-1.675-1.59 1.818 1.4 5.189-6.71 30.492-28.82 30.633 28.98 4.26 5.53 48.614-45.99H757l-49.889 47.2.749.96-36.573-34.6-36.575 34.61zm-49.888-47.2h2.208l46.6 44.09-.931 1.2zm85.712 80.85l-73.436 69.48-.932-1.21 74.368-70.36 74.371 70.36-.934 1.21zm0 134.56l-13.342 12.63-.932-1.21 14.274-13.5 14.274 13.5-.931 1.21zm-44.322-27.43l44.322-41.94 44.323 41.94-.932 1.2-43.391-41.05-43.39 41.05zm15.025 19.42l29.3-27.72 29.3 27.72-.931 1.21-28.366-26.84-28.365 26.84zm29.3-160.19l-88.461 83.69-.932-1.21 89.393-84.57 89.394 84.57-.932 1.21zm21.879-22.55l26.068-24.66h2.208l-27.343 25.87zm-15.023-19.43l5.534-5.23h2.208l-6.81 6.44zm89.383 52.09l-28.355 26.83-.932-1.21 29.287-27.7 29.283 27.7-.932 1.21zm-74.36 216.26l74.357-70.35 74.357 70.35-.929 1.21-73.425-69.47-73.427 69.47zm74.36-101.9l-88.451 83.68-.932-1.21 89.38-84.56 89.382 84.56-.931 1.21zm-206.737-69.31l14.264-13.49 14.261 13.49-.932 1.21-13.329-12.61-13.332 12.61zm-30.048-38.85l44.312-41.93 44.308 41.93-.931 1.2-43.377-41.04-43.38 41.04zm125.95-63.52h2.208l5.534 5.23-.932 1.21zm-35.558 0h2.206l26.071 24.66-.932 1.21zm206.8 47.2l-1.675-1.59 1.818 1.4 5.189-6.71 30.492-28.82 30.633 28.98 4.26 5.53 48.614-45.99h2.205l-49.888 47.2.749.96-36.573-34.6-36.575 34.61zm-49.888-47.2h2.2l46.6 44.09-.931 1.2zm85.712 80.85l-73.439 69.48-.931-1.21 74.37-70.36 74.371 70.36-.935 1.21zm0 134.56l-13.342 12.63-.932-1.21 14.274-13.5 14.274 13.5-.931 1.21zm0-67.28l-43.391 41.05-.931-1.2 44.322-41.94 44.323 41.94-.932 1.2zm-29.3 59.27l29.3-27.72 29.3 27.72-.932 1.21-28.365-26.84-28.361 26.84zm29.3-160.19l-88.458 83.69-.931-1.21 89.393-84.57 89.394 84.57-.932 1.21zm21.879-22.55l26.068-24.66h2.208l-27.345 25.87zm-15.023-19.43l5.533-5.23h2.208l-6.809 6.44zM960 2324.3l-28.355 26.83-.929-1.21 29.284-27.7 29.284 27.7-.932 1.21zm-74.357 216.26L960 2470.21l74.361 70.35-.94 1.21L960 2472.3l-73.426 69.47zM960 2438.66l-88.448 83.68-.932-1.21 89.38-84.56 89.381 84.56-.93 1.21zm-206.735-69.31l14.264-13.49 14.26 13.49-.931 1.21-13.329-12.61-13.329 12.61zm-30.048-38.85l44.309-41.93 44.311 41.93-.931 1.2-43.377-41.04-43.38 41.04zm125.95-63.52h2.208l5.533 5.23-.931 1.21zm-35.558 0h2.206l26.068 24.66-.929 1.2zm206.8 47.2l-1.67-1.59 1.82 1.4 5.18-6.71 30.5-28.82 30.63 28.98 4.26 5.53 48.61-45.99h2.21l-49.89 47.2.75.96-36.57-34.6-36.58 34.61zm-49.885-47.2h2.205l46.6 44.09-.93 1.2zm11.341 149.12l74.374-70.36 74.36 70.36-.93 1.21-73.43-69.48-73.439 69.48zm74.374 66.29l-13.35 12.63-.93-1.21 14.28-13.5 14.27 13.5-.93 1.21zm-44.33-27.43l44.33-41.94 44.32 41.94-.93 1.2-43.39-41.05-43.39 41.05zm15.03 19.42l29.3-27.72 29.29 27.72-.93 1.21-28.36-26.84-28.37 26.84zm29.3-160.19l-88.465 83.69-.932-1.21 89.4-84.57 89.39 84.57-.93 1.21zm21.88-22.55l26.06-24.66h2.21l-27.34 25.87zm-15.03-19.43l5.54-5.23h2.2l-6.81 6.44zm89.38 52.09l-28.35 26.83-.93-1.21 29.28-27.7 29.29 27.7-.93 1.21zm-74.35 216.26l74.35-70.35 74.36 70.35-.93 1.21-73.43-69.47-73.42 69.47zm74.35-101.9l-88.45 83.68-.93-1.21 89.38-84.56 89.39 84.56-.94 1.21zm-206.732-69.31L960 2355.86l14.261 13.49-.932 1.21L960 2357.95l-13.329 12.61zm-30.047-38.85l44.31-41.93 44.311 41.93-.93 1.2L960 2290.66l-43.377 41.04zm125.95-63.52h2.21l5.53 5.23-.93 1.21zm-35.56 0h2.21l26.07 24.66-.94 1.21zm206.81 47.2l-49.89-47.2h2.2l48.62 45.99 4.4-5.69 30.49-28.82 30.63 28.98 4.26 5.53 48.62-45.99h2.2l-49.89 47.2.74.95-36.56-34.59-36.57 34.61zm-38.55 101.92l74.37-70.36 74.37 70.36-.93 1.21-73.44-69.48-73.44 69.48zm60.1 77.71l14.27-13.5 14.27 13.5-.93 1.21-13.34-12.63-13.34 12.63zm14.27-78.7l-43.39 41.05-.93-1.2 44.32-41.94 44.32 41.94-.93 1.2zm-29.3 59.27l29.3-27.72 29.3 27.72-.93 1.21-28.37-26.84-28.37 26.84zm29.3-160.19l-88.46 83.69-.93-1.21 89.39-84.57 89.39 84.57-.93 1.21zm21.88-22.55l26.07-24.66h2.2l-27.34 25.87zm-15.03-19.43l5.54-5.23h2.21l-6.81 6.44zm89.39 52.09l-28.36 26.83-.93-1.21 29.2-27.63.08.09.08-.1 29.21 27.64-.93 1.21zm-74.36 216.26l74.33-70.33.02.02.02-.02 74.34 70.33-.93 1.21-73.42-69.47-73.43 69.47zm74.36-101.9l-88.45 83.68-.94-1.21 89.36-84.54.02.02.02-.03 89.37 84.55-.93 1.21zm-206.74-69.31l14.27-13.49 14.26 13.49-.94 1.21-13.33-12.61-13.33 12.61zm14.26-78.69l-43.37 41.04-.94-1.2 44.31-41.93 44.31 41.93-.93 1.2zm81.64-23.68h2.21l5.54 5.23-.94 1.21zm-35.55 0h2.2l26.07 24.66-.93 1.21zm242.62 13.56l-36.56 34.6.74-.96-49.89-47.2h2.21l48.61 45.99 4.4-5.69 30.49-28.82 30.64 28.98 4.25 5.53 48.62-45.99h2.21l-49.89 47.2.74.96zm0 67.29l-73.43 69.48-.94-1.21 74.37-70.36 74.37 70.36-.93 1.21zm0 134.56l-13.34 12.63-.93-1.21 14.27-13.5 14.28 13.5-.94 1.21zm0-67.28l-43.39 41.05-.93-1.2 44.32-41.94 44.32 41.94-.93 1.2zm0 33.64l-28.36 26.84-.93-1.21 29.29-27.72 29.3 27.72-.93 1.21zm0-134.56l-88.46 83.69-.93-1.21 89.39-84.57 89.4 84.57-.94 1.21zm21.88-22.55l26.07-24.66h2.21l-27.35 25.86zm-15.02-19.43l5.53-5.23h2.21l-6.81 6.44zm89.38 52.09l-28.35 26.83-.94-1.21 29.21-27.63.07.09.08-.1 29.22 27.64-.94 1.21zm0 148l-73.43 69.47-.93-1.21 74.34-70.33.01.02.02-.02 74.35 70.33-.93 1.21zm0-33.64l-88.45 83.68-.93-1.21 89.36-84.54.01.02.02-.03 89.37 84.55-.93 1.21zm-206.73-69.31l14.23-13.47.02.02.02-.03 14.25 13.48-.93 1.21-13.33-12.61-13.33 12.61zm14.26-78.69l-43.38 41.04-.93-1.2 44.22-41.85.08.09.08-.1 44.24 41.86-.94 1.2zm81.64-23.68h2.2l5.54 5.23-.93 1.21zm-35.56 0h2.21l26.06 24.66-.93 1.21zM93.869 2596.75l-73.438 69.48-.932-1.21 74.369-70.36 74.369 70.36-.931 1.21zm-14.274 145.98l14.274-13.5 14.274 13.5-.931 1.21-13.343-12.63-13.343 12.63zm-30.047-38.85l44.321-41.94 44.322 41.94-.931 1.2-43.391-41.05-43.389 41.05zm44.321-6.21L65.5 2724.51l-.932-1.21 29.3-27.72 29.3 27.72-.931 1.21zm0-134.56L5.407 2646.8l-.932-1.21 89.393-84.57 89.393 84.57-.933 1.21zm96.237 43.76l-13.33 12.61-.932-1.21 14.262-13.49 14.262 13.49-.932 1.21zm0-67.29l-43.379 41.04-.931-1.2 44.31-41.93 44.309 41.93-.932 1.2zm0 33.64l-28.354 26.83-.932-1.21 29.286-27.7 29.286 27.7-.933 1.21zm-74.359 216.26l74.359-70.35 74.357 70.35-.932 1.21-73.425-69.47-73.427 69.47zm-15.025-19.43l89.384-84.56 89.381 84.56-.932 1.21-88.449-83.68-88.45 83.68zM-1 2608.16v-2.09l12.9 12.2-.933 1.21zm0-67.28v-2.09l42.941 40.63-.932 1.2zm0 33.64v-2.09l27.918 26.41-.931 1.21zm0 114.35v-2.09l88.015 83.27-.932 1.21zm0 33.64v-2.09l72.989 69.06-.931 1.21zm287.343-125.76l-73.438 69.48-.931-1.21 74.369-70.36 74.369 70.36-.933 1.21zm-14.274 145.98l14.274-13.5 14.273 13.5-.932 1.21-13.341-12.63L273 2743.94zm14.274-78.7l-43.391 41.05-.932-1.2 44.323-41.94 44.322 41.94-.933 1.2zm-29.3 59.27l29.3-27.72 29.3 27.72-.932 1.21-28.366-26.84-28.367 26.84zm29.3-160.19l-88.462 83.69-.931-1.21 89.393-84.57 89.393 84.57-.933 1.21zm96.237 43.76l-13.332 12.61-.932-1.21 14.264-13.49 14.262 13.49-.932 1.21zm0-67.29l-43.38 41.04-.932-1.2 44.311-41.93 44.309 41.93-.932 1.2zm0 33.64l-28.355 26.83-.931-1.21 29.286-27.7 29.286 27.7-.933 1.21zm-74.359 216.26l74.358-70.35 74.358 70.35-.932 1.21-73.425-69.47-73.427 69.47zm-15.021-19.43l89.383-84.56 89.381 84.56-.929 1.21-88.451-83.68-88.451 83.68zm185.619-173.3l-73.437 69.48-.932-1.21 74.369-70.36 74.371 70.36-.935 1.21zm0 134.56l-13.342 12.63-.932-1.21 14.274-13.5 14.275 13.5-.932 1.21zm0-67.28l-43.39 41.05-.932-1.2 44.322-41.94 44.323 41.94-.932 1.2zm-29.3 59.27l29.3-27.72 29.3 27.72-.929 1.21-28.368-26.84-28.365 26.84zm-60.1-77.71l89.393-84.57 89.394 84.57-.932 1.21-88.462-83.69-88.46 83.69zm171.368-27.32l14.264-13.49 14.261 13.49-.932 1.21-13.329-12.61-13.332 12.61zm14.264-78.69l-43.38 41.04-.932-1.2 44.312-41.93 44.308 41.93-.931 1.2zm0 33.64l-28.351 26.83-.932-1.21 29.287-27.7 29.286 27.7-.935 1.21zm-74.36 216.26l74.357-70.35 74.36 70.35-.932 1.21-73.425-69.47-73.428 69.47zm-15.023-19.43l89.383-84.56 89.38 84.56-.932 1.21-88.448-83.68-88.451 83.68zm185.618-173.3l-73.436 69.48-.932-1.21 74.368-70.36 74.371 70.36-.934 1.21zm0 134.56l-13.342 12.63-.932-1.21 14.274-13.5 14.274 13.5-.931 1.21zm-44.322-27.43l44.322-41.94 44.323 41.94-.932 1.2-43.391-41.05-43.39 41.05zm15.025 19.42l29.3-27.72 29.3 27.72-.931 1.21-28.366-26.84-28.365 26.84zm29.3-160.19l-88.461 83.69-.932-1.21 89.393-84.57 89.394 84.57-.932 1.21zm81.975 55.16l14.261-13.49 14.263 13.49-.931 1.21-13.329-12.61-13.328 12.61zm14.264-78.69l-43.38 41.04-.932-1.2 44.309-41.93 44.311 41.93-.931 1.2zm0 33.64l-28.355 26.83-.932-1.21 29.287-27.7 29.283 27.7-.932 1.21zm-74.36 216.26l74.357-70.35 74.357 70.35-.929 1.2-73.425-69.46-73.428 69.47zm-15.023-19.43l89.38-84.56 89.382 84.56-.931 1.21-88.448-83.68-88.451 83.68zm185.618-173.3l-73.439 69.48-.931-1.21 74.37-70.36 74.371 70.36-.935 1.21zm0 134.56l-13.342 12.63-.932-1.21 14.274-13.5 14.274 13.5-.931 1.21zm0-67.28l-43.391 41.05-.931-1.2 44.322-41.94 44.323 41.94-.932 1.2zm-29.3 59.27l29.3-27.72 29.3 27.72-.932 1.21-28.365-26.84-28.366 26.84zm29.3-160.19L775.3 2646.8l-.931-1.21 89.393-84.57 89.394 84.57-.932 1.21zM960 2606.87l-13.329 12.61-.932-1.21L960 2604.78l14.261 13.49-.932 1.21zm0-67.29l-43.377 41.04-.932-1.2L960 2537.49l44.311 41.93-.93 1.2zm0 33.64l-28.355 26.83-.929-1.21 29.284-27.7 29.284 27.7-.932 1.21zm-74.357 216.26L960 2719.13l74.361 70.35-.94 1.21L960 2721.22l-73.426 69.47zm-15.023-19.43l89.38-84.56 89.381 84.56-.93 1.21L960 2687.58l-88.448 83.68zm111.247-105.03l74.374-70.36 74.36 70.36-.93 1.21-73.43-69.48-73.441 69.48zm74.374 66.29l-13.35 12.63-.93-1.21 14.28-13.5 14.27 13.5-.93 1.21zm-44.33-27.43l44.33-41.94 44.32 41.94-.93 1.2-43.39-41.05-43.39 41.05zm15.03 19.42l29.3-27.72 29.29 27.72-.93 1.21-28.36-26.84-28.37 26.84zm29.3-160.19l-88.465 83.69-.932-1.21 89.4-84.57 89.39 84.57-.93 1.21zm96.23 43.76l-13.33 12.61-.93-1.21 14.26-13.49 14.27 13.49-.94 1.21zm0-67.29l-43.37 41.04-.94-1.2 44.31-41.93 44.31 41.93-.93 1.2zm0 33.64l-28.35 26.83-.93-1.21 29.28-27.7 29.29 27.7-.93 1.21zm-74.35 216.26l74.35-70.35 74.36 70.35-.93 1.21-73.43-69.47-73.42 69.47zm-15.03-19.43l89.38-84.56 89.39 84.56-.94 1.21-88.45-83.68-88.45 83.68zm111.25-105.03l74.37-70.36 74.37 70.36-.93 1.21-73.44-69.48-73.44 69.48zm60.1 77.71l14.27-13.5 14.27 13.5-.93 1.21-13.34-12.63-13.34 12.63zm14.27-78.7l-43.39 41.05-.93-1.2 44.32-41.94 44.32 41.94-.93 1.2zm-29.3 59.27l29.3-27.72 29.3 27.72-.93 1.21-28.37-26.84-28.37 26.84zm29.3-160.19l-88.46 83.69-.93-1.21 89.39-84.57 89.39 84.57-.93 1.21zm96.24 43.76l-13.33 12.61-.93-1.21 14.23-13.47.02.02.02-.03 14.25 13.48-.93 1.21zm0-67.29l-43.38 41.04-.93-1.2 44.28-41.9.02.01.02-.02 44.3 41.91-.94 1.2zm0 33.64l-28.36 26.83-.93-1.21 29.26-27.68.02.01.02-.02 29.27 27.69-.93 1.21zm-74.36 216.26l74.33-70.33.02.02.02-.03 74.34 70.34-.93 1.21-73.42-69.47-73.43 69.47zm-15.03-19.43l89.36-84.54.02.02.02-.03 89.37 84.55-.93 1.21-88.45-83.68-88.45 83.68zm185.62-173.3l-73.43 69.48-.94-1.21 74.37-70.36 74.37 70.36-.93 1.21zm0 134.56l-13.34 12.63-.93-1.21 14.27-13.5 14.28 13.5-.94 1.21zm0-67.28l-43.39 41.05-.93-1.2 44.32-41.94 44.32 41.94-.93 1.2zm0 33.64l-28.36 26.84-.93-1.21 29.29-27.72 29.3 27.72-.93 1.21zm0-134.56l-88.46 83.69-.93-1.21 89.39-84.57 89.4 84.57-.94 1.21zm96.24 43.76l-13.33 12.61-.93-1.21 14.24-13.47.01.02.02-.03 14.25 13.48-.93 1.21zm0-67.29l-43.38 41.04-.93-1.2 44.29-41.9.01.01.02-.02 44.3 41.91-.93 1.2zm0 33.64l-28.35 26.83-.94-1.21 29.27-27.68.01.01.02-.02 29.28 27.69-.94 1.21zm0 148l-73.43 69.46-.93-1.2 74.34-70.33.01.02.02-.03 74.35 70.34-.93 1.21zm-89.38 48.83l89.36-84.54.01.02.02-.03 89.37 84.55-.93 1.21-88.45-83.68-88.45 83.68zM93.869 2845.67l-73.438 69.48-.932-1.21 74.369-70.36 74.369 70.36-.931 1.21zm-14.274 145.98l14.274-13.5 14.274 13.5-.931 1.21-13.343-12.63-13.343 12.63zm-30.047-38.85l44.321-41.94 44.322 41.94-.931 1.2-43.391-41.05L50.48 2954zm44.321-6.21L65.5 2973.43l-.932-1.21 29.3-27.72 29.3 27.72-.931 1.21zm0-134.56l-88.462 83.69-.932-1.21 89.393-84.57 89.393 84.57-.933 1.21zm81.975 55.16l14.262-13.49 14.262 13.49-.932 1.21-13.33-12.61-13.33 12.61zm-30.044-38.85l44.225-41.85.016.02.085-.08 44.293 41.91-.932 1.2-43.377-41.04-43.379 41.04zm44.31-6.2l-28.354 26.83-.932-1.21 29.2-27.63.014.02.084-.08 29.271 27.69-.933 1.21zm43.173 188.85l-43.173-40.85-43.173 40.85h-2.208l45.381-42.94 45.379 42.94h-2.206zm-35.558 0l-7.615-7.21-7.615 7.21h-2.207l9.822-9.3 9.822 9.3h-2.207zm71.116 0l-78.731-74.49-78.732 74.49h-2.206l80.938-76.58 80.938 76.58h-2.207zM-1 2857.08v-2.09l12.9 12.2-.933 1.21zm0-67.28v-2.09l42.941 40.63-.932 1.2zm0 33.64v-2.09l27.919 26.41-.933 1.21zm77.364 187.55L-1 2937.79v-2.09l79.57 75.29h-2.206zm-71.116 0L-1 3005.07v-2.08l8.455 8H5.247zm35.557 0L-1 2971.43v-2.09l44.013 41.65H40.8zm245.538-165.32l-73.438 69.48-.931-1.21 74.369-70.36 74.369 70.36-.933 1.21zm-14.274 145.98l14.274-13.5 14.273 13.5-.932 1.21-13.341-12.63L273 2992.86zm14.274-78.7L242.952 2954l-.932-1.2 44.323-41.94 44.322 41.94-.933 1.2zm-29.3 59.27l29.3-27.72 29.3 27.72-.932 1.21-28.366-26.84-28.367 26.84zm29.3-160.19l-88.462 83.69-.931-1.21 89.393-84.57 89.393 84.57-.933 1.21zm96.237 43.76l-13.332 12.61-.93-1.21 14.262-13.49 14.262 13.49-.932 1.21zm-44.311-27.45l44.284-41.9.073.07.026-.03 44.237 41.86-.932 1.2-43.377-41.04-43.38 41.04zm44.311-6.2l-28.355 26.83-.931-1.21 29.26-27.68.072.07.025-.03 29.215 27.64-.933 1.21zm43.172 188.85l-43.172-40.85-43.174 40.85H337.2l45.38-42.94 45.379 42.94h-2.206zm-35.557 0l-7.615-7.21-7.615 7.21h-2.207l9.822-9.3 9.822 9.3H390.2zm71.115 0l-78.73-74.49-78.732 74.49h-2.208l80.94-76.58 80.938 76.58h-2.208zm17.5-165.32l-73.437 69.48-.932-1.21 74.369-70.36 74.371 70.36-.935 1.21zm0 134.56l-13.342 12.63-.932-1.21 14.274-13.5 14.275 13.5-.932 1.21zm0-67.28L435.425 2954l-.932-1.2 44.322-41.94 44.323 41.94-.932 1.2zm-29.3 59.27l29.3-27.72 29.3 27.72-.929 1.21-28.368-26.84-28.365 26.84zm-60.1-77.71l89.393-84.57 89.394 84.57-.932 1.21-88.462-83.69-88.46 83.69zm171.368-27.32l14.264-13.49 14.261 13.49-.932 1.21-13.329-12.61-13.332 12.61zm-30.048-38.85l44.312-41.93 44.308 41.93-.931 1.2-43.377-41.04-43.38 41.04zm44.312-6.2l-28.342 26.83-.932-1.21 29.287-27.7 29.286 27.7-.935 1.21zm43.172 188.85l-43.172-40.85-43.176 40.85h-2.205l45.381-42.94 45.378 42.94h-2.206zm-35.557 0l-7.615-7.21-7.615 7.21h-2.208l9.823-9.3 9.82 9.3h-2.205zm71.115 0l-78.73-74.49-78.733 74.49h-2.208l80.941-76.58 80.938 76.58h-2.208zm17.5-165.32l-73.436 69.48-.932-1.21 74.368-70.36 74.371 70.36-.934 1.21zm0 134.56l-13.342 12.63-.932-1.21 14.274-13.5 14.274 13.5-.931 1.21zm-44.322-27.43l44.322-41.94 44.323 41.94-.932 1.2-43.391-41.05L627.9 2954zm15.025 19.42l29.3-27.72 29.3 27.72-.931 1.21-28.366-26.84-28.365 26.84zm29.3-160.19l-88.461 83.69-.932-1.21 89.393-84.57 89.394 84.57-.932 1.21zm81.975 55.16l14.264-13.49 14.26 13.49-.931 1.21-13.329-12.61-13.314 12.61zm-30.048-38.85l44.309-41.93 44.311 41.93-.931 1.2-43.377-41.04-43.38 41.04zm44.312-6.2l-28.355 26.83-.932-1.21 29.287-27.7 29.283 27.7-.932 1.21zm43.186 188.85l-43.172-40.85-43.176 40.85h-2.2l45.378-42.94 45.38 42.94h-2.2zm-35.56 0l-7.612-7.21-7.615 7.21h-2.208l9.82-9.3 9.823 9.3h-2.208zm71.118 0l-78.73-74.49-78.728 74.49h-2.208l80.938-76.58 80.941 76.58h-2.208zm17.5-165.32l-73.439 69.48-.931-1.21 74.37-70.36 74.371 70.36-.935 1.21zm0 134.56l-13.342 12.63-.932-1.21 14.274-13.5 14.274 13.5-.931 1.21zm0-67.28L820.372 2954l-.931-1.2 44.322-41.94 44.323 41.94-.932 1.2zm-29.3 59.27l29.3-27.72 29.3 27.72-.932 1.21-28.365-26.84-28.361 26.84zm29.3-160.19l-88.458 83.69-.931-1.21 89.393-84.57 89.394 84.57-.932 1.21zm81.975 55.16L960 2853.7l14.261 13.49-.932 1.21L960 2855.79l-13.33 12.61zm-30.048-38.85L960 2786.41l44.311 41.93-.93 1.2L960 2788.5l-43.377 41.04zm44.309-6.2l-28.355 26.83-.929-1.21 29.29-27.7 29.284 27.7-.932 1.21zm43.171 188.85L960 2970.14l-43.173 40.85h-2.208L960 2968.05l45.381 42.94h-2.21zm-35.556 0l-7.609-7.21-7.615 7.21h-2.208l9.823-9.3 9.821 9.3h-2.208zm71.116 0L960 2936.5l-78.73 74.49h-2.208L960 2934.41l80.941 76.58h-2.21zm-56.864-97.05l74.374-70.36 74.36 70.36-.93 1.21-73.43-69.48-73.435 69.48zm74.374 66.29l-13.35 12.63-.93-1.21 14.28-13.5 14.27 13.5-.93 1.21zm-44.33-27.43l44.33-41.94 44.32 41.94-.93 1.2-43.39-41.05-43.385 41.05zm15.03 19.42l29.3-27.72 29.29 27.72-.93 1.21-28.36-26.84-28.37 26.84zm29.3-160.19l-88.465 83.69-.932-1.21 89.4-84.57 89.39 84.57-.93 1.21zm81.97 55.16l14.27-13.49 14.26 13.49-.94 1.21-13.33-12.61-13.33 12.61zm14.26-78.69l-43.37 41.04-.94-1.2 44.31-41.93 44.31 41.93-.93 1.2zm0 33.64l-28.35 26.83-.93-1.21 29.28-27.7 29.29 27.7-.93 1.21zm43.18 188.85l-43.18-40.85-43.17 40.85h-2.21l45.38-42.94 45.38 42.94h-2.2zm-35.56 0l-7.62-7.21-7.61 7.21h-2.21l9.82-9.3 9.83 9.3h-2.21zm71.12 0l-78.74-74.49-78.73 74.49h-2.21l80.94-76.58 80.94 76.58h-2.2zm-56.87-97.05l74.37-70.36 74.37 70.36-.93 1.21-73.44-69.48-73.44 69.48zm60.1 77.71l14.27-13.5 14.27 13.5-.93 1.21-13.34-12.63-13.34 12.63zm14.27-78.7L1205.32 2954l-.93-1.2 44.32-41.94 44.32 41.94-.93 1.2zm-29.3 59.27l29.3-27.72 29.3 27.72-.93 1.21-28.37-26.84-28.37 26.84zm29.3-160.19l-88.46 83.69-.93-1.21 89.39-84.57 89.39 84.57-.93 1.21zm81.98 55.16l14.23-13.47.02.02.02-.03 14.25 13.48-.93 1.21-13.33-12.61-13.33 12.61zm14.26-78.69l-43.38 41.04-.93-1.2 44.22-41.85.08.09.08-.1 44.24 41.86-.94 1.2zm0 33.64l-28.36 26.83-.93-1.21 29.2-27.63.08.09.08-.09 29.21 27.63-.93 1.21zm43.17 188.85l-43.17-40.85-43.18 40.85h-2.2l45.35-42.92.02.02.02-.03 45.37 42.93h-2.21zm-35.56 0l-7.61-7.21-7.62 7.21h-2.2l9.79-9.27.02.01.02-.02 9.81 9.28h-2.21zm71.12 0l-78.73-74.49-78.73 74.49h-2.21l80.91-76.56.02.02.02-.03 80.92 76.57h-2.2zm17.5-165.32l-73.43 69.48-.94-1.21 74.37-70.36 74.37 70.36-.93 1.21zm0 134.56l-13.34 12.63-.93-1.21 14.27-13.5 14.28 13.5-.94 1.21zm0-67.28L1397.79 2954l-.93-1.2 44.32-41.94 44.32 41.94-.93 1.2zm0 33.64l-28.36 26.84-.93-1.21 29.29-27.72 29.3 27.72-.93 1.21zm0-134.56l-88.46 83.69-.93-1.21 89.39-84.57 89.4 84.57-.94 1.21zm96.24 43.76l-13.33 12.61-.93-1.21 14.24-13.47.01.02.02-.03 14.25 13.48-.93 1.21zm0-67.29l-43.38 41.04-.93-1.2 44.23-41.85.07.09.08-.1 44.24 41.86-.93 1.2zm0 33.64l-28.35 26.83-.94-1.21 29.21-27.63.07.09.08-.09 29.22 27.63-.94 1.21zm43.17 188.85l-43.17-40.85-43.17 40.85h-2.21l45.36-42.92.01.02.02-.03 45.37 42.93h-2.21zm-35.55 0l-7.62-7.21-7.61 7.21h-2.21l9.8-9.27.01.01.02-.02 9.81 9.28h-2.2zm71.11 0l-78.73-74.49-78.73 74.49h-2.21l80.92-76.56.01.02.02-.03 80.93 76.57h-2.21zm17.51-730.45l-36.57 34.6.74-.96-1.66-1.58 1.8 1.39 5.2-6.71 30.49-28.82 30.63 28.98 4.26 5.53 48.61-45.99h2.21l-49.89 47.2.75.96zm-85.71-13.56h2.2l46.6 44.09-.93 1.2zm85.71 80.85l-73.44 69.48-.93-1.21 74.37-70.36 74.37 70.36-.94 1.21zm0 134.56l-13.35 12.63-.93-1.21 14.28-13.5 14.27 13.5-.93 1.21zm0-67.28l-43.39 41.05-.93-1.2 44.32-41.94 44.32 41.94-.93 1.2zm0 33.64l-28.37 26.84-.93-1.21 29.3-27.72 29.3 27.72-.94 1.21zm0-134.56l-88.47 83.69-.93-1.21 89.4-84.57 89.39 84.57-.93 1.21zm21.87-22.55l26.08-24.66h2.2l-27.34 25.87zm-15.02-19.43l5.54-5.23h2.2l-6.81 6.44zm60.1 77.71l29.2-27.63.07.09.09-.1 29.21 27.64-.93 1.21-28.36-26.83-28.35 26.83zm-45.08 190.64l74.34-70.33.01.02.03-.02 74.34 70.33-.93 1.21-73.43-69.47-73.42 69.47zm-15.02-19.43l89.36-84.54.01.02.03-.03 89.36 84.55-.92 1.21-88.46-83.68-88.45 83.68zm-103.09-163.18l-13.33 12.61-.93-1.21 14.24-13.47.01.02.02-.03 14.25 13.48-.93 1.21zm0-67.29l-43.38 41.04-.93-1.2 44.23-41.85.07.09.08-.1 44.24 41.86-.93 1.2zm81.64-23.68h2.21l5.53 5.23-.93 1.21zm-35.56 0h2.21l26.07 24.66-.93 1.21zm206.81 47.2l-1.68-1.59 1.82 1.4 5.19-6.71 30.49-28.82 30.63 28.98 4.26 5.53 48.62-45.99h2.2l-49.89 47.2.75.96-36.57-34.6-36.58 34.61zm-49.89-47.2h2.21l46.6 44.09-.94 1.2zm85.71 80.85l-73.44 69.48-.93-1.21 74.37-70.36 74.37 70.36-.93 1.21zm0 134.56l-13.34 12.63-.93-1.21 14.27-13.5 14.27 13.5-.93 1.21zm0-67.28l-43.39 41.05-.93-1.2 44.32-41.94 44.32 41.94-.93 1.2zm-29.3 59.27l29.3-27.72 29.3 27.72-.93 1.21-28.37-26.84-28.37 26.84zm29.3-160.19l-88.46 83.69-.93-1.21 89.39-84.57 89.39 84.57-.93 1.21zm81.97 55.16l12.9-12.2v2.09l-11.96 11.32zm-60.09-77.71l26.07-24.66h2.2l-27.34 25.87zm-15.02-19.43l5.53-5.23h2.21l-6.81 6.44zm45.07 58.29l42.94-40.63v2.09l-42.01 39.74zm15.02 19.42l27.92-26.41v2.09l-26.99 25.53zm-391.47 88.72l-60.43-57.17-60.42 57.17.75.96-36.56-34.58-36.57 34.59.76-.97-60.43-57.17-60.43 57.17.75.96-36.56-34.58-36.56 34.59.75-.97-60.42-57.17-60.428 57.17.754.97L960 2405.02l-36.568 34.59.757-.97-60.425-57.17-60.425 57.17.754.97-36.564-34.59-36.573 34.6.759-.98-60.425-57.17-60.425 57.17.751.97-36.561-34.59-36.57 34.59.756-.97-60.425-57.17-60.424 57.17.753.97-36.564-34.59-36.566 34.59.754-.97-60.425-57.17-60.426 57.17.749.97-36.56-34.59-36.566 34.59.754-.97-60.425-57.17-60.424 57.17.751.97L-1 2406.31v-2.09l29.254 27.68 1.5 1.96 2.763 3.57 61.356-58.05 59.347 56.15-.742.96 2.183 1.68 4.971-6.43 30.478-28.81 30.622 28.97 1.494 1.96 2.764 3.57 61.357-58.05 61.355 58.05 1.674-2.16 2.729-3.53 30.478-28.81 30.617 28.97 4.259 5.53 61.356-58.05 59.345 56.15-.772 1 2.183 1.68 5-6.47 30.476-28.81 30.624 28.97 1.492 1.96 2.766 3.57 61.356-58.05 61.357 58.05 4.338-5.61 30.541-28.89 30.624 28.97 1.5 1.96 2.763 3.57 61.356-58.05 61.357 58.05 2.733-3.53 1.667-2.16L960 2402.93l30.624 28.97 1.5 1.96 2.762 3.57 61.36-58.05 61.35 58.05 2.74-3.53 1.66-2.16 30.48-28.81 30.63 28.97 1.49 1.96 2.76 3.57 61.36-58.05 61.35 58.05 4.41-5.69 30.45-28.79.02.02.02-.03 30.61 28.96 4.26 5.53 61.35-58.05 61.36 58.05.95-1.22 3.45-4.47 30.46-28.79.01.02.02-.03 30.61 28.96 4.26 5.53 61.36-58.05 59.34 56.15-.93 1.2-58.41-55.26-60.43 57.17.75.96-36.56-34.58-36.57 34.6zm194.3-2.37l3.51-4.53 30.45-28.79.01.02.03-.03 30.61 28.96 4.25 5.53 61.36-58.05 59.34 56.15-.93 1.2-58.41-55.26-60.43 57.17.76.97-36.57-34.59-36.57 34.59zm195.98-4.53l29.11-27.52v2.09l-35.19 33.3zm-176.26-62.39l14.24-13.47.01.02.03-.03 14.24 13.48-.93 1.21-13.33-12.61-13.33 12.61zm-30.05-38.86l44.23-41.84.07.09.09-.1 44.23 41.86-.93 1.2-43.38-41.04-43.37 41.04zm125.96-63.51h2.2l5.53 5.23-.92 1.21zm-35.57 0h2.21l26.07 24.66-.93 1.21zm-142.31 329.77l-73.44 69.48-.93-1.21 74.37-70.36 74.37 70.36-.94 1.21zm0 134.56l-13.35 12.63-.93-1.21 14.28-13.5 14.27 13.5-.93 1.21zm0-67.28l-43.39 41.05-.93-1.2 44.32-41.94 44.32 41.94-.93 1.2zm0 33.64l-28.37 26.84-.93-1.21 29.3-27.72 29.3 27.72-.94 1.21zm0-134.56l-88.47 83.69-.93-1.21 89.4-84.57 89.39 84.57-.93 1.21zm81.97 55.16l14.24-13.47.01.02.03-.03 14.24 13.48-.93 1.21-13.33-12.61-13.33 12.61zm14.26-78.69l-43.37 41.04-.94-1.21 44.29-41.89.01.01.03-.02 44.29 41.91-.93 1.2zm-29.28 59.26l29.26-27.68.01.01.03-.02 29.27 27.69-.93 1.21-28.36-26.83-28.35 26.83zm-45.08 190.64l74.34-70.33.01.02.03-.02 74.34 70.33-.93 1.21-73.43-69.47-73.42 69.47zm-15.02-19.43l89.36-84.54.01.02.03-.03 89.36 84.55-.92 1.21-88.46-83.68-88.45 83.68zM1212.89 2563.1l-60.42-57.16-60.41 57.16.75.96-36.57-34.6-36.58 34.61.75-.97-1.67-1.59 1.82 1.4 5.18-6.71 30.5-28.82 30.63 28.98 4.26 5.53 61.34-58.04 61.35 58.04 4.4-5.69 30.49-28.82 30.63 28.98 4.26 5.53 61.32-58.01.02.01.02-.02 61.33 58.02 4.4-5.69 30.49-28.82 30.64 28.98 4.25 5.53 61.33-58.01.01.01.02-.02 59.32 56.12-.93 1.2-58.4-55.25-60.41 57.16.74.96-36.57-34.6-36.57 34.6.75-.96-60.41-57.16-60.42 57.16.74.95-36.56-34.59-36.57 34.61zm577.42 0l-1.68-1.59 1.82 1.4 5.19-6.71 30.49-28.82 30.63 28.98 4.26 5.53 59.98-56.75v2.09l-59.05 55.87.75.96-36.57-34.6-36.58 34.61zm-1347.319 0l-1.675-1.59 1.818 1.4 5.192-6.71 30.489-28.82 30.633 28.98 4.26 5.53 61.346-58.04 59.331 56.14-.931 1.2-58.4-55.25-60.415 57.16.749.96-36.573-34.6-36.575 34.61zm384.948 0l-1.675-1.59 1.818 1.4 5.189-6.71 30.492-28.82 30.633 28.98 4.26 5.53L960 2503.85l59.331 56.14-.93 1.2L960 2505.94l-60.414 57.16.749.96-36.573-34.6-36.575 34.61zm-192.474 0l-1.675-1.59 1.818 1.4 5.189-6.71 30.492-28.82 30.633 28.98 4.26 5.53 61.343-58.04 59.334 56.14-.931 1.2-58.4-55.25-60.415 57.16.749.96-36.573-34.6-36.575 34.61zm-384.946 0l-60.413-57.16-60.414 57.16.744.96-36.567-34.6-36.569 34.6.749-.96-1.67-1.58 1.813 1.39 5.19-6.71 30.49-28.82 30.631 28.98 4.26 5.53 61.346-58.04 61.344 58.04 4.4-5.69 30.49-28.82 30.631 28.98 4.26 5.53 61.346-58.04 59.331 56.14-.931 1.2-58.4-55.25-60.414 57.16.744.96-36.567-34.6-36.574 34.61zm1383.141-33.64l-36.57 34.6.74-.96-1.66-1.58 1.8 1.39 5.2-6.71 30.49-28.82 30.63 28.98 4.26 5.53 61.32-58.01.01.01.03-.02 59.32 56.12-.94 1.2-58.4-55.25-60.41 57.16.75.96zM-1 2507.23v-2.09l57.965 54.85-.93 1.2zm1827.13 89.52l-73.44 69.48-.93-1.21 74.37-70.36 74.37 70.36-.93 1.21zm0 134.56l-13.34 12.63-.93-1.21 14.27-13.5 14.27 13.5-.93 1.21zm0-67.28l-43.39 41.05-.93-1.2 44.32-41.94 44.32 41.94-.93 1.2zm-29.3 59.27l29.3-27.72 29.3 27.72-.93 1.21-28.37-26.84-28.37 26.84zm29.3-160.19l-88.46 83.69-.93-1.21 89.39-84.57 89.39 84.57-.93 1.21zm81.97 55.16l12.9-12.2v2.09l-11.96 11.32zm-60.09-77.71l72.99-69.06v2.09l-72.06 68.18zm-15.02-19.43l88.01-83.27v2.09l-87.08 82.39zm45.07 58.29l42.94-40.63v2.09l-42.01 39.74zm15.02 19.42l27.92-26.41v2.09l-26.99 25.53zM960 2653.94l-36.56 34.59 3.988-5.16 2.093-2.71L960 2651.85l30.624 28.97 1.5 1.96 2.762 3.57 61.36-58.05 59.34 56.15-.93 1.2-58.41-55.26-60.428 57.17.751.97zm-223.018 26.8l30.544-28.89 30.624 28.97 1.5 1.96 2.763 3.57 61.356-58.05 59.345 56.15-.932 1.2-58.413-55.26-60.425 57.17.752.97-36.562-34.59-36.565 34.59zm-192.406-.08l30.476-28.81 30.624 28.97 1.492 1.96 2.766 3.57 61.356-58.05 59.345 56.15-.931 1.2-58.414-55.26-60.425 57.17.751.97-36.561-34.59-36.565 34.59zm1185.315-26.72l-36.55 34.58 6.08-7.86 30.45-28.79.01.02.03-.03 30.61 28.96 4.25 5.53 61.36-58.05 59.34 56.15-.93 1.2-58.41-55.26-60.43 57.17.76.97zm-1347.31 0l-36.559 34.58 6.08-7.86 30.478-28.81 30.621 28.97 4.259 5.53 61.356-58.05 59.345 56.15-.931 1.2-58.414-55.26-60.424 57.17.751.97zM-1 2655.23v-2.09l29.254 27.68 1.5 1.96 2.763 3.57 61.356-58.05 59.347 56.15-.932 1.2-58.415-55.26-60.425 57.17.75.97zm191.106-1.29l-36.554 34.58 6.076-7.86 30.478-28.81 30.622 28.97 1.494 1.96 2.764 3.57 61.357-58.05 59.345 56.15-.932 1.2-58.413-55.26-60.426 57.17.748.96zm1154.844 0l-36.56 34.58 6.08-7.86 30.45-28.79.02.02.02-.03 30.61 28.96 4.26 5.53 61.35-58.05 59.35 56.15-.93 1.2-58.42-55.26-60.42 57.17.74.96zm-192.48 0l-36.55 34.58 3.98-5.15 2.09-2.71 30.48-28.81 30.63 28.97 1.49 1.96 2.76 3.57 61.36-58.05 59.35 56.15-.94 1.2-58.41-55.26-60.43 57.17.75.96zm384.95 0l-36.55 34.58 6.07-7.86 30.46-28.79.01.02.02-.03 30.61 28.96 4.26 5.53 61.36-58.05 59.34 56.15-.93 1.2-58.41-55.26-60.43 57.17.75.96zm354.47 26.72l29.11-27.52v2.09l-35.19 33.29zm-258.23 165.01l-73.44 69.48-.93-1.21 74.37-70.36 74.37 70.36-.94 1.21zm0 134.56l-13.35 12.63-.93-1.21 14.28-13.5 14.27 13.5-.93 1.21zm0-67.28l-43.39 41.05-.93-1.2 44.32-41.94 44.32 41.94-.93 1.2zm0 33.64l-28.37 26.84-.93-1.21 29.3-27.72 29.3 27.72-.94 1.21zm0-134.56l-88.47 83.69-.93-1.21 89.4-84.57 89.39 84.57-.93 1.21zm81.97 55.16l14.24-13.47.01.02.03-.03 14.24 13.48-.93 1.21-13.33-12.61-13.33 12.61zm-30.05-38.86l44.23-41.84.07.09.09-.1 44.23 41.86-.93 1.2-43.38-41.04-43.37 41.04zm15.03 19.43l29.2-27.63.07.09.09-.09 29.21 27.63-.93 1.21-28.36-26.83-28.35 26.83zm72.46 163.23l-43.18-40.85-43.17 40.85h-2.21l45.36-42.92.01.02.03-.02 45.36 42.92h-2.2zm-35.56 0l-7.62-7.21-7.61 7.21h-2.21l9.8-9.27.01.01.03-.02 9.8 9.28h-2.2zm71.11 0l-78.73-74.49-78.73 74.49h-2.2l80.91-76.56.01.02.03-.03 80.92 76.57h-2.21zm-595.73-198.97l-60.42-57.16-60.41 57.16.75.96-36.57-34.6-36.58 34.61.75-.97-1.67-1.59 1.82 1.4 5.18-6.71 30.5-28.82 30.63 28.98 4.26 5.53 61.34-58.04 61.35 58.04 4.4-5.69 30.49-28.82 30.63 28.98 4.26 5.53 61.32-58.01.02.01.02-.02 61.33 58.02 4.4-5.69 30.49-28.82 30.64 28.98 4.25 5.53 61.33-58.01.01.01.02-.02 59.32 56.12-.93 1.2-58.4-55.25-60.41 57.16.74.96-36.57-34.6-36.56 34.6.74-.96-60.41-57.16-60.42 57.16.74.95-36.56-34.59-36.57 34.61zm577.42 0l-1.68-1.59 1.82 1.4 5.19-6.71 30.49-28.82 30.63 28.98 4.26 5.53 59.98-56.74v2.08l-59.05 55.87.75.96-36.57-34.6-36.58 34.61zm-1347.319 0l-1.672-1.59 1.815 1.4 5.192-6.71 30.489-28.82 30.633 28.98 4.26 5.53 61.346-58.04 59.331 56.14-.931 1.2-58.4-55.25-60.415 57.16.749.96-36.573-34.6-36.575 34.61zm384.948 0l-1.672-1.59 1.815 1.4 5.189-6.71 30.492-28.82 30.633 28.98 4.26 5.53L960 2752.77l59.331 56.14-.93 1.2L960 2754.86l-60.414 57.16.749.96-36.573-34.6-36.575 34.61zm-192.474 0l-1.672-1.59 1.815 1.4 5.189-6.71 30.492-28.82 30.633 28.98 4.26 5.53 61.343-58.04 59.334 56.14-.931 1.2-58.4-55.25-60.415 57.16.749.96-36.573-34.6-36.575 34.61zm-384.946 0l-1.67-1.58 1.813 1.39 5.191-6.71 30.49-28.82 30.631 28.98 4.26 5.53 61.346-58.04 59.331 56.14-.931 1.2-58.4-55.25-60.414 57.16.743.96-36.566-34.6-36.573 34.61zm1383.141-33.64l-36.57 34.6.74-.96-1.66-1.58 1.8 1.39 5.2-6.71 30.49-28.82 30.63 28.98 4.26 5.53 61.32-58.01.01.01.03-.02 59.32 56.12-.94 1.2-58.4-55.25-60.41 57.16.75.96zM58.046 2812.02l-1.667-1.58 1.81 1.39 5.19-6.71 30.49-28.82 30.631 28.98 4.26 5.53 61.346-58.04 59.333 56.14-.932 1.2-58.4-55.25-60.414 57.16.744.96-36.567-34.6-36.57 34.6zM-1 2756.15v-2.08l57.966 54.84-.932 1.2zm1827.13 89.52l-73.44 69.48-.93-1.21 74.37-70.36 74.37 70.36-.93 1.21zm0 134.56l-13.34 12.63-.93-1.21 14.27-13.5 14.27 13.5-.93 1.21zm0-67.28l-43.39 41.05-.93-1.2 44.32-41.94 44.32 41.94-.93 1.2zm-29.3 59.27l29.3-27.72 29.3 27.72-.93 1.21-28.37-26.84-28.37 26.84zm29.3-160.19l-88.46 83.69-.93-1.21 89.39-84.57 89.39 84.57-.93 1.21zm81.97 55.16l12.9-12.2v2.09l-11.96 11.32zm-60.09-77.71l72.99-69.06v2.09l-72.06 68.18zm-15.02-19.43l88.01-83.27v2.09l-87.08 82.39zm45.07 58.29l42.94-40.63v2.09l-42.01 39.74zm15.02 19.42l27.92-26.41v2.09l-26.99 25.53zm-391.47 88.72l-60.43-57.17-60.42 57.17.75.96-36.56-34.58-36.57 34.59.76-.97-60.43-57.17-60.43 57.17.75.96-36.56-34.58-36.56 34.59.75-.97-60.42-57.17-60.428 57.17.754.97L960 2902.86l-36.568 34.59.757-.97-60.425-57.17-60.425 57.17.754.97-36.564-34.59-36.573 34.6.759-.98-60.425-57.17-60.425 57.17.751.97-36.561-34.59-36.57 34.59.756-.97-60.425-57.17-60.424 57.17.753.97-36.564-34.59-36.566 34.59.754-.97-60.425-57.17-60.426 57.17.749.97-36.56-34.59-36.566 34.59.754-.97-60.425-57.17-60.424 57.17.751.97L-1 2904.15v-2.09l29.254 27.68 1.5 1.96 2.763 3.57 61.356-58.05 59.347 56.15-.742.96 2.183 1.68 4.971-6.43 30.478-28.81 30.622 28.97 1.494 1.96 2.764 3.57 61.357-58.05 61.355 58.05 1.674-2.16 2.729-3.53 30.478-28.81 30.621 28.97 4.259 5.53 61.356-58.05 59.345 56.15-.772 1 2.183 1.68 5-6.47 30.476-28.81 30.624 28.97 1.492 1.96 2.766 3.57 61.356-58.05 61.357 58.05 4.338-5.61 30.541-28.89 30.624 28.97 1.5 1.96 2.763 3.57 61.356-58.05 61.357 58.05 2.733-3.53 1.667-2.16L960 2900.77l30.624 28.97 1.5 1.96 2.762 3.57 61.36-58.05 61.35 58.05 2.74-3.53 1.66-2.16 30.48-28.81 30.63 28.97 1.49 1.96 2.76 3.57 61.36-58.05 61.35 58.05 4.41-5.69 30.45-28.79.02.02.02-.03 30.61 28.96 4.26 5.53 61.35-58.05 61.36 58.05.95-1.22 3.45-4.47 30.46-28.79.01.02.02-.03 30.61 28.96 4.26 5.53 61.36-58.05 59.34 56.15-.93 1.21-58.41-55.27-60.43 57.17.75.96-36.56-34.58-36.57 34.6zm194.3-2.37l3.51-4.53 30.45-28.79.01.02.03-.03 30.61 28.96 4.25 5.53 61.36-58.05 59.34 56.15-.93 1.2-58.41-55.26-60.43 57.17.76.97-36.57-34.59-36.57 34.59zm195.98-4.53l29.11-27.52v2.09l-35.19 33.3zm-14.9 81.41l44.01-41.65v2.09l-41.81 39.56h-2.2zm35.55 0l8.46-8v2.08l-6.25 5.92h-2.21zm-71.11 0l79.57-75.29v2.09l-77.36 73.2h-2.21z" transform="translate(0 -2266.97)"/></svg><svg id="decor--blog-bg" data-name="Группа 1" viewBox="0 0 1627 369" xmlns="http://www.w3.org/2000/svg"><defs><filter id="bfilter" x="1685" y="6174" width="66" height="66" filterUnits="userSpaceOnUse"><feOffset result="offset" dy="3" in="SourceAlpha"/><feGaussianBlur result="blur" stdDeviation="3.162"/><feFlood result="flood" flood-color="#fe3e57" flood-opacity=".5"/><feComposite result="composite" operator="in" in2="blur"/><feBlend result="blend" in="SourceGraphic"/></filter><style>.bcls-1,.bcls-2{fill-rule:evenodd}.bcls-1{fill:#fe3e57;filter:url(#bfilter)}.bcls-2{fill:#34c3ff}</style></defs><path class="bcls-1" d="M1717.5 6180a23.5 23.5 0 1023.5 23.5 23.5 23.5 0 00-23.5-23.5zm0 42.19a18.7 18.7 0 1118.7-18.69 18.689 18.689 0 01-18.7 18.69zm.02-24.3a5.605 5.605 0 105.59 5.63 5.614 5.614 0 00-5.59-5.63z" transform="translate(-124 -5871)"/><path class="bcls-2" d="M205.4 5899.77a2.155 2.155 0 102.161 2.15 2.154 2.154 0 00-2.161-2.15zm-14.406 0a2.155 2.155 0 102.16 2.15 2.155 2.155 0 00-2.162-2.15zm0-14.39a2.16 2.16 0 102.16 2.16 2.163 2.163 0 00-2.162-2.16zm-14.407 0a2.16 2.16 0 100 4.32 2.16 2.16 0 10-.002-4.32zm21.61 21.58a2.155 2.155 0 102.16 2.16 2.156 2.156 0 00-2.157-2.16zm14.407 0a2.155 2.155 0 102.161 2.16 2.157 2.157 0 00-2.165-2.16zm-14.404-14.39a2.16 2.16 0 102.16 2.16 2.163 2.163 0 00-2.16-2.16zm-14.407 0a2.16 2.16 0 102.161 2.16 2.163 2.163 0 00-2.166-2.16zm36.017 35.96a2.16 2.16 0 102.16 2.16 2.162 2.162 0 00-2.165-2.16zm-14.407 0a2.16 2.16 0 102.161 2.16 2.162 2.162 0 00-2.164-2.16zm-14.406 0a2.16 2.16 0 102.16 2.16 2.163 2.163 0 00-2.165-2.16zm28.813-14.38a2.155 2.155 0 102.16 2.16 2.162 2.162 0 00-2.165-2.16zm-14.407 0a2.155 2.155 0 102.161 2.16 2.162 2.162 0 00-2.164-2.16zm-14.406 0a2.155 2.155 0 102.16 2.16 2.163 2.163 0 00-2.165-2.16zm-14.407 0a2.155 2.155 0 100 4.31 2.155 2.155 0 10-.005-4.31zm21.61 21.58a2.155 2.155 0 102.16 2.15 2.154 2.154 0 00-2.16-2.15zm14.407 0a2.155 2.155 0 102.161 2.15 2.154 2.154 0 00-2.168-2.15zm-14.407-14.39a2.16 2.16 0 102.16 2.16 2.163 2.163 0 00-2.16-2.16zm16.567 2.16a2.161 2.161 0 10-2.161 2.16 2.163 2.163 0 002.156-2.16zm12.247-2.16a2.16 2.16 0 102.16 2.16 2.163 2.163 0 00-2.165-2.16zm-43.221 0a2.16 2.16 0 102.161 2.16 2.163 2.163 0 00-2.166-2.16zm7.2 35.96a2.16 2.16 0 102.16 2.16 2.163 2.163 0 00-2.161-2.16zm14.406-14.38a2.155 2.155 0 102.161 2.15 2.154 2.154 0 00-2.16-2.15zm-14.406 0a2.155 2.155 0 102.16 2.15 2.155 2.155 0 00-2.161-2.15zm-14.407 0a2.155 2.155 0 100 4.31 2.155 2.155 0 10-.001-4.31zm21.61 7.19a2.155 2.155 0 102.16 2.16 2.156 2.156 0 00-2.156-2.16zm-14.407 0a2.155 2.155 0 102.161 2.16 2.157 2.157 0 00-2.162-2.16zm-7.2 21.57a2.16 2.16 0 100 4.32 2.16 2.16 0 10-.004-4.32zm0-96.37a2.155 2.155 0 10-2.162-2.15 2.154 2.154 0 002.157 2.15zm-7.2 2.88a2.155 2.155 0 102.162 2.16 2.163 2.163 0 00-2.171-2.16zm14.408 4.31a2.155 2.155 0 10-2.163-2.15 2.155 2.155 0 002.154 2.15zm-7.2 21.58a2.155 2.155 0 10-2.162-2.16 2.163 2.163 0 002.149 2.16zm-7.2 2.88a2.155 2.155 0 102.162 2.16 2.156 2.156 0 00-2.179-2.16zm14.408 4.31a2.155 2.155 0 10-2.163-2.15 2.155 2.155 0 002.146 2.15zm-14.408-18.7a2.16 2.16 0 102.162 2.16 2.163 2.163 0 00-2.179-2.16zm-13.565.17a2.14 2.14 0 00-.84-.17 2.17 2.17 0 00-1.991 1.32 2.16 2.16 0 001.991 3 2.16 2.16 0 002.16-2.16 2.168 2.168 0 00-1.337-1.99zm20.769 40.11a2.16 2.16 0 10-2.162-2.16 2.163 2.163 0 002.145 2.16zm-7.2 2.88a2.155 2.155 0 102.162 2.15 2.154 2.154 0 00-2.183-2.15zm14.408 4.31a2.155 2.155 0 10-2.163-2.16 2.163 2.163 0 002.142 2.16zm-14.408-18.7a2.16 2.16 0 102.162 2.16 2.163 2.163 0 00-2.183-2.16zm-13.565.17a2.14 2.14 0 00-.84-.17 2.16 2.16 0 100 4.32 2.14 2.14 0 00.84-.17 2.16 2.16 0 00-.021-3.98zm20.769 40.11a2.16 2.16 0 10-2.162-2.16 2.163 2.163 0 002.141 2.16zm-7.2 2.87a2.16 2.16 0 102.162 2.16 2.163 2.163 0 00-2.187-2.16zm14.408 0a2.16 2.16 0 102.16 2.16 2.163 2.163 0 00-2.185-2.16zm-14.408-14.38a2.155 2.155 0 102.162 2.16 2.156 2.156 0 00-2.187-2.16zm-13.565.17a2.14 2.14 0 00-.84-.17 2.155 2.155 0 00-1.991 1.32 2.1 2.1 0 00-.17.84 2.147 2.147 0 002.161 2.15 2.154 2.154 0 00.815-4.14zm6.364-50.51a2.155 2.155 0 100 4.31 2.155 2.155 0 10-.025-4.31zm-14.409 0a2.155 2.155 0 102.162 2.15 2.154 2.154 0 00-2.187-2.15zm14.409-14.39a2.16 2.16 0 100 4.32 2.166 2.166 0 001.988-1.32 2.16 2.16 0 00-2.013-3zm-21.613 21.58a2.155 2.155 0 102.162 2.16 2.155 2.155 0 00-2.187-2.16zm14.409 0a2.155 2.155 0 102.16 2.16 2.156 2.156 0 00-2.185-2.16zm7.2 21.57a2.16 2.16 0 100 4.32 2.16 2.16 0 00-.021-4.32zm-14.409 0a2.16 2.16 0 102.162 2.16 2.162 2.162 0 00-2.183-2.16zm-14.406 0a2.16 2.16 0 102.16 2.16 2.163 2.163 0 00-2.181-2.16zm28.815-14.38a2.157 2.157 0 00-2.161 2.16 2.191 2.191 0 00.169.84 2.162 2.162 0 001.992 1.31 2.155 2.155 0 10-.021-4.31zm-14.409 0a2.155 2.155 0 102.162 2.16 2.162 2.162 0 00-2.183-2.16zm-14.406 0a2.155 2.155 0 102.16 2.16 2.163 2.163 0 00-2.181-2.16zm7.2 21.58a2.155 2.155 0 102.162 2.15 2.153 2.153 0 00-2.181-2.15zm14.409 0a2.155 2.155 0 102.16 2.15 2.154 2.154 0 00-2.179-2.15zm-14.409-14.39a2.16 2.16 0 102.162 2.16 2.162 2.162 0 00-2.181-2.16zm-14.406 0a2.16 2.16 0 102.162 2.16 2.162 2.162 0 00-2.181-2.16zm36.019 35.96a2.16 2.16 0 100 4.32 2.166 2.166 0 001.988-1.32 2.16 2.16 0 00-2.007-3zm0-14.38a2.162 2.162 0 00-1.992 1.31 2.191 2.191 0 00-.169.84 2.117 2.117 0 00.169.84 2.155 2.155 0 001.992 1.32 2.151 2.151 0 001.988-1.32 2.1 2.1 0 00.171-.84 2.15 2.15 0 00-2.178-2.15zm-14.409 0a2.155 2.155 0 102.162 2.15 2.154 2.154 0 00-2.181-2.15z" transform="translate(-124 -5871)"/></svg><svg viewBox="0 0 126 53" id="decor--blog-icon" xmlns="http://www.w3.org/2000/svg"><defs><style>.ccls-1{fill:#fe3e57;fill-rule:evenodd}</style></defs><path class="ccls-1" d="M122.52 51.26a1.74 1.74 0 111.74 1.74 1.741 1.741 0 01-1.74-1.74zm-13.71 0a1.74 1.74 0 111.74 1.74 1.741 1.741 0 01-1.74-1.74zm-13.49 0A1.74 1.74 0 1197.06 53a1.741 1.741 0 01-1.74-1.74zm-13.71 0A1.74 1.74 0 1183.35 53a1.741 1.741 0 01-1.74-1.74zm-13.5 0A1.745 1.745 0 1169.85 53a1.741 1.741 0 01-1.74-1.74zm-13.71 0A1.745 1.745 0 1156.14 53a1.741 1.741 0 01-1.74-1.74zm-13.49 0A1.74 1.74 0 1142.65 53a1.741 1.741 0 01-1.74-1.74zm-13.71 0A1.74 1.74 0 1128.94 53a1.741 1.741 0 01-1.74-1.74zm-13.49 0A1.74 1.74 0 1115.45 53a1.741 1.741 0 01-1.74-1.74zM0 51.26A1.74 1.74 0 111.74 53 1.741 1.741 0 010 51.26zm122.52-16.51a1.74 1.74 0 111.74 1.74 1.733 1.733 0 01-1.74-1.74zm-13.71 0a1.74 1.74 0 111.74 1.74 1.733 1.733 0 01-1.74-1.74zm-13.49 0a1.74 1.74 0 111.74 1.74 1.733 1.733 0 01-1.74-1.74zm-13.71 0a1.74 1.74 0 111.74 1.74 1.733 1.733 0 01-1.74-1.74zm-13.5 0a1.745 1.745 0 111.74 1.74 1.733 1.733 0 01-1.74-1.74zm-13.71 0a1.745 1.745 0 111.74 1.74 1.733 1.733 0 01-1.74-1.74zm-13.49 0a1.74 1.74 0 111.74 1.74 1.733 1.733 0 01-1.74-1.74zm-13.71 0a1.74 1.74 0 111.74 1.74 1.733 1.733 0 01-1.74-1.74zm-13.49 0a1.74 1.74 0 111.74 1.74 1.733 1.733 0 01-1.74-1.74zM0 34.75a1.74 1.74 0 111.74 1.74A1.733 1.733 0 010 34.75zm122.52-16.5a1.74 1.74 0 111.74 1.73 1.741 1.741 0 01-1.74-1.73zm-13.71 0a1.74 1.74 0 111.74 1.73 1.741 1.741 0 01-1.74-1.73zm-13.49 0a1.74 1.74 0 111.74 1.73 1.741 1.741 0 01-1.74-1.73zm-13.71 0a1.74 1.74 0 111.74 1.73 1.741 1.741 0 01-1.74-1.73zm-13.5 0a1.745 1.745 0 111.74 1.73 1.741 1.741 0 01-1.74-1.73zm-13.71 0a1.745 1.745 0 111.74 1.73 1.741 1.741 0 01-1.74-1.73zm-13.49 0a1.74 1.74 0 111.74 1.73 1.741 1.741 0 01-1.74-1.73zm-13.71 0a1.74 1.74 0 111.74 1.73 1.741 1.741 0 01-1.74-1.73zm-13.49 0a1.74 1.74 0 111.74 1.73 1.741 1.741 0 01-1.74-1.73zM0 18.25a1.74 1.74 0 111.74 1.73A1.741 1.741 0 010 18.25zM122.52 1.74a1.74 1.74 0 111.74 1.74 1.741 1.741 0 01-1.74-1.74zm-13.71 0a1.74 1.74 0 111.74 1.74 1.741 1.741 0 01-1.74-1.74zm-13.49 0a1.74 1.74 0 111.74 1.74 1.741 1.741 0 01-1.74-1.74zm-13.71 0a1.74 1.74 0 111.74 1.74 1.741 1.741 0 01-1.74-1.74zm-13.5 0a1.745 1.745 0 111.74 1.74 1.741 1.741 0 01-1.74-1.74zm-13.71 0a1.745 1.745 0 111.74 1.74 1.741 1.741 0 01-1.74-1.74zm-13.49 0a1.74 1.74 0 111.74 1.74 1.741 1.741 0 01-1.74-1.74zm-13.71 0a1.74 1.74 0 111.74 1.74 1.741 1.741 0 01-1.74-1.74zm-13.49 0a1.74 1.74 0 111.74 1.74 1.741 1.741 0 01-1.74-1.74zM0 1.74a1.74 1.74 0 111.74 1.74A1.741 1.741 0 010 1.74z"/></svg><svg id="decor--categories-left-bg" data-name="Группа 1" viewBox="0 0 215.781 668" xmlns="http://www.w3.org/2000/svg"><defs><filter id="dfilter" x="85" y="1361" width="37" height="38" filterUnits="userSpaceOnUse"><feOffset result="offset" dy="3" in="SourceAlpha"/><feGaussianBlur result="blur" stdDeviation="2.236"/><feFlood result="flood" flood-color="#fe3e57" flood-opacity=".4"/><feComposite result="composite" operator="in" in2="blur"/><feBlend result="blend" in="SourceGraphic"/></filter><filter id="dfilter-2" x="124" y="467.69" width="18" height="18" filterUnits="userSpaceOnUse"><feOffset result="offset" dy="3" in="SourceAlpha"/><feGaussianBlur result="blur" stdDeviation="2.236"/><feFlood result="flood" flood-color="#34c3ff" flood-opacity=".4"/><feComposite result="composite" operator="in" in2="blur"/><feBlend result="blend" in="SourceGraphic"/></filter><filter id="dfilter-3" x="53" y="1274" width="19" height="19" filterUnits="userSpaceOnUse"><feOffset result="offset" dy="3" in="SourceAlpha"/><feGaussianBlur result="blur" stdDeviation="2.236"/><feFlood result="flood" flood-color="#34c3ff" flood-opacity=".4"/><feComposite result="composite" operator="in" in2="blur"/><feBlend result="blend" in="SourceGraphic"/></filter><filter id="dfilter-4" x="49" y="1466" width="18" height="18" filterUnits="userSpaceOnUse"><feOffset result="offset" dy="3" in="SourceAlpha"/><feGaussianBlur result="blur" stdDeviation="2.236"/><feFlood result="flood" flood-color="#5800e4" flood-opacity=".4"/><feComposite result="composite" operator="in" in2="blur"/><feBlend result="blend" in="SourceGraphic"/></filter><filter id="dfilter-5" x="177" y="1513" width="19" height="19" filterUnits="userSpaceOnUse"><feOffset result="offset" dy="3" in="SourceAlpha"/><feGaussianBlur result="blur" stdDeviation="2.236"/><feFlood result="flood" flood-color="#ffb534" flood-opacity=".4"/><feComposite result="composite" operator="in" in2="blur"/><feBlend result="blend" in="SourceGraphic"/></filter><filter id="dfilter-6" x="182" y="1225" width="19" height="20" filterUnits="userSpaceOnUse"><feOffset result="offset" dy="3" in="SourceAlpha"/><feGaussianBlur result="blur" stdDeviation="2.236"/><feFlood result="flood" flood-color="#ffb534" flood-opacity=".4"/><feComposite result="composite" operator="in" in2="blur"/><feBlend result="blend" in="SourceGraphic"/></filter><filter id="dfilter-7" x="72" y="1750" width="18" height="20" filterUnits="userSpaceOnUse"><feOffset result="offset" dy="3" in="SourceAlpha"/><feGaussianBlur result="blur" stdDeviation="2.236"/><feFlood result="flood" flood-color="#fe3e57" flood-opacity=".4"/><feComposite result="composite" operator="in" in2="blur"/><feBlend result="blend" in="SourceGraphic"/></filter><style>.dcls-1,.dcls-2,.dcls-3{fill:none}.dcls-1{stroke:#ececec;stroke-width:1px}.dcls-1,.dcls-2,.dcls-4,.dcls-5,.dcls-6,.dcls-7,.dcls-8{fill-rule:evenodd}.dcls-2,.dcls-3{stroke:#fe3e57;filter:url(#dfilter);stroke-width:2px}.dcls-3{stroke:#34c3ff;filter:url(#dfilter-2)}.dcls-4{fill:#34c3ff;filter:url(#dfilter-3)}.dcls-5{fill:#5800e4;filter:url(#dfilter-4)}.dcls-6,.dcls-7{fill:#ffb534}.dcls-6{filter:url(#dfilter-5)}.dcls-7{filter:url(#dfilter-6)}.dcls-8{fill:#fe3e57;filter:url(#dfilter-7)}</style></defs><path id="dline_1_copy" data-name="line 1 copy" class="dcls-1" d="M.8 1718.8s31.285-102.8 48.7-141.04 41.262-67.36 82.644-99.01 60.9-103.63-8.117-190.56S4.021 1176.34-8.053 1167.7" transform="translate(0 -1151.31)"/><path id="dline_2_copy" data-name="line 2 copy" class="dcls-1" d="M-1.412 1817.82s21.1.78 47.225-97.15 38.712-125.11 58.294-160.66 40.534-57.76 68.624-77.53 74.285-77.49 5.9-178.41-191.926-177.35-212.51-142.91" transform="translate(0 -1151.31)"/><g transform="translate(0 -1151.31)" fill="none" filter="url(#dfilter)"><path id="dEllipse_1_copy" data-name="Ellipse 1 copy" class="dcls-2" d="M103.328 1362.94a13.846 13.846 0 11-13.453 13.84 13.653 13.653 0 0113.453-13.84z" stroke="inherit" filter="none" fill="inherit"/></g><use transform="translate(0 -1151.31)" xlink:href="#dEllipse_1_copy" stroke="#fe3e57" filter="none" fill="none"/><g fill="none" filter="url(#dfilter-2)"><circle id="dEllipse_2_copy" data-name="Ellipse 2 copy" class="dcls-3" cx="132.281" cy="473.115" r="4.219" stroke="inherit" filter="none" fill="inherit"/></g><use xlink:href="#dEllipse_2_copy" stroke="#34c3ff" filter="none" fill="none"/><path id="dShape_3_copy" data-name="Shape 3 copy" class="dcls-4" d="M63.041 1280.16l2.914 3.05a.976.976 0 010 1.34.868.868 0 01-1.286 0l-2.914-3.04-2.914 3.04a.868.868 0 01-1.286 0 .976.976 0 010-1.34l2.914-3.05-2.914-3.04a.988.988 0 010-1.35.884.884 0 011.286 0l2.914 3.05 2.914-3.05a.884.884 0 011.286 0 .988.988 0 010 1.35z" transform="translate(0 -1151.31)"/><path id="dRectangle_519_copy" data-name="Rectangle 519 copy" class="dcls-5" d="M57.613 1475.81l-4.344-4.35 4.344-4.36 4.344 4.36z" transform="translate(0 -1151.31)"/><path id="dShape_3_copy_4" data-name="Shape 3 copy 4" class="dcls-6" d="M187.473 1519.2l2.914 3.05a.974.974 0 010 1.34.868.868 0 01-1.286 0l-2.914-3.04-2.915 3.04a.868.868 0 01-1.286 0 .976.976 0 010-1.34l2.914-3.05-2.914-3.04a.989.989 0 010-1.35.884.884 0 011.286 0l2.915 3.05 2.914-3.05a.884.884 0 011.286 0 .987.987 0 010 1.35z" transform="translate(0 -1151.31)"/><path id="dShape_3_copy_5" data-name="Shape 3 copy 5" class="dcls-7" d="M192.464 1231.39l2.915 3.05a.976.976 0 010 1.34.885.885 0 01-1.287 0l-2.914-3.04-2.914 3.04a.885.885 0 01-1.287 0 .976.976 0 010-1.34l2.914-3.05-2.914-3.04a.989.989 0 010-1.35.885.885 0 011.287 0l2.914 3.05 2.914-3.05a.885.885 0 011.287 0 .989.989 0 010 1.35z" transform="translate(0 -1151.31)"/><path id="dShape_3_copy_4-2" data-name="Shape 3 copy 4" class="dcls-8" d="M81.742 1756.59l2.914 3.05a.976.976 0 010 1.34.869.869 0 01-1.287 0l-2.914-3.04-2.914 3.04a.868.868 0 01-1.286 0 .976.976 0 010-1.34l2.914-3.05-2.914-3.04a.988.988 0 010-1.35.884.884 0 011.286 0l2.914 3.05 2.914-3.05a.884.884 0 011.287 0 .988.988 0 010 1.35z" transform="translate(0 -1151.31)"/></svg><svg id="decor--categories-right-bg" data-name="Группа 2" viewBox="0 0 262.5 867" xmlns="http://www.w3.org/2000/svg"><defs><filter id="efilter" x="123.5" y="555.5" width="45" height="45" filterUnits="userSpaceOnUse"><feOffset result="offset" dy="3" in="SourceAlpha"/><feGaussianBlur result="blur" stdDeviation="2.236"/><feFlood result="flood" flood-color="#fe3e57" flood-opacity=".4"/><feComposite result="composite" operator="in" in2="blur"/><feBlend result="blend" in="SourceGraphic"/></filter><filter id="efilter-2" x="96.5" y="225.5" width="21" height="20" filterUnits="userSpaceOnUse"><feOffset result="offset" dy="3" in="SourceAlpha"/><feGaussianBlur result="blur" stdDeviation="2.236"/><feFlood result="flood" flood-color="#34c3ff" flood-opacity=".4"/><feComposite result="composite" operator="in" in2="blur"/><feBlend result="blend" in="SourceGraphic"/></filter><filter id="efilter-3" x="1847" y="1827" width="22" height="22" filterUnits="userSpaceOnUse"><feOffset result="offset" dy="3" in="SourceAlpha"/><feGaussianBlur result="blur" stdDeviation="2.236"/><feFlood result="flood" flood-color="#34c3ff" flood-opacity=".4"/><feComposite result="composite" operator="in" in2="blur"/><feBlend result="blend" in="SourceGraphic"/></filter><filter id="efilter-4" x="1853" y="1579" width="21" height="21" filterUnits="userSpaceOnUse"><feOffset result="offset" dy="3" in="SourceAlpha"/><feGaussianBlur result="blur" stdDeviation="2.236"/><feFlood result="flood" flood-color="#5800e4" flood-opacity=".4"/><feComposite result="composite" operator="in" in2="blur"/><feBlend result="blend" in="SourceGraphic"/></filter><filter id="efilter-5" x="1683" y="1496" width="21" height="22" filterUnits="userSpaceOnUse"><feOffset result="offset" dy="3" in="SourceAlpha"/><feGaussianBlur result="blur" stdDeviation="2.236"/><feFlood result="flood" flood-color="#ffb534" flood-opacity=".4"/><feComposite result="composite" operator="in" in2="blur"/><feBlend result="blend" in="SourceGraphic"/></filter><filter id="efilter-6" x="1823" y="1208" width="22" height="22" filterUnits="userSpaceOnUse"><feOffset result="offset" dy="3" in="SourceAlpha"/><feGaussianBlur result="blur" stdDeviation="2.236"/><feFlood result="flood" flood-color="#fe3e57" flood-opacity=".4"/><feComposite result="composite" operator="in" in2="blur"/><feBlend result="blend" in="SourceGraphic"/></filter><style>.ecls-1,.ecls-2,.ecls-3{fill:none}.ecls-1{stroke:#ececec;stroke-width:1px}.ecls-1,.ecls-4,.ecls-5,.ecls-6,.ecls-7{fill-rule:evenodd}.ecls-2,.ecls-3{stroke:#fe3e57;filter:url(#efilter);stroke-width:2px}.ecls-3{stroke:#34c3ff;filter:url(#efilter-2)}.ecls-4{fill:#34c3ff;filter:url(#efilter-3)}.ecls-5{fill:#5800e4;filter:url(#efilter-4)}.ecls-6{fill:#ffb534;filter:url(#efilter-5)}.ecls-7{fill:#fe3e57;filter:url(#efilter-6)}</style></defs><path id="eline_1" data-name="line 1" class="ecls-1" d="M1936.97 1264.65s-40.74 133.56-63.42 183.24-53.73 87.51-107.62 128.64-79.31 134.63 10.57 247.56 156.28 145.33 172 156.55" transform="translate(-1657.5 -1134.5)"/><path id="eline_2" data-name="line 2" class="ecls-1" d="M1939.86 1136.01s-27.49-1.03-61.5 126.21-50.42 162.54-75.92 208.73-52.79 75.05-89.37 100.73-96.74 100.68-7.68 231.78 249.94 230.42 276.75 185.68" transform="translate(-1657.5 -1134.5)"/><g fill="none" filter="url(#efilter)"><circle id="ecircle-2" class="ecls-2" cx="145.985" cy="574.5" r="17.515" stroke="inherit" filter="none" fill="inherit"/></g><use xlink:href="#ecircle-2" stroke="#fe3e57" filter="none" fill="none"/><g fill="none" filter="url(#efilter-2)"><circle id="ecircle" class="ecls-3" cx="106.97" cy="232" r="5.5" stroke="inherit" filter="none" fill="inherit"/></g><use xlink:href="#ecircle" stroke="#34c3ff" filter="none" fill="none"/><path class="ecls-4" d="M1855.92 1834.53l-3.79-3.96a1.262 1.262 0 010-1.75 1.148 1.148 0 011.67 0l3.8 3.96 3.79-3.96a1.16 1.16 0 011.68 0 1.282 1.282 0 010 1.75l-3.8 3.96 3.8 3.96a1.269 1.269 0 010 1.74 1.16 1.16 0 01-1.68 0l-3.79-3.96-3.8 3.96a1.148 1.148 0 01-1.67 0 1.25 1.25 0 010-1.74z" transform="translate(-1657.5 -1134.5)"/><path class="ecls-5" d="M1862.99 1580.34l5.66 5.66-5.66 5.66-5.66-5.66z" transform="translate(-1657.5 -1134.5)"/><path id="eShape_3_copy_2" data-name="Shape 3 copy 2" class="ecls-6" d="M1691.28 1503.19l-3.8-3.95a1.282 1.282 0 010-1.75 1.16 1.16 0 011.68 0l3.79 3.96 3.8-3.96a1.148 1.148 0 011.67 0 1.282 1.282 0 010 1.75l-3.79 3.95 3.79 3.96a1.282 1.282 0 010 1.75 1.148 1.148 0 01-1.67 0l-3.8-3.96-3.79 3.96a1.16 1.16 0 01-1.68 0 1.282 1.282 0 010-1.75z" transform="translate(-1657.5 -1134.5)"/><path id="eShape_3_copy_3" data-name="Shape 3 copy 3" class="ecls-7" d="M1831.57 1215.55l-3.8-3.96a1.282 1.282 0 010-1.75 1.16 1.16 0 011.68 0l3.79 3.96 3.8-3.96a1.148 1.148 0 011.67 0 1.282 1.282 0 010 1.75l-3.79 3.96 3.79 3.96a1.269 1.269 0 010 1.74 1.132 1.132 0 01-1.67 0l-3.8-3.95-3.79 3.95a1.144 1.144 0 01-1.68 0 1.269 1.269 0 010-1.74z" transform="translate(-1657.5 -1134.5)"/></svg><svg viewBox="0 0 120 121" id="decor--info-left" xmlns="http://www.w3.org/2000/svg"><defs><style>.fcls-1{fill:#ffb534;fill-rule:evenodd}</style></defs><path id="fShape_1" class="fcls-1" d="M391.989 1011.99c-.375 0-.748 0-1.121-.01a.582.582 0 01-.576-.6.592.592 0 01.6-.58c1.348.03 2.718 0 4.067-.06a.577.577 0 01.615.56.6.6 0 01-.557.62c-1.004.05-2.017.07-3.028.07zm-5.21-.22a.094.094 0 01-.051-.01 63.135 63.135 0 01-4.116-.5.592.592 0 01.182-1.17c1.333.21 2.691.38 4.036.5a.582.582 0 01.533.64.594.594 0 01-.584.54zm12.3-.2a.588.588 0 01-.583-.52.6.6 0 01.514-.66c1.343-.16 2.694-.37 4.018-.62a.59.59 0 01.219 1.16c-1.35.26-2.729.47-4.1.64h-.069zm-20.406-1.09a.583.583 0 01-.131-.01 55.33 55.33 0 01-4.008-1.08.59.59 0 01.341-1.13c1.29.4 2.612.75 3.929 1.06a.588.588 0 01-.133 1.16zm28.468-.45a.592.592 0 01-.566-.44.585.585 0 01.418-.72c1.3-.35 2.614-.75 3.893-1.18a.581.581 0 01.745.37.6.6 0 01-.368.75c-1.305.44-2.641.85-3.972 1.2a.772.772 0 01-.152.02zm-36.328-1.95a.514.514 0 01-.209-.04 59.268 59.268 0 01-3.826-1.63.591.591 0 01-.286-.78.581.581 0 01.78-.29c1.227.57 2.488 1.11 3.75 1.59a.6.6 0 01-.211 1.15zm44.1-.7a.594.594 0 01-.227-1.14c1.243-.53 2.484-1.1 3.69-1.71a.581.581 0 01.788.26.587.587 0 01-.26.79c-1.231.63-2.5 1.21-3.765 1.75a.611.611 0 01-.231.05zm-51.552-2.79a.575.575 0 01-.282-.07 62.106 62.106 0 01-3.564-2.14.6.6 0 01-.175-.82.579.579 0 01.812-.18 54.93 54.93 0 003.493 2.1.6.6 0 01.231.81.592.592 0 01-.52.3zm58.88-.93a.577.577 0 01-.5-.29.6.6 0 01.2-.81 54.46 54.46 0 003.423-2.21.593.593 0 01.667.98 61.68 61.68 0 01-3.491 2.25.543.543 0 01-.304.08zm-65.782-3.55a.573.573 0 01-.351-.121 60.428 60.428 0 01-3.236-2.618.594.594 0 01-.062-.834.582.582 0 01.827-.062 59.84 59.84 0 003.173 2.566.595.595 0 01-.356 1.069zm72.535-1.143a.58.58 0 01-.459-.223.6.6 0 01.093-.832 59.242 59.242 0 003.091-2.663.585.585 0 01.83.037.594.594 0 01-.037.836 60.306 60.306 0 01-3.153 2.716.586.586 0 01-.37.129zm-78.76-4.259a.581.581 0 01-.412-.171c-.98-.976-1.939-2-2.849-3.038a.6.6 0 01.052-.836.585.585 0 01.829.053 60.397 60.397 0 002.793 2.979.6.6 0 010 .837.584.584 0 01-.418.176zm84.814-1.33a.581.581 0 01-.405-.163.6.6 0 01-.021-.837 57.825 57.825 0 002.7-3.066.585.585 0 01.826-.078.6.6 0 01.077.834 61.476 61.476 0 01-2.754 3.127.584.584 0 01-.428.183zM344.8 988.5a.586.586 0 01-.467-.232 63.665 63.665 0 01-2.407-3.4.6.6 0 01.165-.821.584.584 0 01.813.166 60.314 60.314 0 002.361 3.337.593.593 0 01-.109.829.576.576 0 01-.356.121zm95.48-1.5a.585.585 0 01-.341-.111.6.6 0 01-.135-.826 59.871 59.871 0 002.258-3.412.584.584 0 01.809-.192.6.6 0 01.19.815 65.322 65.322 0 01-2.3 3.479.586.586 0 01-.481.247zm-100.01-5.4a.583.583 0 01-.511-.3 61.086 61.086 0 01-1.919-3.7.6.6 0 01.275-.79.584.584 0 01.783.278 60.513 60.513 0 001.882 3.631.593.593 0 01-.221.806.582.582 0 01-.289.082zm104.33-1.639a.58.58 0 01-.272-.068.594.594 0 01-.246-.8 60.338 60.338 0 001.77-3.694.587.587 0 01.774-.3.6.6 0 01.3.781 60.486 60.486 0 01-1.806 3.769.588.588 0 01-.52.312zm-107.875-5.808a.589.589 0 01-.546-.374 61.046 61.046 0 01-1.393-3.938.594.594 0 01.381-.744.588.588 0 01.738.384c.41 1.3.869 2.6 1.366 3.861a.593.593 0 01-.33.768.57.57 0 01-.215.043zm111.19-1.772a.577.577 0 01-.2-.036.592.592 0 01-.353-.757c.456-1.277.874-2.59 1.243-3.9a.586.586 0 01.724-.408.592.592 0 01.4.73c-.375 1.34-.8 2.679-1.268 3.982a.588.588 0 01-.545.389zm-113.677-6.115a.586.586 0 01-.57-.452 60.45 60.45 0 01-.838-4.094.592.592 0 01.48-.683.586.586 0 01.677.484c.228 1.345.5 2.7.821 4.014a.592.592 0 01-.431.715.56.56 0 01-.138.016zm115.914-1.848a.621.621 0 01-.121-.012.592.592 0 01-.454-.7c.276-1.333.509-2.691.694-4.038a.583.583 0 01.661-.506.591.591 0 01.5.668 60.641 60.641 0 01-.708 4.118.587.587 0 01-.571.47zm-117.292-6.309a.589.589 0 01-.584-.532 61.307 61.307 0 01-.27-4.172.587.587 0 111.173-.036c.042 1.359.131 2.735.265 4.09a.591.591 0 01-.525.648c-.019.002-.039.002-.058.002zm118.413-1.888h-.041a.592.592 0 01-.546-.631 60.76 60.76 0 00.023-7.851.59.59 0 01.549-.627.581.581 0 01.622.554 61.755 61.755 0 01-.022 8.001.588.588 0 01-.584.554zm-118.667-6.382h-.023a.588.588 0 01-.564-.613c.051-1.39.149-2.793.294-4.169a.587.587 0 111.167.124 61.68 61.68 0 00-.289 4.089.588.588 0 01-.584.569zm118.294-5.662a.589.589 0 01-.581-.514c-.177-1.35-.4-2.71-.671-4.043a.592.592 0 01.458-.7.586.586 0 01.692.462c.275 1.36.5 2.747.684 4.124a.59.59 0 01-.5.664.678.678 0 01-.082.007zm-117.43-2.567a.583.583 0 01-.578-.694c.239-1.368.529-2.743.861-4.09a.583.583 0 01.711-.43.592.592 0 01.429.717 59.19 59.19 0 00-.845 4.009.588.588 0 01-.578.488zm115.794-5.541a.588.588 0 01-.565-.434 58.9 58.9 0 00-1.22-3.91.6.6 0 01.358-.756.587.587 0 01.749.361c.46 1.312.878 2.654 1.245 3.989a.593.593 0 01-.41.728.607.607 0 01-.157.022zm-113.81-2.487a.568.568 0 01-.181-.03.592.592 0 01-.378-.745c.425-1.319.9-2.643 1.418-3.935a.586.586 0 01.764-.328.594.594 0 01.325.77 59.978 59.978 0 00-1.39 3.858.588.588 0 01-.558.41zm111.08-5.31a.59.59 0 01-.54-.357 59.478 59.478 0 00-1.743-3.7.594.594 0 01.251-.8.585.585 0 01.791.253 59.7 59.7 0 011.779 3.773.594.594 0 01-.306.778.579.579 0 01-.232.053zM338.527 925.9a.584.584 0 01-.256-.059.594.594 0 01-.271-.791 60.328 60.328 0 011.944-3.7.586.586 0 01.8-.218.594.594 0 01.216.808 59.549 59.549 0 00-1.907 3.625.584.584 0 01-.526.335zm104.231-4.964a.589.589 0 01-.5-.284 59.24 59.24 0 00-2.235-3.423.6.6 0 01.139-.825.583.583 0 01.818.141 59.153 59.153 0 012.28 3.49.6.6 0 01-.2.814.583.583 0 01-.302.084zm-100.133-2.216a.578.578 0 01-.326-.1.594.594 0 01-.16-.821 60.702 60.702 0 012.43-3.39.583.583 0 01.824-.1.6.6 0 01.1.83 59.08 59.08 0 00-2.384 3.323.587.587 0 01-.484.258zm95.388-4.536a.586.586 0 01-.455-.217 60.741 60.741 0 00-2.68-3.083.594.594 0 01.025-.836.585.585 0 01.83.026 61.3 61.3 0 012.734 3.144.593.593 0 01-.083.832.58.58 0 01-.371.134zm-90.35-2a.578.578 0 01-.391-.151.594.594 0 01-.047-.835 60.527 60.527 0 012.868-3.02.584.584 0 01.83.01.6.6 0 01-.01.836 59.957 59.957 0 00-2.812 2.962.586.586 0 01-.438.196zm84.729-4.029a.585.585 0 01-.4-.158 59.124 59.124 0 00-3.076-2.684.6.6 0 01-.088-.832.584.584 0 01.825-.089c1.07.87 2.126 1.791 3.137 2.737a.6.6 0 01.031.836.583.583 0 01-.429.188zm-78.851-1.755a.583.583 0 01-.448-.209.594.594 0 01.067-.833c1.05-.9 2.144-1.773 3.251-2.595a.582.582 0 01.82.124.594.594 0 01-.123.827 59.309 59.309 0 00-3.188 2.545.578.578 0 01-.379.141zM426 902.953a.575.575 0 01-.336-.107 59.512 59.512 0 00-3.412-2.233.594.594 0 01-.2-.812.582.582 0 01.805-.2 59.475 59.475 0 013.481 2.278.6.6 0 01.144.824.585.585 0 01-.482.25zm-65.855-1.453a.585.585 0 01-.5-.275.6.6 0 01.18-.817 61.19 61.19 0 013.572-2.119.585.585 0 01.8.238.6.6 0 01-.235.8 57.51 57.51 0 00-3.5 2.077.574.574 0 01-.317.096zm58.816-2.807a.566.566 0 01-.267-.065c-1.2-.618-2.442-1.2-3.687-1.737a.593.593 0 01-.31-.776.585.585 0 01.77-.313 59.151 59.151 0 013.761 1.773.594.594 0 01.256.795.587.587 0 01-.523.318zm-51.608-1.138a.587.587 0 01-.535-.346.6.6 0 01.291-.784 59.496 59.496 0 013.826-1.6.584.584 0 01.755.347.593.593 0 01-.344.762c-1.262.476-2.523 1-3.75 1.568a.586.586 0 01-.243.048zm44.047-2.1a.583.583 0 01-.192-.033 56.446 56.446 0 00-3.886-1.2.592.592 0 01.305-1.143 59.93 59.93 0 013.964 1.227.593.593 0 01-.191 1.139zm-36.366-.8a.592.592 0 01-.168-1.159 59.477 59.477 0 014.014-1.05.592.592 0 01.256 1.155 57.59 57.59 0 00-3.935 1.03.607.607 0 01-.167.018zm28.441-1.356a.548.548 0 01-.113-.011 59.266 59.266 0 00-4.015-.648.592.592 0 01.146-1.174c1.365.172 2.743.395 4.094.661a.592.592 0 01-.112 1.166zm-20.431-.444a.592.592 0 01-.087-1.177 59.496 59.496 0 014.118-.48.591.591 0 01.1 1.179c-1.348.11-2.707.269-4.038.472a.662.662 0 01-.093 0zm12.287-.581h-.031a59.285 59.285 0 00-4.065-.087h-.008a.592.592 0 01-.007-1.184 60.262 60.262 0 014.145.09.592.592 0 01-.034 1.175zm-3.341 107.499c-1.257 0-2.526-.05-3.772-.147a.591.591 0 01-.539-.636.579.579 0 01.631-.544c1.215.1 2.453.144 3.679.144h.374a.592.592 0 010 1.183zm4.477-.211a.592.592 0 01-.055-1.18c1.345-.128 2.7-.316 4.017-.559a.591.591 0 01.211 1.164c-1.355.249-2.74.442-4.118.572a.507.507 0 01-.055.003zm-12.278-.435a.526.526 0 01-.1-.008 47.311 47.311 0 01-4.067-.865.591.591 0 01.292-1.146c1.3.337 2.636.621 3.967.844a.592.592 0 01-.092 1.175zm20.349-1.05a.593.593 0 01-.155-1.163c1.3-.359 2.6-.781 3.859-1.253a.591.591 0 01.408 1.109 47.525 47.525 0 01-3.956 1.286.609.609 0 01-.156.021zm-28.294-1.01a.611.611 0 01-.2-.033c-1.3-.464-2.6-.991-3.858-1.568a.593.593 0 01-.291-.783.584.584 0 01.777-.294 46.58 46.58 0 003.763 1.528.593.593 0 01.358.755.586.586 0 01-.549.395zm35.984-1.867a.587.587 0 01-.531-.339.594.594 0 01.279-.788 46.635 46.635 0 003.584-1.91.585.585 0 01.8.212.593.593 0 01-.21.809 47.757 47.757 0 01-3.674 1.959.592.592 0 01-.248.057zm-43.457-1.557a.582.582 0 01-.288-.077 48.277 48.277 0 01-3.529-2.217.6.6 0 01-.153-.822.585.585 0 01.817-.154c1.111.768 2.27 1.5 3.442 2.163a.594.594 0 01.223.806.586.586 0 01-.512.301zm50.536-2.622a.583.583 0 01-.479-.25.594.594 0 01.139-.825 45.947 45.947 0 003.2-2.506.584.584 0 01.827.069.6.6 0 01-.068.834 48.48 48.48 0 01-3.285 2.569.584.584 0 01-.334.109zM362 988.967a.583.583 0 01-.372-.134 48.628 48.628 0 01-3.1-2.8.6.6 0 01-.009-.837.585.585 0 01.83-.01 46.824 46.824 0 003.021 2.729.594.594 0 01.081.832.584.584 0 01-.451.22zm63.565-3.294a.578.578 0 01-.413-.172.6.6 0 010-.837 47.203 47.203 0 002.731-3.024.583.583 0 01.826-.075.594.594 0 01.075.833 48.119 48.119 0 01-2.8 3.1.586.586 0 01-.418.175zm-69.436-2.486a.583.583 0 01-.444-.206 48.634 48.634 0 01-2.575-3.291.6.6 0 01.133-.826.585.585 0 01.82.134 48.745 48.745 0 002.511 3.211.594.594 0 01-.062.834.577.577 0 01-.382.144zm74.691-3.867a.581.581 0 01-.335-.106.6.6 0 01-.146-.824c.77-1.115 1.5-2.276 2.173-3.454a.586.586 0 01.8-.218.594.594 0 01.216.808 48.173 48.173 0 01-2.228 3.541.586.586 0 01-.479.253zm-79.486-2.844a.587.587 0 01-.5-.288 49.01 49.01 0 01-1.972-3.689.594.594 0 01.273-.79.585.585 0 01.784.275 47.974 47.974 0 001.924 3.6.594.594 0 01-.2.811.586.586 0 01-.308.081zm83.577-4.33a.586.586 0 01-.247-.054.6.6 0 01-.285-.786 47.18 47.18 0 001.547-3.781.586.586 0 01.752-.355.592.592 0 01.351.758c-.471 1.311-1 2.615-1.585 3.877a.587.587 0 01-.532.341zm-87.151-3.112a.588.588 0 01-.548-.382c-.491-1.3-.93-2.64-1.306-3.979a.587.587 0 111.129-.322 49.13 49.13 0 001.274 3.88.594.594 0 01-.34.764.569.569 0 01-.208.039zm89.945-4.666a.6.6 0 01-.151-.02.592.592 0 01-.417-.724c.345-1.308.638-2.651.87-3.993a.587.587 0 111.156.2 48.552 48.552 0 01-.891 4.094.588.588 0 01-.566.443zm-92.18-3.293a.589.589 0 01-.576-.481 48.944 48.944 0 01-.6-4.145.587.587 0 111.168-.122c.138 1.356.335 2.717.586 4.046a.591.591 0 01-.466.692.715.715 0 01-.111.01zm93.589-4.856a.435.435 0 01-.051 0 .589.589 0 01-.534-.64c.114-1.346.173-2.72.173-4.084q0-.756-.024-1.507a.59.59 0 01.568-.61.577.577 0 01.6.573q.026.768.025 1.544c0 1.4-.06 2.806-.178 4.186a.587.587 0 01-.578.538zm-94.422-3.371a.589.589 0 01-.587-.582q-.006-.385-.006-.771c0-1.137.04-2.286.119-3.417a.586.586 0 111.17.082 48.648 48.648 0 00-.109 4.087.59.59 0 01-.578.6h-.009zm94.268-6.416a.59.59 0 01-.582-.522 48.015 48.015 0 00-.65-4.035.587.587 0 111.149-.241c.28 1.358.5 2.75.667 4.136a.59.59 0 01-.514.657.549.549 0 01-.069.005zm-93.693-1.832a.582.582 0 01-.092-.008.59.59 0 01-.488-.676 49.02 49.02 0 01.825-4.108.587.587 0 01.712-.432.594.594 0 01.428.718 45.872 45.872 0 00-.806 4.006.589.589 0 01-.579.5zm92.026-6.264a.588.588 0 01-.562-.421c-.388-1.3-.838-2.6-1.336-3.86a.593.593 0 01.328-.769.584.584 0 01.762.33 48.164 48.164 0 011.37 3.958.591.591 0 01-.393.736.551.551 0 01-.169.024zm-90.047-1.762a.58.58 0 01-.191-.032.594.594 0 01-.364-.752 47.984 47.984 0 011.523-3.9.587.587 0 01.775-.3.6.6 0 01.3.782 46.954 46.954 0 00-1.486 3.805.588.588 0 01-.557.395zm87.01-5.919a.586.586 0 01-.525-.326 47.98 47.98 0 00-1.98-3.567.6.6 0 01.19-.814.585.585 0 01.808.192 48.727 48.727 0 012.031 3.657.594.594 0 01-.261.794.567.567 0 01-.263.062zm-83.674-1.643a.574.574 0 01-.284-.074.594.594 0 01-.229-.8 49.164 49.164 0 012.171-3.575.585.585 0 01.815-.16.593.593 0 01.158.821 47.261 47.261 0 00-2.117 3.488.587.587 0 01-.514.298zm79.36-5.392a.582.582 0 01-.471-.238 46.922 46.922 0 00-2.561-3.17.593.593 0 01.049-.835.582.582 0 01.828.049 49.681 49.681 0 012.625 3.249.6.6 0 01-.12.829.588.588 0 01-.35.114zm-74.776-1.47a.58.58 0 01-.368-.131.6.6 0 01-.089-.833 49.385 49.385 0 012.749-3.144.583.583 0 01.83-.016.6.6 0 01.017.836 47.283 47.283 0 00-2.682 3.068.584.584 0 01-.457.218zm69.324-4.712a.589.589 0 01-.4-.161 46.401 46.401 0 00-3.064-2.68.6.6 0 01-.094-.832.583.583 0 01.824-.1 48.186 48.186 0 013.141 2.747.594.594 0 01.023.836.582.582 0 01-.43.188zm-63.637-1.253a.584.584 0 01-.442-.2.6.6 0 01.055-.835c1.038-.917 2.13-1.8 3.244-2.621a.583.583 0 01.82.127.594.594 0 01-.127.827 46.38 46.38 0 00-3.164 2.557.582.582 0 01-.386.143zm57.211-3.893a.577.577 0 01-.324-.1 46.698 46.698 0 00-3.476-2.107.6.6 0 01-.236-.8.587.587 0 01.8-.237 48.158 48.158 0 013.563 2.16.6.6 0 01.166.82.586.586 0 01-.493.262zm-50.593-1a.587.587 0 01-.5-.284.6.6 0 01.2-.813 48.245 48.245 0 013.643-2.017.584.584 0 01.786.268.594.594 0 01-.266.793c-1.207.6-2.4 1.263-3.553 1.968a.586.586 0 01-.31.087zm43.381-2.954a.573.573 0 01-.234-.05 46.039 46.039 0 00-3.786-1.466.592.592 0 01.372-1.123c1.312.443 2.618.948 3.883 1.5a.6.6 0 01.3.779.588.588 0 01-.535.362zm-36.028-.707a.585.585 0 01-.546-.377.592.592 0 01.333-.766 47.818 47.818 0 013.936-1.35.584.584 0 01.728.4.593.593 0 01-.4.733 45.7 45.7 0 00-3.838 1.316.592.592 0 01-.213.046zm28.248-1.921a.591.591 0 01-.138-.016 46.236 46.236 0 00-3.98-.78.592.592 0 01.174-1.171c1.367.206 2.739.476 4.08.8a.592.592 0 01-.136 1.169zm-20.373-.4a.592.592 0 01-.114-1.172 48.165 48.165 0 014.108-.639.592.592 0 01.129 1.177 46.678 46.678 0 00-4.008.623.567.567 0 01-.114.016zm12.259-.826h-.036a47.314 47.314 0 00-4.055-.078.6.6 0 01-.6-.578.59.59 0 01.573-.605 48.415 48.415 0 014.155.079.592.592 0 01-.037 1.187zm-4.735 83.321h-.029a35.7 35.7 0 01-4.149-.448.59.59 0 01-.483-.68.582.582 0 01.675-.487 34.707 34.707 0 004.014.433.592.592 0 01-.028 1.187zm4.1-.032a.592.592 0 01-.038-1.183 35.065 35.065 0 004.006-.5.592.592 0 01.211 1.165 36.037 36.037 0 01-4.14.514zm-12.19-1.321a.622.622 0 01-.163-.023 35.7 35.7 0 01-3.937-1.4.593.593 0 01-.313-.775.585.585 0 01.768-.317 34.464 34.464 0 003.812 1.363.593.593 0 01-.163 1.157zm20.252-.165a.592.592 0 01-.171-1.157 34.984 34.984 0 003.786-1.411.583.583 0 01.773.3.593.593 0 01-.3.779 35.871 35.871 0 01-3.913 1.464.57.57 0 01-.171.03zm-27.814-3.035a.582.582 0 01-.288-.077 36.1 36.1 0 01-3.51-2.277.594.594 0 01-.129-.826.583.583 0 01.82-.13 35.365 35.365 0 003.4 2.2.6.6 0 01.223.806.586.586 0 01-.512.309zm35.318-.285a.588.588 0 01-.507-.293.594.594 0 01.21-.809 34.982 34.982 0 003.359-2.256.582.582 0 01.822.117.593.593 0 01-.116.828 36.023 36.023 0 01-3.472 2.331.571.571 0 01-.292.087zm-41.944-4.581a.582.582 0 01-.4-.157 36.463 36.463 0 01-2.9-3.024.594.594 0 01.061-.834.582.582 0 01.828.063 35.7 35.7 0 002.806 2.925.594.594 0 01.034.836.581.581 0 01-.425.196zM416.44 978a.579.579 0 01-.425-.184.594.594 0 01.021-.836 35.444 35.444 0 002.761-2.971.583.583 0 01.826-.075.594.594 0 01.075.833 36.837 36.837 0 01-2.853 3.071.586.586 0 01-.405.162zm-53.84-5.87a.588.588 0 01-.487-.259 36.793 36.793 0 01-2.137-3.612.6.6 0 01.25-.8.585.585 0 01.791.252 35.638 35.638 0 002.068 3.5.593.593 0 01-.157.821.579.579 0 01-.328.098zm59.09-.474a.577.577 0 01-.321-.1.594.594 0 01-.17-.819 35.334 35.334 0 002.013-3.53.584.584 0 01.788-.264.594.594 0 01.262.794 36.578 36.578 0 01-2.081 3.648.584.584 0 01-.49.271zm-62.873-6.856a.587.587 0 01-.549-.381 36.653 36.653 0 01-1.254-4.013.587.587 0 111.138-.29 35.415 35.415 0 001.213 3.884.591.591 0 01-.34.763.564.564 0 01-.208.037zm66.541-.539a.581.581 0 01-.2-.035.593.593 0 01-.352-.758 35.169 35.169 0 001.151-3.9.587.587 0 111.143.27 36.364 36.364 0 01-1.19 4.035.589.589 0 01-.552.389zm-68.546-7.474a.588.588 0 01-.581-.514 36.944 36.944 0 01-.3-4.194.59.59 0 01.578-.6h.009a.59.59 0 01.587.583 35.474 35.474 0 00.294 4.058.591.591 0 01-.5.664.691.691 0 01-.087.004zm70.422-.572h-.067a.591.591 0 01-.516-.655 36.278 36.278 0 00.23-4.065c0-.381-.006-.761-.018-1.137a.587.587 0 111.173-.038c.013.391.019.782.018 1.176a37.477 37.477 0 01-.237 4.2.589.589 0 01-.583.52zm-70.551-7.688h-.059a.591.591 0 01-.526-.647 36.881 36.881 0 01.65-4.156.587.587 0 111.147.252 35.606 35.606 0 00-.629 4.02.589.589 0 01-.583.532zm70.4-1.722a.589.589 0 01-.581-.5 35.332 35.332 0 00-.821-3.985.591.591 0 01.414-.725.585.585 0 01.719.417 36.577 36.577 0 01.85 4.12.591.591 0 01-.5.671.633.633 0 01-.08.003zm-68.656-6.354a.58.58 0 01-.191-.032.592.592 0 01-.364-.752 36.439 36.439 0 011.585-3.895.583.583 0 01.783-.277.6.6 0 01.275.79 35.3 35.3 0 00-1.534 3.767.588.588 0 01-.553.4zm66.523-1.623a.588.588 0 01-.545-.373 35.122 35.122 0 00-1.711-3.683.594.594 0 01.237-.8.585.585 0 01.8.238 36.5 36.5 0 011.768 3.808.592.592 0 01-.327.769.576.576 0 01-.221.042zM361.976 933a.578.578 0 01-.313-.092.594.594 0 01-.183-.816 36.356 36.356 0 012.43-3.421.583.583 0 01.825-.089.6.6 0 01.089.832 35.26 35.26 0 00-2.352 3.31.583.583 0 01-.496.276zm59.077-1.436a.583.583 0 01-.481-.252 35.61 35.61 0 00-2.506-3.192.6.6 0 01.048-.834.583.583 0 01.829.048 36.372 36.372 0 012.589 3.3.593.593 0 01-.143.823.572.572 0 01-.336.107zm-53.928-5a.583.583 0 01-.418-.177.6.6 0 01.006-.837 36.633 36.633 0 013.14-2.771.584.584 0 01.824.1.6.6 0 01-.1.831 35.233 35.233 0 00-3.037 2.681.587.587 0 01-.415.177zm48.48-1.178a.58.58 0 01-.391-.15 35.539 35.539 0 00-3.163-2.533.593.593 0 01-.142-.823.584.584 0 01.818-.144 36.6 36.6 0 013.273 2.621.594.594 0 01.048.835.581.581 0 01-.443.198zm-42.012-3.9a.583.583 0 01-.5-.285.594.594 0 01.2-.812 36.1 36.1 0 013.684-1.973.587.587 0 01.778.292.594.594 0 01-.288.785 34.539 34.539 0 00-3.564 1.907.588.588 0 01-.31.093zm35.307-.86a.569.569 0 01-.28-.073 34.636 34.636 0 00-3.655-1.731.594.594 0 01-.326-.77.584.584 0 01.763-.329 36.014 36.014 0 013.779 1.791.594.594 0 01.235.8.586.586 0 01-.516.319zm-27.858-2.582a.592.592 0 01-.181-1.155 35.516 35.516 0 014.038-1.061.591.591 0 01.229 1.16 34.55 34.55 0 00-3.9 1.027.575.575 0 01-.186.036zm20.248-.494a.6.6 0 01-.155-.021 34.79 34.79 0 00-3.951-.834.591.591 0 01.174-1.17 35.889 35.889 0 014.085.862.592.592 0 01-.153 1.17zm-12.212-1.123a.592.592 0 01-.047-1.181 35.773 35.773 0 012.947-.121c.424-.009.818.006 1.225.02a.591.591 0 01.566.612.585.585 0 01-.605.571c-.394-.013-.771-.008-1.186-.02-.948 0-1.908.04-2.852.117z" transform="translate(-332 -891)"/></svg><svg viewBox="0 0 65 52" id="decor--info-right" xmlns="http://www.w3.org/2000/svg"><defs><style>.gcls-1{fill:#fe3e57;fill-rule:evenodd}</style></defs><path id="gShape_2" class="gcls-1" d="M1505.75 1203a1.735 1.735 0 11-1.75 1.73 1.741 1.741 0 011.75-1.73zm12.3 0a1.735 1.735 0 11-1.77 1.73 1.75 1.75 0 011.77-1.73zm12.29 0a1.735 1.735 0 11-1.75 1.73 1.741 1.741 0 011.75-1.73zm12.32 0a1.735 1.735 0 11-1.75 1.73 1.748 1.748 0 011.75-1.73zm12.29 0a1.735 1.735 0 11-1.76 1.73 1.752 1.752 0 011.76-1.73zm12.3 0a1.735 1.735 0 11-1.75 1.73 1.741 1.741 0 011.75-1.73zm-61.5 12.12a1.735 1.735 0 11-1.75 1.74 1.743 1.743 0 011.75-1.74zm12.3 0a1.735 1.735 0 11-1.77 1.74 1.752 1.752 0 011.77-1.74zm12.29 0a1.735 1.735 0 11-1.75 1.74 1.743 1.743 0 011.75-1.74zm12.32 0a1.735 1.735 0 11-1.75 1.74 1.75 1.75 0 011.75-1.74zm12.29 0a1.735 1.735 0 11-1.76 1.74 1.754 1.754 0 011.76-1.74zm12.3 0a1.735 1.735 0 11-1.75 1.74 1.743 1.743 0 011.75-1.74zm-61.5 12.16a1.72 1.72 0 11-1.75 1.72 1.733 1.733 0 011.75-1.72zm12.3 0a1.721 1.721 0 11-1.77 1.72 1.742 1.742 0 011.77-1.72zm12.29 0a1.72 1.72 0 11-1.75 1.72 1.733 1.733 0 011.75-1.72zm12.32 0a1.72 1.72 0 11-1.75 1.72 1.739 1.739 0 011.75-1.72zm12.29 0a1.72 1.72 0 11-1.76 1.72 1.744 1.744 0 011.76-1.72zm12.3 0a1.72 1.72 0 11-1.75 1.72 1.733 1.733 0 011.75-1.72zm-61.5 12.13a1.73 1.73 0 11-1.75 1.73 1.735 1.735 0 011.75-1.73zm12.3 0a1.73 1.73 0 11-1.77 1.73 1.744 1.744 0 011.77-1.73zm12.29 0a1.73 1.73 0 11-1.75 1.73 1.735 1.735 0 011.75-1.73zm12.32 0a1.73 1.73 0 11-1.75 1.73 1.741 1.741 0 011.75-1.73zm12.29 0a1.73 1.73 0 11-1.76 1.73 1.746 1.746 0 011.76-1.73zm12.3 0a1.73 1.73 0 11-1.75 1.73 1.735 1.735 0 011.75-1.73zm-61.5 12.12a1.735 1.735 0 11-1.75 1.74 1.743 1.743 0 011.75-1.74zm12.3 0a1.735 1.735 0 11-1.77 1.74 1.752 1.752 0 011.77-1.74zm12.29 0a1.735 1.735 0 11-1.75 1.74 1.743 1.743 0 011.75-1.74zm12.32 0a1.735 1.735 0 11-1.75 1.74 1.75 1.75 0 011.75-1.74zm12.29 0a1.735 1.735 0 11-1.76 1.74 1.754 1.754 0 011.76-1.74zm12.3 0a1.735 1.735 0 11-1.75 1.74 1.743 1.743 0 011.75-1.74z" transform="translate(-1504 -1203)"/></svg><svg viewBox="0 0 22 20" id="icon--cart"><path class="hcls-1" d="M17.44 20a2.724 2.724 0 112.74-2.724A2.738 2.738 0 0117.44 20zm0-3.814a1.09 1.09 0 101.09 1.09 1.094 1.094 0 00-1.09-1.093zm1.75-2.806H6.38a.823.823 0 01-.8-.628L2.9 1.637H.84a.817.817 0 110-1.634h2.71a.824.824 0 01.8.627l.74 3.078h16.1a.818.818 0 01.8 1.014l-2 8.038a.822.822 0 01-.8.617zM7.03 11.745h11.52l1.59-6.4H5.49zM7.48 20a2.724 2.724 0 112.74-2.724A2.738 2.738 0 017.48 20zm0-3.814a1.09 1.09 0 101.09 1.09 1.094 1.094 0 00-1.09-1.093z"/></svg><svg viewBox="0 0 10 16" id="icon--facebook"><path d="M8.723 9l.445-2.895H6.391V4.227c0-.793.386-1.567 1.632-1.567h1.262V.195S8.137 0 7.043 0c-2.29 0-3.785 1.387-3.785 3.898v2.207H.715V9h2.543v7H6.39V9zm0 0"/></svg><svg viewBox="0 0 15 15" id="icon--google"><path d="M15 7.672c0 4.144-2.977 7.094-7.379 7.094C3.406 14.766 0 11.52 0 7.5S3.406.234 7.621.234c2.055 0 3.781.72 5.113 1.903L10.66 4.039C7.945 1.54 2.898 3.414 2.898 7.5c0 2.535 2.125 4.586 4.723 4.586 3.02 0 4.152-2.059 4.328-3.129H7.621v-2.5h7.258c.07.371.121.73.121 1.215zm0 0"/></svg><svg viewBox="0 0 20 20" id="icon--heart"><path class="kcls-1" d="M19.75 4.589A6.683 6.683 0 0015.58.218c-1.71-.595-3.75 0-5.58 1.611C8.17.26 6.12-.293 4.42.26A6.884 6.884 0 00.25 4.631c-.47 1.57-.51 4.117 1.95 7.215 1.11 1.4 2.82 3.4 4.22 4.965 2.68 3.014 3.11 3.183 3.49 3.183h.17c.39 0 .77-.168 3.45-3.224a224.86 224.86 0 004.22-4.966c2.47-3.098 2.47-5.645 2-7.215zm-3.28 6.2c-1.96 2.462-5.32 6.324-6.47 7.385-1.15-1.061-4.52-4.924-6.48-7.385-1.61-1.994-2.21-3.947-1.7-5.687a4.986 4.986 0 013.11-3.225c1.23-.467 2.9.169 4.43 1.655a.84.84 0 001.06.126.447.447 0 00.22-.17c1.53-1.443 3.19-2.079 4.42-1.655a5.168 5.168 0 013.11 3.268c.51 1.699-.08 3.689-1.7 5.683z"/></svg><svg viewBox="0 0 14 16" id="icon--linkedin"><path d="M3.133 14H.23V4.652h2.903zM1.68 3.379c-.926 0-1.68-.77-1.68-1.7a1.682 1.682 0 013.363 0c0 .93-.754 1.7-1.683 1.7zM13.996 14h-2.894V9.45c0-1.083-.024-2.473-1.512-2.473-1.508 0-1.738 1.175-1.738 2.394V14H4.953V4.652h2.781V5.93h.043c.387-.735 1.332-1.512 2.746-1.512 2.938 0 3.477 1.934 3.477 4.45V14zm0 0"/></svg><svg viewBox="0 0 12 16" id="icon--pinterest"><path d="M6.375.203C3.168.203 0 2.34 0 5.801 0 8 1.238 9.25 1.988 9.25c.309 0 .489-.863.489-1.105 0-.293-.743-.91-.743-2.122 0-2.511 1.914-4.293 4.387-4.293 2.129 0 3.703 1.211 3.703 3.434 0 1.656-.664 4.77-2.82 4.77-.777 0-1.445-.563-1.445-1.368 0-1.183.824-2.324.824-3.543 0-2.07-2.934-1.695-2.934.805 0 .524.067 1.106.301 1.586-.43 1.856-1.313 4.621-1.313 6.531 0 .594.086 1.172.141 1.766.106.117.055.105.215.047 1.574-2.156 1.52-2.578 2.23-5.403.387.73 1.38 1.125 2.168 1.125C10.508 11.48 12 8.246 12 5.332 12 2.227 9.32.203 6.375.203zm0 0"/></svg><svg viewBox="0 0 60 60" id="icon--return"><path fill-rule="evenodd" fill="#34C3FF" d="M0 0h60v60H0V0z"/><path fill-rule="evenodd" fill="#FFF" d="M25.707 30.72c0 .704-.657 1.114-1.611 1.114-.547 0-1.002-.133-1.243-.288l.214-.77c.147.072.553.244.947.244.356 0 .608-.106.608-.366 0-.266-.301-.41-.624-.41h-.46v-.737h.443c.241 0 .554-.078.554-.31 0-.172-.176-.288-.51-.288-.345 0-.717.155-.86.233l-.219-.743c.252-.155.751-.299 1.309-.299.822 0 1.332.388 1.332.925 0 .388-.214.687-.696.842v.011c.444.055.816.377.816.842zm1.977 1.114c-1.068 0-1.495-.881-1.495-1.867 0-.981.427-1.867 1.501-1.867 1.074 0 1.501.886 1.501 1.867 0 .986-.427 1.867-1.501 1.867h-.006zm.477-1.867c0-.765-.186-1.108-.471-1.108s-.471.343-.471 1.108c0 .764.186 1.113.471 1.113h.005c.28 0 .466-.349.466-1.113zm3.813 1.845c-.548 0-.893-.033-1.096-.066v-3.663A8.987 8.987 0 0132.176 28c.778 0 1.255.116 1.66.377.433.276.734.731.734 1.413 0 .775-.318 1.246-.679 1.524-.455.348-1.14.498-1.917.498zm.301-3.02c-.192 0-.307.017-.362.028v2.177c.061.012.165.012.241.012.756.011 1.31-.349 1.31-1.164 0-.742-.521-1.053-1.189-1.053zm3.862.876c-.302 0-.641.116-.817.215l-.18-.653c.175-.094.575-.255 1.177-.255.926 0 1.321.471 1.321 1.202v.915c0 .288.016.553.044.676h-.932l-.055-.233h-.021c-.198.222-.483.299-.789.299-.592 0-.943-.415-.943-.858 0-.732.647-1.07 1.666-1.07v-.017c0-.099-.066-.221-.471-.221zm-.17 1.207c0 .156.104.245.296.245a.4.4 0 00.367-.283c.011-.045.011-.1.011-.15v-.149c-.455 0-.674.116-.674.337zm1.961-1.834h1.156l.356 1.181c.044.155.098.376.137.509h.022c.038-.144.082-.365.115-.509l.268-1.181h1.129l-.57 1.557c-.499 1.38-.794 1.774-1.09 2.018-.329.271-.68.36-.97.382l-.192-.875a1.33 1.33 0 00.335-.078.913.913 0 00.35-.244.216.216 0 00.055-.128.37.37 0 00-.044-.16l-1.057-2.472zm3.764-4.322l-4.234-.312.106-1.467 1.851.137a10.831 10.831 0 00-8.057-3.607c-6.012 0-10.904 4.947-10.904 11.028 0 6.082 4.892 11.03 10.904 11.03 3.636 0 7.021-1.83 9.058-4.896l1.207.821c-2.307 3.473-6.144 5.546-10.265 5.546C24.544 42.999 19 37.392 19 30.498c0-6.892 5.544-12.5 12.358-12.5 3.474 0 6.746 1.474 9.07 4.018l.121-1.685 1.451.107-.308 4.281z"/></svg><svg viewBox="0 0 20 20" id="icon--search"><path class="ocls-1" d="M19.89 18.7l-5.81-5.81a7.944 7.944 0 10-1.18 1.178l5.81 5.81a.417.417 0 00.59 0l.59-.589a.421.421 0 000-.589zM7.93 14.167a6.25 6.25 0 116.25-6.25 6.254 6.254 0 01-6.25 6.246z"/></svg><svg viewBox="0 0 60 60" id="icon--shipping"><path fill-rule="evenodd" fill="#FFB534" d="M0 0h60v60H0V0z"/><path fill-rule="evenodd" fill="#FFF" d="M36.011 35.162c.346 0 .626.277.626.619 0 .342-.28.619-.626.619h-9.354a.623.623 0 01-.626-.619c0-.342.281-.619.626-.619h9.354zm-10.69-4.043a.63.63 0 01-.443-.182l-3.34-3.3a.614.614 0 010-.876.631.631 0 01.886 0l2.897 2.864 5.57-5.504a.631.631 0 01.886 0 .613.613 0 010 .875l-6.013 5.941a.629.629 0 01-.443.182zm24.052 7.922h-2.048a.536.536 0 01.002.041c0 2.161-1.78 3.919-3.967 3.919-2.188 0-3.967-1.758-3.967-3.919l.001-.041H25.278a.536.536 0 01.002.041c0 2.161-1.78 3.919-3.967 3.919-2.188 0-3.967-1.758-3.967-3.919l.001-.041h-3.383a1.289 1.289 0 01-1.295-1.28V36.4h-2.046a.622.622 0 01-.626-.619c0-.342.28-.619.626-.619h6.013c.346 0 .626.277.626.619 0 .342-.28.619-.626.619h-2.714v1.361c0 .024.019.042.042.042h3.6a3.97 3.97 0 013.749-2.641 3.968 3.968 0 013.748 2.641h12.996V33.14c0-.341.28-.618.626-.618s.627.277.627.618v4.663h.301a3.97 3.97 0 013.749-2.641 3.97 3.97 0 013.749 2.641h1.637V35.08h-.71a1.953 1.953 0 01-1.962-1.94v-1.32c0-.342.28-.619.626-.619h1.948a2.048 2.048 0 00-1.946-1.403H39.31v.702a.623.623 0 01-.627.619.622.622 0 01-.626-.619V19.277a.042.042 0 00-.042-.041H13.964a.042.042 0 00-.042.041v11.222c0 .343-.281.62-.626.62a.623.623 0 01-.627-.62V19.277c0-.705.581-1.279 1.295-1.279h24.051c.714 0 1.295.574 1.295 1.279v1.362h4.718c1.45 0 2.631 1.166 2.631 2.6v.659a.622.622 0 01-.496.606l1.036 4.093c1.583.239 2.8 1.593 2.8 3.223v6.602c0 .341-.28.619-.626.619zM21.313 36.4c-1.497 0-2.714 1.203-2.714 2.682 0 1.479 1.217 2.681 2.714 2.681 1.496 0 2.714-1.202 2.714-2.681S22.809 36.4 21.313 36.4zm22.047 0c-1.497 0-2.714 1.203-2.714 2.682 0 1.479 1.217 2.681 2.714 2.681 1.496 0 2.714-1.202 2.714-2.681S44.856 36.4 43.36 36.4zm2.046-13.161a1.37 1.37 0 00-1.378-1.362H39.31v1.402h6.096v-.04zm-.531 1.278H39.31v4.044h6.588l-1.023-4.044zm3.871 7.922h-1.419v.701c0 .387.318.702.709.702h.71v-1.403zm-5.386 7.922a1.289 1.289 0 01-1.295-1.279c0-.706.581-1.279 1.295-1.279s1.294.573 1.294 1.279c0 .705-.58 1.279-1.294 1.279zm-22.047 0a1.289 1.289 0 01-1.295-1.279c0-.706.581-1.279 1.295-1.279s1.294.573 1.294 1.279c0 .705-.58 1.279-1.294 1.279zm-.71-7.221c0 .342-.281.62-.626.62h-8.018a.623.623 0 01-.626-.62c0-.341.28-.618.626-.618h8.018c.345 0 .626.277.626.618z"/></svg><svg viewBox="0 0 60 60" id="icon--support"><path fill-rule="evenodd" fill="#FE3E57" d="M0 0h60v60H0V0z"/><path fill-rule="evenodd" fill="#FFF" d="M42.495 32.209l-4.149 4.765a3.36 3.36 0 01-.652.579l-.017.01c-.676.422-1.525.636-2.526.636h-6.156c-.424 0-.852.023-1.274.072l-.696.076.304.289a.492.492 0 01.01.71l-3.493 3.5a.521.521 0 01-.719.013l-5.966-5.546a.489.489 0 01-.015-.708l3.527-3.576a.525.525 0 01.366-.153h.004c.133 0 .262.051.358.142l.725.688a7.264 7.264 0 011.322-1.387c1.484-1.182 3.24-1.545 5.078-1.048.705.19 1.449.286 2.212.286h4.046c.589 0 1.109.227 1.464.64.073.084.139.175.196.271l2.89-2.792a2.107 2.107 0 011.598-.594 2.387 2.387 0 011.452.594c.776.7.821 1.717.111 2.533zm-21.44 1.873l-2.816 2.854 5.227 4.86 2.785-2.79-5.196-4.924zm20.636-3.671c-.416-.375-1.16-.491-1.635-.027l-3.329 3.217c-.015.48-.184.93-.482 1.272-.358.411-.882.638-1.477.638h-3.522a.505.505 0 01-.512-.5c0-.275.229-.499.512-.499h3.522c.298 0 .532-.096.697-.286.153-.174.24-.427.24-.693 0-.362-.194-.977-.921-.977h-4.046a9.551 9.551 0 01-2.485-.323c-1.526-.413-2.925-.123-4.158.86a6.274 6.274 0 00-1.225 1.316l3.205 3.037 1.53-.168a12.4 12.4 0 011.39-.078h6.156c.798 0 1.46-.159 1.967-.472.166-.114.317-.249.449-.4l4.148-4.766c.48-.55.191-.958-.024-1.151zm-12.416 5.088a.51.51 0 01-.615-.372l-.005-.021a.499.499 0 01.382-.599.511.511 0 01.614.372l.005.02a.499.499 0 01-.381.6zm9.04-6.966h-4.983c-.272 0-.523-.085-.727-.232a1.237 1.237 0 01-.726.232h-4.983c-.272 0-.523-.085-.727-.232a1.242 1.242 0 01-.727.232h-4.983c-.682 0-1.238-.542-1.238-1.209v-2.268a2.61 2.61 0 011.459-2.341 2.826 2.826 0 01-.679-1.837c0-1.587 1.323-2.88 2.949-2.88 1.627 0 2.95 1.293 2.95 2.88 0 .698-.255 1.338-.678 1.836.377.189.701.462.947.793.245-.331.569-.604.947-.792a2.826 2.826 0 01-.679-1.837c0-1.587 1.323-2.88 2.95-2.88 1.626 0 2.95 1.293 2.95 2.88 0 .698-.255 1.338-.679 1.836.378.189.701.462.947.793.246-.331.569-.604.947-.793a2.822 2.822 0 01-.679-1.836c0-1.587 1.324-2.88 2.95-2.88 1.627 0 2.95 1.293 2.95 2.88 0 .698-.255 1.338-.679 1.836a2.611 2.611 0 011.459 2.341v2.269c0 .667-.556 1.209-1.238 1.209zm-15.364-9.536c-1.063 0-1.927.844-1.927 1.881 0 1.038.864 1.882 1.927 1.882 1.062 0 1.927-.844 1.927-1.882 0-1.037-.865-1.881-1.927-1.881zm2.707 6.058c0-.802-.584-1.471-1.379-1.606a3 3 0 01-2.657 0 1.634 1.634 0 00-1.378 1.606v2.269c0 .116.096.211.215.211h4.983a.214.214 0 00.216-.211v-2.269zm3.729-6.058c-1.063 0-1.927.844-1.927 1.881 0 1.038.864 1.882 1.927 1.882 1.063 0 1.927-.844 1.927-1.882 0-1.037-.864-1.881-1.927-1.881zm2.707 6.058c0-.802-.584-1.471-1.379-1.606a2.993 2.993 0 01-2.656 0 1.634 1.634 0 00-1.379 1.606v2.269c0 .116.097.211.216.211h4.983a.214.214 0 00.215-.211v-2.269zm3.729-6.058c-1.062 0-1.927.844-1.927 1.881 0 1.038.865 1.882 1.927 1.882 1.063 0 1.927-.844 1.927-1.882 0-1.037-.864-1.881-1.927-1.881zm2.707 6.058c0-.802-.584-1.471-1.378-1.606a3 3 0 01-2.657 0 1.632 1.632 0 00-1.378 1.606v2.269c0 .116.096.211.215.211h4.983a.214.214 0 00.215-.211v-2.269z"/></svg><svg viewBox="0 0 16 16" id="icon--twitter"><path d="M14.355 4.742c.012.14.012.285.012.426 0 4.336-3.3 9.328-9.332 9.328A9.266 9.266 0 010 13.027c.266.028.52.04.793.04 1.531 0 2.941-.52 4.07-1.403a3.286 3.286 0 01-3.066-2.273c.203.03.406.05.621.05.293 0 .586-.039.86-.113a3.278 3.278 0 01-2.63-3.215V6.07c.438.246.946.399 1.485.418a3.278 3.278 0 01-1.461-2.73c0-.61.16-1.168.445-1.656a9.315 9.315 0 006.762 3.43 3.676 3.676 0 01-.082-.75 3.277 3.277 0 013.277-3.278c.946 0 1.797.394 2.399 1.035a6.554 6.554 0 002.082-.793 3.285 3.285 0 01-1.442 1.809A6.67 6.67 0 0016 3.047a7.059 7.059 0 01-1.645 1.695zm0 0"/></svg><svg viewBox="0 0 20 20" id="icon--user"><path class="scls-1" d="M17.07 12.928a9.923 9.923 0 00-3.8-2.383 5.78 5.78 0 10-6.54 0A10.018 10.018 0 000 20h1.56a8.44 8.44 0 0116.88 0H20a9.931 9.931 0 00-2.93-7.072zM5.78 5.78A4.22 4.22 0 1110 10a4.222 4.222 0 01-4.22-4.22z"/></svg><svg id="icon--video-play" data-name="play btn" viewBox="0 0 130 130" xmlns="http://www.w3.org/2000/svg"><defs><style>.tcls-1,.tcls-2,.tcls-3{fill:#fe3e57}.tcls-1{opacity:.2}.tcls-2{opacity:.6}.tcls-4{fill:#fff;fill-rule:evenodd}</style></defs><circle id="tEllipse_7_copy_2" data-name="Ellipse 7 copy 2" class="tcls-1" cx="65" cy="65" r="65"/><circle id="tEllipse_7_copy" data-name="Ellipse 7 copy" class="tcls-2" cx="65" cy="65" r="55"/><circle class="tcls-3" cx="65" cy="65" r="45"/><path class="tcls-4" d="M649.816 2630.14l-11.824-7.6a2.934 2.934 0 00-1.554-.54 1.507 1.507 0 00-1.431 1.78v16.44a1.507 1.507 0 001.429 1.78 3 3 0 001.546-.54l11.83-7.6a2.056 2.056 0 000-3.72" transform="translate(-578 -2567)"/></svg></svg>